<svg width="31" height="24" viewBox="0 0 31 24" fill="none" xmlns="http://www.w3.org/2000/svg">
<path d="M6.25675 0C4.53828 0 3.26663 1.50412 3.32357 3.13529C3.37828 4.70235 3.30722 6.73212 2.79628 8.38729C2.28381 10.0473 1.41699 11.0988 0.0012207 11.2339V12.7581C1.41699 12.8932 2.28381 13.9447 2.79628 15.6048C3.30722 17.26 3.37828 19.2895 3.32357 20.8567C3.26663 22.4876 4.53828 23.992 6.25699 23.992H23.8656C25.5842 23.992 26.8555 22.4879 26.7985 20.8567C26.7439 19.2896 26.8149 17.26 27.3258 15.6048C27.8386 13.9448 28.7031 12.8931 30.1189 12.7581V11.2339C28.7031 11.0988 27.8386 10.0473 27.3259 8.38729C26.8149 6.73235 26.7439 4.70247 26.7985 3.13529C26.8555 1.50435 25.5842 0 23.8656 0H6.25651H6.25675ZM20.42 14.7686C20.42 17.0147 18.7448 18.3768 15.9645 18.3768H11.2316C11.0962 18.3768 10.9664 18.323 10.8707 18.2273C10.775 18.1315 10.7212 18.0017 10.7212 17.8664V6.12565C10.7212 6.0586 10.7344 5.99221 10.76 5.93026C10.7857 5.86832 10.8233 5.81203 10.8707 5.76461C10.9181 5.7172 10.9744 5.67959 11.0363 5.65393C11.0983 5.62827 11.1646 5.61506 11.2317 5.61506H15.9375C18.2557 5.61506 19.7771 6.87094 19.7771 8.79894C19.7771 10.1522 18.7536 11.3638 17.4497 11.5759V11.6466C19.2249 11.8413 20.42 13.0706 20.42 14.7686ZM15.4483 7.23329H12.7498V11.0451H15.0227C16.7797 11.0451 17.7486 10.3375 17.7486 9.07282C17.7486 7.88776 16.9155 7.23329 15.4484 7.23329H15.4483ZM12.7498 12.5575V16.7581H15.5477C17.3769 16.7581 18.346 16.0241 18.346 14.6446C18.346 13.2648 17.3499 12.5573 15.43 12.5573H12.7498V12.5575Z" fill="#7E13F8"/>
</svg>
