<svg width="25" height="24" viewBox="0 0 25 24" fill="none" xmlns="http://www.w3.org/2000/svg">
<path d="M21.87 7.67398C21.8772 7.34703 21.7947 7.02436 21.6315 6.74098C21.4602 6.46275 21.2179 6.23519 20.9295 6.08173C18.3325 4.64773 15.7342 3.21448 13.1347 1.78198C12.8213 1.59343 12.4618 1.49531 12.0961 1.49849C11.7303 1.50166 11.3726 1.60602 11.0625 1.79998C10.029 2.38423 4.85623 5.22373 3.31423 6.07948C3.02079 6.22688 2.77583 6.45541 2.60845 6.73792C2.44107 7.02044 2.3583 7.34506 2.36998 7.67323V16.3275C2.36241 16.647 2.44007 16.9629 2.59498 17.2425C2.76723 17.5287 3.01471 17.7622 3.31048 17.9175C4.85248 18.7732 10.026 21.6127 11.0595 22.197C11.3694 22.3912 11.7271 22.4958 12.0929 22.4992C12.4586 22.5027 12.8182 22.4048 13.1317 22.2165C15.7267 20.781 18.3232 19.3477 20.9212 17.9167C21.2171 17.7612 21.4647 17.5278 21.6375 17.2417C21.7924 16.9621 21.8701 16.6463 21.8625 16.3267V7.67398" fill="#4E994A"/>
<path d="M21.5317 17.3782C21.571 17.3348 21.6078 17.2892 21.642 17.2417C21.7969 16.9621 21.8746 16.6463 21.867 16.3267V7.67397C21.8742 7.34703 21.7917 7.02435 21.6285 6.74097C21.6015 6.69672 21.5617 6.66222 21.531 6.62097L12.12 12L21.5317 17.3782Z" fill="#358230"/>
<path d="M21.5318 17.3782L12.12 12L2.70825 17.3782C2.8674 17.6015 3.07478 17.7861 3.315 17.9183C4.857 18.774 10.0305 21.6135 11.064 22.1978C11.374 22.3919 11.7316 22.4966 12.0974 22.5C12.4631 22.5034 12.8227 22.4056 13.1363 22.2172C15.7313 20.7817 18.3278 19.3485 20.9258 17.9175C21.1657 17.7856 21.3728 17.6012 21.5318 17.3782Z" fill="#1A7515"/>
<path d="M14.82 13.515C14.4859 14.1092 13.9648 14.5762 13.3377 14.8434C12.7107 15.1107 12.0128 15.1631 11.3529 14.9926C10.6929 14.8221 10.1078 14.4382 9.68867 13.9007C9.26951 13.3632 9.03981 12.7022 9.03531 12.0205C9.0308 11.3389 9.25175 10.6749 9.66377 10.1319C10.0758 9.58889 10.6558 9.1973 11.3134 9.0181C11.9711 8.83889 12.6695 8.88212 13.3001 9.14105C13.9306 9.39998 14.4579 9.86009 14.7998 10.4498L17.511 8.89501C16.8228 7.71398 15.7654 6.79198 14.5017 6.27104C13.2379 5.75009 11.838 5.65911 10.5174 6.01209C9.19688 6.36508 8.02902 7.14246 7.19375 8.22447C6.35849 9.30649 5.90214 10.6331 5.89502 12C5.89367 13.0839 6.17824 14.149 6.72002 15.0878C7.26865 16.036 8.05725 16.823 9.00655 17.3698C9.95584 17.9165 11.0323 18.2037 12.1278 18.2024C13.2233 18.2011 14.2991 17.9114 15.2471 17.3624C16.1951 16.8134 16.9819 16.0245 17.5283 15.075L14.82 13.515Z" fill="white"/>
<path d="M20.8725 11.4533V10.5248H20.1172V9.77026H19.188V10.5248H18.057V9.77026H17.1277V10.5248H16.3717V11.4533H17.1262V12.588H16.3717V13.5158H17.1262V14.2703H18.0555V13.5158H19.1872V14.2703H20.1165V13.5158H20.871V12.588H20.121V11.4533H20.8725ZM19.188 12.588H18.057V11.4533H19.188V12.588Z" fill="white"/>
</svg>
