<svg width="25" height="24" viewBox="0 0 25 24" fill="none" xmlns="http://www.w3.org/2000/svg">
<path d="M4.54644 20.4007L2.86194 1.5H21.3779L19.6912 20.3978L12.1087 22.5L4.54644 20.4007Z" fill="#1572B6"/>
<path d="M12.12 20.8935L18.2475 19.1948L19.689 3.04578H12.12V20.8935Z" fill="#33A9DC"/>
<path d="M12.12 9.89323H15.1875L15.399 7.51948H12.12V5.20123H17.9325L17.877 5.82298L17.3077 12.2115H12.12V9.89323Z" fill="white"/>
<path d="M12.1343 15.9135L12.1238 15.9165L9.5423 15.219L9.3773 13.3702H7.05005L7.3748 17.01L12.123 18.3285L12.1343 18.3255V15.9135Z" fill="#EBEBEB"/>
<path d="M14.9902 12.1132L14.7112 15.2175L12.126 15.915V18.327L16.878 17.01L16.9132 16.6185L17.316 12.1132H14.9902Z" fill="white"/>
<path d="M12.1283 5.20123V7.51948H6.5288L6.4823 6.99823L6.37655 5.82298L6.32104 5.20123H12.1283ZM12.12 9.89323V12.2115H9.5708L9.52429 11.6902L9.4193 10.515L9.3638 9.89323H12.12Z" fill="#EBEBEB"/>
</svg>
