<svg width="25" height="24" viewBox="0 0 25 24" fill="none" xmlns="http://www.w3.org/2000/svg">
<path d="M8.12 24C10.328 24 12.12 22.208 12.12 20V16H8.12C5.912 16 4.12 17.792 4.12 20C4.12 22.208 5.912 24 8.12 24Z" fill="#0ACF83"/>
<path d="M4.12 12C4.12 9.792 5.912 8 8.12 8H12.12V16H8.12C5.912 16 4.12 14.208 4.12 12Z" fill="#A259FF"/>
<path d="M4.12 4C4.12 1.792 5.912 0 8.12 0H12.12V8H8.12C5.912 8 4.12 6.208 4.12 4Z" fill="#F24E1E"/>
<path d="M12.12 0H16.12C18.328 0 20.12 1.792 20.12 4C20.12 6.208 18.328 8 16.12 8H12.12V0Z" fill="#FF7262"/>
<path d="M20.12 12C20.12 14.208 18.328 16 16.12 16C13.912 16 12.12 14.208 12.12 12C12.12 9.792 13.912 8 16.12 8C18.328 8 20.12 9.792 20.12 12Z" fill="#1ABCFE"/>
</svg>
