<svg width="25" height="24" viewBox="0 0 25 24" fill="none" xmlns="http://www.w3.org/2000/svg">
<path d="M22.224 11.0648L13.0552 1.89603C12.9298 1.77017 12.7808 1.67031 12.6167 1.60217C12.4526 1.53404 12.2766 1.49896 12.099 1.49896C11.9213 1.49896 11.7454 1.53404 11.5813 1.60217C11.4172 1.67031 11.2681 1.77017 11.1427 1.89603L9.23847 3.80028L11.6535 6.21528C11.9383 6.11836 12.2445 6.10339 12.5374 6.17207C12.8303 6.24076 13.098 6.39032 13.31 6.60374C13.522 6.81715 13.6698 7.08583 13.7365 7.37915C13.8033 7.67247 13.7863 7.97864 13.6875 8.26278L16.0125 10.5878C16.36 10.4684 16.738 10.4717 17.0833 10.5971C17.4287 10.7226 17.7207 10.9626 17.9106 11.2772C18.1005 11.5918 18.1769 11.9619 18.127 12.326C18.0772 12.6901 17.904 13.026 17.6365 13.278C17.369 13.5299 17.0232 13.6825 16.6568 13.7104C16.2904 13.7384 15.9255 13.6399 15.6229 13.4314C15.3203 13.2229 15.0982 12.9171 14.9937 12.5648C14.8893 12.2125 14.9087 11.835 15.0487 11.4953L12.8775 9.32403V15.0368C13.2064 15.1997 13.4695 15.4705 13.6231 15.8039C13.7766 16.1373 13.8113 16.5132 13.7214 16.8691C13.6314 17.225 13.4223 17.5393 13.1287 17.7597C12.8352 17.9801 12.475 18.0933 12.1082 18.0804C11.7413 18.0675 11.39 17.9293 11.1127 17.6888C10.8353 17.4484 10.6487 17.1201 10.584 16.7588C10.5193 16.3975 10.5803 16.0249 10.7568 15.7031C10.9334 15.3813 11.2149 15.1297 11.5545 14.9903V9.22503C11.358 9.14443 11.1795 9.02577 11.0291 8.87588C10.8788 8.72598 10.7595 8.54782 10.6783 8.35164C10.5971 8.15547 10.5555 7.94516 10.5559 7.73284C10.5563 7.52052 10.5987 7.31038 10.6807 7.11453L8.30322 4.73553L2.01597 11.025C1.89 11.1505 1.79005 11.2995 1.72184 11.4637C1.65364 11.6279 1.61853 11.8039 1.61853 11.9817C1.61853 12.1594 1.65364 12.3354 1.72184 12.4996C1.79005 12.6638 1.89 12.8128 2.01597 12.9383L11.1847 22.104C11.3101 22.2299 11.4592 22.3297 11.6233 22.3979C11.7874 22.466 11.9633 22.5011 12.141 22.5011C12.3186 22.5011 12.4946 22.466 12.6587 22.3979C12.8228 22.3297 12.9718 22.2299 13.0972 22.104L22.224 12.975C22.3499 12.8496 22.4499 12.7005 22.5181 12.5364C22.5863 12.3722 22.6214 12.1962 22.6214 12.0184C22.6214 11.8406 22.5863 11.6646 22.5181 11.5005C22.4499 11.3363 22.3499 11.1872 22.224 11.0618" fill="#DD4C35"/>
<path d="M9.23847 3.80023L11.6535 6.21523C11.9383 6.11832 12.2445 6.10335 12.5374 6.17203C12.8303 6.24071 13.098 6.39028 13.31 6.60369C13.522 6.81711 13.6698 7.08578 13.7365 7.3791C13.8033 7.67243 13.7863 7.9786 13.6875 8.26273L16.0125 10.5877C16.36 10.4683 16.738 10.4716 17.0833 10.5971C17.4287 10.7225 17.7207 10.9625 17.9106 11.2771C18.1005 11.5917 18.1769 11.9619 18.127 12.326C18.0772 12.69 17.904 13.026 17.6365 13.2779C17.369 13.5298 17.0232 13.6825 16.6568 13.7104C16.2904 13.7383 15.9255 13.6398 15.6229 13.4314C15.3203 13.2229 15.0982 12.917 14.9937 12.5647C14.8893 12.2124 14.9087 11.835 15.0487 11.4952L12.8775 9.32398V15.0367C13.2064 15.1997 13.4695 15.4704 13.6231 15.8038C13.7766 16.1372 13.8113 16.5132 13.7214 16.8691C13.6314 17.2249 13.4223 17.5392 13.1287 17.7596C12.8352 17.98 12.475 18.0932 12.1082 18.0803C11.7413 18.0674 11.39 17.9292 11.1127 17.6888C10.8353 17.4483 10.6488 17.1201 10.584 16.7588C10.5193 16.3975 10.5803 16.0249 10.7568 15.7031C10.9334 15.3813 11.2149 15.1297 11.5545 14.9902V9.22498C11.358 9.14439 11.1795 9.02573 11.0291 8.87583C10.8788 8.72594 10.7595 8.54777 10.6783 8.3516C10.5971 8.15542 10.5555 7.94512 10.5559 7.7328C10.5563 7.52048 10.5987 7.31034 10.6807 7.11448L8.30322 4.73548" fill="white"/>
</svg>
