<svg width="25" height="24" viewBox="0 0 25 24" fill="none" xmlns="http://www.w3.org/2000/svg">
<path d="M4.54646 20.4007L2.86121 1.5H21.3787L19.6912 20.3978L12.1087 22.5L4.54646 20.4007Z" fill="#E44F26"/>
<path d="M12.12 20.8935L18.2475 19.1948L19.689 3.04578H12.12V20.8935Z" fill="#F1662A"/>
<path d="M12.12 10.0552H9.0525L8.841 7.68147H12.12V5.36322H6.3075L6.363 5.98572L6.93225 12.3735H12.12V10.0552ZM12.12 16.0755L12.1095 16.0785L9.52799 15.3817L9.363 13.533H7.03574L7.3605 17.172L12.1095 18.4905L12.12 18.4875V16.0755Z" fill="#EBEBEB"/>
<path d="M12.1117 10.0552V12.3735H14.9662L14.6977 15.3802L12.1117 16.0777V18.4897L16.8644 17.172L16.8989 16.7805L17.4434 10.6777L17.5004 10.0552H12.1117ZM12.1117 5.36322V7.68147H17.7112L17.7577 7.16097L17.8634 5.98572L17.9189 5.36322H12.1117Z" fill="white"/>
</svg>
