<svg width="25" height="24" viewBox="0 0 25 24" fill="none" xmlns="http://www.w3.org/2000/svg">
<path d="M3.91998 16.9275L0.390015 14.14L2.46751 10.2925L5.59005 11.3375L3.91998 16.9275Z" fill="url(#paint0_linear_711_31149)"/>
<path d="M24.1199 6.39752L23.6875 20.2976L14.4424 24L9.40747 20.75L24.1199 6.39752Z" fill="#087CFA"/>
<path d="M24.12 6.39749L19.545 10.86L13.6699 3.65249L16.57 0.392517L24.12 6.39749Z" fill="url(#paint1_linear_711_31149)"/>
<path d="M9.40753 20.75L2.055 23.4075L3.59503 18.015L5.59003 11.3375L0.119995 9.50747L3.59503 0L11.45 0.927469L19.545 10.86L9.40753 20.75Z" fill="url(#paint2_linear_711_31149)"/>
<path d="M4.72754 4.5H19.7275V19.5H4.72754V4.5Z" fill="black"/>
<path d="M6.59741 16.665H12.2224V17.6025H6.59741V16.665ZM9.40494 7.40503V6.37997H6.60744V7.40503H7.39241V10.945H6.60744V11.97H9.40494V10.945H8.62241V7.40503H9.40494ZM12.07 12.04L12.0874 12.05C11.7062 12.0623 11.3282 11.9762 10.99 11.8C10.7121 11.6504 10.4645 11.4503 10.2599 11.21L11.0324 10.3475C11.1736 10.5067 11.3369 10.6448 11.5174 10.7575C11.6787 10.8575 11.8652 10.9096 12.055 10.9075C12.1565 10.9124 12.2578 10.8955 12.3523 10.858C12.4467 10.8205 12.532 10.7632 12.6025 10.69C12.7531 10.4864 12.8242 10.2348 12.8024 9.9825V6.375H14.0524V10.0375C14.058 10.3341 14.0115 10.6294 13.915 10.91C13.8328 11.1432 13.6984 11.3545 13.522 11.5278C13.3456 11.7011 13.132 11.8319 12.8974 11.91C12.631 12.0002 12.3512 12.0442 12.07 12.04Z" fill="white"/>
<defs>
<linearGradient id="paint0_linear_711_31149" x1="2.3159" y1="13.6775" x2="9.66472" y2="13.3038" gradientUnits="userSpaceOnUse">
<stop offset="0.09" stop-color="#FC801D"/>
<stop offset="0.23" stop-color="#B07F61"/>
<stop offset="0.41" stop-color="#577DB3"/>
<stop offset="0.53" stop-color="#1E7CE6"/>
<stop offset="0.59" stop-color="#087CFA"/>
</linearGradient>
<linearGradient id="paint1_linear_711_31149" x1="21.3567" y1="12.405" x2="17.3756" y2="0.509032" gradientUnits="userSpaceOnUse">
<stop stop-color="#FE2857"/>
<stop offset="0.08" stop-color="#CB3979"/>
<stop offset="0.16" stop-color="#9E4997"/>
<stop offset="0.25" stop-color="#7557B2"/>
<stop offset="0.34" stop-color="#5362C8"/>
<stop offset="0.44" stop-color="#386CDA"/>
<stop offset="0.54" stop-color="#2373E8"/>
<stop offset="0.66" stop-color="#1478F2"/>
<stop offset="0.79" stop-color="#0B7BF8"/>
<stop offset="1" stop-color="#087CFA"/>
</linearGradient>
<linearGradient id="paint2_linear_711_31149" x1="5.66603" y1="5.52745" x2="19.4344" y2="28.3021" gradientUnits="userSpaceOnUse">
<stop stop-color="#FE2857"/>
<stop offset="0.08" stop-color="#FE295F"/>
<stop offset="0.21" stop-color="#FF2D76"/>
<stop offset="0.3" stop-color="#FF318C"/>
<stop offset="0.38" stop-color="#EA3896"/>
<stop offset="0.55" stop-color="#B248AE"/>
<stop offset="0.79" stop-color="#5A63D6"/>
<stop offset="1" stop-color="#087CFA"/>
</linearGradient>
</defs>
</svg>
