<svg width="25" height="24" viewBox="0 0 25 24" fill="none" xmlns="http://www.w3.org/2000/svg">
<path d="M1.62 1.5H22.62V22.5H1.62V1.5Z" fill="#F5DE19"/>
<path d="M15.7268 17.9062C15.9057 18.2697 16.1837 18.5752 16.5287 18.7875C16.8737 18.9998 17.2717 19.1103 17.6768 19.1062C18.4943 19.1062 19.017 18.6975 19.017 18.1312C19.017 17.4562 18.48 17.2147 17.58 16.821L17.0865 16.6095C15.6615 16.0027 14.7165 15.243 14.7165 13.6365C14.7165 12.1567 15.8415 11.0295 17.6063 11.0295C18.1776 10.9882 18.7484 11.1161 19.2474 11.3971C19.7465 11.6781 20.1518 12.0999 20.4128 12.6097L18.87 13.596C18.7696 13.3432 18.5946 13.1269 18.3684 12.9758C18.1421 12.8247 17.8753 12.746 17.6033 12.75C17.4846 12.7381 17.3648 12.7511 17.2514 12.7881C17.138 12.8251 17.0335 12.8853 16.9447 12.9649C16.8559 13.0445 16.7846 13.1417 16.7354 13.2503C16.6862 13.359 16.6602 13.4767 16.659 13.596C16.659 14.1877 17.0258 14.4277 17.8725 14.796L18.366 15.0075C20.043 15.7267 20.991 16.4595 20.991 18.1072C20.991 19.884 19.5953 20.8575 17.721 20.8575C16.9908 20.904 16.2626 20.7382 15.6245 20.3801C14.9864 20.022 14.4655 19.4868 14.1248 18.8392L15.7268 17.9062ZM8.75555 18.0772C9.0653 18.627 9.3473 19.092 10.0253 19.092C10.6733 19.092 11.0828 18.8385 11.0828 17.8522V11.142H13.056V17.8785C13.056 19.9215 11.856 20.8515 10.1093 20.8515C9.49186 20.8852 8.87866 20.7314 8.35031 20.4101C7.82196 20.0888 7.40319 19.6152 7.14905 19.0515L8.75555 18.0772Z" fill="black"/>
</svg>
