<svg width="25" height="24" viewBox="0 0 25 24" fill="none" xmlns="http://www.w3.org/2000/svg">
<path d="M12.585 22.5L12.0217 22.3133C12.0217 22.3133 12.0967 19.4633 11.0655 19.263C10.3905 18.477 11.1652 -14.2927 13.6327 19.1513C13.1646 19.3887 12.8064 19.798 12.633 20.2935C12.5401 21.0253 12.524 21.7649 12.585 22.5Z" fill="url(#paint0_linear_710_31057)"/>
<path d="M12.8895 19.7467C14.3892 18.6178 15.5377 17.0865 16.2015 15.3307C16.8653 13.5749 17.0172 11.6667 16.6395 9.828C15.537 4.96425 12.9262 3.36525 12.645 2.75475C12.4023 2.3746 12.1952 1.9729 12.0262 1.55475L12.234 15.1065C12.234 15.1065 11.8035 19.248 12.8895 19.7467Z" fill="url(#paint1_linear_710_31057)"/>
<path d="M11.7353 19.9268C11.7353 19.9268 7.14451 16.8 7.41001 11.2687C7.43478 9.60123 7.81712 7.95845 8.5312 6.45136C9.24528 4.94428 10.2745 3.60799 11.5493 2.53275C11.6982 2.40618 11.8166 2.24751 11.8954 2.06864C11.9743 1.88976 12.0116 1.69535 12.0045 1.5C12.2903 2.115 12.2438 10.6823 12.2738 11.6842C12.39 15.582 12.057 19.191 11.7353 19.9268Z" fill="url(#paint2_linear_710_31057)"/>
<defs>
<linearGradient id="paint0_linear_710_31057" x1="8.79873" y1="12.1893" x2="15.2725" y2="14.3861" gradientUnits="userSpaceOnUse">
<stop offset="0.231" stop-color="#999875"/>
<stop offset="0.563" stop-color="#9B9977"/>
<stop offset="0.683" stop-color="#A09F7E"/>
<stop offset="0.768" stop-color="#A9A889"/>
<stop offset="0.837" stop-color="#B7B69A"/>
<stop offset="0.896" stop-color="#C9C7B0"/>
<stop offset="0.948" stop-color="#DEDDCB"/>
<stop offset="0.994" stop-color="#F8F6EB"/>
<stop offset="1" stop-color="#FBF9EF"/>
</linearGradient>
<linearGradient id="paint1_linear_710_31057" x1="11.1727" y1="1.45791" x2="14.0347" y2="19.3296" gradientUnits="userSpaceOnUse">
<stop stop-color="#48A547"/>
<stop offset="1" stop-color="#3F9143"/>
</linearGradient>
<linearGradient id="paint2_linear_710_31057" x1="7.01512" y1="11.8163" x2="14.6956" y2="9.24408" gradientUnits="userSpaceOnUse">
<stop stop-color="#41A247"/>
<stop offset="0.352" stop-color="#4BA74B"/>
<stop offset="0.956" stop-color="#67B554"/>
<stop offset="1" stop-color="#69B655"/>
</linearGradient>
</defs>
</svg>
