<svg width="25" height="24" viewBox="0 0 25 24" fill="none" xmlns="http://www.w3.org/2000/svg">
<path fill-rule="evenodd" clip-rule="evenodd" d="M6.70875 5.14875C6.51007 5.14812 6.31216 5.17334 6.12 5.22375V5.25H6.1485C6.28613 5.45777 6.43958 5.6546 6.60749 5.83875C6.72299 6.06825 6.82349 6.297 6.93824 6.5265L6.96674 6.49725C7.07329 6.41268 7.15668 6.3025 7.20914 6.177C7.26159 6.05149 7.28141 5.91474 7.26675 5.7795C7.20393 5.68265 7.14635 5.58251 7.09424 5.4795C7.00799 5.33625 6.82124 5.26425 6.70649 5.1495" fill="#5D87A1"/>
<path fill-rule="evenodd" clip-rule="evenodd" d="M20.955 17.6647C20.009 17.5983 19.0596 17.7353 18.171 18.0667C17.9558 18.153 17.6123 18.153 17.5823 18.4252C17.6978 18.54 17.7113 18.7252 17.8125 18.885C18.0089 19.2176 18.2614 19.5137 18.5588 19.7602C18.8588 19.9897 19.1588 20.2185 19.4775 20.4195C20.0363 20.7652 20.6685 20.9655 21.213 21.3097C21.5295 21.5107 21.8445 21.7687 22.161 21.9847C22.3185 22.0995 22.4183 22.2847 22.6193 22.3597V22.3162C22.5602 22.1568 22.4872 22.003 22.401 21.8565C22.2578 21.714 22.1138 21.5842 21.9698 21.441C21.5491 20.8847 21.0457 20.396 20.4773 19.992C20.0175 19.6755 19.0125 19.242 18.8273 18.717L18.798 18.6877C19.1344 18.6401 19.466 18.5628 19.7888 18.4567C20.2763 18.3277 20.721 18.357 21.2228 18.2317C21.453 18.174 21.8693 18.0307 21.8693 18.0307V17.8057C21.6128 17.5507 21.429 17.2095 21.159 16.9687C20.4245 16.3275 19.6417 15.7438 18.8175 15.2227C18.3773 14.9385 17.8095 14.7555 17.3408 14.5132C17.1713 14.4277 16.8908 14.3857 16.788 14.2432C16.5549 13.9012 16.3597 13.5348 16.206 13.1505C15.7864 12.3426 15.3984 11.5187 15.0428 10.6807C14.8332 10.1278 14.5916 9.58767 14.319 9.06298C13.0038 6.82682 11.1053 4.99033 8.82676 3.74998C8.25184 3.47169 7.64059 3.27577 7.01101 3.16798C6.65551 3.15298 6.30151 3.12523 5.94676 3.11173C5.71776 2.9617 5.49994 2.79526 5.29501 2.61373C4.48351 2.09998 2.39851 0.995977 1.80151 2.45773C1.41901 3.38098 2.37001 4.28848 2.69626 4.75723C2.97136 5.08774 3.21374 5.44416 3.42001 5.82148C3.51976 6.06298 3.54826 6.31873 3.64501 6.57148C3.8532 7.22031 4.1004 7.85596 4.38526 8.47498C4.53762 8.78092 4.71313 9.07478 4.91026 9.35398C5.02501 9.51073 5.22301 9.57898 5.26576 9.83773C5.10848 10.1758 4.99845 10.5339 4.93876 10.902C4.69085 11.6849 4.59961 12.509 4.67026 13.3272C4.74091 14.1454 4.97206 14.9416 5.35051 15.6705C5.57551 16.0252 6.11701 16.806 6.84076 16.5075C7.47901 16.2525 7.33726 15.4432 7.52176 14.7345C7.56376 14.5627 7.53601 14.4502 7.62076 14.337V14.475C7.62076 14.475 7.98301 15.2707 8.16301 15.675C8.65253 16.4167 9.26063 17.073 9.96301 17.6175C10.2408 17.86 10.4647 18.1582 10.62 18.4927V18.75H10.9403C10.9336 18.634 10.9014 18.5209 10.8461 18.4187C10.7907 18.3166 10.7135 18.2279 10.62 18.159C10.3574 17.8887 10.1169 17.5977 9.90076 17.289C9.3137 16.4529 8.79598 15.5702 8.35276 14.6497C8.12776 14.1997 7.93801 13.7062 7.75801 13.257C7.67551 13.0837 7.67551 12.822 7.53676 12.732C7.28056 13.0351 7.05824 13.3653 6.87376 13.7167C6.64981 14.427 6.51946 15.1635 6.48601 15.9075C6.43126 15.9225 6.45826 15.9075 6.43126 15.936C5.98951 15.8197 5.83726 15.342 5.67076 14.937C5.24065 13.6879 5.19726 12.3381 5.54626 11.064C5.64226 10.7602 6.05851 9.80323 5.89201 9.51298C5.80876 9.23623 5.53201 9.07798 5.38051 8.85973C5.18711 8.56612 5.02068 8.2556 4.88326 7.93198C4.55401 7.12498 4.38751 6.22498 4.02901 5.41198C3.83056 5.02097 3.59949 4.6474 3.33826 4.29523C3.0493 3.94343 2.79441 3.56498 2.57701 3.16498C2.50801 3.00523 2.41126 2.74423 2.52151 2.57023C2.52895 2.52189 2.55194 2.4773 2.58699 2.4432C2.62204 2.4091 2.66725 2.38734 2.71576 2.38123C2.89426 2.22223 3.40651 2.42473 3.58576 2.51173C4.06753 2.70139 4.52642 2.94467 4.95376 3.23698C5.14726 3.38248 5.60326 3.75073 5.60326 3.75073H5.73826C6.19726 3.85048 6.71326 3.77848 7.14526 3.90823C7.87263 4.1507 8.56678 4.48328 9.21151 4.89823C11.1118 6.10959 12.6566 7.80347 13.6883 9.80698C13.8608 10.1362 13.9335 10.4385 14.091 10.782C14.391 11.487 14.766 12.207 15.066 12.8925C15.3307 13.5707 15.6729 14.216 16.086 14.8155C16.3005 15.1155 17.1623 15.2745 17.55 15.432C17.8867 15.5485 18.2172 15.6824 18.54 15.8332C19.0283 16.1332 19.515 16.479 19.9748 16.8082C20.2035 16.9807 20.9213 17.3392 20.9648 17.6265" fill="#00758F"/>
</svg>
