<svg width="25" height="24" viewBox="0 0 25 24" fill="none" xmlns="http://www.w3.org/2000/svg">
<path d="M12.12 22.5C11.8367 22.5001 11.5583 22.4256 11.313 22.284L8.74497 20.7638C8.36172 20.5493 8.54847 20.4735 8.67522 20.4293C9.08283 20.3033 9.4731 20.127 9.83697 19.9043C9.86743 19.8902 9.90098 19.8841 9.93444 19.8866C9.96791 19.8891 10.0002 19.9001 10.0282 19.9185L12.0015 21.0908C12.0382 21.1102 12.0792 21.1204 12.1207 21.1204C12.1623 21.1204 12.2032 21.1102 12.24 21.0908L19.935 16.6493C19.971 16.6277 20.0008 16.5971 20.0214 16.5606C20.042 16.524 20.0528 16.4827 20.0527 16.4408V7.55626C20.0527 7.51362 20.0418 7.47169 20.0209 7.43452C20 7.39734 19.9699 7.36617 19.9335 7.34401L12.2385 2.90626C12.2022 2.88583 12.1612 2.87509 12.1196 2.87509C12.078 2.87509 12.037 2.88583 12.0007 2.90626L4.31022 7.34551C4.27354 7.36721 4.24308 7.39801 4.22179 7.43493C4.20051 7.47185 4.18911 7.51365 4.18872 7.55626V16.437C4.18883 16.4789 4.20006 16.52 4.22128 16.5561C4.2425 16.5922 4.27294 16.622 4.30947 16.6425L6.41997 17.8605C7.56372 18.432 8.26422 17.7585 8.26422 17.082V8.31376C8.26422 8.25409 8.28793 8.19686 8.33012 8.15466C8.37232 8.11247 8.42955 8.08876 8.48922 8.08876H9.46422C9.52389 8.08876 9.58112 8.11247 9.62332 8.15466C9.66552 8.19686 9.68922 8.25409 9.68922 8.31376V17.0828C9.68922 18.609 8.85822 19.4828 7.41072 19.4828C6.78625 19.4936 6.17158 19.3266 5.63847 19.0013L3.61572 17.841C3.37016 17.698 3.16641 17.4931 3.0248 17.2467C2.88319 17.0004 2.80869 16.7212 2.80872 16.437V7.55626C2.80799 7.27166 2.88218 6.99188 3.02384 6.74503C3.1655 6.49819 3.36963 6.29297 3.61572 6.15001L11.3115 1.70701C11.5594 1.57139 11.8374 1.50031 12.12 1.50031C12.4025 1.50031 12.6806 1.57139 12.9285 1.70701L20.6235 6.15001C20.869 6.29273 21.0728 6.49735 21.2145 6.74345C21.3563 6.98955 21.431 7.26852 21.4312 7.55251V16.437C21.4308 16.7212 21.356 17.0003 21.2143 17.2466C21.0726 17.4929 20.8689 17.6978 20.6235 17.841L12.9285 22.284C12.6826 22.4258 12.4038 22.5003 12.12 22.5Z" fill="#83CD29"/>
<path d="M10.6605 13.4648C10.6605 13.4051 10.6842 13.3479 10.7264 13.3057C10.7686 13.2635 10.8258 13.2398 10.8855 13.2398H11.8808C11.9339 13.2399 11.9853 13.259 12.0258 13.2934C12.0664 13.3279 12.0933 13.3756 12.102 13.428C12.252 14.4413 12.702 14.952 14.7368 14.952C16.3575 14.952 17.0483 14.5853 17.0483 13.725C17.0483 13.2293 16.8525 12.861 14.3333 12.6143C12.2273 12.4058 10.9253 11.9393 10.9253 10.2563C10.9253 8.70378 12.234 7.77753 14.4278 7.77753C16.893 7.77753 18.1133 8.63328 18.2678 10.4693C18.2701 10.4999 18.2662 10.5307 18.2562 10.5598C18.2462 10.5889 18.2303 10.6156 18.2096 10.6383C18.1888 10.661 18.1637 10.6792 18.1356 10.6918C18.1076 10.7044 18.0773 10.7111 18.0465 10.7115H17.0445C16.9943 10.7108 16.9457 10.6933 16.9065 10.6618C16.8674 10.6302 16.8399 10.5865 16.8285 10.5375C16.5893 9.47178 16.0035 9.13128 14.4285 9.13128C12.6585 9.13128 12.453 9.74778 12.453 10.2098C12.453 10.7693 12.696 10.9328 15.0855 11.2485C17.4503 11.5613 18.5738 12.0038 18.5738 13.6658C18.5738 15.3428 17.1758 16.3028 14.7375 16.3028C11.3663 16.3073 10.6605 14.7615 10.6605 13.4648Z" fill="#83CD29"/>
</svg>
