<svg width="25" height="24" viewBox="0 0 25 24" fill="none" xmlns="http://www.w3.org/2000/svg">
<path d="M10.9844 15.2858C11.0439 16.0684 11.0323 16.8549 10.9499 17.6355C10.9465 17.7452 10.9142 17.8521 10.8564 17.9454C10.7987 18.0388 10.7174 18.1153 10.6207 18.1673C9.99744 18.63 7.90869 18.741 7.64844 17.7578C7.55244 17.754 7.62894 17.436 7.53744 17.448C7.35474 17.433 7.17812 17.3753 7.0218 17.2796C6.86548 17.1838 6.73382 17.0527 6.63744 16.8968C6.64119 15.8213 6.75969 11.9415 4.83744 12.9863C4.41973 13.2191 4.10646 13.6023 3.96144 14.058C3.83192 14.4556 3.77105 14.8723 3.78144 15.2903C3.76644 15.8258 3.89994 16.4115 3.91944 17.0543C3.92694 17.3415 3.97269 17.4143 3.75894 17.6588C3.41469 18.0525 2.81394 17.7203 2.48919 17.2875C2.35185 17.0695 2.2764 16.8183 2.27094 16.5608C2.01265 13.7513 2.26678 10.9184 3.02094 8.19976C3.29619 7.27726 3.39219 7.14376 4.26819 6.93676C5.26494 6.71752 6.29002 6.65677 7.30569 6.75676C8.09394 6.50026 9.96444 5.11126 10.7714 6.21376C11.9959 5.94189 13.2624 5.91797 14.4963 6.14338C15.7302 6.3688 16.9064 6.839 17.9557 7.52626C19.0185 7.6067 20.085 7.62598 21.1499 7.58401C21.2999 7.48801 21.4754 7.38526 21.6284 7.29676C21.7407 7.22071 21.8669 7.16745 21.9997 7.14001C22.1722 7.11301 22.3972 7.10551 22.4497 7.32001C22.4954 7.54013 22.5107 7.76547 22.4954 7.98976C22.4902 8.12497 22.4399 8.25455 22.3525 8.35785C22.2651 8.46115 22.1457 8.53223 22.0132 8.55976C21.7138 8.51061 21.4235 8.41655 21.1522 8.28076C20.1772 8.30776 19.5772 8.25376 18.6022 8.28076C18.7589 8.44876 18.7522 8.55976 18.8662 8.78176C19.1464 9.51921 19.24 10.3145 19.1386 11.0969C19.0372 11.8792 18.7439 12.6244 18.2849 13.266C18.2159 14.3835 18.2999 15.5123 18.3082 16.6335C18.3119 17.0198 18.3389 17.3873 17.9752 17.6438C17.6544 17.8361 17.2937 17.9523 16.921 17.9835C16.5482 18.0147 16.1733 17.9601 15.8249 17.8238C15.6351 17.7148 15.4656 17.5737 15.3239 17.4068C15.1994 17.4204 15.0739 17.4229 14.9489 17.4143C14.7365 17.3548 14.5528 17.2202 14.4322 17.0355C14.363 16.9092 14.3041 16.7775 14.2559 16.6418C14.2559 16.1168 14.2364 15.9113 14.2364 15.387C13.1552 15.5805 12.0456 15.5494 10.9769 15.2955L10.9844 15.2858Z" fill="#CCCCCC"/>
<path d="M9.19129 18.6293C8.88151 18.6339 8.5731 18.5873 8.27854 18.4913C8.11501 18.4474 7.96398 18.3659 7.83743 18.2534C7.71089 18.141 7.61231 18.0005 7.54954 17.8433C7.49487 17.7752 7.46807 17.6889 7.47454 17.6018V17.568C7.2839 17.5394 7.1016 17.4704 6.93989 17.3655C6.77818 17.2605 6.64082 17.1222 6.53704 16.9598L6.51904 16.9305V16.7355C6.52579 15.849 6.54304 13.4933 5.74354 13.014C5.60897 12.9486 5.45916 12.9211 5.31014 12.9343C5.16112 12.9475 5.0185 13.001 4.89754 13.089C4.50347 13.3086 4.20831 13.6706 4.07254 14.1008C3.94889 14.4853 3.89108 14.888 3.90154 15.2918C3.90157 15.5929 3.92287 15.8936 3.96529 16.1918C3.99754 16.4663 4.03054 16.7513 4.04029 17.0505C4.04029 17.0948 4.04029 17.133 4.04554 17.1675C4.06261 17.2712 4.05374 17.3776 4.01971 17.477C3.98568 17.5765 3.92756 17.666 3.85054 17.7375C3.78962 17.8095 3.71293 17.8664 3.62642 17.9038C3.53992 17.9413 3.44593 17.9583 3.35179 17.9535C3.15959 17.927 2.97511 17.8604 2.81026 17.7581C2.64542 17.6557 2.50387 17.52 2.39479 17.3595C2.24097 17.1245 2.15721 16.8506 2.15329 16.5698C1.89168 13.7456 2.14788 10.8974 2.90929 8.16527C3.19054 7.22402 3.31429 7.04027 4.24354 6.82052C5.24467 6.60019 6.2741 6.53768 7.29454 6.63527C7.51885 6.54792 7.73796 6.44776 7.95079 6.33527C8.87479 5.87327 10.1333 5.24552 10.824 6.08477C12.0483 5.82058 13.3128 5.80174 14.5444 6.02934C15.776 6.25694 16.9503 6.72647 17.9993 7.41077C19.0376 7.48884 20.0796 7.50687 21.12 7.46477C21.27 7.37252 21.429 7.27652 21.5745 7.19252L21.6165 7.16852C21.729 7.09468 21.8549 7.04371 21.987 7.01852C22.32 6.96677 22.512 7.05827 22.5698 7.28927C22.6179 7.52072 22.6343 7.75764 22.6185 7.99352C22.611 8.1574 22.5483 8.31393 22.4406 8.43768C22.3329 8.56144 22.1866 8.64517 22.0253 8.67527H22.0058L21.987 8.67002C21.9223 8.65347 21.8573 8.63797 21.792 8.62352C21.558 8.58346 21.3314 8.50811 21.12 8.40002C20.6453 8.41202 20.2538 8.40527 19.8758 8.40002C19.551 8.39477 19.2173 8.38877 18.8303 8.39477C18.8543 8.44202 18.8715 8.48777 18.8903 8.53427C18.9146 8.5998 18.9427 8.66391 18.9743 8.72627C19.2652 9.47981 19.3654 10.2936 19.2658 11.0952C19.1662 11.8968 18.87 12.6613 18.4035 13.3208C18.3615 14.0453 18.3833 14.7885 18.4035 15.5078C18.4148 15.876 18.426 16.2578 18.4283 16.6328V16.6973C18.4644 16.8899 18.4477 17.0888 18.38 17.2727C18.3122 17.4566 18.196 17.6188 18.0435 17.742C17.7066 17.9471 17.3267 18.0713 16.9337 18.1047C16.5407 18.1382 16.1453 18.08 15.7785 17.9348C15.6171 17.8548 15.4733 17.7434 15.3555 17.607C15.3293 17.58 15.303 17.553 15.276 17.5275C15.2393 17.5275 15.201 17.532 15.1673 17.5358C15.0852 17.5487 15.0014 17.5472 14.9198 17.5313C14.6786 17.4645 14.4698 17.3123 14.3325 17.103C14.2798 17.0179 14.2367 16.927 14.2043 16.8323C14.1867 16.7847 14.1677 16.7377 14.1473 16.6913L14.1368 16.668V16.6425C14.1368 16.3823 14.1323 16.197 14.127 16.0185C14.1233 15.8685 14.1195 15.7185 14.118 15.5243C13.1224 15.6881 12.105 15.6647 11.118 15.4553C11.1631 16.1881 11.1468 16.9234 11.0693 17.6535C11.0636 17.7786 11.0263 17.9002 10.9607 18.0069C10.8951 18.1136 10.8034 18.2018 10.6943 18.2633C10.2374 18.5234 9.71666 18.6502 9.19129 18.6293ZM7.71454 17.6408H7.74154L7.76404 17.7263C7.8094 17.8588 7.8876 17.9777 7.99133 18.0719C8.09507 18.1661 8.22097 18.2324 8.35729 18.2648C9.08533 18.4867 9.87113 18.4171 10.5488 18.0705C10.6321 18.0281 10.7023 17.9638 10.7518 17.8845C10.8013 17.8052 10.8284 17.714 10.83 17.6205C10.9084 16.8791 10.9222 16.1323 10.8713 15.3885L10.8075 15.3705L11.07 14.85L11.1008 15.1973C12.1286 15.4245 13.1911 15.447 14.2275 15.2633L14.3633 15.2453V15.3818C14.3633 15.642 14.3678 15.8273 14.373 16.0058C14.3783 16.1843 14.382 16.3605 14.3828 16.611C14.4015 16.6553 14.418 16.698 14.4345 16.7393C14.461 16.8178 14.496 16.8933 14.5388 16.9643C14.6438 17.1252 14.8037 17.2424 14.9888 17.2943C15.0425 17.3023 15.0971 17.3023 15.1508 17.2943C15.2115 17.2871 15.2726 17.2838 15.3338 17.2845H15.3788L15.4118 17.3153C15.4523 17.3528 15.4928 17.394 15.5333 17.4353C15.6296 17.5481 15.7467 17.6413 15.8783 17.7098C16.2078 17.8383 16.5622 17.89 16.9147 17.8609C17.2672 17.8318 17.6084 17.7226 17.9123 17.5418C18.2033 17.3363 18.1995 17.0543 18.195 16.6965V16.6313C18.195 16.2563 18.1815 15.8813 18.1703 15.5123C18.1485 14.772 18.126 14.0063 18.1703 13.2555V13.206L18.2078 13.173C18.6499 12.5512 18.9318 11.8299 19.0285 11.0731C19.1252 10.3163 19.0337 9.54726 18.762 8.83427C18.7265 8.76437 18.6949 8.6925 18.6675 8.61902C18.6374 8.52248 18.5861 8.43385 18.5175 8.35952L18.3368 8.16527L18.6015 8.15777C19.092 8.14427 19.4925 8.15102 19.881 8.15777C20.2695 8.16452 20.6648 8.17127 21.1493 8.15777H21.1845L21.2145 8.17652C21.4101 8.28247 21.6216 8.35569 21.8408 8.39327C21.9023 8.40752 21.963 8.42102 22.0223 8.43602C22.1209 8.40535 22.2077 8.34506 22.2709 8.26335C22.3341 8.18163 22.3707 8.08245 22.3755 7.97927C22.3899 7.76653 22.3752 7.55282 22.332 7.34402C22.3215 7.29827 22.3013 7.21202 22.02 7.25627C21.9172 7.27649 21.8193 7.31676 21.732 7.37477L21.69 7.39877C21.54 7.48427 21.3683 7.58852 21.2168 7.68302L21.189 7.70027H21.1568C20.0871 7.74408 19.0157 7.72479 17.9483 7.64252H17.9168L17.8905 7.62452C16.8545 6.94517 15.6926 6.48063 14.4738 6.2584C13.255 6.03617 12.0039 6.06078 10.7948 6.33077L10.7198 6.34427L10.6755 6.28427C10.1153 5.51927 8.92504 6.11402 8.05579 6.54827C7.82566 6.67137 7.58764 6.7791 7.34329 6.87077L7.31929 6.87827H7.29454C6.29145 6.77931 5.27903 6.83904 4.29454 7.05527C3.45379 7.25327 3.39454 7.35527 3.13429 8.23577C2.38021 10.9395 2.12604 13.7582 2.38429 16.5533C2.38589 16.788 2.4529 17.0176 2.57779 17.2163C2.66608 17.3479 2.78034 17.4601 2.91357 17.546C3.0468 17.6319 3.19618 17.6897 3.35254 17.7158C3.41107 17.7192 3.46958 17.7088 3.52337 17.6855C3.57717 17.6622 3.62475 17.6266 3.66229 17.5815C3.7187 17.5333 3.76113 17.4709 3.78515 17.4007C3.80916 17.3305 3.81387 17.2552 3.79879 17.1825C3.79879 17.1458 3.79429 17.1075 3.79354 17.0595C3.78207 16.779 3.75704 16.4991 3.71854 16.221C3.67467 15.9122 3.65287 15.6007 3.65329 15.2888C3.64232 14.8561 3.706 14.4248 3.84154 14.0138C3.99748 13.5326 4.32973 13.1283 4.77154 12.882C4.92809 12.772 5.11172 12.7069 5.30259 12.6937C5.49346 12.6805 5.68432 12.7197 5.85454 12.807C6.77179 13.3568 6.75454 15.7245 6.74704 16.7355V16.8608C6.83287 16.9909 6.94659 17.1002 7.07995 17.1809C7.21331 17.2616 7.36296 17.3116 7.51804 17.3273C7.53809 17.325 7.5584 17.3269 7.57773 17.3327C7.59706 17.3385 7.61502 17.3481 7.63054 17.361C7.65767 17.3915 7.67832 17.4271 7.69122 17.4658C7.70411 17.5045 7.70898 17.5454 7.70554 17.586C7.71229 17.6033 7.71304 17.625 7.71454 17.6408Z" fill="#CCCCCC"/>
<path d="M10.5383 14.9858C10.5977 15.7685 10.5861 16.5549 10.5038 17.3355C10.5003 17.4452 10.4681 17.5521 10.4103 17.6454C10.3525 17.7388 10.2712 17.8153 10.1745 17.8673C9.55127 18.33 7.46252 18.441 7.20227 17.4578C7.10627 17.454 7.18277 17.136 7.09127 17.148C6.90857 17.133 6.73195 17.0753 6.57563 16.9796C6.41931 16.8838 6.28765 16.7527 6.19127 16.5968C6.19502 15.5213 6.31352 11.6415 4.39127 12.6863C3.97356 12.9191 3.66029 13.3023 3.51527 13.758C3.38575 14.1556 3.32488 14.5723 3.33527 14.9903C3.32027 15.5258 3.45377 16.1115 3.47327 16.7543C3.48077 17.0415 3.52652 17.1143 3.31277 17.3588C2.96852 17.7525 2.36777 17.4203 2.04302 16.9875C1.90568 16.7696 1.83024 16.5183 1.82477 16.2608C1.56649 13.4513 1.82061 10.6184 2.57477 7.89977C2.85002 6.97727 2.94602 6.84377 3.82202 6.63677C4.81877 6.41753 5.84385 6.35678 6.85952 6.45677C7.64777 6.20027 9.51827 4.81127 10.3253 5.91377C11.5497 5.64191 12.8163 5.61798 14.0501 5.8434C15.284 6.06881 16.4603 6.53901 17.5095 7.22627C18.5723 7.30671 19.6388 7.32599 20.7038 7.28402C20.8538 7.18802 21.0293 7.08527 21.1823 6.99677C21.2946 6.92072 21.4207 6.86746 21.5535 6.84002C21.726 6.81302 21.951 6.80552 22.0035 7.02002C22.0492 7.24015 22.0646 7.46548 22.0493 7.68977C22.0441 7.82498 21.9937 7.95456 21.9064 8.05786C21.819 8.16116 21.6995 8.23224 21.567 8.25977C21.2676 8.21062 20.9773 8.11656 20.706 7.98077C19.731 8.00777 19.131 7.95377 18.156 7.98077C18.3128 8.14877 18.306 8.25977 18.42 8.48177C18.7002 9.21923 18.7938 10.0145 18.6924 10.7969C18.591 11.5792 18.2977 12.3244 17.8388 12.966C17.7698 14.0835 17.8538 15.2123 17.862 16.3335C17.8658 16.7198 17.8928 17.0873 17.529 17.3438C17.2082 17.5361 16.8476 17.6523 16.4748 17.6835C16.102 17.7148 15.7271 17.6601 15.3788 17.5238C15.1889 17.4148 15.0194 17.2737 14.8778 17.1068C14.7532 17.1204 14.6277 17.1229 14.5028 17.1143C14.2903 17.0549 14.1066 16.9203 13.986 16.7355C13.9169 16.6092 13.8579 16.4775 13.8098 16.3418C13.8098 15.8168 13.7903 15.6113 13.7903 15.087C12.709 15.2805 11.5995 15.2494 10.5308 14.9955L10.5383 14.9858Z" fill="#373435"/>
<path d="M8.74505 18.3292C8.43527 18.3339 8.12687 18.2872 7.8323 18.1912C7.66878 18.1473 7.51774 18.0659 7.3912 17.9534C7.26465 17.8409 7.16607 17.7005 7.1033 17.5432C7.04864 17.4751 7.02183 17.3888 7.0283 17.3017V17.268C6.83767 17.2394 6.65537 17.1704 6.49366 17.0654C6.33195 16.9605 6.19458 16.8222 6.0908 16.6597L6.0728 16.6305V16.4355C6.07955 15.549 6.0968 13.1932 5.2973 12.714C5.16274 12.6486 5.01293 12.6211 4.86391 12.6343C4.71489 12.6475 4.57226 12.701 4.4513 12.789C4.05723 13.0086 3.76207 13.3706 3.6263 13.8007C3.50265 14.1853 3.44484 14.588 3.4553 14.9917C3.45532 15.2929 3.47663 15.5936 3.51905 15.8917C3.5513 16.167 3.5843 16.4512 3.59405 16.7512C3.59405 16.7955 3.59405 16.8337 3.5993 16.8682C3.61637 16.972 3.6075 17.0783 3.57347 17.1778C3.53945 17.2772 3.48133 17.3667 3.4043 17.4382C3.34342 17.5102 3.26673 17.5672 3.18022 17.6047C3.0937 17.6421 2.9997 17.6591 2.90555 17.6542C2.71336 17.6277 2.52887 17.5611 2.36403 17.4588C2.19918 17.3565 2.05764 17.2207 1.94855 17.0602C1.79477 16.8252 1.71101 16.5513 1.70705 16.2705C1.44535 13.4461 1.70155 10.5976 2.46305 7.86525C2.7443 6.924 2.86805 6.74025 3.7973 6.5205C4.79843 6.30014 5.82786 6.23764 6.8483 6.33525C7.07262 6.2479 7.29173 6.14774 7.50455 6.03525C8.42855 5.57325 9.68705 4.94475 10.3778 5.78475C11.6021 5.52071 12.8667 5.50201 14.0983 5.72974C15.3299 5.95747 16.5041 6.42711 17.553 7.1115C18.5901 7.18995 19.6308 7.20848 20.67 7.167C20.8163 7.07625 20.9798 6.978 21.1245 6.89475L21.1665 6.87075C21.279 6.79691 21.4049 6.74594 21.5371 6.72075C21.8701 6.669 22.062 6.7605 22.1198 6.9915C22.1679 7.22295 22.1843 7.45987 22.1686 7.69575C22.161 7.85963 22.0983 8.01615 21.9906 8.13991C21.8829 8.26367 21.7366 8.3474 21.5753 8.3775H21.5558L21.5371 8.37225C21.4723 8.3557 21.4073 8.3402 21.342 8.32575C21.1097 8.28471 20.885 8.20885 20.6753 8.10075C20.2006 8.11275 19.809 8.106 19.431 8.10075C19.1063 8.0955 18.7726 8.0895 18.3855 8.0955C18.4095 8.14275 18.4268 8.1885 18.4455 8.235C18.4699 8.30053 18.4979 8.36464 18.5295 8.427C18.8204 9.18055 18.9205 9.99432 18.821 10.7959C18.7214 11.5975 18.4252 12.362 17.9588 13.0215C17.9168 13.746 17.9385 14.4892 17.9588 15.2077C17.9693 15.5767 17.9806 15.9577 17.9836 16.3327V16.3972C18.0198 16.5898 18.0032 16.7886 17.9356 16.9726C17.868 17.1565 17.7519 17.3187 17.5996 17.442C17.2626 17.6471 16.8827 17.7713 16.4897 17.8047C16.0967 17.8382 15.7013 17.78 15.3345 17.6347C15.1731 17.5548 15.0293 17.4434 14.9116 17.307C14.8853 17.28 14.859 17.253 14.832 17.2275C14.7953 17.2275 14.7571 17.232 14.7233 17.2357C14.6412 17.2487 14.5574 17.2472 14.4758 17.2312C14.2346 17.1645 14.0258 17.0123 13.8885 16.803C13.8357 16.7179 13.7927 16.627 13.7603 16.5322C13.7427 16.4847 13.7237 16.4377 13.7033 16.3912L13.6928 16.368V16.3425C13.6928 16.0822 13.6883 15.897 13.6831 15.7185C13.6793 15.5685 13.6748 15.4185 13.6741 15.2242C12.6785 15.388 11.6611 15.3646 10.674 15.1552C10.7172 15.8875 10.6992 16.622 10.6201 17.3512C10.6144 17.4764 10.577 17.598 10.5114 17.7046C10.4458 17.8113 10.3542 17.8995 10.2451 17.961C9.78924 18.2214 9.26963 18.349 8.74505 18.3292ZM7.2683 17.3407H7.2953L7.3178 17.4262C7.36316 17.5588 7.44136 17.6777 7.5451 17.7719C7.64884 17.866 7.77473 17.9324 7.91105 17.9647C8.63908 18.1868 9.42492 18.1171 10.1026 17.7705C10.1858 17.7281 10.256 17.6638 10.3056 17.5845C10.3551 17.5052 10.3822 17.414 10.3838 17.3205C10.4622 16.5791 10.476 15.8323 10.425 15.0885L10.3613 15.0705L10.6201 14.5537L10.6508 14.901C11.6786 15.1282 12.7411 15.1507 13.7775 14.967L13.9133 14.949V15.0855C13.9133 15.3457 13.9178 15.531 13.923 15.7095C13.9283 15.888 13.932 16.0642 13.9328 16.3147C13.9515 16.359 13.9681 16.4017 13.9846 16.4437C14.011 16.5223 14.0459 16.5978 14.0888 16.6687C14.1938 16.8297 14.3538 16.9469 14.5388 16.9987C14.5925 17.0069 14.6471 17.0069 14.7008 16.9987C14.7615 16.9916 14.8227 16.9883 14.8838 16.989H14.9288L14.9618 17.0197C15.0023 17.0572 15.0428 17.0947 15.0833 17.1397C15.1796 17.2526 15.2967 17.3458 15.4283 17.4142C15.7578 17.5428 16.1122 17.5945 16.4647 17.5654C16.8172 17.5362 17.1584 17.4271 17.4623 17.2462C17.7533 17.0407 17.7495 16.7587 17.7451 16.401V16.3357C17.7451 15.9607 17.7315 15.5857 17.7203 15.216C17.6985 14.4757 17.6761 13.7107 17.7203 12.96V12.9105L17.7578 12.8775C18.1999 12.2557 18.4817 11.5344 18.5784 10.7775C18.6751 10.0207 18.5836 9.25175 18.312 8.53875C18.2765 8.46885 18.2449 8.39698 18.2175 8.3235C18.1874 8.22696 18.1361 8.13833 18.0676 8.064L17.8868 7.86975L18.1516 7.86225C18.642 7.84875 19.0425 7.8555 19.431 7.86225C19.8195 7.869 20.2148 7.87575 20.6993 7.86225H20.7346L20.7645 7.881C20.9601 7.98695 21.1716 8.06017 21.3908 8.09775C21.4523 8.112 21.5131 8.1255 21.5723 8.1405C21.6709 8.10982 21.7578 8.04954 21.8209 7.96782C21.8841 7.88611 21.9207 7.78693 21.9255 7.68375C21.9398 7.471 21.9252 7.25731 21.882 7.0485C21.8715 7.00275 21.8513 6.91725 21.57 6.96075C21.4672 6.98095 21.3693 7.02122 21.282 7.07925L21.2393 7.10325C21.0893 7.1895 20.916 7.29375 20.7661 7.3875L20.7451 7.4025H20.7128C19.6431 7.44626 18.5717 7.42697 17.5043 7.34475H17.4728L17.4451 7.32525C16.409 6.6459 15.2471 6.18135 14.0283 5.95913C12.8095 5.7369 11.5584 5.76151 10.3493 6.0315L10.2743 6.045L10.23 5.985C9.6698 5.22 8.47955 5.81475 7.6103 6.249C7.38017 6.37209 7.14215 6.47983 6.8978 6.5715L6.8738 6.579H6.84905C5.84596 6.47999 4.83354 6.53972 3.84905 6.756C3.0083 6.954 2.94905 7.056 2.6888 7.9365C1.93472 10.6403 1.68055 13.459 1.9388 16.254C1.94041 16.4887 2.00742 16.7183 2.1323 16.917C2.22059 17.0487 2.33486 17.1609 2.46809 17.2468C2.60131 17.3327 2.75069 17.3904 2.90705 17.4165C2.96563 17.4203 3.02428 17.4101 3.07814 17.3868C3.132 17.3634 3.17953 17.3276 3.2168 17.2822C3.27321 17.2341 3.31565 17.1716 3.33966 17.1014C3.36367 17.0312 3.36838 16.9559 3.3533 16.8832C3.3533 16.8465 3.3488 16.8082 3.34805 16.7602C3.33658 16.4797 3.31155 16.1999 3.27305 15.9217C3.22916 15.6129 3.20735 15.3014 3.2078 14.9895C3.19683 14.5568 3.26051 14.1255 3.39605 13.7145C3.55199 13.2333 3.88424 12.829 4.32605 12.5827C4.4826 12.4728 4.66624 12.4076 4.85711 12.3944C5.04798 12.3812 5.23883 12.4204 5.40905 12.5077C6.3263 13.0575 6.30905 15.4252 6.30155 16.4362V16.5615C6.38848 16.692 6.50352 16.8013 6.63823 16.8815C6.77295 16.9617 6.92391 17.0108 7.08005 17.025C7.10011 17.0228 7.12041 17.0246 7.13974 17.0304C7.15907 17.0362 7.17703 17.0458 7.19255 17.0587C7.21969 17.0892 7.24033 17.1248 7.25323 17.1635C7.26612 17.2022 7.271 17.2431 7.26755 17.2837C7.26627 17.3027 7.26652 17.3218 7.2683 17.3407Z" fill="#373435"/>
<path d="M14.049 14.9595C14.2896 14.9363 14.5274 14.8888 14.7585 14.8177C14.8746 15.4985 14.909 16.1906 14.8612 16.8795C14.6861 16.8905 14.5116 16.8491 14.3602 16.7606C14.2087 16.672 14.087 16.5403 14.0107 16.3822C13.972 15.908 13.9848 15.431 14.049 14.9595Z" fill="#6978AB"/>
<path d="M14.8365 16.9995C14.6435 17.0061 14.4528 16.9565 14.2874 16.8568C14.1221 16.7571 13.9892 16.6115 13.905 16.4378L13.8937 16.4168V16.3928C13.8546 15.9098 13.8676 15.4239 13.9327 14.9438L13.9447 14.8508L14.0377 14.8403C14.2705 14.8176 14.5003 14.7719 14.724 14.7038L14.847 14.664L14.877 14.79C14.9898 15.4042 15.0268 16.0298 14.9872 16.653L14.9812 16.9973H14.8657L14.8365 16.9995ZM14.1285 16.347C14.1871 16.4625 14.2746 16.5609 14.3825 16.6325C14.4904 16.7041 14.6151 16.7466 14.7442 16.7558V16.6478C14.7765 16.0872 14.7514 15.5247 14.6692 14.9693C14.5009 15.0135 14.3298 15.0461 14.157 15.0668C14.1046 15.4925 14.0948 15.9223 14.1277 16.35L14.1285 16.347Z" fill="#373435"/>
<path d="M3.15897 17.0122C2.99022 15.9067 2.81847 13.956 3.60897 13.026C3.67153 12.9417 3.73915 12.8613 3.81147 12.7852C5.05872 11.6107 6.14547 12.621 6.44022 13.9215C6.5027 14.7437 6.51547 15.569 6.47847 16.3927C6.55215 16.536 6.66587 16.6549 6.8058 16.7347C6.94574 16.8146 7.10586 16.8521 7.26672 16.8427C7.38147 17.0797 7.35072 17.256 7.48122 17.4127C7.72892 17.6908 8.05379 17.8888 8.41444 17.9815C8.77508 18.0742 9.15515 18.0574 9.50622 17.9332C9.74112 17.8336 9.96979 17.7199 10.191 17.5927C10.37 16.5867 10.3445 15.5549 10.116 14.559C10.116 14.421 10.0702 14.3295 10.0702 14.1915C10.156 14.2038 10.2368 14.2396 10.3035 14.295C10.1535 14.8455 12.2205 15.2242 14.6317 14.559C14.6587 14.463 14.6122 14.3445 14.67 14.31C14.7073 14.2866 14.7492 14.2718 14.7929 14.2665C14.8366 14.2612 14.8809 14.2655 14.9227 14.2792C14.934 14.4555 14.9377 14.6272 14.9497 14.8042C15.1367 14.8219 15.3248 14.8244 15.5122 14.8117C15.3892 14.9224 15.2275 14.9801 15.0622 14.9722C15.1042 14.9722 15.039 15.0525 15.0772 15.06C15.1882 15.087 15.399 15.045 15.4867 15.0832C15.3225 15.1792 15.1387 15.1252 15.0277 15.2332C15.0547 15.8182 15.0697 16.446 15.093 17.0332C15.4546 17.3078 15.901 17.447 16.3547 17.4267C16.8083 17.4064 17.2405 17.228 17.5762 16.9222C17.6479 15.7472 17.6228 14.5682 17.5012 13.3972C17.4135 13.386 17.325 13.3702 17.2372 13.359C18.6075 11.5155 18.8715 9.62924 17.7232 7.92674C17.712 7.85174 17.6617 7.77674 17.6482 7.70174C18.6472 7.66349 19.6732 7.76699 20.6752 7.72874C20.9457 7.83116 21.2248 7.90922 21.5092 7.96199C21.804 7.85849 21.8572 7.04024 21.567 7.13174C21.2767 7.22324 21.117 7.40699 20.8057 7.52174C19.6575 7.52174 18.3832 7.47599 17.2357 7.47599C16.2989 6.73065 15.1894 6.23336 14.0097 6.03005C12.8299 5.82674 11.618 5.92396 10.4857 6.31274C10.8345 7.06366 11.0312 7.87613 11.0647 8.70339C11.0981 9.53065 10.9677 10.3564 10.6807 11.133C10.6155 11.3475 9.62472 11.9745 10.4355 11.2897C11.2545 10.5937 10.7415 5.75849 9.73497 5.75024C8.55058 5.76254 7.41361 6.21733 6.54747 7.02524C6.39072 6.85724 6.40197 6.92549 6.47247 6.68849C5.61585 6.61473 4.75294 6.69087 3.92247 6.91349C3.70724 6.92036 3.49907 6.99195 3.32514 7.11892C3.15121 7.24589 3.0196 7.42234 2.94747 7.62524C2.19059 10.3301 1.88649 13.1416 2.04747 15.9457C2.08688 16.282 2.17584 16.6106 2.31147 16.9207C2.76147 17.4142 3.00447 17.2725 3.15372 17.0122H3.15897Z" fill="url(#paint0_linear_710_31109)"/>
<path d="M4.95451 7.81649C4.70217 7.71359 4.42817 7.67519 4.15726 7.70474C4.13241 7.70203 4.10739 7.70803 4.08646 7.7217C4.06554 7.73538 4.05 7.75589 4.04251 7.77975C4.03244 7.79702 4.02592 7.81614 4.02334 7.83598C4.02077 7.85582 4.02218 7.87597 4.02751 7.89525C4.05076 7.9605 4.05451 7.95674 4.11151 7.97024C4.187 7.9815 4.26408 7.97482 4.33651 7.95074C4.42213 7.90564 4.5166 7.87984 4.61327 7.87518C4.70993 7.87051 4.80644 7.88709 4.89601 7.92374C4.98001 7.91999 4.98826 7.88549 4.96126 7.81949L4.95451 7.81649Z" fill="#373435"/>
<path d="M4.17455 8.09325C4.14482 8.09336 4.11516 8.09034 4.08605 8.08425H4.0763C4.0366 8.08021 3.99928 8.06341 3.96994 8.03636C3.9406 8.00932 3.92081 7.97349 3.91355 7.93425C3.90299 7.899 3.89961 7.86198 3.9036 7.82539C3.9076 7.78881 3.91889 7.7534 3.9368 7.72125C3.9542 7.67979 3.98385 7.64464 4.02179 7.62051C4.05973 7.59639 4.10413 7.58443 4.14905 7.58625C4.42904 7.55664 4.71204 7.59497 4.97405 7.698H5.03555L5.0663 7.773C5.08353 7.80129 5.09252 7.83383 5.09224 7.86695C5.09196 7.90007 5.08243 7.93246 5.06473 7.96045C5.04703 7.98845 5.02186 8.01094 4.99205 8.0254C4.96225 8.03985 4.929 8.04569 4.89605 8.04225H4.87805L4.8578 8.03625C4.78394 8.00427 4.70388 7.98915 4.62344 7.99201C4.543 7.99486 4.46421 8.01561 4.3928 8.05275L4.3793 8.061L4.3643 8.06475C4.30256 8.08243 4.23877 8.09201 4.17455 8.09325ZM4.14155 7.851C4.19205 7.8562 4.24309 7.8511 4.29155 7.836L4.33205 7.81575C4.27955 7.81575 4.2263 7.81575 4.1723 7.824H4.1528L4.1483 7.833C4.14504 7.83857 4.14275 7.84466 4.14155 7.851ZM4.33655 8.76525C4.37083 8.69395 4.42492 8.63403 4.49236 8.59267C4.55979 8.5513 4.63771 8.53024 4.7168 8.532C4.7318 8.436 4.7168 8.382 4.5938 8.382C4.41912 8.47055 4.26992 8.6022 4.1603 8.7645C4.09737 8.9056 4.07729 9.06208 4.10255 9.2145C4.11627 9.31867 4.17009 9.41339 4.25255 9.4785C4.33794 9.53195 4.4375 9.55833 4.53815 9.55418C4.63881 9.55003 4.73585 9.51555 4.81655 9.45525C5.08505 9.2985 5.35355 8.85075 4.8818 8.682C4.78727 8.66355 4.68999 8.6642 4.59571 8.68391C4.50143 8.70361 4.41204 8.74198 4.3328 8.79675C4.3253 8.8005 4.32155 8.7855 4.3328 8.766L4.33655 8.76525Z" fill="#373435"/>
<path d="M4.48196 9.67952C4.37051 9.68172 4.26196 9.64394 4.17596 9.57302C4.06984 9.48774 4.001 9.36458 3.98396 9.22952C3.95341 9.05098 3.97964 8.86736 4.05896 8.70452C4.17898 8.5244 4.34287 8.37779 4.53521 8.27852L4.56146 8.26277H4.58996C4.62675 8.25922 4.66387 8.26376 4.69872 8.27606C4.73357 8.28837 4.76531 8.30815 4.79171 8.33402C4.81438 8.36476 4.83003 8.40011 4.83754 8.43756C4.84506 8.47501 4.84426 8.51366 4.83521 8.55077C4.93705 8.56615 5.0319 8.61189 5.10736 8.68199C5.18281 8.7521 5.23539 8.84333 5.25821 8.94377C5.25388 9.07091 5.21646 9.19471 5.14964 9.30296C5.08282 9.41121 4.98892 9.50016 4.87721 9.56102C4.75808 9.63439 4.6218 9.67525 4.48196 9.67952ZM4.23971 8.88002C4.21196 8.98571 4.20583 9.09591 4.22171 9.20402C4.23222 9.27786 4.27127 9.34464 4.33046 9.39002C4.47521 9.51077 4.70996 9.38177 4.75571 9.35477C4.82787 9.31621 4.88959 9.26071 4.93557 9.19304C4.98156 9.12537 5.01043 9.04755 5.01971 8.96627C5.01296 8.89127 4.95296 8.83727 4.84196 8.79752C4.68593 8.77397 4.52681 8.811 4.39721 8.90102L4.38746 8.90627L4.30721 8.94677L4.24121 8.88002H4.23971Z" fill="#373435"/>
<path d="M4.54505 9.28575C4.54661 9.31309 4.55191 9.34009 4.5608 9.366C4.56465 9.37809 4.56993 9.38967 4.57655 9.4005C4.55466 9.41503 4.52955 9.42399 4.50341 9.42661C4.47727 9.42922 4.45088 9.42541 4.42655 9.4155C4.2608 9.3405 4.2728 9.108 4.35755 8.982C4.40195 8.91701 4.46097 8.86335 4.52988 8.82531C4.59878 8.78728 4.67565 8.76594 4.7543 8.763C4.8428 8.80875 4.8698 8.8515 4.8233 8.86275C4.79703 8.86773 4.77171 8.87684 4.7483 8.88975C4.73049 8.89773 4.71459 8.90942 4.70166 8.92404C4.68872 8.93865 4.67906 8.95585 4.6733 8.9745C4.71155 8.98575 4.73105 8.9745 4.76555 8.9895V9.10875C4.72869 9.09024 4.68659 9.08494 4.6463 9.09375C4.5713 9.117 4.54205 9.22425 4.54205 9.2895L4.54505 9.28575Z" fill="#FEFEFE"/>
<path d="M4.8623 12.3442C5.07477 12.2987 5.27609 12.2115 5.4546 12.0876C5.63312 11.9637 5.78527 11.8056 5.90225 11.6225C6.01924 11.4394 6.09873 11.2349 6.13611 11.0208C6.1735 10.8068 6.16804 10.5874 6.12005 10.3755C5.98578 10.3727 5.85423 10.3372 5.7368 10.272C5.7293 10.2225 5.72555 10.1722 5.7173 10.122C6.0278 10.272 6.4673 10.317 6.4103 9.84225C6.4523 9.831 6.51755 9.82725 6.5603 9.81525C6.5453 10.1482 6.4853 10.179 6.28055 10.3207C6.33944 10.6838 6.30872 11.0557 6.19108 11.4042C6.07344 11.7527 5.87244 12.0672 5.60555 12.3202C5.58967 12.4244 5.59892 12.5309 5.63255 12.6307C5.53438 12.5282 5.4139 12.4496 5.28045 12.4011C5.14701 12.3526 5.00419 12.3354 4.86305 12.351L4.8623 12.3442Z" fill="#373435"/>
<path d="M5.84404 13.0432L5.54404 12.7117C5.45695 12.622 5.3503 12.5537 5.23242 12.5121C5.11455 12.4705 4.98864 12.4566 4.86454 12.4717H4.74304V12.2617L4.82779 12.228C5.21395 12.1488 5.55404 11.9222 5.77585 11.5964C5.99766 11.2705 6.08374 10.871 6.01579 10.4827C5.89418 10.4737 5.77646 10.4359 5.67229 10.3725L5.62579 10.3432L5.61754 10.29L5.60704 10.2112L5.59804 10.1407L5.56354 9.91573L5.76829 10.0147C5.83707 10.0589 5.91482 10.0872 5.9959 10.0976C6.07698 10.108 6.15936 10.1002 6.23704 10.0747C6.28504 10.041 6.30304 9.96748 6.29029 9.85648L6.27904 9.75448L6.37804 9.72748C6.40743 9.72017 6.43723 9.71466 6.46729 9.71098C6.48747 9.70861 6.50751 9.70511 6.52729 9.70048L6.68629 9.65698L6.67879 9.82123C6.66304 10.1632 6.58804 10.2495 6.40804 10.3777C6.45491 10.7423 6.41666 11.1128 6.29629 11.4601C6.17592 11.8074 5.97671 12.1221 5.71429 12.3795C5.71445 12.4434 5.72328 12.507 5.74054 12.5685L5.84404 13.0432ZM5.31904 12.2872C5.37357 12.3047 5.42631 12.3273 5.47654 12.3547C5.4788 12.3292 5.48409 12.304 5.49229 12.2797L5.50054 12.2557L5.51779 12.237C5.58179 12.1685 5.64104 12.0997 5.69554 12.0307C5.58032 12.1304 5.45398 12.2165 5.31904 12.2872Z" fill="#373435"/>
<path d="M16.7378 17.4097C16.719 17.127 16.6845 16.8787 16.6763 16.5952C16.6575 15.9457 16.164 15.804 16.137 16.4535C16.122 16.794 16.137 17.115 16.137 17.436C16.3372 17.4634 16.5407 17.4545 16.7378 17.4097Z" fill="#8093D0"/>
<path d="M16.4243 17.49C16.3493 17.49 16.2788 17.4855 16.2075 17.481L16.095 17.475V17.1187C16.095 16.9042 16.0883 16.6822 16.095 16.4535C16.1093 16.1137 16.245 15.993 16.3658 15.993C16.5255 15.993 16.701 16.2052 16.713 16.593C16.7175 16.7662 16.7325 16.9245 16.7475 17.0917C16.7573 17.1937 16.7663 17.2972 16.7738 17.4052V17.4375L16.743 17.4465C16.6394 17.4759 16.5321 17.4906 16.4243 17.49ZM16.1775 17.4H16.2135C16.3744 17.4189 16.5373 17.4116 16.6958 17.3782C16.689 17.2822 16.68 17.19 16.6718 17.0992C16.656 16.9305 16.6418 16.7715 16.6365 16.5952C16.6268 16.272 16.4865 16.0702 16.3688 16.0702C16.2878 16.0702 16.1895 16.1707 16.1775 16.4542C16.167 16.6792 16.1708 16.9042 16.1775 17.115C16.176 17.211 16.1775 17.3047 16.1775 17.4Z" fill="#373435"/>
<path d="M16.146 17.4427C16.0916 17.1165 16.0712 16.7854 16.0853 16.455C16.1273 15.855 15.5603 15.2227 15.522 16.3365C15.5081 16.662 15.5209 16.9881 15.5603 17.3115C15.7518 17.3703 15.9477 17.4142 16.146 17.4427Z" fill="#8093D0"/>
<path d="M16.1917 17.4908L16.14 17.4825C15.9394 17.4544 15.7412 17.4105 15.5475 17.3513L15.5235 17.343V17.3183C15.4838 16.9924 15.471 16.6638 15.4852 16.3358C15.4972 15.9765 15.5602 15.7635 15.6825 15.702C15.7104 15.6881 15.7417 15.6823 15.7727 15.6854C15.8038 15.6884 15.8333 15.7002 15.858 15.7193C15.9561 15.8139 16.0315 15.9295 16.0784 16.0575C16.1253 16.1855 16.1425 16.3224 16.1287 16.458C16.1118 16.7477 16.1256 17.0383 16.17 17.325L16.1917 17.4908ZM15.5962 17.283C15.7612 17.332 15.9294 17.3696 16.0995 17.3955L16.092 17.3333C16.0456 17.0422 16.0298 16.7471 16.0447 16.4528C16.0575 16.3312 16.043 16.2083 16.0024 16.093C15.9618 15.9777 15.8961 15.8728 15.81 15.786C15.7971 15.7751 15.7814 15.768 15.7647 15.7656C15.748 15.7632 15.7309 15.7656 15.7155 15.7725C15.6742 15.7935 15.5767 15.8918 15.561 16.338C15.5475 16.6535 15.5593 16.9695 15.5962 17.283Z" fill="#373435"/>
<path d="M15.561 17.3625L15.4807 16.0875C15.423 15.1357 15.0405 15.2467 15.0097 16.0305C14.9947 16.401 15.0247 16.6035 14.9902 16.9747C15.1702 17.097 15.3577 17.3377 15.561 17.3572V17.3625Z" fill="#8093D0"/>
<path d="M15.5572 17.4C15.3968 17.3608 15.2517 17.2743 15.141 17.1518C15.0863 17.1014 15.0287 17.0543 14.9685 17.0108L14.949 16.9973V16.974C14.9647 16.7945 14.9699 16.6142 14.9647 16.434V16.032C14.9805 15.6323 15.0862 15.3728 15.234 15.3713C15.384 15.3713 15.4875 15.639 15.5145 16.0883L15.5947 17.3633H15.5542L15.5572 17.4ZM15.0322 16.9583C15.0862 16.9973 15.1402 17.0453 15.1935 17.0918C15.2852 17.1865 15.3955 17.2613 15.5175 17.3115L15.4425 16.0935C15.414 15.6218 15.3067 15.4515 15.2415 15.4515C15.174 15.4515 15.0667 15.6383 15.0517 16.0358C15.045 16.1858 15.0472 16.314 15.0517 16.434C15.0547 16.6085 15.0482 16.783 15.0322 16.9568V16.9583Z" fill="#373435"/>
<path d="M9.0188 18.021C9.02897 17.7225 9.01366 17.4237 8.97305 17.1277C8.81255 16.4377 8.61005 16.353 8.37305 16.863V18.009C8.5874 18.0383 8.80457 18.0409 9.01955 18.0165L9.0188 18.021Z" fill="#8093D0"/>
<path d="M8.77645 18.075C8.65195 18.075 8.52745 18.0638 8.4052 18.0525L8.3302 18.0458V16.8458C8.44495 16.599 8.5552 16.4843 8.6662 16.4963C8.8027 16.5105 8.9107 16.7078 9.00595 17.118L9.01345 17.1833C9.0504 17.4611 9.0637 17.7417 9.0532 18.0218H9.0142L9.01945 18.0563C8.93907 18.0689 8.85782 18.0751 8.77645 18.075ZM8.41195 17.973C8.60026 17.9972 8.79067 18.0004 8.9797 17.9828C8.98716 17.7189 8.97362 17.4548 8.9392 17.193L8.93245 17.1323C8.82295 16.662 8.71645 16.5818 8.6632 16.5765C8.62195 16.5765 8.5372 16.6058 8.41195 16.8728V17.973Z" fill="#373435"/>
<path d="M7.84495 17.832C7.8487 17.3925 7.85245 17.1015 7.85245 16.662C8.01295 16.0155 8.1772 16.0807 8.3377 16.857C8.34145 17.274 8.3452 17.5455 8.3452 17.9617C8.16964 17.9549 7.99756 17.9106 7.84045 17.832H7.84495Z" fill="#8093D0"/>
<path d="M8.38277 18.0067L8.31527 17.9992C8.14197 17.9908 7.97244 17.9456 7.81802 17.8665L7.68677 17.7915H7.80227V17.5665C7.80227 17.259 7.80752 17.0047 7.80752 16.6582V16.6485C7.88852 16.323 7.96802 16.1775 8.06627 16.1775C8.14127 16.1775 8.24702 16.2562 8.36627 16.845V17.1045C8.36627 17.3932 8.37152 17.6295 8.37152 17.9587L8.38277 18.0067ZM7.88252 17.8102C8.01463 17.8724 8.15748 17.9086 8.30327 17.9167C8.30327 17.6122 8.30327 17.3835 8.29802 17.1082V16.857C8.18027 16.2922 8.09027 16.2615 8.07302 16.2615C8.05577 16.2615 7.99127 16.2705 7.89227 16.6665C7.89227 17.0107 7.89227 17.2665 7.88702 17.571L7.88252 17.8102Z" fill="#373435"/>
<path d="M7.24503 16.9672C7.26828 16.5997 7.34478 16.2285 7.36728 15.861C7.21728 15.1335 7.05378 15.0037 6.88203 15.4785C6.87453 15.9495 6.87078 16.4242 6.86328 16.8952C6.97675 16.9676 7.11339 16.9944 7.24578 16.9702L7.24503 16.9672Z" fill="#8093D0"/>
<path d="M7.14981 17.025C7.05822 17.0203 6.96893 16.9946 6.88881 16.95L6.82581 16.9215V16.8952C6.82981 16.6597 6.83306 16.4237 6.83556 16.1872C6.83806 15.9507 6.84131 15.7145 6.84531 15.4785V15.4657C6.92031 15.2505 6.99981 15.1537 7.08981 15.1597C7.17981 15.1657 7.28406 15.2505 7.40781 15.8542V15.8647C7.39656 16.05 7.37106 16.2397 7.34631 16.4205C7.32156 16.6012 7.29681 16.788 7.28556 16.9695V17.004L7.25406 17.0107C7.21989 17.0191 7.18495 17.0239 7.14981 17.025ZM6.90681 16.875L6.92181 16.8817C7.00862 16.9336 7.11015 16.9552 7.21056 16.9432C7.22256 16.767 7.24656 16.5877 7.27056 16.4145C7.29456 16.2412 7.31931 16.05 7.33131 15.8692C7.21356 15.297 7.11456 15.246 7.08681 15.2437C7.07181 15.2437 7.01181 15.2565 6.92556 15.4912C6.92156 15.7242 6.91831 15.958 6.91581 16.1925C6.91331 16.427 6.91031 16.6525 6.90681 16.869V16.875Z" fill="#373435"/>
<path d="M14.3858 16.851C14.4165 16.4603 14.3745 16.1348 14.3858 15.7523C14.397 15.2888 14.8553 15.423 14.8748 15.8483C14.8943 16.2735 14.9168 16.4918 14.94 16.9163C14.7543 16.9477 14.5635 16.9251 14.3903 16.851H14.3858Z" fill="#8093D0"/>
<path d="M14.7172 16.9635C14.5999 16.9676 14.4835 16.9418 14.3789 16.8885H14.3459V16.8457C14.3594 16.637 14.3609 16.4276 14.3504 16.2187C14.3459 16.0687 14.3407 15.9135 14.3459 15.7492C14.3519 15.5077 14.4712 15.4207 14.5807 15.42C14.7307 15.42 14.9009 15.5812 14.9122 15.8445C14.9234 16.0612 14.9347 16.2195 14.9452 16.3852C14.9557 16.551 14.9662 16.7025 14.9774 16.9102V16.9507L14.8612 16.9552C14.8134 16.961 14.7653 16.9637 14.7172 16.9635ZM14.4269 16.8255C14.5642 16.8822 14.7142 16.9009 14.8612 16.8795H14.8972C14.8881 16.7174 14.8781 16.5554 14.8672 16.3935C14.8567 16.2307 14.8462 16.0687 14.8342 15.8512C14.8222 15.6337 14.6969 15.5025 14.5822 15.5025C14.4884 15.5025 14.4322 15.5977 14.4262 15.7545C14.4202 15.9112 14.4262 16.0702 14.4307 16.2195C14.4399 16.4214 14.4387 16.6237 14.4269 16.8255Z" fill="#373435"/>
<path d="M14.3618 16.8652C14.3505 16.5787 14.3543 16.2345 14.343 15.948C14.37 15.5542 14.0985 14.973 13.992 15.6195C13.9582 15.8589 13.9379 16.1 13.9313 16.3417C14.0549 16.5317 14.1993 16.7073 14.3618 16.8652Z" fill="#B9C5EA"/>
<path d="M14.4045 16.9462L14.3378 16.8982C14.2058 16.7818 14.0905 16.6478 13.995 16.5C13.9639 16.4559 13.9319 16.4124 13.899 16.3695L13.8893 16.3575V16.3425C13.8945 16.2675 13.8983 16.1925 13.9013 16.1325C13.9069 15.9596 13.9235 15.7873 13.9508 15.6165C13.9643 15.5325 14.0063 15.2775 14.1405 15.294C14.2905 15.312 14.3978 15.7125 14.3813 15.954C14.3873 16.0935 14.3888 16.254 14.391 16.4092C14.3933 16.5645 14.3948 16.7242 14.4008 16.8667L14.4045 16.9462ZM13.971 16.3297C13.9973 16.3635 14.0273 16.4047 14.0603 16.4512C14.138 16.566 14.2245 16.6746 14.319 16.776C14.319 16.6575 14.3138 16.5307 14.3123 16.4077C14.3123 16.2532 14.3085 16.0927 14.3025 15.9502C14.3213 15.6712 14.1975 15.378 14.1323 15.3705C14.118 15.366 14.0663 15.411 14.0303 15.6262C14.0034 15.794 13.9871 15.9634 13.9815 16.1332L13.971 16.329V16.3297ZM10.9523 11.5942C11.1473 10.6642 11.3385 9.73424 11.5335 8.80049C11.5643 8.58224 11.6213 8.38724 11.8508 8.36774H12.1298C12.2978 8.36774 12.3938 8.46749 12.4088 8.66774L12.3518 9.08099C12.3593 9.24974 12.4628 9.34499 12.669 9.36074C12.948 9.37199 13.2315 9.38774 13.5105 9.39899C13.9313 9.42599 14.214 9.60599 14.1855 10.1302L13.9215 11.5155C13.9167 11.6225 13.8804 11.7257 13.8172 11.8122C13.7539 11.8987 13.6666 11.9645 13.566 12.0015C13.44 11.994 13.2983 12.009 13.1723 12.0015C12.954 12.0127 12.828 11.9325 12.9083 11.6452C12.9885 11.2815 13.0883 10.8262 13.1723 10.4625C13.203 10.0297 13.0425 10.0072 12.8723 9.97649C12.7268 9.95699 12.5858 9.97649 12.4403 9.95699C12.2258 9.98774 12.1455 10.194 12.0848 10.4242C11.9933 10.8105 11.8973 11.1975 11.8058 11.5875C11.7638 11.7982 11.718 11.9355 11.5613 12.0007H11.0948C10.9188 11.9622 10.8688 11.8245 10.9448 11.5875L10.9523 11.5942Z" fill="#373435"/>
<path d="M13.2517 12.0825H13.1699C13.1136 12.092 13.0558 12.0876 13.0016 12.0697C12.9474 12.0518 12.8983 12.0209 12.8587 11.9797C12.8255 11.9274 12.8055 11.8677 12.8004 11.806C12.7953 11.7442 12.8053 11.6821 12.8294 11.625L12.8752 11.4165C12.9449 11.1 13.0252 10.7467 13.0912 10.452C13.1144 10.1032 13.0207 10.086 12.8662 10.0575C12.7267 10.0387 12.5924 10.0575 12.4424 10.0395C12.2924 10.0665 12.2242 10.2157 12.1627 10.446L12.0382 10.9627L11.8837 11.6077C11.8327 11.8237 11.7914 11.9932 11.5919 12.0765L11.5769 12.0825H11.0774C11.035 12.0755 10.9946 12.0595 10.9589 12.0356C10.9231 12.0117 10.893 11.9803 10.8704 11.9437C10.8442 11.8847 10.8307 11.8208 10.8307 11.7562C10.8307 11.6916 10.8442 11.6278 10.8704 11.5687L10.8952 11.4937L11.1952 10.0395L11.4539 8.79372C11.4749 8.64372 11.5192 8.32497 11.8432 8.29797H12.1289C12.2519 8.29797 12.4627 8.34597 12.4874 8.67297V8.68122L12.4297 9.09522C12.4349 9.17997 12.4702 9.27672 12.6727 9.29172L13.0934 9.31047L13.5112 9.32922C13.618 9.31924 13.7256 9.33405 13.8257 9.37252C13.9258 9.41099 14.0156 9.47206 14.0882 9.55098C14.1608 9.62989 14.2142 9.72452 14.2442 9.82747C14.2742 9.93042 14.28 10.0389 14.2612 10.1445V10.155L13.9972 11.541C13.9898 11.6617 13.9473 11.7777 13.875 11.8747C13.8027 11.9717 13.7036 12.0455 13.5899 12.087L13.5749 12.0922H13.3687C13.3304 12.081 13.2907 12.0825 13.2517 12.0825ZM13.1707 11.9205H13.5524C13.6356 11.8859 13.7071 11.8282 13.7583 11.7541C13.8095 11.68 13.8383 11.5927 13.8412 11.5027L14.1044 10.1197C14.1277 9.69822 13.9484 9.50622 13.5044 9.47847L13.0874 9.45972L12.6652 9.44022C12.3352 9.41547 12.2767 9.20697 12.2714 9.08472V9.07497L12.3284 8.66322C12.3112 8.47122 12.2129 8.44647 12.1297 8.44647H11.8507C11.7127 8.45847 11.6482 8.55372 11.6122 8.81022L11.3519 10.0612C11.2449 10.5777 11.1374 11.0937 11.0294 11.6092L10.9994 11.754L10.9904 11.745C10.9848 11.7836 10.9908 11.823 11.0077 11.8582C11.0184 11.8743 11.0323 11.888 11.0486 11.8985C11.0649 11.9089 11.0831 11.9159 11.1022 11.919H11.5424C11.6497 11.868 11.6864 11.769 11.7254 11.5695L11.8807 10.9207L12.0052 10.4025C12.0509 10.2315 12.1342 9.91647 12.4274 9.87747H12.4492C12.5857 9.89547 12.7282 9.87747 12.8812 9.89697H12.8917C13.1062 9.93597 13.2809 10.0057 13.2487 10.4662V10.479C13.1804 10.7745 13.0987 11.13 13.0319 11.448L12.9847 11.661C12.9547 11.7682 12.9547 11.8417 12.9847 11.8777C13.0147 11.9137 13.1024 11.9235 13.1669 11.9205H13.1707Z" fill="#FEFEFE"/>
<path d="M7.33802 12.6705C7.52927 11.679 7.72427 10.6875 7.91627 9.69973C7.91377 9.65485 7.92078 9.60995 7.93682 9.56797C7.95286 9.52598 7.97757 9.48785 8.00936 9.45607C8.04114 9.42428 8.07927 9.39957 8.12126 9.38353C8.16324 9.36749 8.20814 9.36048 8.25302 9.36298H10.014C10.1818 9.35803 10.3478 9.39891 10.4941 9.48124C10.6404 9.56357 10.7614 9.68423 10.8443 9.83023C10.9622 10.0437 11.0116 10.2882 10.986 10.5307C10.9483 10.9471 10.7638 11.3366 10.4655 11.6295C10.2212 11.8358 9.92195 11.9661 9.60452 12.0045C9.30452 12.012 9.00452 12.0157 8.70452 12.024C8.53202 12.009 8.36027 12.0547 8.31827 12.1927C8.26502 12.3802 8.22677 12.5677 8.17277 12.7515C8.15404 12.7929 8.12658 12.8297 8.09227 12.8595C8.05797 12.8893 8.01763 12.9113 7.97402 12.924C7.80152 12.9277 7.62602 12.9277 7.45352 12.9315C7.26902 12.9345 7.30727 12.825 7.33802 12.6705ZM8.56652 10.971C8.61602 10.7107 8.67752 10.416 8.72327 10.1865C8.74771 10.1177 8.79368 10.0587 8.85435 10.0182C8.91502 9.97763 8.98715 9.95775 9.06002 9.96148C9.24158 9.9486 9.42389 9.97205 9.59627 10.0305C9.67174 10.061 9.73988 10.1071 9.79617 10.1659C9.85245 10.2247 9.89561 10.2948 9.92277 10.3715C9.94992 10.4482 9.96047 10.5298 9.9537 10.611C9.94694 10.6921 9.92302 10.7708 9.88352 10.842C9.81682 10.9673 9.72604 11.0781 9.61638 11.1682C9.50672 11.2583 9.38035 11.3259 9.24452 11.367C9.11979 11.3996 8.99073 11.4125 8.86202 11.4052C8.53277 11.3707 8.50577 11.283 8.56202 10.9687L8.56652 10.971Z" fill="#373435"/>
<path d="M7.44451 13.011C7.41257 13.0142 7.38032 13.0101 7.35019 12.9991C7.32005 12.9881 7.29281 12.9703 7.27051 12.9472C7.21351 12.879 7.23301 12.7867 7.25326 12.6892L7.26001 12.6555C7.36551 12.1095 7.47176 11.5635 7.57876 11.0175L7.83601 9.69598C7.83279 9.64426 7.84032 9.59243 7.85814 9.54376C7.87595 9.4951 7.90366 9.45065 7.93951 9.41323C7.98027 9.37048 8.0296 9.33682 8.08427 9.31446C8.13894 9.2921 8.19772 9.28154 8.25676 9.28348H10.014C10.1964 9.27791 10.3769 9.32261 10.5356 9.41269C10.6943 9.50277 10.8252 9.63476 10.914 9.79423C11.0384 10.0207 11.0907 10.2797 11.064 10.5367C11.0249 10.972 10.8325 11.3792 10.521 11.6857L10.512 11.694C10.2564 11.9091 9.94365 12.0449 9.61201 12.0847C9.45751 12.0892 9.30676 12.0915 9.15676 12.0945L8.70676 12.1042H8.69776C8.57701 12.0937 8.42476 12.1162 8.39776 12.2167C8.37076 12.3172 8.34901 12.3997 8.32276 12.492C8.29651 12.5842 8.27626 12.6795 8.24776 12.7747C8.2266 12.8282 8.19361 12.8763 8.15127 12.9152C8.10893 12.9542 8.05834 12.9831 8.00326 12.9997L7.98901 13.0057H7.97401L7.71526 13.0095L7.45351 13.0132L7.44451 13.011ZM7.39426 12.846C7.41283 12.851 7.4321 12.8527 7.45126 12.8512L7.71526 12.8475H7.95676C8.03776 12.8115 8.08426 12.7725 8.09701 12.732C8.12326 12.6397 8.14576 12.5482 8.17201 12.456C8.19826 12.3637 8.21851 12.2685 8.24701 12.174C8.29576 12.0135 8.47201 11.9272 8.71276 11.949L9.15826 11.9392L9.60826 11.9295C9.90687 11.8915 10.1881 11.768 10.4183 11.574C10.7009 11.2951 10.876 10.9254 10.9125 10.53C10.9369 10.3017 10.8903 10.0715 10.779 9.87073C10.7012 9.73837 10.5894 9.62929 10.4551 9.55489C10.3208 9.48049 10.169 9.44348 10.0155 9.44773H8.25301C8.21631 9.44625 8.17971 9.45265 8.14569 9.46649C8.11167 9.48033 8.081 9.5013 8.05576 9.52798C8.03405 9.55018 8.01743 9.57685 8.00707 9.60612C7.99671 9.63539 7.99285 9.66657 7.99576 9.69748V9.71998L7.73626 11.0527L7.41751 12.6907L7.41001 12.726C7.39859 12.7665 7.39353 12.8085 7.39501 12.8505L7.39426 12.846ZM8.93326 11.487H8.85376C8.79046 11.4885 8.72749 11.4774 8.66851 11.4544C8.60954 11.4314 8.55574 11.3968 8.51026 11.3527C8.44351 11.2635 8.44951 11.145 8.48401 10.9567L8.51101 10.8067L8.51626 10.812C8.54251 10.6777 8.57101 10.5397 8.59726 10.41L8.65201 10.1527C8.68311 10.0694 8.74009 9.99822 8.8146 9.94963C8.8891 9.90105 8.97721 9.8776 9.06601 9.88273C9.2554 9.87005 9.44542 9.89556 9.62476 9.95773C9.70395 9.98614 9.77634 10.0308 9.8373 10.0888C9.89825 10.1467 9.94644 10.2168 9.97876 10.2945C10.0144 10.388 10.0308 10.4878 10.027 10.5878C10.0231 10.6878 9.99904 10.786 9.95626 10.8765L9.95101 10.8862C9.87944 11.0197 9.78226 11.1378 9.66502 11.2336C9.54778 11.3295 9.41278 11.4013 9.26776 11.445C9.15787 11.4712 9.04546 11.4852 8.93251 11.487H8.93326ZM8.62351 11.103C8.61177 11.1533 8.61732 11.2062 8.63926 11.253C8.66551 11.2875 8.73901 11.31 8.87026 11.3242C8.99044 11.3302 9.11082 11.3178 9.22726 11.2875C9.3519 11.2493 9.46779 11.1869 9.5683 11.1039C9.66881 11.0209 9.75197 10.9189 9.81301 10.8037C9.84592 10.7337 9.86452 10.6579 9.86774 10.5806C9.87096 10.5034 9.85873 10.4262 9.83176 10.3537C9.80745 10.2964 9.7715 10.2447 9.72619 10.202C9.68087 10.1593 9.62718 10.1264 9.56851 10.1055C9.40596 10.0507 9.23408 10.029 9.06301 10.0417C9.00628 10.0371 8.94962 10.0515 8.90205 10.0828C8.85448 10.114 8.81873 10.1603 8.80051 10.2142L8.75476 10.4392C8.71876 10.6162 8.67976 10.809 8.64601 10.986L8.62351 11.103Z" fill="#FEFEFE"/>
<path d="M14.0288 12.6705C14.22 11.679 14.415 10.6875 14.607 9.69973C14.6045 9.65485 14.6115 9.60995 14.6276 9.56797C14.6436 9.52598 14.6683 9.48785 14.7001 9.45607C14.7319 9.42428 14.77 9.39957 14.812 9.38353C14.854 9.36749 14.8989 9.36048 14.9438 9.36298H16.7048C16.8726 9.35803 17.0385 9.39891 17.1848 9.48124C17.3311 9.56357 17.4522 9.68423 17.535 9.83023C17.6529 10.0437 17.7024 10.2882 17.6768 10.5307C17.6391 10.9471 17.4546 11.3366 17.1563 11.6295C16.912 11.8358 16.6127 11.9661 16.2953 12.0045C15.9953 12.012 15.6953 12.0157 15.3953 12.024C15.2228 12.009 15.051 12.0547 15.009 12.1927C14.9558 12.3802 14.9175 12.5677 14.8635 12.7515C14.8448 12.7929 14.8173 12.8297 14.783 12.8595C14.7487 12.8893 14.7084 12.9113 14.6648 12.924C14.4923 12.9277 14.3168 12.9277 14.1443 12.9315C13.9598 12.9345 13.995 12.825 14.0288 12.6705ZM15.2573 10.971C15.3068 10.7107 15.3683 10.416 15.414 10.1865C15.4385 10.1177 15.4844 10.0587 15.5451 10.0182C15.6058 9.97763 15.6779 9.95775 15.7508 9.96148C15.9323 9.9486 16.1146 9.97205 16.287 10.0305C16.3625 10.061 16.4306 10.1071 16.4869 10.1659C16.5432 10.2247 16.5864 10.2948 16.6135 10.3715C16.6407 10.4482 16.6512 10.5298 16.6445 10.611C16.6377 10.6921 16.6138 10.7708 16.5743 10.842C16.5076 10.9673 16.4168 11.0781 16.3071 11.1682C16.1975 11.2583 16.0711 11.3259 15.9353 11.367C15.8105 11.3996 15.6815 11.4125 15.5528 11.4052C15.2235 11.3707 15.1965 11.283 15.2528 10.9687L15.2573 10.971Z" fill="#373435"/>
<path d="M14.1352 13.011C14.1033 13.0142 14.071 13.0101 14.0409 12.999C14.0108 12.988 13.9835 12.9703 13.9612 12.9472C13.9042 12.879 13.9237 12.7867 13.9439 12.6892L13.9507 12.6555C14.0557 12.111 14.1614 11.567 14.2679 11.0235L14.5267 9.69598C14.5235 9.64426 14.531 9.59243 14.5488 9.54376C14.5666 9.4951 14.5943 9.45065 14.6302 9.41323C14.6709 9.37048 14.7203 9.33682 14.7749 9.31446C14.8296 9.2921 14.8884 9.28154 14.9474 9.28348H16.7047C16.8871 9.27791 17.0676 9.32261 17.2263 9.41269C17.385 9.50277 17.5159 9.63476 17.6047 9.79423C17.729 10.0207 17.7813 10.2797 17.7547 10.5367C17.7155 10.972 17.5231 11.3792 17.2117 11.6857L17.2027 11.694C16.9471 11.9091 16.6343 12.0449 16.3027 12.0847C16.1482 12.0892 15.9974 12.0915 15.8474 12.0945L15.3974 12.1042H15.3884C15.2669 12.0937 15.1154 12.1162 15.0884 12.2167C15.0614 12.3172 15.0397 12.3997 15.0134 12.4912C14.9872 12.5827 14.9669 12.6795 14.9384 12.774C14.9173 12.8275 14.8843 12.8755 14.8419 12.9145C14.7996 12.9534 14.749 12.9823 14.6939 12.999L14.6797 13.005H14.6647L14.4059 13.0087L14.1442 13.0125L14.1352 13.011ZM14.0849 12.846C14.1035 12.8508 14.1228 12.8526 14.1419 12.8512L14.4059 12.8475H14.6474C14.7284 12.8115 14.7749 12.7725 14.7877 12.732C14.8139 12.6397 14.8372 12.5475 14.8627 12.456C14.8882 12.3645 14.9092 12.2692 14.9377 12.1747C14.9864 12.0142 15.1627 11.928 15.4034 11.9497L15.8489 11.94L16.2989 11.9302C16.5975 11.8922 16.8788 11.7688 17.1089 11.5747C17.3916 11.2959 17.5666 10.9261 17.6032 10.5307C17.6276 10.3025 17.581 10.0722 17.4697 9.87148C17.3919 9.73912 17.28 9.63004 17.1457 9.55564C17.0114 9.48124 16.8597 9.44423 16.7062 9.44848H14.9437C14.907 9.4469 14.8703 9.45325 14.8363 9.4671C14.8023 9.48095 14.7716 9.50197 14.7464 9.52873C14.7247 9.55093 14.7081 9.5776 14.6977 9.60687C14.6874 9.63614 14.6835 9.66732 14.6864 9.69823V9.72073L14.4262 11.0595L14.1089 12.6915L14.1014 12.7267C14.09 12.7672 14.085 12.8092 14.0864 12.8512L14.0849 12.846ZM15.6239 11.487H15.5444C15.4811 11.4885 15.4182 11.4774 15.3592 11.4544C15.3002 11.4314 15.2464 11.3968 15.2009 11.3527C15.1342 11.2635 15.1402 11.145 15.1747 10.9567L15.2017 10.8067L15.2069 10.812C15.2332 10.677 15.2617 10.5382 15.2879 10.4077L15.3427 10.152C15.3735 10.0684 15.4304 9.99706 15.505 9.94842C15.5795 9.89979 15.6678 9.87649 15.7567 9.88198C15.9461 9.86952 16.136 9.89502 16.3154 9.95698C16.3946 9.98539 16.467 10.03 16.528 10.088C16.5889 10.146 16.6371 10.2161 16.6694 10.2937C16.7051 10.3873 16.7215 10.487 16.7176 10.587C16.7138 10.687 16.6897 10.7852 16.6469 10.8757L16.6417 10.8855C16.5701 11.019 16.4729 11.137 16.3557 11.2329C16.2385 11.3288 16.1035 11.4006 15.9584 11.4442C15.8488 11.4706 15.7367 11.4849 15.6239 11.487ZM15.3134 11.1037C15.3017 11.1541 15.3072 11.2069 15.3292 11.2537C15.3554 11.2882 15.4289 11.3107 15.5602 11.325C15.6804 11.3309 15.8007 11.3185 15.9172 11.2882C16.0418 11.2501 16.1577 11.1877 16.2582 11.1047C16.3587 11.0217 16.4419 10.9197 16.5029 10.8045C16.5358 10.7345 16.5544 10.6586 16.5577 10.5814C16.5609 10.5041 16.5487 10.427 16.5217 10.3545C16.4974 10.2971 16.4614 10.2455 16.4161 10.2027C16.3708 10.16 16.3171 10.1271 16.2584 10.1062C16.0959 10.0514 15.924 10.0297 15.7529 10.0425C15.6962 10.0379 15.6396 10.0524 15.5921 10.0837C15.5445 10.1149 15.5088 10.1611 15.4904 10.215L15.4447 10.44C15.4087 10.6177 15.3697 10.8112 15.3359 10.9882L15.3134 11.1037Z" fill="#FEFEFE"/>
<path d="M2.68871 17.1795C2.59903 17.0934 2.52314 16.994 2.46371 16.8848C2.37115 16.7162 2.32629 16.5256 2.33396 16.3335C2.13896 13.0088 2.31071 10.101 3.37046 7.72502C3.50021 7.43402 3.52046 7.34627 3.79121 7.21202C4.61836 6.90874 5.50563 6.80593 6.38021 6.91202C6.40721 6.83702 6.46046 6.76202 6.43721 6.68702C5.64575 6.62366 4.84924 6.68695 4.07771 6.87452C3.55271 6.95852 3.04121 7.05077 2.91521 7.88477C1.85621 10.689 1.93271 13.3448 2.04296 15.954C2.04217 16.1422 2.07051 16.3295 2.12696 16.509C2.33321 17.1668 2.53271 17.1443 2.68946 17.1788L2.68871 17.1795ZM6.75596 16.7633C6.75596 16.071 6.69896 15.3788 6.69896 14.6835C6.67093 14.2868 6.58476 13.8964 6.44321 13.5248C6.28981 13.2544 6.1142 12.9973 5.91821 12.756C6.51411 13.8885 6.69962 15.1923 6.44321 16.446C6.54971 16.5525 6.64496 16.6598 6.75596 16.7633Z" fill="#EBEFFF"/>
<path d="M6.81301 16.9005L6.75976 16.8803C6.55965 16.7943 6.38802 16.6533 6.26476 16.4738L6.21301 16.4085H6.26176C6.27301 16.1603 6.26851 15.933 6.26176 15.7125C6.25726 15.48 6.25201 15.24 6.26551 14.976V14.9318L6.30976 14.9385C6.43211 14.9504 6.5477 15.0001 6.64046 15.0808C6.73321 15.1614 6.79851 15.269 6.82726 15.3885V15.4005L6.81751 16.1168L6.80776 16.8443L6.81301 16.9005ZM6.33976 16.44C6.44284 16.5836 6.5779 16.7012 6.73426 16.7835C6.73426 16.5465 6.74026 16.3335 6.74326 16.1153C6.74326 15.8903 6.74926 15.66 6.75301 15.405C6.72972 15.3088 6.67861 15.2216 6.60605 15.1542C6.53349 15.0868 6.4427 15.0423 6.34501 15.0263C6.33451 15.2693 6.33901 15.4935 6.34501 15.711C6.34501 15.9413 6.35251 16.179 6.33976 16.44Z" fill="#373435"/>
<path d="M7.80901 17.7427C7.65259 17.681 7.52082 17.5695 7.43401 17.4255C7.40701 16.1895 7.38376 14.9505 7.35901 13.7137L7.54726 13.9012C7.5894 14.1618 7.60873 14.4256 7.60501 14.6895L7.66276 14.8395C7.6617 15.8091 7.71051 16.7781 7.80901 17.7427Z" fill="#EBEFFF"/>
<path d="M7.87122 18.0172L7.81872 18C7.60058 17.9232 7.42002 17.766 7.31397 17.5605L7.30872 17.55V17.535C7.30872 17.1232 7.31622 16.6972 7.31622 16.2802V16.2697L7.32147 16.2607C7.43472 16.0545 7.53222 15.9217 7.63872 15.9427C7.72197 15.9592 7.81572 16.056 7.87872 16.644C7.87872 17.0812 7.87122 17.5267 7.87122 17.9625V18.0172ZM7.38897 17.5297C7.47749 17.6963 7.6193 17.8283 7.79172 17.9047C7.79172 17.487 7.79547 17.0617 7.79922 16.6492C7.74072 16.1025 7.65672 16.0275 7.62372 16.0207C7.59072 16.014 7.52622 16.056 7.39872 16.29C7.39497 16.7025 7.39497 17.1232 7.38897 17.5305V17.5297Z" fill="#373435"/>
<path d="M6.49502 13.5427C6.49733 13.4791 6.48818 13.4156 6.46802 13.3552C6.49877 13.3627 6.52952 13.3665 6.55952 13.3747L7.04477 13.7692C7.11234 13.7406 7.16613 13.6868 7.19477 13.6192C7.22545 13.6187 7.25585 13.6252 7.28365 13.6382C7.31146 13.6512 7.33595 13.6704 7.35527 13.6942C7.36277 14.0085 7.34027 14.3182 7.34777 14.6317C7.39813 14.6747 7.43074 14.7348 7.43927 14.8005C7.64019 14.8085 7.8405 14.8278 8.03927 14.8582C8.05052 14.9077 8.06627 14.9385 8.07752 14.9887C7.85322 14.9636 7.62681 14.9636 7.40252 14.9887V15.1305C7.57843 15.1215 7.75477 15.1343 7.92752 15.1687L7.94627 15.2722C7.75951 15.2498 7.57061 15.2524 7.38452 15.2797C7.41152 16.0515 7.41152 16.824 7.38452 17.5957C7.32302 17.4502 7.20527 17.3085 7.14002 17.163C7.25648 16.1731 7.27181 15.174 7.18577 14.181C7.00783 13.9178 6.77141 13.6994 6.49502 13.5427Z" fill="#373435"/>
<path d="M7.27799 17.643C7.24476 17.5715 7.20589 17.5028 7.16174 17.4375C7.11393 17.3657 7.07133 17.2905 7.03424 17.2125L7.01999 17.1818L7.02449 17.148C7.13818 16.1771 7.15376 15.1971 7.07099 14.223C6.90162 13.9877 6.68371 13.7916 6.43199 13.6478L6.36449 13.6043L6.37949 13.5248C6.37977 13.496 6.37521 13.4673 6.36599 13.44C6.36086 13.4204 6.35636 13.4007 6.35249 13.3808L6.31799 13.197L6.49949 13.242L6.53849 13.2503C6.55574 13.2503 6.57374 13.257 6.59099 13.2615L6.61649 13.2683L7.05449 13.6238C7.06731 13.6119 7.07731 13.5973 7.08374 13.581L7.11299 13.506H7.19624C7.2464 13.5056 7.29595 13.517 7.3409 13.5393C7.38584 13.5616 7.42492 13.5941 7.45499 13.6343L7.47524 13.6635V13.6995C7.47899 13.8593 7.47524 14.0198 7.47149 14.1743C7.47149 14.3115 7.46474 14.4533 7.46699 14.5928C7.4929 14.6224 7.5146 14.6555 7.53149 14.691C7.65599 14.6963 7.77899 14.7128 7.89899 14.7278L8.05349 14.7465L8.13749 14.7563L8.15624 14.8388C8.16056 14.857 8.16582 14.8751 8.17199 14.8928C8.17949 14.916 8.18774 14.94 8.19449 14.9678L8.23124 15.1268L8.06849 15.114H8.03924L8.09399 15.414L7.93574 15.3975C7.79406 15.3813 7.65112 15.379 7.50899 15.3908C7.53235 16.1291 7.53235 16.868 7.50899 17.6063L7.27799 17.643ZM7.26749 17.145L7.28174 17.172V17.0078C7.27824 17.0538 7.27349 17.0995 7.26749 17.145ZM7.10624 13.875C7.15369 13.9257 7.19755 13.9795 7.23749 14.0363V13.7768C7.19991 13.817 7.15547 13.8503 7.10624 13.875Z" fill="#373435"/>
<path d="M6.96069 6.72301C7.3067 6.67756 7.64005 6.56304 7.94094 6.38626C8.53752 6.0522 9.2029 5.85974 9.88569 5.82376C9.6032 5.69618 9.28541 5.66969 8.98569 5.74876C8.24966 5.9274 7.55962 6.25939 6.96069 6.72301ZM10.7054 6.30751C12.3478 5.83472 14.0999 5.91376 15.6929 6.53251C14.1268 5.84428 12.3693 5.72568 10.7249 6.19726C10.7242 6.27376 10.7054 6.23551 10.7054 6.30751Z" fill="#EBEFFF"/>
<defs>
<linearGradient id="paint0_linear_710_31109" x1="6.44929" y1="4.69608" x2="11.2311" y2="20.6202" gradientUnits="userSpaceOnUse">
<stop stop-color="#8A9FE0"/>
<stop offset="0.588" stop-color="#7182B8"/>
<stop offset="1" stop-color="#576490"/>
</linearGradient>
</defs>
</svg>
