<svg width="25" height="24" viewBox="0 0 25 24" fill="none" xmlns="http://www.w3.org/2000/svg">
<path d="M22.2503 14.0798C22.187 13.8954 22.0728 13.7328 21.921 13.6106C21.7692 13.4883 21.5859 13.4115 21.3923 13.389C21.1636 13.3615 20.9318 13.3745 20.7075 13.4273C20.3607 13.5039 20.0079 13.5503 19.653 13.566C20.602 11.9651 21.3267 10.2415 21.807 8.44352C22.5218 5.67677 22.14 4.41677 21.6938 3.84602C21.1012 3.09628 20.3427 2.49421 19.4781 2.08714C18.6135 1.68007 17.6662 1.4791 16.7108 1.50002C15.8343 1.4918 14.9615 1.61415 14.121 1.86302C13.6205 1.77719 13.1139 1.73105 12.606 1.72502C11.683 1.68997 10.7686 1.9153 9.96754 2.37527C9.36 2.16985 8.73702 2.01336 8.10454 1.90727C7.36723 1.73039 6.60229 1.70055 5.85345 1.81946C5.1046 1.93837 4.38654 2.20369 3.74029 2.60027C2.43979 3.51827 1.83679 5.11427 1.94854 7.34402C2.14862 9.00744 2.50162 10.6489 3.00304 12.2475C3.29181 13.2461 3.67192 14.2159 4.13854 15.1448C4.48314 15.9921 5.13825 16.6759 5.97004 17.0565C6.27493 17.157 6.60115 17.1741 6.91487 17.106C7.22859 17.038 7.51841 16.8873 7.75429 16.6695C7.86134 16.7963 7.98793 16.9051 8.12929 16.992C8.34837 17.128 8.58721 17.2292 8.83729 17.292C9.65587 17.52 10.5272 17.4672 11.3123 17.142C11.3168 17.2703 11.3205 17.3933 11.3228 17.4998C11.3273 17.6715 11.3325 17.8403 11.3385 17.9985C11.3296 18.8351 11.441 19.6686 11.6693 20.4735C11.6813 20.5058 11.697 20.5538 11.7135 20.6055C11.8453 21.0982 12.1012 21.5488 12.4568 21.9143C12.8831 22.3058 13.4457 22.5149 14.0243 22.497C14.2707 22.4955 14.5163 22.4681 14.757 22.4153C15.2134 22.358 15.6536 22.2099 16.0518 21.9797C16.4499 21.7495 16.7979 21.4419 17.0753 21.075C17.6835 20.2088 17.9798 18.9045 18.033 16.8488L18.0525 16.6823L18.0653 16.5735L18.2085 16.5863H18.2453C19.0563 16.6206 19.8653 16.4805 20.6175 16.1753C21.0908 15.9555 22.608 15.1545 22.2503 14.0753" fill="black"/>
<path d="M20.8867 14.2898C18.5145 14.7788 18.3517 13.9763 18.3517 13.9763C20.856 10.26 21.903 5.54252 20.9992 4.38827C18.5347 1.23827 14.268 2.72852 14.1967 2.76677L14.1735 2.77127C13.6523 2.66667 13.1225 2.61143 12.591 2.60627C11.6947 2.56129 10.8101 2.82612 10.086 3.35627C10.086 3.35627 2.47499 0.220516 2.82899 7.29977C2.90399 8.80577 4.98749 18.6953 7.47224 15.708C8.38049 14.616 9.25799 13.692 9.25799 13.692C9.69993 13.9903 10.2317 14.126 10.7625 14.076L10.8052 14.04C10.7927 14.1819 10.7985 14.3248 10.8225 14.4653C10.182 15.1808 10.3725 15.306 9.09074 15.5693C7.79624 15.8363 8.55674 16.311 9.05324 16.4355C9.58076 16.6062 10.1487 16.6058 10.676 16.4345C11.2033 16.2632 11.663 15.9296 11.9895 15.4815L11.952 15.6315C12.2025 15.8325 12.3787 16.938 12.3495 17.9408C12.2677 18.6866 12.3185 19.4409 12.4995 20.169C12.6975 20.7068 12.894 21.9158 14.5762 21.5558C15.1744 21.4967 15.7308 21.2223 16.1419 20.7838C16.553 20.3452 16.7909 19.7723 16.8112 19.1715C16.8862 18.246 17.046 18.3825 17.0557 17.5553L17.1862 17.1638C17.3362 15.909 17.2102 15.504 18.0757 15.6923L18.2865 15.711C18.9561 15.7391 19.6242 15.6267 20.2477 15.381C21.3022 14.892 21.927 14.0745 20.8875 14.2898" fill="#336791"/>
<path d="M10.5315 7.97323C10.3595 7.93703 10.1802 7.96363 10.0261 8.04823C10.006 8.06268 9.98899 8.08101 9.9761 8.10214C9.96322 8.12326 9.9547 8.14676 9.95105 8.17123C9.95106 8.25772 9.98221 8.34132 10.0388 8.40673C10.1394 8.54493 10.2897 8.63875 10.4581 8.66848C10.4804 8.67157 10.503 8.67308 10.5255 8.67298C10.637 8.67443 10.7462 8.64161 10.8383 8.57896C10.9305 8.51632 11.0012 8.42687 11.0408 8.32273C11.067 8.13673 10.7963 8.01223 10.5338 7.97548M17.6153 7.98148C17.595 7.83523 17.3348 7.79398 17.0903 7.83148C16.8458 7.86898 16.6051 7.97698 16.6253 8.12323C16.6634 8.21498 16.728 8.29329 16.8108 8.34819C16.8937 8.40309 16.9909 8.43209 17.0903 8.43148C17.1111 8.43144 17.1319 8.42994 17.1525 8.42698C17.2826 8.40413 17.4015 8.33902 17.4908 8.24173C17.5655 8.17616 17.6111 8.08363 17.6175 7.98448" fill="white"/>
<path d="M21.6758 14.2342C21.5851 13.9605 21.2941 13.8727 20.8103 13.9725C19.3741 14.2725 18.8603 14.0632 18.6908 13.9395C19.8281 12.1936 20.682 10.2786 21.2206 8.26575C21.4386 7.46954 21.5644 6.65093 21.5956 5.826C21.6534 5.24898 21.5192 4.669 21.2138 4.176C20.6733 3.49571 19.9821 2.95023 19.1948 2.58256C18.4076 2.21489 17.5457 2.03506 16.6771 2.05725C15.7848 2.04329 14.8968 2.18308 14.0521 2.4705C13.5689 2.35128 13.0737 2.28762 12.5761 2.28075C11.6808 2.24141 10.7959 2.48521 10.0471 2.9775C9.3805 2.7338 8.69246 2.5535 7.99205 2.439C6.65317 2.11499 5.24052 2.33193 4.06055 3.04275C2.93555 3.84075 2.41055 5.26725 2.5148 7.2825C2.71181 8.89764 3.0565 10.4913 3.54455 12.0435C4.34705 14.6722 5.2193 16.161 6.1373 16.4685C6.25597 16.5085 6.38033 16.529 6.50555 16.5292C6.73859 16.5148 6.96527 16.4475 7.16839 16.3323C7.37151 16.2172 7.54572 16.0573 7.6778 15.8647C8.1988 15.2397 8.73755 14.6302 9.29405 14.0362C9.6518 14.2299 10.0499 14.337 10.4566 14.349V14.3805C10.3866 14.4635 10.3183 14.548 10.2518 14.634C9.97055 14.9902 9.9128 15.0645 9.0083 15.2512C8.75105 15.3045 8.0678 15.4455 8.05805 15.9262C8.04755 16.4512 8.8658 16.6695 8.95805 16.6927C9.26415 16.7715 9.57875 16.8123 9.8948 16.8142C10.586 16.827 11.2563 16.5766 11.7698 16.1137C11.6931 17.5411 11.7891 18.9724 12.0556 20.3767C12.1787 20.8263 12.4452 21.2234 12.8146 21.5077C13.1841 21.792 13.6362 21.9479 14.1023 21.9517C14.3336 21.951 14.5641 21.9259 14.7901 21.8767C15.4071 21.8235 15.9847 21.5514 16.4187 21.1097C16.8528 20.6679 17.1146 20.0856 17.1571 19.4677C17.2898 18.6982 17.5178 16.8615 17.6251 15.876C17.8961 15.9505 18.1765 15.9851 18.4576 15.9787C19.1048 15.9834 19.7466 15.8611 20.3468 15.6187C20.8808 15.3705 21.8468 14.763 21.6691 14.2342H21.6758ZM18.1583 7.575C18.1487 7.85344 18.1196 8.13087 18.0713 8.40525C18.0155 8.72768 17.9805 9.05334 17.9663 9.38025C17.9638 9.74911 17.9888 10.1176 18.0413 10.4827C18.2033 11.2301 18.1436 12.0084 17.8696 12.7222C17.8113 12.619 17.7595 12.5123 17.7143 12.4028C17.6708 12.297 17.5756 12.1267 17.4451 11.892C16.9351 10.977 15.7396 8.8335 16.3516 7.959C16.5338 7.69875 16.9966 7.434 18.1576 7.575H18.1583ZM16.7506 2.64825C17.5182 2.63255 18.2791 2.79521 18.9733 3.12343C19.6675 3.45165 20.276 3.93647 20.7511 4.53975C21.4823 5.4735 20.6761 9.72375 18.3473 13.3897L18.2768 13.3005L18.2476 13.2637C18.7102 12.3895 18.8448 11.3786 18.6271 10.4137C18.5769 10.0781 18.5518 9.73914 18.5521 9.39975C18.5656 9.09648 18.5985 8.79437 18.6503 8.49525C18.7178 8.12594 18.7487 7.75087 18.7425 7.3755C18.7548 7.32394 18.7581 7.27067 18.7523 7.218C18.5038 6.2137 18.0112 5.28627 17.3183 4.518C16.6957 3.78431 15.9169 3.19905 15.0391 2.805C15.6013 2.68777 16.1748 2.63393 16.7491 2.6445L16.7506 2.64825ZM7.2293 15.4905C6.75905 16.056 6.43355 15.948 6.3293 15.912C5.6333 15.6795 4.8248 14.208 4.11305 11.874C3.64046 10.3674 3.30411 8.82148 3.10805 7.25475C3.01805 5.45475 3.45455 4.19925 4.40555 3.52425C5.9528 2.427 8.49755 3.084 9.5198 3.417C9.5048 3.43125 9.4898 3.44475 9.47555 3.45975C7.7978 5.154 7.83755 8.049 7.84205 8.226C7.84205 8.29425 7.8473 8.391 7.85555 8.526C7.91705 9.33248 7.8967 10.1431 7.7948 10.9455C7.72507 11.4049 7.7609 11.8742 7.89955 12.3177C8.03821 12.7612 8.27606 13.1673 8.59505 13.5052C8.66155 13.5742 8.73105 13.6397 8.80355 13.7017C8.26165 14.2829 7.73643 14.8794 7.22855 15.4905H7.2293ZM9.0218 13.098C8.76315 12.8245 8.57028 12.4957 8.45786 12.1365C8.34544 11.7773 8.31644 11.3971 8.37305 11.025C8.48056 10.1841 8.50242 9.33453 8.4383 8.48925C8.43432 8.42853 8.43082 8.36778 8.4278 8.307C9.05606 7.8335 9.83573 7.60597 10.6201 7.66725C10.8005 7.70815 10.9638 7.80421 11.0871 7.9421C11.2105 8.07999 11.2879 8.25287 11.3086 8.43675C11.7931 10.6785 11.3723 11.6122 11.0348 12.363C10.9651 12.5175 10.8991 12.663 10.8436 12.813L10.8001 12.93C10.6923 13.2018 10.6001 13.4795 10.5241 13.7618C10.2421 13.7577 9.96385 13.6967 9.70607 13.5824C9.44829 13.4681 9.2163 13.3028 9.02405 13.0965L9.0218 13.098ZM9.10655 16.1205C8.96739 16.0863 8.83485 16.0292 8.7143 15.9517C8.84836 15.8945 8.98852 15.8527 9.13205 15.8272C10.1956 15.6082 10.3598 15.4522 10.7191 14.9985C10.8016 14.8942 10.8946 14.7735 11.0236 14.6317C11.2156 14.4165 11.3041 14.4532 11.4631 14.5192C11.5385 14.5602 11.6046 14.6163 11.6573 14.6841C11.7099 14.7519 11.748 14.8298 11.7691 14.913C11.79 14.9734 11.7975 15.0377 11.791 15.1013C11.7846 15.1649 11.7643 15.2263 11.7316 15.2812C11.4408 15.6827 11.0294 15.9808 10.5573 16.1319C10.0852 16.283 9.57713 16.2793 9.1073 16.1212L9.10655 16.1205ZM14.6746 21.3C14.4641 21.3732 14.2405 21.4011 14.0185 21.3821C13.7965 21.363 13.581 21.2973 13.386 21.1893C13.1911 21.0813 13.0212 20.9334 12.8873 20.7553C12.7534 20.5771 12.6586 20.3728 12.6091 20.1555C12.3449 18.4558 12.2695 16.7321 12.3841 15.0157C12.3848 14.9843 12.3805 14.9529 12.3713 14.9227C12.3634 14.8645 12.3514 14.8068 12.3353 14.7502C12.2909 14.5815 12.2099 14.4247 12.0982 14.2907C11.9865 14.1567 11.8468 14.0488 11.6888 13.9747C11.5047 13.8834 11.2951 13.857 11.0941 13.8997C11.1651 13.6396 11.2507 13.3837 11.3506 13.1332L11.3941 13.0155C11.4436 12.8827 11.5051 12.7455 11.5703 12.6C11.9236 11.8147 12.4081 10.7385 11.8823 8.3085C11.849 8.1018 11.7738 7.9041 11.6612 7.7276C11.5485 7.5511 11.401 7.39954 11.2276 7.28226C11.0541 7.16497 10.8585 7.08446 10.6528 7.04567C10.447 7.00689 10.2355 7.01066 10.0313 7.05675C9.53731 7.12083 9.05834 7.27084 8.61605 7.5C8.55755 7.53 8.50355 7.5585 8.45405 7.58625C8.51078 6.22347 9.01653 4.9177 9.89255 3.87225C10.2444 3.52791 10.6643 3.26091 11.1254 3.08835C11.5865 2.9158 12.0786 2.84151 12.5701 2.87025C13.4003 2.87746 14.2189 3.06677 14.9681 3.42482C15.7172 3.78287 16.3787 4.30095 16.9058 4.9425C17.4202 5.5432 17.8222 6.23171 18.0923 6.975C16.9951 6.86325 16.2488 7.08 15.8708 7.62075C15.0458 8.79675 16.3208 11.0797 16.9328 12.177C17.0453 12.378 17.1421 12.552 17.1721 12.627C17.3337 13.0043 17.5514 13.355 17.8178 13.6672C17.8756 13.7422 17.9318 13.809 17.9738 13.8705C17.6416 13.9665 17.0446 14.1877 17.0993 15.2955C17.0558 15.8505 16.7438 18.4492 16.5848 19.368C16.3756 20.5807 15.9293 21.033 14.6738 21.3022L14.6746 21.3ZM20.1061 15.084C19.6443 15.2672 19.1543 15.3687 18.6578 15.384C18.3275 15.4327 17.9901 15.3893 17.6828 15.2587C17.6491 14.5695 17.9078 14.4975 18.1778 14.421C18.2206 14.409 18.2618 14.397 18.3023 14.3835C18.3288 14.4049 18.3563 14.4249 18.3848 14.4435C18.8641 14.76 19.7198 14.7937 20.9273 14.5447H20.9408C20.6912 14.7667 20.4089 14.9488 20.1038 15.0847L20.1061 15.084Z" fill="white"/>
</svg>
