<svg width="25" height="24" viewBox="0 0 25 24" fill="none" xmlns="http://www.w3.org/2000/svg">
<path d="M24.0218 13.5237C24.8617 6.94894 20.2185 0.937969 13.6557 0.0981562C7.09293 -0.74175 1.05796 3.9015 0.218151 10.4643C-0.621755 17.0271 4.0215 23.05 10.5843 23.9018C17.1591 24.7418 23.17 20.0985 24.0218 13.5237Z" fill="#FF6C37"/>
<path d="M16.4513 7.70478L11.3881 12.7679L9.96033 11.3401C14.9395 6.36106 15.4314 6.79296 16.4512 7.70478H16.4513Z" fill="white"/>
<path d="M11.3881 12.8878C11.3521 12.8878 11.3281 12.8758 11.3041 12.8518L9.86433 11.4241C9.85297 11.4132 9.84392 11.4002 9.83774 11.3858C9.83156 11.3714 9.82837 11.3558 9.82837 11.3401C9.82837 11.3244 9.83156 11.3089 9.83774 11.2945C9.84392 11.28 9.85297 11.267 9.86433 11.2562C14.9274 6.19301 15.4553 6.67292 16.5231 7.63273C16.5471 7.65673 16.5591 7.68073 16.5591 7.71673C16.5591 7.75273 16.5471 7.77673 16.5231 7.80073L11.4601 12.8518C11.4481 12.8758 11.4121 12.8878 11.3881 12.8878ZM10.1283 11.3401L11.3881 12.5999L16.2712 7.71673C15.3834 6.92492 14.7834 6.68492 10.1283 11.3402V11.3401Z" fill="#FF6C37"/>
<path d="M12.8398 14.2196L11.4601 12.8398L16.5231 7.77673C17.879 9.14455 15.8513 11.3641 12.8398 14.2196Z" fill="white"/>
<path d="M12.8398 14.3396C12.8038 14.3396 12.7798 14.3276 12.7559 14.3036L11.3761 12.9238C11.3521 12.8998 11.3521 12.8758 11.3521 12.8398C11.3521 12.8039 11.3641 12.7798 11.3881 12.7559L16.4512 7.69275C16.462 7.68137 16.4751 7.67231 16.4895 7.66612C16.504 7.65993 16.5195 7.65674 16.5352 7.65674C16.5509 7.65674 16.5665 7.65993 16.5809 7.66612C16.5953 7.67231 16.6084 7.68137 16.6192 7.69275C16.7724 7.83451 16.8934 8.00745 16.9741 8.19993C17.0548 8.39241 17.0934 8.59994 17.0871 8.80856C17.0631 10.1404 15.5515 11.832 12.9359 14.3036C12.8999 14.3276 12.8639 14.3396 12.8399 14.3396H12.8398ZM11.6281 12.8398C12.3959 13.6197 12.7199 13.9316 12.8398 14.0516C14.8554 12.132 16.811 10.1644 16.8231 8.80856C16.8351 8.49666 16.7151 8.18466 16.5111 7.94475L11.6281 12.8398Z" fill="#FF6C37"/>
<path d="M9.98439 11.3761L11.0042 12.3959C11.0282 12.4199 11.0282 12.4439 11.0042 12.4679C10.9922 12.4799 10.9922 12.4799 10.9802 12.4799L8.86857 12.9358C8.76057 12.9478 8.66457 12.8758 8.64057 12.7679C8.62857 12.7079 8.65257 12.6479 8.68857 12.6119L9.91239 11.3881C9.93639 11.3641 9.97239 11.3521 9.98439 11.3761Z" fill="white"/>
<path d="M8.83254 13.0558C8.65254 13.0558 8.52063 12.9118 8.52063 12.7319C8.52063 12.6479 8.55663 12.5639 8.61663 12.5039L9.84035 11.2801C9.91235 11.2201 10.0083 11.2201 10.0803 11.2801L11.1002 12.2999C11.1722 12.3599 11.1722 12.4679 11.1002 12.5399C11.0762 12.5639 11.0522 12.5759 11.0162 12.5879L8.90454 13.0438C8.88054 13.0438 8.85654 13.0558 8.83254 13.0558ZM9.94835 11.5081L8.77254 12.6839C8.74854 12.7079 8.73654 12.7439 8.76054 12.7799C8.77254 12.8159 8.80854 12.8278 8.84454 12.8159L10.8242 12.3839L9.94835 11.5081Z" fill="#FF6C37"/>
<path d="M19.1267 4.89733C18.3589 4.15343 17.1231 4.17743 16.3793 4.95733C15.6354 5.73714 15.6594 6.96096 16.4393 7.70477C16.7471 8.0022 17.1447 8.18939 17.57 8.23715C17.9954 8.2849 18.4246 8.19054 18.7907 7.96877L17.4229 6.60096L19.1266 4.89733H19.1267Z" fill="white"/>
<path d="M17.783 8.36468C16.6432 8.36468 15.7194 7.44086 15.7194 6.30105C15.7194 5.16124 16.6432 4.23743 17.783 4.23743C18.3108 4.23743 18.8268 4.44143 19.2108 4.81333C19.2347 4.83733 19.2467 4.86133 19.2467 4.89733C19.2467 4.93333 19.2347 4.95733 19.2107 4.98133L17.591 6.60096L18.8628 7.87277C18.9108 7.92077 18.9108 7.99277 18.8628 8.04077L18.8388 8.06477C18.5268 8.25668 18.1549 8.36477 17.783 8.36477V8.36468ZM17.783 4.48943C16.7752 4.48943 15.9593 5.30524 15.9713 6.31305C15.9713 7.32086 16.7872 8.13677 17.795 8.12477C18.0709 8.12477 18.3469 8.06477 18.5988 7.93277L17.3391 6.68496C17.3151 6.66096 17.3031 6.63696 17.3031 6.60096C17.3031 6.56505 17.3151 6.54096 17.3391 6.51705L18.9468 4.90924C18.6228 4.63333 18.2149 4.48943 17.783 4.48943Z" fill="#FF6C37"/>
<path d="M19.1627 4.9333L19.1387 4.9093L17.4231 6.60093L18.7788 7.95674C18.9108 7.87274 19.0427 7.77674 19.1507 7.66874C19.3325 7.4907 19.4771 7.27835 19.5762 7.044C19.6753 6.80965 19.7269 6.55796 19.728 6.30353C19.7292 6.04909 19.6798 5.79696 19.5827 5.56175C19.4857 5.32654 19.3429 5.11293 19.1627 4.9333Z" fill="white"/>
<path d="M18.7908 8.08873C18.7548 8.08873 18.7308 8.07673 18.7068 8.05273L17.339 6.68492C17.3151 6.66092 17.3031 6.63692 17.3031 6.60092C17.3031 6.56502 17.3151 6.54092 17.3391 6.51702L19.0427 4.8133C19.0536 4.80192 19.0666 4.79286 19.081 4.78667C19.0955 4.78047 19.111 4.77728 19.1267 4.77728C19.1424 4.77728 19.158 4.78047 19.1724 4.78667C19.1869 4.79286 19.1999 4.80192 19.2107 4.8133L19.2467 4.8373C20.0506 5.64111 20.0506 6.93692 19.2587 7.75273C19.1387 7.87273 19.0068 7.98073 18.8628 8.06473C18.8268 8.07673 18.8028 8.08873 18.7908 8.08873ZM17.591 6.60092L18.8028 7.81273C18.8988 7.75273 18.9948 7.66873 19.0667 7.59683C19.7506 6.91292 19.7866 5.79711 19.1267 5.0772L17.5911 6.60092H17.591Z" fill="#FF6C37"/>
<path d="M16.6551 7.92078C16.5166 7.7825 16.3289 7.70483 16.1332 7.70483C15.9375 7.70483 15.7498 7.7825 15.6113 7.92078L11.0881 12.4439L11.8439 13.1998L16.6311 9.00059C16.9431 8.73659 16.967 8.26869 16.7031 7.95678C16.6791 7.94478 16.6671 7.93278 16.6551 7.92078Z" fill="white"/>
<path d="M11.832 13.3198C11.796 13.3198 11.772 13.3078 11.748 13.2838L10.9922 12.5279C10.9808 12.5171 10.9718 12.504 10.9656 12.4896C10.9594 12.4751 10.9562 12.4596 10.9562 12.4439C10.9562 12.4282 10.9594 12.4126 10.9656 12.3982C10.9718 12.3837 10.9808 12.3707 10.9922 12.3599L15.5153 7.83673C15.5948 7.75688 15.6892 7.69351 15.7932 7.65028C15.8971 7.60704 16.0086 7.58478 16.1213 7.58478C16.2339 7.58478 16.3454 7.60704 16.4494 7.65028C16.5533 7.69351 16.6477 7.75688 16.7272 7.83673C16.807 7.91614 16.8704 8.01055 16.9136 8.11453C16.9569 8.21852 16.9791 8.33002 16.9791 8.44264C16.9791 8.55525 16.9569 8.66675 16.9136 8.77074C16.8704 8.87472 16.807 8.96913 16.7272 9.04854L16.6912 9.08454L11.904 13.2838C11.892 13.3078 11.868 13.3198 11.832 13.3198ZM11.2561 12.4439L11.844 13.0318L16.5472 8.90454C16.8112 8.68854 16.8352 8.29264 16.6192 8.02873C16.4033 7.76473 16.0073 7.74073 15.7433 7.95673C15.7313 7.96873 15.7193 7.98073 15.6953 7.99273L11.2561 12.444V12.4439Z" fill="#FF6C37"/>
<path d="M7.62074 17.591C7.57284 17.615 7.54884 17.663 7.56074 17.711L7.76474 18.5748C7.81274 18.6948 7.74074 18.8388 7.60874 18.8748C7.51284 18.9108 7.40484 18.8748 7.34484 18.8028L6.02502 17.495L10.3323 13.1878L11.8201 13.2118L12.8279 14.2196C12.5879 14.4235 11.1362 15.8273 7.62074 17.591Z" fill="white"/>
<path d="M7.5248 18.9947C7.4288 18.9947 7.3328 18.9588 7.2728 18.8868L5.96498 17.579C5.94108 17.555 5.92908 17.531 5.92908 17.4951C5.92908 17.4591 5.94108 17.4351 5.96508 17.4111L10.2722 13.1038C10.2962 13.0798 10.3322 13.0678 10.3562 13.0678L11.844 13.0918C11.88 13.0918 11.904 13.1038 11.928 13.1278L12.9358 14.1356C12.9598 14.1596 12.9718 14.1956 12.9718 14.2316C12.9718 14.2676 12.9598 14.2916 12.9238 14.3156L12.8398 14.3875C11.568 15.5033 9.84033 16.6192 7.6927 17.687L7.8967 18.5389C7.9327 18.6948 7.8607 18.8628 7.7167 18.9467C7.6447 18.9828 7.5847 18.9948 7.5248 18.9948V18.9947ZM6.20498 17.4951L7.4408 18.7188C7.4768 18.7788 7.5488 18.8028 7.6087 18.7668C7.6687 18.7308 7.6927 18.6588 7.6567 18.5988L7.4528 17.735C7.4288 17.627 7.4768 17.531 7.5728 17.4831C9.69633 16.4152 11.412 15.3114 12.6719 14.2196L11.784 13.3318L10.4042 13.3078L6.20498 17.4951Z" fill="#FF6C37"/>
<path d="M5.00526 18.5269L6.03697 17.4951L7.57279 19.0307L5.12516 18.8628C5.01716 18.8508 4.94516 18.7548 4.95726 18.6468C4.95726 18.5988 4.96926 18.5508 5.00516 18.5268L5.00526 18.5269Z" fill="white"/>
<path d="M7.57283 19.1387L5.11321 18.9708C4.93321 18.9588 4.81321 18.8028 4.8253 18.6228C4.8373 18.5508 4.8613 18.4789 4.9213 18.4309L5.95311 17.399C5.96394 17.3877 5.97697 17.3786 5.9914 17.3725C6.00583 17.3663 6.02137 17.3631 6.03707 17.3631C6.05277 17.3631 6.0683 17.3663 6.08273 17.3725C6.09716 17.3786 6.11019 17.3877 6.12102 17.399L7.65674 18.9347C7.69274 18.9708 7.70474 19.0188 7.68074 19.0667C7.65674 19.1147 7.62074 19.1387 7.57283 19.1387ZM6.03702 17.663L5.08921 18.6109C5.05321 18.6348 5.05321 18.6948 5.08921 18.7188C5.10121 18.7308 5.11321 18.7428 5.13721 18.7428L7.26083 18.8868L6.03702 17.663V17.663ZM9.91236 13.7397C9.84036 13.7397 9.79236 13.6797 9.79236 13.6197C9.79236 13.5837 9.80436 13.5597 9.82836 13.5357L10.9922 12.3719C11.003 12.3605 11.016 12.3515 11.0305 12.3453C11.0449 12.3391 11.0605 12.3359 11.0762 12.3359C11.0919 12.3359 11.1074 12.3391 11.1219 12.3453C11.1363 12.3515 11.1493 12.3605 11.1602 12.3719L11.916 13.1278C11.952 13.1638 11.964 13.1998 11.952 13.2478C11.94 13.2838 11.904 13.3198 11.856 13.3318L9.93636 13.7396H9.91236V13.7397ZM11.0762 12.6239L10.2843 13.4157L11.5801 13.1398L11.0762 12.6239Z" fill="#FF6C37"/>
<path d="M11.82 13.2118L10.5002 13.4997C10.4042 13.5237 10.3082 13.4637 10.2842 13.3677C10.2722 13.3077 10.2842 13.2477 10.3322 13.1998L11.0641 12.4679L11.82 13.2118Z" fill="white"/>
<path d="M10.4763 13.6197C10.4368 13.6201 10.3976 13.6126 10.361 13.5977C10.3244 13.5828 10.2912 13.5607 10.2633 13.5327C10.2353 13.5048 10.2132 13.4716 10.1983 13.435C10.1834 13.3984 10.1759 13.3592 10.1763 13.3197C10.1763 13.2358 10.2123 13.1638 10.2603 13.1038L10.9922 12.3719C11.003 12.3605 11.0161 12.3515 11.0305 12.3453C11.0449 12.3391 11.0605 12.3359 11.0762 12.3359C11.0919 12.3359 11.1074 12.3391 11.1219 12.3453C11.1363 12.3515 11.1494 12.3605 11.1602 12.3719L11.916 13.1278C11.952 13.1638 11.964 13.1998 11.952 13.2478C11.94 13.2838 11.904 13.3198 11.856 13.3318L10.5363 13.6197H10.4763ZM11.0762 12.6239L10.4283 13.2717C10.4043 13.2958 10.4043 13.3198 10.4163 13.3437C10.4283 13.3677 10.4523 13.3797 10.4883 13.3797L11.5921 13.1397L11.0762 12.6239ZM19.1747 6.08502C19.1507 6.01312 19.0667 5.97712 18.9947 6.00112C18.9228 6.02512 18.8868 6.10902 18.9108 6.18112C18.9108 6.19302 18.9228 6.20503 18.9228 6.21703C18.9948 6.36103 18.9708 6.54103 18.8748 6.67293C18.8268 6.73293 18.8388 6.81693 18.8868 6.86493C18.9468 6.91293 19.0307 6.90093 19.0787 6.84093C19.2587 6.61293 19.2947 6.32502 19.1747 6.08502Z" fill="#FF6C37"/>
</svg>
