<svg width="25" height="24" viewBox="0 0 25 24" fill="none" xmlns="http://www.w3.org/2000/svg">
<path d="M12.0337 1.57498C6.70875 1.57498 7.0455 3.87748 7.0455 3.87748V6.26998H12.1095V7.01998H5.02875C5.02875 7.01998 1.62 6.59998 1.62 12.0037C1.62 17.4075 4.62975 17.1877 4.62975 17.1877H6.3675V14.667C6.3675 14.667 6.26999 11.6572 9.29249 11.6572H14.364C14.364 11.6572 17.193 11.7022 17.193 8.91823V4.34998C17.193 4.34998 17.622 1.56598 12.0615 1.56598L12.0337 1.57498ZM9.23475 3.17773C9.41477 3.17319 9.59211 3.22213 9.74432 3.31838C9.89653 3.41463 10.0168 3.55385 10.0899 3.71844C10.1629 3.88303 10.1856 4.0656 10.1549 4.24305C10.1242 4.42051 10.0416 4.58488 9.9175 4.71538C9.7934 4.84588 9.63339 4.93665 9.4577 4.9762C9.28201 5.01576 9.09854 5.00233 8.93048 4.93761C8.76243 4.87288 8.61734 4.75978 8.51357 4.61259C8.4098 4.46541 8.352 4.29076 8.3475 4.11073V4.09573C8.3475 3.85425 8.44342 3.62266 8.61417 3.45191C8.78493 3.28116 9.01652 3.18523 9.258 3.18523L9.23475 3.17773Z" fill="url(#paint0_linear_710_31066)"/>
<path d="M12.1837 22.4325C17.5087 22.4325 17.172 20.1225 17.172 20.1225V17.7375H12.1087V16.9875H19.2112C19.2112 16.9875 22.62 17.3685 22.62 11.9963C22.62 6.62402 19.6102 6.81227 19.6102 6.81227H17.85V9.30002C17.85 9.30002 17.9475 12.3098 14.925 12.3098H9.85125C9.85125 12.3098 7.02 12.267 7.02 15.051V19.65C7.02 19.65 6.59099 22.434 12.1515 22.434H12.1815L12.1837 22.4325ZM14.9827 20.8223C14.8027 20.8268 14.6254 20.7779 14.4732 20.6816C14.321 20.5854 14.2007 20.4461 14.1276 20.2816C14.0545 20.117 14.0319 19.9344 14.0626 19.7569C14.0933 19.5795 14.1759 19.4151 14.3 19.2846C14.4241 19.1541 14.5841 19.0634 14.7598 19.0238C14.9355 18.9842 15.119 18.9977 15.287 19.0624C15.4551 19.1271 15.6002 19.2402 15.7039 19.3874C15.8077 19.5346 15.8655 19.7092 15.87 19.8893V19.9118C15.87 20.1532 15.7741 20.3848 15.6033 20.5556C15.4326 20.7263 15.201 20.8223 14.9595 20.8223H14.982H14.9827Z" fill="url(#paint1_linear_710_31066)"/>
<defs>
<linearGradient id="paint0_linear_710_31066" x1="3.69536" y1="3.61715" x2="13.6604" y2="13.5596" gradientUnits="userSpaceOnUse">
<stop stop-color="#387EB8"/>
<stop offset="1" stop-color="#366994"/>
</linearGradient>
<linearGradient id="paint1_linear_710_31066" x1="9.59062" y1="10.0939" x2="20.9758" y2="20.0334" gradientUnits="userSpaceOnUse">
<stop stop-color="#FFE052"/>
<stop offset="1" stop-color="#FFC331"/>
</linearGradient>
</defs>
</svg>
