<svg width="25" height="24" viewBox="0 0 25 24" fill="none" xmlns="http://www.w3.org/2000/svg">
<path d="M12.12 13.8555C13.1555 13.8555 13.995 13.0161 13.995 11.9805C13.995 10.945 13.1555 10.1055 12.12 10.1055C11.0845 10.1055 10.245 10.945 10.245 11.9805C10.245 13.0161 11.0845 13.8555 12.12 13.8555Z" fill="#00D8FF"/>
<path d="M12.12 16.2795C9.86635 16.334 7.61834 16.0302 5.46 15.3795C4.46296 15.0635 3.53305 14.5656 2.71725 13.911C2.40594 13.6874 2.1467 13.3991 1.9573 13.0659C1.7679 12.7327 1.65284 12.3624 1.62 11.9805C1.62 10.7408 2.98199 9.52577 5.26349 8.73077C7.47955 8.02633 9.79494 7.68492 12.12 7.71977C14.414 7.68772 16.6984 8.02295 18.8865 8.71277C19.8467 9.01889 20.7451 9.49271 21.54 10.1123C21.846 10.3254 22.1013 10.6033 22.288 10.9262C22.4746 11.249 22.588 11.609 22.62 11.9805C22.62 13.269 21.0975 14.5748 18.645 15.3863C16.5284 16.0158 14.3279 16.317 12.12 16.2795ZM12.12 8.61677C9.89558 8.58703 7.68061 8.9116 5.55825 9.57827C3.45825 10.311 2.517 11.313 2.517 11.9783C2.517 12.6743 3.52875 13.7685 5.75025 14.5283C7.81505 15.1477 9.96495 15.436 12.12 15.3825C14.2323 15.4203 16.3379 15.1345 18.3637 14.535C20.67 13.7708 21.72 12.675 21.72 11.9805C21.6822 11.7422 21.5953 11.5143 21.4649 11.3112C21.3345 11.1082 21.1635 10.9344 20.9625 10.8008C20.2513 10.2511 19.4488 9.8312 18.5917 9.56027C16.4985 8.90308 14.3137 8.58457 12.12 8.61677Z" fill="#00D8FF"/>
<path d="M7.85995 21.3322C7.51007 21.3403 7.16432 21.2554 6.85795 21.0862C5.78395 20.4667 5.41195 18.6802 5.8627 16.3065C6.35968 14.0348 7.2208 11.8585 8.4127 9.86173C9.53074 7.85856 10.9621 6.04717 12.6524 4.49623C13.3973 3.81726 14.2566 3.27564 15.1904 2.89648C15.5282 2.73818 15.8967 2.65613 16.2697 2.65613C16.6427 2.65613 17.0112 2.73818 17.3489 2.89648C18.4657 3.53998 18.8354 5.51098 18.3142 8.04073C17.8019 10.1892 16.9631 12.2463 15.8272 14.1405C14.7485 16.12 13.3622 17.9156 11.7202 19.4602C10.9483 20.1658 10.0524 20.7224 9.07795 21.102C8.68781 21.2468 8.27602 21.3246 7.85995 21.3322ZM9.1897 10.3072C8.05277 12.2192 7.22744 14.3 6.7447 16.4715C6.32995 18.6577 6.7282 19.9725 7.3072 20.307C7.9072 20.6542 9.3637 20.325 11.1322 18.78C12.6997 17.3002 14.0229 15.5814 15.0524 13.6875C16.1406 11.8766 16.9452 9.90984 17.4382 7.85548C17.9287 5.47423 17.5049 4.01623 16.9034 3.66973C16.678 3.58335 16.4371 3.54468 16.1959 3.55617C15.9548 3.56766 15.7187 3.62906 15.5024 3.73648C14.6712 4.07949 13.907 4.56645 13.2449 5.17498C11.6299 6.66057 10.2627 8.39468 9.19495 10.3117L9.1897 10.3072Z" fill="#00D8FF"/>
<path d="M16.3778 21.342C15.3615 21.342 14.0708 20.727 12.7268 19.5712C11.0068 18.0062 9.55126 16.1733 8.41653 14.1435C7.23958 12.1743 6.38528 10.0294 5.88603 7.79023C5.66951 6.8051 5.62939 5.78938 5.76753 4.79023C5.79947 4.41959 5.91233 4.06046 6.09815 3.73818C6.28398 3.4159 6.53825 3.13831 6.84303 2.92498C7.95828 2.27923 9.85053 2.94298 11.7818 4.65748C13.3872 6.17412 14.7506 7.92801 15.8243 9.85798C17.0005 11.7812 17.8638 13.8791 18.3818 16.0732C18.6076 17.0945 18.6425 18.1488 18.4845 19.1827C18.447 19.564 18.3274 19.9327 18.134 20.2635C17.9406 20.5942 17.6779 20.8792 17.364 21.099C17.0627 21.266 16.7223 21.3499 16.3778 21.342ZM9.19278 13.692C10.2814 15.6318 11.6717 17.386 13.3118 18.8887C14.9985 20.34 16.3365 20.652 16.9118 20.3137C17.5118 19.965 17.9543 18.5415 17.4983 16.2382C16.9987 14.1434 16.1707 12.1409 15.045 10.305C14.0204 8.45783 12.7191 6.77838 11.1863 5.32498C9.36828 3.71098 7.89378 3.35023 7.29303 3.69823C7.10579 3.8504 6.95213 4.03973 6.84176 4.25427C6.73139 4.46882 6.6667 4.70392 6.65178 4.94473C6.53253 5.8358 6.57138 6.74091 6.76653 7.61848C7.24676 9.75984 8.06609 11.8107 9.19353 13.6935L9.19278 13.692Z" fill="#00D8FF"/>
</svg>
