<svg width="24" height="24" viewBox="0 0 24 24" fill="none" xmlns="http://www.w3.org/2000/svg">
<path d="M19.5824 13.179C18.923 13.1798 18.2723 13.3306 17.6797 13.62C17.4941 13.3121 17.3508 12.9806 17.2537 12.6345C17.1979 12.3632 17.1849 12.0848 17.2154 11.8095C17.2795 11.5065 17.3627 11.2079 17.4644 10.9155C17.4607 10.8772 17.4187 10.6965 16.9964 10.6905C16.5742 10.6845 16.2104 10.7707 16.1714 10.8825C16.0981 11.0866 16.0392 11.2956 15.9952 11.508C15.6457 12.3701 15.2156 13.1973 14.7104 13.9785C14.4274 13.5145 14.311 12.968 14.3804 12.429C14.4445 12.126 14.5277 11.8274 14.6294 11.535C14.6257 11.4967 14.5837 11.316 14.1614 11.31C13.7392 11.304 13.3754 11.3902 13.3364 11.502C13.2974 11.6137 13.2479 11.877 13.1602 12.1275C13.0724 12.378 12.0479 14.667 11.7794 15.2572C11.6414 15.5572 11.5222 15.8017 11.4382 15.9667C11.4342 15.9774 11.4292 15.9877 11.4232 15.9975L11.3084 16.2165V16.2202C11.2507 16.3237 11.1892 16.4197 11.1584 16.4197C11.1048 16.2054 11.1074 15.981 11.1659 15.768C11.3159 14.9737 11.6834 13.7392 11.6797 13.6965C11.6797 13.6732 11.7487 13.4587 11.4419 13.3477C11.3708 13.3139 11.2909 13.3029 11.2133 13.3163C11.1356 13.3298 11.0641 13.3669 11.0084 13.4227C10.9814 13.4227 10.9627 13.488 10.9627 13.488C10.9627 13.488 11.2964 12.0997 10.3259 12.0997C9.948 12.1757 9.58909 12.3266 9.2703 12.5433C8.95152 12.7601 8.67931 13.0385 8.46968 13.362C8.20868 13.5037 7.65293 13.8067 7.05818 14.133C6.83318 14.2597 6.59768 14.3865 6.37943 14.508C6.36443 14.493 6.34868 14.4735 6.33368 14.4585C5.15243 13.2 2.98118 12.312 3.07493 10.6282C3.10943 10.0147 3.32018 8.40372 7.24418 6.44697C10.4737 4.85547 13.0439 5.29647 13.4887 6.27447C14.1254 7.67097 12.1117 10.2637 8.77493 10.6395C8.40579 10.7144 8.02453 10.7053 7.65935 10.613C7.29417 10.5207 6.9544 10.3475 6.66518 10.1062C6.48893 9.91422 6.46193 9.90297 6.39668 9.94122C6.28943 9.99897 6.35843 10.1715 6.39668 10.2712C6.52397 10.5016 6.69615 10.7041 6.90303 10.8668C7.10991 11.0295 7.3473 11.1491 7.60118 11.2185C8.91386 11.5021 10.2825 11.3665 11.5139 10.8307C13.5389 10.0485 15.1139 7.87347 14.6519 6.05172C14.1877 4.20297 11.1194 3.59322 8.21543 4.62672C6.39649 5.23878 4.7158 6.20285 3.26918 7.46397C1.66943 8.96022 1.41668 10.26 1.52018 10.8052C1.89518 12.7387 4.55843 13.9965 5.62418 14.9302C5.57603 14.9576 5.52752 14.9844 5.47868 15.0105C4.94543 15.2752 2.91293 16.338 2.40368 17.4615C1.82843 18.7365 2.49593 19.6477 2.93693 19.7707C3.60143 19.9298 4.29902 19.8774 4.93231 19.6208C5.5656 19.3643 6.10298 18.9164 6.46943 18.3397C6.78148 17.8614 6.97329 17.3147 7.02852 16.7463C7.08376 16.1778 7.00079 15.6044 6.78668 15.075C6.78306 15.0664 6.77799 15.0585 6.77168 15.0517L7.18943 14.8065C7.44327 14.6564 7.70033 14.5119 7.96043 14.373C7.8043 14.8233 7.71264 15.2935 7.68818 15.7695C7.63517 16.499 7.85844 17.2219 8.31368 17.7945C8.38295 17.8541 8.46337 17.8994 8.55027 17.9277C8.63717 17.956 8.72883 17.9668 8.81993 17.9595C9.26993 17.9595 9.47618 17.5845 9.70193 17.139C9.97793 16.5945 10.2269 15.9615 10.2269 15.9615C10.2269 15.9615 9.91643 17.6722 10.7602 17.6722C11.0669 17.6722 11.3774 17.2732 11.5162 17.0722V17.076L11.5394 17.0377L11.5889 16.9575V16.95C11.7119 16.7355 11.9879 16.248 12.3982 15.4387C12.9277 14.3955 13.4377 13.0912 13.4377 13.0912C13.4869 13.3779 13.5548 13.661 13.6409 13.9387C13.7645 14.2754 13.9105 14.6034 14.0782 14.9205C13.9552 15.093 13.8787 15.189 13.8787 15.189L13.8824 15.1927C13.7827 15.3232 13.6754 15.465 13.5562 15.603C13.2014 15.993 12.8722 16.4057 12.5707 16.8382C12.5259 16.9109 12.5105 16.9979 12.5276 17.0815C12.5448 17.1651 12.5932 17.2391 12.6629 17.2882C12.8208 17.3704 13.0008 17.4001 13.1767 17.373C13.4418 17.358 13.7024 17.2984 13.9477 17.1967C14.1847 17.1133 14.4083 16.9958 14.6114 16.848C14.8209 16.7029 14.9894 16.5064 15.1009 16.2773C15.2125 16.0482 15.2632 15.7943 15.2482 15.54C15.2246 15.2196 15.1428 14.9062 15.0067 14.6152C15.0449 14.5612 15.0817 14.508 15.1177 14.454C15.5441 13.8175 15.9284 13.1538 16.2682 12.4672C16.3174 12.7539 16.3853 13.037 16.4714 13.3147C16.5733 13.6057 16.6987 13.8879 16.8464 14.1585C16.3559 14.5359 15.9695 15.032 15.7237 15.6C15.4822 16.2982 15.6697 16.6125 16.0237 16.6852C16.2174 16.6986 16.4111 16.6589 16.5839 16.5705C16.8381 16.4869 17.0775 16.3639 17.2934 16.206C17.5211 16.0716 17.7118 15.8828 17.8483 15.6564C17.9849 15.43 18.063 15.1733 18.0757 14.9092C18.0587 14.6456 17.9991 14.3866 17.8994 14.142C18.5468 13.8891 19.2486 13.8085 19.9364 13.908C21.7619 14.1225 22.1227 15.2617 22.0537 15.7417C22.0213 15.9119 21.9529 16.0732 21.853 16.2147C21.7532 16.3562 21.6242 16.4747 21.4747 16.5622C21.3479 16.6425 21.3059 16.6695 21.3172 16.7272C21.3322 16.812 21.3922 16.8075 21.5009 16.7925C21.7761 16.707 22.0188 16.5401 22.1972 16.3138C22.3755 16.0875 22.4811 15.8125 22.4999 15.525C22.5577 14.4 21.4837 13.1662 19.5847 13.1775L19.5824 13.179ZM5.49743 17.925C4.89143 18.585 4.04768 18.834 3.68318 18.6232C3.29168 18.3982 3.44543 17.4232 4.18943 16.7242C4.63077 16.3269 5.10778 15.9712 5.61443 15.6615C5.70293 15.6075 5.83343 15.531 5.98943 15.4365L6.03143 15.4132L6.12368 15.3555C6.2566 15.8008 6.26865 16.2735 6.1586 16.725C6.04855 17.1766 5.82035 17.5907 5.49743 17.925ZM9.90818 14.925C9.69743 15.4387 9.25643 16.755 8.98793 16.6815C8.75768 16.62 8.61293 15.6225 8.94218 14.637C9.10842 14.1626 9.35057 13.7183 9.65918 13.3215C9.98918 12.9532 10.3537 12.8302 10.4414 12.9802C10.3614 13.6514 10.1816 14.3068 9.90818 14.925ZM13.5479 16.6665C13.4594 16.7122 13.3754 16.7415 13.3372 16.7205C13.3102 16.7055 13.3754 16.6455 13.3754 16.6455C13.3754 16.6455 13.8322 16.1542 14.0122 15.9322C14.1157 15.8017 14.2372 15.6487 14.3692 15.4755V15.525C14.3692 16.1115 13.8014 16.5067 13.5487 16.668L13.5479 16.6665ZM16.3559 16.026C16.2907 15.9802 16.3019 15.8265 16.5209 15.3472C16.6732 15.0394 16.8859 14.7655 17.1464 14.5417C17.1864 14.6553 17.2071 14.7746 17.2079 14.895C17.2109 15.1511 17.129 15.4011 16.975 15.6058C16.821 15.8105 16.6036 15.9585 16.3567 16.0267L16.3559 16.026Z" fill="#CD6799"/>
</svg>
