<svg width="25" height="24" viewBox="0 0 25 24" fill="none" xmlns="http://www.w3.org/2000/svg">
<path d="M21.636 1.5H2.604C2.06055 1.5 1.62 1.94055 1.62 2.484V21.516C1.62 22.0594 2.06055 22.5 2.604 22.5H21.636C22.1794 22.5 22.62 22.0594 22.62 21.516V2.484C22.62 1.94055 22.1794 1.5 21.636 1.5Z" fill="#3178C6"/>
<path fill-rule="evenodd" clip-rule="evenodd" d="M13.8037 17.8193V20.1203C14.2218 20.3266 14.6674 20.4718 15.1267 20.5515C15.6576 20.6495 16.1964 20.6977 16.7362 20.6955C17.2624 20.698 17.7873 20.645 18.3022 20.5373C18.7646 20.4438 19.2057 20.2659 19.6035 20.0123C19.9727 19.7739 20.2771 19.4477 20.4892 19.0628C20.8692 18.2658 20.9193 17.351 20.6287 16.5173C20.5061 16.2055 20.3234 15.9208 20.091 15.6795C19.8415 15.4229 19.5581 15.2016 19.2487 15.0218C18.8925 14.8131 18.5224 14.6292 18.141 14.4713C17.841 14.3468 17.571 14.2258 17.331 14.1083C17.1178 14.0062 16.9138 13.886 16.7212 13.749C16.5704 13.6433 16.4394 13.5118 16.3342 13.3605C16.2434 13.2232 16.1961 13.0617 16.1985 12.897C16.1965 12.7455 16.2387 12.5967 16.32 12.4688C16.4083 12.3349 16.526 12.223 16.6642 12.1418C16.8332 12.0423 17.017 11.9706 17.2087 11.9295C17.4441 11.8772 17.6847 11.8521 17.9257 11.8545C18.1285 11.8552 18.331 11.8697 18.5317 11.898C18.7486 11.9273 18.9631 11.9717 19.1737 12.0308C19.388 12.0902 19.5976 12.1654 19.8007 12.2558C19.9979 12.3436 20.1864 12.4496 20.364 12.5723V10.425C19.9943 10.2852 19.611 10.1846 19.2202 10.125C18.7484 10.0564 18.272 10.024 17.7952 10.0283C17.2741 10.0255 16.7544 10.0846 16.2472 10.2045C15.7888 10.3093 15.3529 10.4955 14.9602 10.7543C14.5955 10.9972 14.2943 11.3241 14.082 11.7075C13.857 12.1333 13.7456 12.6099 13.7587 13.0913C13.7421 13.7279 13.9518 14.3497 14.3505 14.8463C14.8396 15.3968 15.4564 15.8189 16.1467 16.0755C16.4617 16.2055 16.7555 16.3328 17.028 16.4573C17.2738 16.5667 17.5102 16.6964 17.7345 16.845C17.9154 16.9627 18.0743 17.1112 18.204 17.2838C18.318 17.4403 18.3785 17.6294 18.3765 17.823C18.3775 17.9681 18.3403 18.1109 18.2685 18.237C18.1887 18.3725 18.0766 18.4862 17.9422 18.5678C17.7741 18.6703 17.5901 18.7443 17.3977 18.7868C17.1472 18.8428 16.8909 18.8692 16.6342 18.8655C16.1305 18.8646 15.6307 18.7758 15.1575 18.603C14.6631 18.4246 14.2046 18.1592 13.8037 17.8193ZM9.93824 12.0908H12.9382V10.1955H4.57349V12.0908H7.55999V20.5313H9.93824V12.0908Z" fill="white"/>
</svg>
