<svg width="25" height="24" viewBox="0 0 25 24" fill="none" xmlns="http://www.w3.org/2000/svg">
<path d="M21.8775 3.77251L17.553 1.69051C17.3088 1.57275 17.034 1.5339 16.7667 1.57932C16.4994 1.62474 16.2529 1.75219 16.0613 1.94401L1.90502 14.85C1.73326 15.0059 1.63045 15.2236 1.61919 15.4552C1.60794 15.6869 1.68917 15.9135 1.84502 16.0853C1.86377 16.1055 1.88252 16.125 1.90277 16.143L3.05852 17.193C3.20954 17.3305 3.40393 17.4107 3.60794 17.4197C3.81195 17.4288 4.01268 17.3661 4.17527 17.2425L21.2265 4.31251C21.3553 4.21478 21.5088 4.15493 21.6698 4.13972C21.8307 4.1245 21.9928 4.15452 22.1376 4.22639C22.2824 4.29825 22.4043 4.40912 22.4895 4.5465C22.5748 4.68388 22.6199 4.84233 22.62 5.00401V4.95376C22.62 4.70693 22.5503 4.46513 22.419 4.25615C22.2876 4.04718 22.0999 3.87954 21.8775 3.77251Z" fill="#0065A9"/>
<path d="M21.8775 20.2275L17.553 22.3102C17.3087 22.4277 17.034 22.4663 16.7668 22.4209C16.4996 22.3755 16.2531 22.2483 16.0613 22.0567L1.90502 9.14999C1.73326 8.99414 1.63045 8.77644 1.61919 8.54479C1.60794 8.31313 1.68917 8.0865 1.84502 7.91474C1.86377 7.89449 1.88252 7.87499 1.90277 7.85699L3.05852 6.80699C3.20969 6.66896 3.40453 6.58839 3.60904 6.57935C3.81355 6.5703 4.01474 6.63335 4.17752 6.75749L21.2265 19.6875C21.3553 19.7852 21.5088 19.8451 21.6698 19.8603C21.8307 19.8755 21.9928 19.8455 22.1376 19.7736C22.2824 19.7017 22.4043 19.5909 22.4895 19.4535C22.5748 19.3161 22.6199 19.1577 22.62 18.996V19.05C22.6192 19.2962 22.5491 19.5371 22.4178 19.7454C22.2865 19.9536 22.0993 20.1207 21.8775 20.2275Z" fill="#007ACC"/>
<path d="M17.553 22.3103C17.3087 22.4277 17.034 22.4664 16.7668 22.4209C16.4995 22.3755 16.253 22.2483 16.0612 22.0568C16.1689 22.1631 16.3056 22.2352 16.4541 22.2642C16.6027 22.2931 16.7564 22.2776 16.8962 22.2195C17.0359 22.1615 17.1554 22.0635 17.2397 21.9378C17.324 21.8121 17.3693 21.6643 17.37 21.513V2.48702C17.3701 2.33498 17.3251 2.18633 17.2407 2.0599C17.1562 1.93346 17.0362 1.83492 16.8957 1.77678C16.7552 1.71863 16.6007 1.70348 16.4516 1.73325C16.3025 1.76302 16.1656 1.83638 16.0582 1.94402C16.2499 1.75227 16.4964 1.62481 16.7636 1.57926C17.0308 1.53372 17.3056 1.57233 17.55 1.68977L21.8737 3.76877C22.0968 3.87527 22.2853 4.04268 22.4173 4.25169C22.5494 4.4607 22.6196 4.70279 22.62 4.95002V19.05C22.62 19.297 22.5503 19.5391 22.4188 19.7482C22.2873 19.9573 22.0994 20.125 21.8767 20.232L17.553 22.3103Z" fill="#1F9CF0"/>
</svg>
