<svg width="298" height="200" viewBox="0 0 298 200" fill="none" xmlns="http://www.w3.org/2000/svg">
<path d="M65.5734 15.2298H13.0627V107.1H65.5734V15.2298Z" fill="#FAFAFA"/>
<path d="M29.4218 107.978C29.4218 107.978 23.6634 66.6492 20.6542 62.1049C20.6542 62.1049 37.8586 49.1898 38.383 14.1811H12.2788V107.978H29.4218Z" fill="#F5F5F5"/>
<path d="M49.2101 107.799C49.2101 107.799 54.959 66.465 57.9729 61.9254C57.9729 61.9254 40.7732 49.0055 40.2441 14.0016H66.3483V107.799H49.2101Z" fill="#F5F5F5"/>
<path d="M66.9529 11.7294H8.19727V110.137H69.3904V11.7294H66.9529ZM23.616 62.856V86.2581H13.0629V62.856H23.616ZM13.0629 61.1648V36.9455H23.616V61.1648H13.0629ZM39.6819 61.1648V36.9455H52.9088V61.1648H39.6819ZM52.9088 62.856V86.2581H39.6819V62.856H52.9088ZM24.0931 61.1648V36.9455H37.9955V61.1648H24.0931ZM37.9955 62.856V86.2581H24.0884V62.856H37.9955ZM24.0884 36.5109V15.2534H37.9908V36.5109H24.0884ZM37.9908 86.6785V107.109H24.0884V86.6785H37.9908ZM39.6819 86.6785H52.9088V107.109H39.6819V86.6785ZM39.6819 36.5251V15.2534H52.9088V36.5109L39.6819 36.5251ZM53.3528 62.856H64.5201V86.2581H53.3528V62.856ZM53.3528 61.1648V36.9455H64.5201V61.1648H53.3528ZM64.5201 36.5109H53.3528V15.2534H64.5201V36.5109ZM23.616 15.2534V36.5109H13.0629V15.2534H23.616ZM13.0629 86.6785H23.616V107.109H13.0629V86.6785ZM53.3528 107.109V86.6785H64.5201V107.109H53.3528Z" fill="#EBEBEB"/>
<path d="M244.363 33.4309H84.5967V140.436H244.363V33.4309Z" fill="#F5F5F5"/>
<path d="M244.363 33.4309H84.5967V44.121H244.363V33.4309Z" fill="#EBEBEB"/>
<path d="M91.5171 38.7736C91.5361 39.033 91.4765 39.2921 91.3461 39.5171C91.2157 39.7421 91.0205 39.9226 90.786 40.0351C90.5515 40.1476 90.2886 40.1868 90.0315 40.1477C89.7743 40.1086 89.535 39.9929 89.3446 39.8157C89.1541 39.6386 89.0215 39.4081 88.964 39.1545C88.9064 38.9009 88.9266 38.6358 89.0219 38.3938C89.1172 38.1518 89.2832 37.9442 89.4983 37.7979C89.7133 37.6516 89.9674 37.5735 90.2275 37.5738C90.5575 37.5623 90.8786 37.6821 91.1204 37.9071C91.3621 38.132 91.5048 38.4436 91.5171 38.7736Z" fill="#FAFAFA"/>
<path d="M95.6836 38.7736C95.7026 39.033 95.643 39.2921 95.5126 39.5171C95.3822 39.7421 95.187 39.9226 94.9525 40.0351C94.718 40.1476 94.4551 40.1868 94.198 40.1477C93.9408 40.1086 93.7015 39.9929 93.5111 39.8157C93.3207 39.6386 93.188 39.4081 93.1305 39.1545C93.0729 38.9009 93.0931 38.6358 93.1884 38.3938C93.2837 38.1518 93.4497 37.9442 93.6648 37.7979C93.8798 37.6516 94.1339 37.5735 94.394 37.5738C94.724 37.5623 95.0451 37.6821 95.2869 37.9071C95.5286 38.132 95.6713 38.4436 95.6836 38.7736Z" fill="#FAFAFA"/>
<path d="M99.8499 38.7736C99.8689 39.033 99.8093 39.2921 99.6789 39.5171C99.5484 39.7421 99.3533 39.9226 99.1188 40.0351C98.8843 40.1476 98.6213 40.1868 98.3642 40.1477C98.1071 40.1086 97.8677 39.9929 97.6773 39.8157C97.4869 39.6386 97.3543 39.4081 97.2967 39.1545C97.2392 38.9009 97.2594 38.6358 97.3547 38.3938C97.45 38.1518 97.616 37.9442 97.831 37.7979C98.0461 37.6516 98.3002 37.5735 98.5603 37.5738C98.8903 37.5623 99.2114 37.6821 99.4531 37.9071C99.6949 38.132 99.8376 38.4436 99.8499 38.7736Z" fill="#FAFAFA"/>
<path d="M293.274 54.575H261.175V96.4333L293.274 97.2411V54.575Z" fill="#EBEBEB"/>
<path d="M291.162 56.0677H263.074V94.0289L291.162 94.9784V56.0677Z" fill="#FAFAFA"/>
<path d="M286.245 62.9646L267.604 62.256V88.79H286.245V62.9646Z" fill="#EBEBEB"/>
<path d="M267.604 88.79L286.245 75.1569L267.604 62.256V88.79Z" fill="#F5F5F5"/>
<path d="M289.736 25.1216L271.87 24.5642V47.8624L289.736 48.3111V25.1216Z" fill="#EBEBEB"/>
<path d="M288.56 26.1372L272.928 25.3956V46.5208L288.56 47.0498V26.1372Z" fill="#FAFAFA"/>
<path d="M285.824 29.2314L275.451 28.8393V43.6061H285.824V29.2314Z" fill="#EBEBEB"/>
<path d="M275.451 43.6061L285.824 36.0196L275.451 28.8393V43.6061Z" fill="#F5F5F5"/>
<path d="M166.825 5.38995L165.115 21.2716H187.039L188.857 5.38995H166.825Z" fill="#EBEBEB"/>
<path d="M167.727 6.43393L166.06 20.3316H185.848L187.45 6.43393H167.727Z" fill="#FAFAFA"/>
<path d="M171.058 8.86673L170.033 18.0925H182.518L183.16 8.86673H171.058Z" fill="#EBEBEB"/>
<path d="M195.433 0L193.137 21.2716H222.51L224.948 0H195.433Z" fill="#EBEBEB"/>
<path d="M196.638 1.39827L194.408 20.0151H220.918L223.063 1.39827H196.638Z" fill="#FAFAFA"/>
<path d="M201.102 4.65775L199.727 17.0107H216.454L217.314 4.65775H201.102Z" fill="#EBEBEB"/>
<path d="M235.912 21.2716H150.372V23.7186H235.912V21.2716Z" fill="#EBEBEB"/>
<path d="M165.007 29.6707L161.26 23.7186H166.825V29.6707H165.007Z" fill="#EBEBEB"/>
<path d="M163.07 23.7186L166.381 29.6707H166.825V23.7186H163.07Z" fill="#E0E0E0"/>
<path d="M214.362 29.6707L210.615 23.7186H216.18V29.6707H214.362Z" fill="#EBEBEB"/>
<path d="M212.425 23.7186L215.736 29.6707H216.18V23.7186H212.425Z" fill="#E0E0E0"/>
<path d="M48.0478 166.744C55.9225 161.595 57.9207 151.726 57.831 142.817C57.831 141.329 58.0199 139.765 57.335 138.443C56.65 137.12 55.0014 136.194 53.6362 136.785C52.5072 137.281 51.9875 138.551 51.3357 139.619C50.4613 141.02 49.2085 142.145 47.7219 142.864C46.7535 143.337 45.5583 143.601 44.623 143.063C43.3428 142.326 43.2342 140.55 43.2767 139.071L43.5318 130.809C43.6595 129.332 43.5429 127.845 43.187 126.406C42.7571 124.989 41.7698 123.666 40.3526 123.237C38.9355 122.807 37.1546 123.577 36.8192 125.018C36.7481 125.629 36.7197 126.245 36.7341 126.86C36.6775 127.469 36.3704 128.145 35.7894 128.277C35.2083 128.409 34.5989 128.003 34.1596 127.559C32.6527 126.028 31.6465 124.082 30.7159 122.145C29.7853 120.209 28.8594 118.234 27.4895 116.571C26.1196 114.908 24.2206 113.572 22.0759 113.401C19.9313 113.231 17.6166 114.483 17.0497 116.548C16.4829 118.612 17.6355 120.766 18.9393 122.486C20.8706 125.038 23.1601 127.299 25.7369 129.198C26.2408 129.488 26.6382 129.932 26.8707 130.464C27.173 131.456 26.2046 132.41 25.2079 132.713C24.0836 133.053 22.8743 132.911 21.7028 133.015C20.5312 133.119 19.2558 133.601 18.7881 134.683C18.1362 136.18 19.3786 137.791 20.6115 138.858C23.0906 141.002 25.9186 142.705 28.9728 143.894C30.064 144.315 31.2119 144.692 32.0811 145.477C32.9503 146.261 33.4558 147.607 32.8936 148.632C32.3315 149.657 30.9474 149.964 29.7948 149.723C28.6421 149.483 27.6312 148.845 26.54 148.405C24.4993 147.588 21.8161 147.669 20.4793 149.393C20.0623 149.985 19.79 150.666 19.6841 151.382C19.5783 152.098 19.6419 152.83 19.8699 153.517C20.3417 154.886 21.0839 156.147 22.0523 157.225C25.2343 161.18 29.4044 164.224 34.1407 166.049C38.8646 167.797 43.2909 168.345 48.0762 166.744" fill="#5351C0"/>
<path d="M19.2368 114.573L19.3785 114.715L19.8131 115.121C20.2005 115.471 20.7579 115.99 21.4759 116.675C23.4862 118.609 25.348 120.692 27.0454 122.906C28.1272 124.323 29.2467 125.882 30.4182 127.601C31.5898 129.321 32.8274 131.163 34.0509 133.152C35.3475 135.221 36.5303 137.36 37.5938 139.558C38.1418 140.701 38.6283 141.896 39.1243 143.115L40.6218 146.818C42.5551 151.505 44.2206 156.298 45.6102 161.174C46.7291 165.158 47.4662 169.239 47.8116 173.362C48.0343 176.144 48.0122 178.94 47.7454 181.718C47.6462 182.701 47.5518 183.461 47.4667 183.976C47.4337 184.222 47.4053 184.416 47.3817 184.562C47.3775 184.628 47.3775 184.694 47.3817 184.76C47.4067 184.698 47.4226 184.633 47.4289 184.567L47.5423 183.986C47.6415 183.471 47.7549 182.71 47.873 181.728C48.181 178.945 48.2316 176.14 48.0241 173.348C47.7029 169.207 46.9799 165.108 45.8653 161.108C44.4866 156.219 42.8242 151.415 40.8864 146.719L39.3889 143.011C38.8929 141.797 38.4016 140.592 37.8442 139.444C36.7777 137.237 35.5869 135.092 34.2777 133.02C33.04 131.031 31.7976 129.189 30.6166 127.469C29.4357 125.75 28.3067 124.162 27.2107 122.788C25.4905 120.576 23.5948 118.507 21.5421 116.6C20.8193 115.924 20.243 115.414 19.8462 115.078L19.3738 114.696C19.3322 114.651 19.2864 114.609 19.2368 114.573Z" fill="#263238"/>
<path d="M37.7591 139.43C37.8362 139.227 37.8901 139.017 37.9197 138.802C38.0095 138.396 38.1181 137.805 38.2409 137.073C38.4866 135.604 38.7606 133.568 39.0535 131.319C39.3463 129.071 39.6439 127.044 39.9132 125.584C40.0455 124.852 40.1588 124.266 40.2439 123.855C40.3001 123.647 40.3334 123.433 40.3431 123.218C40.2521 123.414 40.184 123.62 40.1399 123.832C40.0266 124.233 39.8801 124.819 39.7242 125.547C39.403 127.002 39.0723 129.033 38.7795 131.281C38.4866 133.53 38.2409 135.509 38.0473 137.04C37.9528 137.734 37.8772 138.315 37.8158 138.783C37.7715 138.996 37.7524 139.213 37.7591 139.43Z" fill="#263238"/>
<path d="M18.585 135.42C18.8362 135.479 19.0924 135.515 19.3502 135.528C19.8226 135.585 20.5595 135.66 21.4382 135.779C23.1955 136.01 25.6188 136.412 28.2642 136.969C30.9096 137.526 33.2904 138.145 34.9957 138.636C35.8507 138.873 36.5357 139.085 37.0128 139.232C37.2542 139.323 37.5043 139.39 37.7592 139.43C37.5306 139.309 37.292 139.208 37.0459 139.128C36.5735 138.953 35.9027 138.712 35.0524 138.448C33.3565 137.909 30.9804 137.267 28.3209 136.7C25.6613 136.133 23.2333 135.755 21.4618 135.585C20.5784 135.49 19.8557 135.443 19.3597 135.42C19.102 135.395 18.8426 135.395 18.585 135.42Z" fill="#263238"/>
<path d="M45.6292 160.749C45.6862 160.679 45.7324 160.601 45.7661 160.517L46.111 159.837C46.4133 159.247 46.8196 158.382 47.3109 157.301C48.2934 155.146 49.5547 152.128 50.901 148.798C52.2473 145.467 53.4802 142.42 54.4203 140.247C54.8927 139.189 55.2517 138.32 55.5351 137.678L55.8327 136.974C55.8712 136.894 55.9013 136.81 55.9225 136.723C55.8652 136.792 55.8176 136.868 55.7808 136.95C55.691 137.134 55.5729 137.361 55.4359 137.63C55.1383 138.221 54.7321 139.09 54.2408 140.167C53.2582 142.321 51.9969 145.363 50.6459 148.694C49.2949 152.024 48.0667 155.071 47.1313 157.244L46.0165 159.804L45.7189 160.503C45.6777 160.581 45.6475 160.663 45.6292 160.749Z" fill="#263238"/>
<path d="M20.2383 152C20.316 152.048 20.4004 152.085 20.4886 152.109L21.2256 152.373L23.9465 153.318C26.2423 154.117 29.3979 155.25 32.8841 156.512C36.3703 157.773 39.5448 158.874 41.8595 159.625C43.0168 160.003 43.9569 160.295 44.6088 160.484L45.3599 160.702C45.4472 160.731 45.5375 160.75 45.6291 160.758C45.551 160.71 45.4669 160.672 45.3788 160.645L44.6418 160.385L41.9209 159.44C39.6251 158.647 36.4695 157.513 32.9786 156.252C29.4876 154.991 26.3226 153.89 24.0032 153.134C22.8459 152.761 21.9058 152.468 21.2539 152.274L20.5028 152.062C20.4179 152.029 20.3289 152.008 20.2383 152Z" fill="#263238"/>
<path d="M262.498 184.638C262.498 184.708 209.524 184.76 144.188 184.76C78.8522 184.76 25.8691 184.708 25.8691 184.638C25.8691 184.567 78.8333 184.515 144.188 184.515C209.543 184.515 262.498 184.571 262.498 184.638Z" fill="#263238"/>
<path d="M218.863 42.5291H58.0483C57.389 42.5291 56.7363 42.659 56.1273 42.9114C55.5184 43.1639 54.9651 43.5338 54.4992 44.0002C54.0333 44.4665 53.6639 45.0201 53.412 45.6293C53.1602 46.2385 53.0309 46.8914 53.0315 47.5506V161.136C53.0309 161.796 53.1602 162.448 53.412 163.058C53.6639 163.667 54.0333 164.22 54.4992 164.687C54.9651 165.153 55.5184 165.523 56.1273 165.775C56.7363 166.028 57.389 166.158 58.0483 166.158H119.77C119.77 166.158 123.696 178.298 111.523 184.581H169.234C169.234 184.581 155.497 179.857 159.031 166.158H218.863C220.195 166.158 221.472 165.629 222.414 164.687C223.356 163.745 223.885 162.468 223.885 161.136V47.5506C223.885 46.2188 223.356 44.9416 222.414 43.9999C221.472 43.0582 220.195 42.5291 218.863 42.5291Z" fill="#263238"/>
<path d="M140.773 154.169C142.96 157.296 139.535 160.721 136.408 158.533C136.303 158.46 136.212 158.369 136.139 158.264C133.956 155.137 137.376 151.717 140.504 153.899C140.608 153.973 140.699 154.064 140.773 154.169Z" fill="#455A64"/>
<path d="M218.542 48.2686H58.3694C57.5163 48.2686 56.8247 48.9602 56.8247 49.8133V143.563C56.8247 144.417 57.5163 145.108 58.3694 145.108H218.542C219.395 145.108 220.087 144.417 220.087 143.563V49.8133C220.087 48.9602 219.395 48.2686 218.542 48.2686Z" fill="#E0E0E0"/>
<path d="M220.087 55.3639H56.8247V145.108H220.087V55.3639Z" fill="#FAFAFA"/>
<path d="M70.217 52.0052C70.217 52.2631 70.1405 52.5152 69.9972 52.7296C69.854 52.944 69.6503 53.1111 69.4121 53.2098C69.1739 53.3084 68.9117 53.3343 68.6588 53.284C68.4059 53.2336 68.1736 53.1095 67.9912 52.9271C67.8089 52.7448 67.6847 52.5125 67.6344 52.2596C67.5841 52.0067 67.6099 51.7445 67.7086 51.5063C67.8073 51.268 67.9744 51.0644 68.1888 50.9211C68.4032 50.7779 68.6553 50.7014 68.9132 50.7014C69.2589 50.7014 69.5906 50.8388 69.8351 51.0833C70.0796 51.3278 70.217 51.6594 70.217 52.0052Z" fill="#5351C0"/>
<path d="M62.3139 52.0052C62.3139 52.2631 62.2374 52.5152 62.0942 52.7296C61.9509 52.944 61.7473 53.1111 61.509 53.2098C61.2708 53.3084 61.0086 53.3343 60.7557 53.284C60.5028 53.2336 60.2705 53.1095 60.0882 52.9271C59.9058 52.7448 59.7817 52.5125 59.7314 52.2596C59.681 52.0067 59.7069 51.7445 59.8055 51.5063C59.9042 51.268 60.0713 51.0644 60.2857 50.9211C60.5002 50.7779 60.7522 50.7014 61.0101 50.7014C61.3559 50.7014 61.6875 50.8388 61.932 51.0833C62.1765 51.3278 62.3139 51.6594 62.3139 52.0052Z" fill="#5351C0"/>
<path d="M66.1071 52.0052C66.1071 52.2631 66.0306 52.5152 65.8874 52.7296C65.7441 52.944 65.5405 53.1111 65.3022 53.2098C65.064 53.3084 64.8019 53.3343 64.5489 53.284C64.296 53.2336 64.0637 53.1095 63.8814 52.9271C63.699 52.7448 63.5749 52.5125 63.5246 52.2596C63.4743 52.0067 63.5001 51.7445 63.5988 51.5063C63.6974 51.268 63.8645 51.0644 64.079 50.9211C64.2934 50.7779 64.5454 50.7014 64.8033 50.7014C65.1491 50.7014 65.4807 50.8388 65.7252 51.0833C65.9697 51.3278 66.1071 51.6594 66.1071 52.0052Z" fill="#5351C0"/>
<path d="M137.268 97.1513C137.268 97.2222 131.287 97.2836 123.913 97.2836C116.539 97.2836 110.554 97.2222 110.554 97.1513C110.554 97.0805 116.535 97.0191 123.913 97.0191C131.292 97.0191 137.268 97.0758 137.268 97.1513Z" fill="#455A64"/>
<path d="M137.268 100.727C137.268 100.798 131.287 100.86 123.913 100.86C116.539 100.86 110.554 100.798 110.554 100.727C110.554 100.656 116.535 100.59 123.913 100.59C131.292 100.59 137.268 100.652 137.268 100.727Z" fill="#455A64"/>
<path d="M126.563 104.299C126.563 104.374 122.983 104.436 118.561 104.436C114.14 104.436 110.554 104.374 110.554 104.299C110.554 104.223 114.14 104.166 118.561 104.166C122.983 104.166 126.563 104.228 126.563 104.299Z" fill="#455A64"/>
<path d="M123.257 60.6169H110.554V62.2277H123.257V60.6169Z" fill="#455A64"/>
<path d="M138.468 65.8084H110.554V92.8148H138.468V65.8084Z" fill="#E0E0E0"/>
<path d="M112.718 90.5001L120.441 76.6025L126.757 85.4881L130.593 80.7689L136.304 90.5001H112.718Z" fill="#5351C0"/>
<path d="M127.437 75.9081C128.546 75.9081 129.445 75.0092 129.445 73.9004C129.445 72.7916 128.546 71.8928 127.437 71.8928C126.329 71.8928 125.43 72.7916 125.43 73.9004C125.43 75.0092 126.329 75.9081 127.437 75.9081Z" fill="#5351C0"/>
<path d="M136.304 90.5757C136.299 90.5397 136.299 90.5031 136.304 90.467C136.304 90.382 136.304 90.2828 136.304 90.1505C136.304 89.8624 136.304 89.4561 136.304 88.9365C136.304 87.8642 136.304 86.3148 136.276 84.3496C136.276 80.4052 136.243 74.7885 136.219 68.0428L136.332 68.1562H112.751C112.718 68.1845 112.996 67.9058 112.878 68.0286V74.0846C112.878 76.0687 112.878 78.0149 112.878 79.9045C112.878 83.6836 112.878 87.2643 112.878 90.5521L112.76 90.434L129.813 90.4954L134.622 90.5237H135.898H136.228H135.912H134.655L129.875 90.5521L112.746 90.6135H112.633V90.4954C112.633 87.1887 112.633 83.6316 112.633 79.8478C112.633 77.9582 112.633 76.012 112.633 74.0279V68.0522C112.514 68.1656 112.793 67.8822 112.77 67.9152H136.351H136.465V68.0286C136.441 74.8027 136.422 80.443 136.408 84.4063C136.408 86.362 136.384 87.902 136.375 88.9696C136.375 89.4798 136.375 89.8766 136.375 90.16C136.375 90.2875 136.375 90.3867 136.375 90.4623C136.354 90.5021 136.331 90.54 136.304 90.5757Z" fill="#455A64"/>
<path d="M171.299 97.1513C171.299 97.2222 165.318 97.2836 157.939 97.2836C150.561 97.2836 144.585 97.2222 144.585 97.1513C144.585 97.0805 150.561 97.0191 157.939 97.0191C165.318 97.0191 171.299 97.0758 171.299 97.1513Z" fill="#455A64"/>
<path d="M171.299 100.727C171.299 100.798 165.318 100.86 157.939 100.86C150.561 100.86 144.585 100.798 144.585 100.727C144.585 100.656 150.561 100.59 157.939 100.59C165.318 100.59 171.299 100.652 171.299 100.727Z" fill="#455A64"/>
<path d="M160.594 104.299C160.594 104.374 157.009 104.436 152.587 104.436C148.166 104.436 144.594 104.374 144.594 104.299C144.594 104.223 148.175 104.166 152.597 104.166C157.018 104.166 160.594 104.228 160.594 104.299Z" fill="#455A64"/>
<path d="M157.287 60.6169H144.585V62.2277H157.287V60.6169Z" fill="#455A64"/>
<path d="M172.498 65.8084H144.585V92.8148H172.498V65.8084Z" fill="#E0E0E0"/>
<path d="M146.749 90.5001L154.467 76.6025L160.783 85.4881L164.624 80.7689L170.33 90.5001H146.749Z" fill="#5351C0"/>
<path d="M163.49 73.9004C163.491 74.2988 163.374 74.6886 163.153 75.0202C162.932 75.3519 162.618 75.6105 162.25 75.7634C161.882 75.9163 161.477 75.9566 161.086 75.8791C160.695 75.8016 160.336 75.6098 160.055 75.3281C159.773 75.0464 159.581 74.6874 159.504 74.2966C159.426 73.9058 159.467 73.5008 159.619 73.1329C159.772 72.765 160.031 72.4507 160.363 72.2299C160.694 72.0092 161.084 71.8918 161.482 71.8928C162.015 71.8928 162.526 72.1043 162.902 72.4808C163.279 72.8573 163.49 73.368 163.49 73.9004Z" fill="#5351C0"/>
<path d="M170.33 90.5757C170.33 90.5757 170.33 90.5379 170.33 90.467C170.33 90.3962 170.33 90.2828 170.33 90.1505C170.33 89.8624 170.33 89.4561 170.33 88.9365C170.33 87.8642 170.33 86.3148 170.302 84.3496C170.302 80.4052 170.264 74.7885 170.24 68.0428L170.354 68.1562H146.772C146.739 68.1845 147.022 67.9058 146.904 68.0286V74.0846C146.904 76.0687 146.904 78.0149 146.904 79.9045C146.904 83.6836 146.904 87.2643 146.904 90.5521L146.791 90.434L163.844 90.4954L168.653 90.5237H169.929H170.259H169.938H168.686L163.901 90.5521L146.777 90.6135H146.659V90.4954C146.659 87.1887 146.659 83.6316 146.659 79.8478V68.0522C146.536 68.1656 146.819 67.8822 146.791 67.9152H170.373H170.491V68.0286C170.462 74.8027 170.443 80.443 170.429 84.4063C170.429 86.362 170.406 87.902 170.401 88.9696C170.401 89.4798 170.401 89.8766 170.401 90.16C170.401 90.2875 170.401 90.3867 170.401 90.4623C170.384 90.5038 170.36 90.5421 170.33 90.5757Z" fill="#455A64"/>
<path d="M124.15 109.282H111.447V110.893H124.15V109.282Z" fill="#455A64"/>
<path d="M139.36 114.469H111.447V141.476H139.36V114.469Z" fill="#E0E0E0"/>
<path d="M113.611 139.166L121.334 125.268L127.65 134.149L131.486 129.434L137.197 139.166H113.611Z" fill="#5351C0"/>
<path d="M130.343 122.566C130.343 122.964 130.225 123.353 130.003 123.684C129.782 124.015 129.468 124.273 129.1 124.425C128.733 124.577 128.328 124.617 127.938 124.54C127.547 124.462 127.189 124.27 126.907 123.989C126.626 123.707 126.434 123.349 126.357 122.958C126.279 122.568 126.319 122.163 126.471 121.796C126.623 121.428 126.881 121.114 127.212 120.893C127.543 120.671 127.932 120.553 128.33 120.553C128.595 120.553 128.857 120.604 129.101 120.705C129.346 120.806 129.568 120.955 129.755 121.141C129.942 121.328 130.09 121.551 130.191 121.795C130.292 122.039 130.343 122.301 130.343 122.566Z" fill="#5351C0"/>
<path d="M137.197 139.241C137.197 139.241 137.197 139.199 137.197 139.128C137.197 139.057 137.197 138.944 137.197 138.811C137.197 138.528 137.197 138.122 137.197 137.597C137.197 136.53 137.197 134.98 137.164 133.01C137.164 129.066 137.131 123.449 137.107 116.708L137.221 116.822H113.639L113.771 116.689V118.234C113.771 118.744 113.771 119.254 113.771 119.76V128.589C113.771 132.368 113.771 135.944 113.771 139.236L113.653 139.118L130.706 139.18L135.515 139.208H136.795H137.126C137.164 139.204 137.202 139.204 137.239 139.208H136.819H135.567L130.782 139.241L113.653 139.298H113.54V139.184C113.54 135.878 113.54 132.316 113.54 128.537C113.54 126.647 113.54 124.707 113.54 122.717V116.708L113.677 116.571H137.258H137.372V116.689C137.348 123.463 137.329 129.104 137.315 133.067C137.315 135.023 137.315 136.563 137.287 137.626C137.287 138.14 137.287 138.537 137.287 138.821C137.287 138.944 137.287 139.043 137.287 139.123C137.267 139.169 137.236 139.209 137.197 139.241Z" fill="#455A64"/>
<path d="M158.204 109.282H145.501V110.893H158.204V109.282Z" fill="#455A64"/>
<path d="M173.415 114.469H145.501V141.476H173.415V114.469Z" fill="#E0E0E0"/>
<path d="M147.665 139.166L155.389 125.268L161.704 134.149L165.54 129.434L171.251 139.166H147.665Z" fill="#5351C0"/>
<path d="M164.392 122.566C164.391 122.963 164.273 123.35 164.052 123.68C163.83 124.009 163.517 124.266 163.15 124.417C162.783 124.569 162.379 124.608 161.99 124.53C161.601 124.452 161.244 124.26 160.963 123.979C160.683 123.698 160.492 123.34 160.415 122.951C160.338 122.562 160.378 122.158 160.53 121.792C160.682 121.425 160.94 121.112 161.27 120.891C161.6 120.671 161.988 120.553 162.385 120.553C162.649 120.553 162.91 120.606 163.154 120.707C163.398 120.808 163.619 120.956 163.806 121.143C163.992 121.33 164.14 121.552 164.241 121.796C164.341 122.04 164.393 122.302 164.392 122.566Z" fill="#5351C0"/>
<path d="M171.251 139.241C171.248 139.203 171.248 139.165 171.251 139.128C171.251 139.047 171.251 138.944 171.251 138.811C171.251 138.528 171.251 138.122 171.251 137.597C171.251 136.53 171.251 134.98 171.223 133.01C171.223 129.066 171.19 123.449 171.166 116.708L171.28 116.822H147.693L147.826 116.689V122.755C147.826 124.739 147.826 126.679 147.826 128.575C147.826 132.354 147.826 135.93 147.826 139.222L147.707 139.104L164.761 139.166L169.57 139.194H170.845H171.176H171.294H170.873H169.617L164.836 139.227L147.707 139.284H147.589V139.17C147.589 135.864 147.589 132.302 147.589 128.523C147.589 126.633 147.589 124.693 147.589 122.703V116.708L147.722 116.571H171.308H171.421V116.689C171.398 123.463 171.379 129.104 171.365 133.067C171.365 135.023 171.341 136.563 171.332 137.626C171.332 138.14 171.332 138.537 171.332 138.821C171.332 138.944 171.332 139.043 171.332 139.123C171.308 139.165 171.282 139.204 171.251 139.241Z" fill="#455A64"/>
<path d="M193.34 109.282H180.638V110.893H193.34V109.282Z" fill="#455A64"/>
<path d="M208.551 114.469H180.638V141.476H208.551V114.469Z" fill="#E0E0E0"/>
<path d="M182.801 139.166L190.525 125.268L196.841 134.149L200.676 129.434L206.388 139.166H182.801Z" fill="#5351C0"/>
<path d="M199.533 122.566C199.533 122.964 199.415 123.353 199.194 123.684C198.973 124.015 198.658 124.273 198.291 124.425C197.923 124.577 197.518 124.617 197.128 124.54C196.738 124.462 196.379 124.27 196.098 123.989C195.816 123.707 195.625 123.349 195.547 122.958C195.469 122.568 195.509 122.163 195.661 121.796C195.814 121.428 196.072 121.114 196.403 120.893C196.734 120.671 197.123 120.553 197.521 120.553C197.785 120.553 198.047 120.604 198.292 120.705C198.536 120.806 198.758 120.955 198.945 121.141C199.132 121.328 199.28 121.551 199.381 121.795C199.482 122.039 199.534 122.301 199.533 122.566Z" fill="#5351C0"/>
<path d="M206.387 139.241C206.387 139.241 206.387 139.199 206.387 139.128C206.387 139.057 206.387 138.944 206.387 138.811C206.387 138.528 206.387 138.122 206.387 137.597C206.387 136.53 206.387 134.98 206.354 133.01C206.354 129.066 206.321 123.449 206.298 116.708L206.411 116.822H182.829L182.962 116.689V128.575C182.962 132.354 182.962 135.93 182.962 139.222L182.844 139.104L199.897 139.166L204.706 139.194H205.986H206.312C206.351 139.19 206.391 139.19 206.43 139.194H206.01H204.758L199.972 139.227L182.844 139.284H182.73V139.17C182.73 135.864 182.73 132.302 182.73 128.523C182.73 126.633 182.73 124.693 182.73 122.703V116.708L182.867 116.571H206.449H206.562V116.689C206.539 123.463 206.52 129.104 206.506 133.067C206.506 135.023 206.482 136.563 206.477 137.626C206.477 138.14 206.477 138.537 206.477 138.821C206.477 138.944 206.477 139.043 206.477 139.123C206.457 139.169 206.426 139.209 206.387 139.241Z" fill="#455A64"/>
<path d="M205.939 92.8101C206.953 92.6795 207.978 92.6353 209 92.6778L208.868 92.8101V92.5078C208.868 92.4038 208.868 92.3046 208.868 92.2054C208.868 92.007 208.868 91.8181 208.868 91.6291C208.868 91.2937 208.868 90.9678 208.896 90.656C208.882 90.3538 208.913 90.0511 208.99 89.7585C209.061 90.0522 209.091 90.3541 209.08 90.656C209.08 90.9678 209.08 91.2937 209.108 91.6291C209.108 91.8181 209.108 92.007 209.108 92.2054V92.8101L208.971 92.9471C207.958 92.9908 206.944 92.9449 205.939 92.8101Z" fill="#455A64"/>
<path d="M192.018 92.8101C194.335 92.6337 196.663 92.6337 198.981 92.8101C196.663 92.9928 194.335 92.9928 192.018 92.8101Z" fill="#455A64"/>
<path d="M181.993 89.749C182.127 90.7636 182.171 91.7878 182.126 92.8101L181.993 92.6778H183.189L184.162 92.7062C184.464 92.6983 184.765 92.73 185.059 92.8007C184.766 92.8771 184.464 92.9089 184.162 92.8951L183.189 92.9235H182.612H181.993L181.861 92.7865C181.82 91.7721 181.864 90.756 181.993 89.749Z" fill="#455A64"/>
<path d="M181.993 75.8278C182.127 76.9831 182.171 78.1471 182.126 79.3093C182.171 80.4699 182.127 81.6323 181.993 82.786C181.863 81.632 181.819 80.4699 181.861 79.3093C181.819 78.1471 181.863 76.9834 181.993 75.8278Z" fill="#455A64"/>
<path d="M185.059 65.7989C184.043 65.9322 183.017 65.9765 181.994 65.9312L182.126 65.7989V66.4083C182.126 66.602 182.126 66.7957 182.126 66.9846C182.126 67.32 182.126 67.6413 182.097 67.9578C182.111 68.26 182.079 68.5626 182.003 68.8553C181.927 68.5626 181.895 68.26 181.908 67.9578C181.908 67.6413 181.908 67.32 181.88 66.9846C181.88 66.7957 181.88 66.602 181.88 66.4083C181.88 66.3091 181.88 66.2052 181.88 66.1013V65.7989L182.012 65.6667C183.03 65.6253 184.049 65.6696 185.059 65.7989Z" fill="#455A64"/>
<path d="M198.981 65.799C196.663 65.9753 194.335 65.9753 192.018 65.799C194.335 65.6226 196.663 65.6226 198.981 65.799Z" fill="#455A64"/>
<path d="M209.005 68.8695C208.868 67.8536 208.822 66.8276 208.868 65.8037C209.137 66.0682 208.943 65.8793 209 65.9359H208.367H207.791L206.817 65.9076C206.515 65.9214 206.213 65.8896 205.92 65.8131C206.213 65.7367 206.515 65.7048 206.817 65.7186L207.791 65.6903H208.981L209.118 65.8226C209.166 66.8396 209.128 67.8588 209.005 68.8695Z" fill="#455A64"/>
<path d="M209.005 82.8049C208.868 81.6514 208.822 80.4889 208.868 79.3281C208.822 78.1658 208.868 77.0018 209.005 75.8466C209.135 77.0022 209.179 78.166 209.137 79.3281C209.18 80.4887 209.135 81.6509 209.005 82.8049Z" fill="#455A64"/>
<path d="M208.613 97.1136C208.613 97.1844 202.627 97.2458 195.253 97.2458C187.879 97.2458 181.894 97.1844 181.894 97.1136C181.894 97.0427 187.875 96.9813 195.253 96.9813C202.632 96.9813 208.613 97.038 208.613 97.1136Z" fill="#455A64"/>
<path d="M208.612 100.69C208.612 100.76 202.627 100.822 195.253 100.822C187.879 100.822 181.913 100.756 181.913 100.69C181.913 100.623 187.894 100.553 195.272 100.553C202.651 100.553 208.612 100.614 208.612 100.69Z" fill="#455A64"/>
<path d="M194.597 60.5791H181.894V62.1899H194.597V60.5791Z" fill="#455A64"/>
<path d="M97.5682 81.5956C97.5682 84.3051 96.7647 86.9537 95.2594 89.2065C93.7542 91.4593 91.6146 93.2152 89.1114 94.2521C86.6082 95.2889 83.8537 95.5602 81.1963 95.0316C78.5389 94.5031 76.098 93.1983 74.1821 91.2824C72.2662 89.3666 70.9615 86.9256 70.4329 84.2682C69.9043 81.6108 70.1756 78.8563 71.2125 76.3531C72.2493 73.8499 74.0052 71.7104 76.258 70.2051C78.5109 68.6998 81.1595 67.8964 83.8689 67.8964C87.5022 67.8964 90.9867 69.3397 93.5558 71.9088C96.1249 74.4779 97.5682 77.9623 97.5682 81.5956Z" fill="#E0E0E0"/>
<path d="M100.275 111.432C100.275 111.503 93.246 111.564 84.5777 111.564C75.9093 111.564 68.8755 111.503 68.8755 111.432C68.8755 111.361 75.9046 111.295 84.5777 111.295C93.2507 111.295 100.275 111.356 100.275 111.432Z" fill="#455A64"/>
<path d="M100.275 114.927C100.275 115.003 93.246 115.06 84.5777 115.06C75.9093 115.06 68.8755 115.003 68.8755 114.927C68.8755 114.852 75.9046 114.795 84.5777 114.795C93.2507 114.795 100.275 114.828 100.275 114.927Z" fill="#455A64"/>
<path d="M100.275 118.376C100.275 118.451 93.246 118.508 84.5777 118.508C75.9093 118.508 68.8755 118.451 68.8755 118.376C68.8755 118.3 75.9046 118.234 84.6013 118.234C93.2979 118.234 100.275 118.305 100.275 118.376Z" fill="#455A64"/>
<path d="M86.9159 121.923C86.9159 121.999 82.8392 122.056 77.813 122.056C72.7868 122.056 68.7053 121.999 68.7053 121.923C68.7053 121.848 72.782 121.791 77.813 121.791C82.8439 121.791 86.9159 121.853 86.9159 121.923Z" fill="#455A64"/>
<path d="M68.8754 105.924H90.5107V104.341H68.8754V105.924Z" fill="#455A64"/>
<path d="M75.2998 92.0496C77.7108 94.137 80.7932 95.286 83.9823 95.286C87.1714 95.286 90.2538 94.137 92.6648 92.0496C91.9373 89.5743 90.1706 86.636 85.8766 85.9841C86.8393 85.5598 87.6564 84.8624 88.2265 83.9782C88.7967 83.094 89.0949 82.0619 89.0841 81.0099C89.0841 78.0338 86.845 75.6152 84.0579 75.601C81.2708 75.5868 79.0033 77.9913 78.9892 80.9626C78.9695 82.0244 79.2645 83.0682 79.837 83.9626C80.4094 84.857 81.2337 85.562 82.2061 85.9888C77.8413 86.636 76.0415 89.5884 75.2998 92.0496Z" fill="#5351C0"/>
<path d="M81.0064 127.346H68.8755V128.825H81.0064V127.346Z" fill="#5351C0"/>
<path d="M250.475 76.0309L252.545 82.9702C252.655 83.2818 252.717 83.6083 252.729 83.9386C252.729 84.9165 251.784 85.6865 250.839 85.866C249.864 85.9716 248.877 85.8553 247.953 85.5259C247.698 86.5226 246.536 86.943 245.52 87.132C240.996 87.9737 236.321 87.391 232.142 85.4644C233.926 82.9105 235.375 80.1386 236.455 77.2165L247.008 77.6889C247.63 77.7563 248.258 77.7034 248.86 77.533C249.159 77.4424 249.426 77.2686 249.63 77.0319C249.834 76.7952 249.967 76.5054 250.013 76.1962" fill="#5351C0"/>
<path d="M238.382 89.5837C238.515 88.809 238.198 85.5495 238.198 85.5495C238.198 85.5495 235.227 85.233 235.047 82.2853C234.868 79.3376 235.047 72.5352 235.047 72.5352L240.461 69.8898L246.422 74.4011L245.52 89.1444L239.072 94.8981L238.382 89.5837Z" fill="#FFBE9D"/>
<path d="M235.638 77.4905C235.637 77.5655 235.658 77.639 235.699 77.7017C235.74 77.7645 235.799 77.8137 235.868 77.843C235.937 77.8723 236.013 77.8805 236.086 77.8665C236.16 77.8524 236.228 77.8168 236.281 77.7641C236.334 77.7115 236.371 77.6442 236.386 77.5707C236.401 77.4973 236.394 77.4211 236.365 77.3517C236.337 77.2824 236.288 77.2231 236.226 77.1814C236.164 77.1396 236.091 77.1173 236.016 77.1173C235.966 77.1167 235.917 77.1259 235.871 77.1444C235.826 77.1629 235.784 77.1902 235.749 77.225C235.714 77.2597 235.686 77.301 235.667 77.3466C235.648 77.3922 235.638 77.4411 235.638 77.4905Z" fill="#263238"/>
<path d="M235.293 77.0796C235.345 77.1315 235.624 76.8953 236.03 76.8717C236.436 76.8481 236.738 77.0465 236.781 76.9898C236.823 76.9331 236.753 76.8764 236.62 76.7867C236.44 76.668 236.226 76.6116 236.011 76.6261C235.797 76.6368 235.593 76.7182 235.43 76.8575C235.293 76.9662 235.246 77.0607 235.293 77.0796Z" fill="#263238"/>
<path d="M240.017 77.4905C240.016 77.5657 240.037 77.6394 240.079 77.7022C240.12 77.7651 240.179 77.8143 240.248 77.8435C240.317 77.8726 240.394 77.8805 240.467 77.8661C240.541 77.8517 240.609 77.8156 240.662 77.7624C240.715 77.7093 240.751 77.6415 240.766 77.5678C240.78 77.494 240.772 77.4177 240.743 77.3484C240.714 77.2792 240.665 77.2202 240.602 77.1791C240.539 77.1379 240.465 77.1164 240.39 77.1173C240.291 77.1173 240.196 77.1567 240.126 77.2266C240.056 77.2966 240.017 77.3915 240.017 77.4905Z" fill="#263238"/>
<path d="M239.776 77.0796C239.823 77.1315 240.102 76.8953 240.508 76.8717C240.914 76.8481 241.221 77.0465 241.264 76.9898C241.306 76.9331 241.236 76.8764 241.099 76.7867C240.92 76.6697 240.708 76.6134 240.494 76.6262C240.281 76.639 240.077 76.7201 239.913 76.8575C239.79 76.9662 239.752 77.0607 239.776 77.0796Z" fill="#263238"/>
<path d="M239.653 80.9153C239.033 81.232 238.371 81.4609 237.688 81.5956C237.839 81.7989 238.053 81.9466 238.296 82.0158C238.54 82.085 238.799 82.0718 239.034 81.9782C239.146 81.9521 239.252 81.9033 239.345 81.8348C239.437 81.7664 239.515 81.6797 239.573 81.5802C239.631 81.4807 239.668 81.3704 239.682 81.2561C239.695 81.1417 239.686 81.0258 239.653 80.9153Z" fill="#FAFAFA"/>
<path d="M238.198 85.5495C239.599 85.4916 240.955 85.0343 242.105 84.2315C242.105 84.2315 241.222 86.395 238.264 86.2722L238.198 85.5495Z" fill="#EB996E"/>
<path d="M255.001 82.8805C254.63 82.8945 254.262 82.8115 253.933 82.6396C253.448 82.3756 253.044 81.9834 252.767 81.5058C252.422 80.9108 252.131 80.2864 251.897 79.6399C251.345 78.27 250.953 76.9945 250.646 76.0686C250.603 75.9222 250.561 75.7899 250.523 75.6624C250.505 75.5257 250.48 75.3901 250.447 75.2561C248.836 69.1151 243.432 67.9625 242.365 67.9625C241.217 67.9625 239.209 67.3295 236.285 70.3716C235.842 70.8251 235.468 71.3407 235.175 71.9022C234.53 72.7135 234.085 73.665 233.876 74.6798C233.748 75.1558 233.725 75.6539 233.81 76.1395C233.866 76.1395 233.876 75.5868 234.103 74.7223C234.238 74.2198 234.428 73.7335 234.669 73.2721C234.415 74.4078 234.519 75.5945 234.967 76.6686L236.016 76.3757L239.795 75.1003C239.45 73.9382 239.955 72.4927 240.239 71.7935H240.267C241.127 76.2056 245.988 76.6686 245.988 76.6686L245.747 85.044C250.74 83.9764 250.806 78.5251 250.773 77.1693C251 77.9346 251.293 78.8132 251.661 79.7344C251.908 80.391 252.215 81.0235 252.578 81.6239C252.884 82.1334 253.335 82.541 253.872 82.7955C254.234 82.967 254.638 83.0262 255.034 82.9655C255.18 82.9519 255.321 82.8998 255.44 82.8143C255.293 82.8268 255.146 82.8489 255.001 82.8805Z" fill="#5351C0"/>
<path d="M238.312 80.5138C238.096 80.4644 237.876 80.4406 237.655 80.443C237.551 80.443 237.447 80.443 237.428 80.3485C237.414 80.2351 237.433 80.1199 237.485 80.0178C237.575 79.7533 237.664 79.4746 237.764 79.177C237.957 78.577 238.123 78.0338 238.236 77.637C238.314 77.4273 238.363 77.208 238.382 76.9851C238.272 77.1814 238.186 77.3909 238.127 77.6086C237.986 77.996 237.801 78.5534 237.608 79.1392L237.338 79.9847C237.28 80.1186 237.267 80.2678 237.301 80.4099C237.317 80.4456 237.342 80.4772 237.372 80.5025C237.402 80.5278 237.437 80.5462 237.475 80.5563C237.534 80.5628 237.592 80.5628 237.65 80.5563C237.872 80.5688 238.094 80.5545 238.312 80.5138Z" fill="#263238"/>
<path d="M245.166 78.1141C244.25 77.9346 243.475 77.807 243.21 77.7881C243.245 77.633 243.264 77.4747 243.267 77.3158C243.263 76.8054 243.097 76.3095 242.795 75.8986C242.516 75.5159 242.127 75.2275 241.68 75.0719C241.278 74.9292 240.846 74.8966 240.428 74.9774C240.063 75.051 239.723 75.2132 239.436 75.4498C239.014 75.7759 238.718 76.2384 238.6 76.7583C238.566 76.8976 238.549 77.0403 238.548 77.1835C238.54 77.232 238.54 77.2814 238.548 77.3299C238.548 77.3299 238.548 77.1268 238.652 76.7772C238.788 76.2822 239.086 75.8467 239.497 75.5396C239.775 75.3298 240.099 75.1889 240.442 75.1286C240.882 75.0489 241.336 75.1027 241.745 75.2831C242.154 75.4635 242.5 75.7622 242.737 76.1408C242.975 76.5193 243.094 76.9604 243.079 77.4073C243.064 77.8541 242.916 78.2862 242.653 78.6479C242.393 79.0079 242.031 79.2812 241.614 79.4321C241.239 79.5705 240.835 79.6063 240.442 79.536C240.099 79.4741 239.775 79.3316 239.497 79.1203C239.085 78.8157 238.787 78.3815 238.652 77.8873C238.613 77.7482 238.586 77.606 238.571 77.4622C238.642 77.4622 238.689 77.4244 238.689 77.4055C238.689 77.3866 238.633 77.3583 238.553 77.3441C238.458 77.3357 238.363 77.3357 238.269 77.3441C238.155 77.3434 238.04 77.3561 237.929 77.3819V77.3535C237.927 76.8428 237.761 76.3462 237.457 75.9364C237.179 75.5549 236.792 75.2667 236.346 75.1097C235.943 74.9671 235.51 74.9344 235.09 75.0152C234.649 75.1044 234.243 75.3176 233.919 75.6297C233.595 75.9418 233.367 76.3399 233.262 76.7772C233.228 76.9165 233.211 77.0592 233.21 77.2024C233.202 77.2509 233.202 77.3003 233.21 77.3488C233.21 77.3488 233.21 77.1457 233.314 76.7961C233.45 76.3011 233.748 75.8656 234.159 75.5585C234.437 75.3487 234.761 75.2078 235.104 75.1475C235.427 75.0887 235.758 75.1015 236.075 75.1849C236.393 75.2684 236.687 75.4205 236.939 75.6304C237.191 75.8404 237.394 76.1032 237.533 76.4001C237.672 76.697 237.745 77.0209 237.745 77.3488C237.744 77.8068 237.604 78.2537 237.342 78.6294C237.08 79.0052 236.71 79.2919 236.28 79.4509C235.904 79.5893 235.498 79.6252 235.104 79.5549C234.761 79.493 234.437 79.3505 234.159 79.1392C233.747 78.8346 233.449 78.4004 233.314 77.9062C233.219 77.5567 233.229 77.3488 233.21 77.3488C233.203 77.399 233.203 77.4499 233.21 77.5C233.211 77.6417 233.228 77.7827 233.262 77.9204C233.38 78.4419 233.675 78.9061 234.098 79.2337C234.387 79.4669 234.727 79.6287 235.09 79.706C235.51 79.7868 235.943 79.7542 236.346 79.6116C236.791 79.453 237.177 79.1651 237.457 78.7849C237.738 78.4076 237.902 77.9558 237.929 77.4858C238.043 77.5141 238.161 77.5269 238.279 77.5236C238.37 77.5295 238.461 77.5295 238.553 77.5236C238.554 77.6653 238.571 77.8064 238.604 77.944C238.706 78.3835 238.933 78.7841 239.257 79.0976C239.582 79.411 239.99 79.624 240.433 79.7108C240.851 79.7916 241.283 79.759 241.684 79.6163C242.13 79.4586 242.519 79.1706 242.799 78.7896C242.994 78.5254 243.129 78.2225 243.196 77.9015C243.446 77.9818 244.212 78.1613 245.138 78.3408C245.815 78.5003 246.504 78.6093 247.197 78.6668C246.537 78.4259 245.857 78.2411 245.166 78.1141Z" fill="#263238"/>
<path d="M246.734 80.391C246.687 79.9001 246.742 79.4049 246.895 78.936C246.973 78.7025 247.112 78.4943 247.299 78.3331C247.485 78.1718 247.711 78.0636 247.953 78.0196C248.233 78.0056 248.509 78.0936 248.73 78.2672C248.95 78.4409 249.101 78.6885 249.153 78.9644C249.187 79.2468 249.136 79.533 249.005 79.7858C248.875 80.0385 248.671 80.2461 248.421 80.3815C248.169 80.5121 247.89 80.5841 247.606 80.5923C247.323 80.6004 247.041 80.5446 246.782 80.4288" fill="#FFBE9D"/>
<path d="M247.575 79.9706C247.575 79.9375 247.736 80.0084 247.944 79.9706C248.073 79.9251 248.186 79.8399 248.264 79.7272C248.343 79.6145 248.385 79.4798 248.383 79.3423C248.396 79.2733 248.393 79.2023 248.375 79.1345C248.357 79.0667 248.324 79.0037 248.279 78.9502C248.189 78.8775 248.073 78.8436 247.958 78.8557C247.736 78.8557 247.58 78.9313 247.57 78.8935C247.561 78.8557 247.67 78.7565 247.934 78.6857C248.015 78.6654 248.099 78.6634 248.181 78.6797C248.263 78.6961 248.34 78.7304 248.407 78.7801C248.484 78.8537 248.543 78.9449 248.579 79.046C248.614 79.1471 248.625 79.2552 248.61 79.3612C248.602 79.5634 248.526 79.757 248.392 79.9092C248.281 80.0375 248.126 80.12 247.958 80.1406C247.703 80.1359 247.575 79.9706 247.575 79.9706Z" fill="#EB996E"/>
<path d="M259.016 192.224L255.459 189.81L259.942 183.121L265.181 186.598L264.931 187.028C263.797 188.946 259.03 196.683 257.845 197.671C256.494 198.767 259.016 192.224 259.016 192.224Z" fill="#5351C0"/>
<path d="M257.401 197.595C257.334 197.553 258.974 195.025 261.062 191.955C263.15 188.884 264.888 186.423 264.954 186.466C265.02 186.508 263.376 189.036 261.288 192.134C259.2 195.233 257.462 197.647 257.401 197.595Z" fill="#263238"/>
<path d="M259.664 192.834C259.664 192.909 259.442 192.952 259.191 192.97C258.941 192.989 258.719 192.97 258.695 192.895C258.671 192.819 258.889 192.711 259.168 192.697C259.446 192.682 259.673 192.758 259.664 192.834Z" fill="#263238"/>
<path d="M259.611 193.419C259.611 193.495 259.352 193.504 259.063 193.485C258.775 193.467 258.534 193.429 258.53 193.348C258.525 193.268 258.771 193.193 259.078 193.211C259.385 193.23 259.626 193.344 259.611 193.419Z" fill="#263238"/>
<path d="M263.565 188.469C263.532 188.469 263.443 188.341 263.334 188.1C263.187 187.777 263.102 187.429 263.084 187.075C263.065 186.708 263.172 186.345 263.386 186.045C263.561 185.819 263.731 185.757 263.75 185.785C263.769 185.814 263.66 185.932 263.547 186.149C263.409 186.434 263.344 186.749 263.358 187.066C263.38 187.394 263.434 187.72 263.518 188.039C263.58 188.289 263.603 188.454 263.565 188.469Z" fill="#263238"/>
<path d="M258.983 192.399C258.95 192.333 259.078 192.201 259.253 192.073C259.427 191.945 259.588 191.86 259.645 191.912C259.701 191.964 259.612 192.149 259.413 192.295C259.215 192.441 259.012 192.47 258.983 192.399Z" fill="#263238"/>
<path d="M258.709 192.064C258.648 192.016 258.709 191.804 258.87 191.591C259.03 191.379 259.196 191.237 259.257 191.275C259.319 191.312 259.257 191.525 259.097 191.747C258.936 191.969 258.766 192.111 258.709 192.064Z" fill="#263238"/>
<path d="M217.092 197.723V193.424L225.122 193.372L225.188 199.664L224.688 199.697C222.468 199.834 213.388 200.241 211.895 199.801C210.256 199.31 217.092 197.723 217.092 197.723Z" fill="#5351C0"/>
<path d="M211.73 199.404C211.73 199.329 214.744 199.267 218.457 199.267C222.17 199.267 225.184 199.329 225.184 199.404C225.184 199.48 222.175 199.546 218.457 199.546C214.739 199.546 211.73 199.485 211.73 199.404Z" fill="#263238"/>
<path d="M216.95 198.601C216.884 198.639 216.728 198.483 216.568 198.275C216.407 198.068 216.298 197.879 216.35 197.803C216.402 197.727 216.615 197.864 216.785 198.091C216.955 198.318 217.016 198.564 216.95 198.601Z" fill="#263238"/>
<path d="M216.435 198.885C216.364 198.913 216.223 198.719 216.076 198.469C215.93 198.219 215.826 197.997 215.887 197.949C215.949 197.902 216.152 198.063 216.312 198.332C216.473 198.601 216.506 198.856 216.435 198.885Z" fill="#263238"/>
<path d="M222.756 199.376C222.727 199.376 222.794 199.201 222.931 198.979C223.116 198.678 223.354 198.412 223.634 198.195C223.93 197.975 224.291 197.859 224.659 197.864C224.943 197.864 225.094 197.992 225.08 198.02C225.066 198.049 224.905 198.02 224.664 198.058C224.351 198.107 224.055 198.23 223.8 198.417C223.54 198.62 223.301 198.848 223.086 199.097C222.912 199.286 222.789 199.4 222.756 199.376Z" fill="#263238"/>
<path d="M216.926 197.794C216.964 197.727 217.149 197.761 217.347 197.831C217.545 197.902 217.715 197.992 217.701 198.068C217.687 198.143 217.489 198.172 217.257 198.091C217.026 198.011 216.87 197.86 216.926 197.794Z" fill="#263238"/>
<path d="M217.054 197.378C217.054 197.302 217.276 197.241 217.526 197.246C217.777 197.25 217.999 197.316 217.999 197.392C217.999 197.468 217.791 197.524 217.526 197.524C217.262 197.524 217.045 197.453 217.054 197.378Z" fill="#263238"/>
<path d="M237.404 98.4646L228.679 95.5594C228.679 95.5594 224.83 106.651 223.649 106.76C217.111 107.355 210.115 105.187 207.658 104.332C207.413 104.053 207.129 103.718 206.813 103.307C206.541 102.953 206.331 102.555 206.194 102.13C206.005 101.61 205.887 101.067 205.844 100.515C205.854 100.408 205.831 100.302 205.778 100.209C205.725 100.116 205.644 100.043 205.547 99.9979C205.45 99.9533 205.341 99.94 205.236 99.9598C205.131 99.9796 205.035 100.032 204.961 100.108C204.682 100.477 204.607 101.875 205.254 103.387C205.901 104.899 203.615 103.694 202.774 103.269C201.933 102.844 199.273 101.663 198.938 101.819C198.466 102.05 198.603 102.617 199.453 103.018C200.303 103.42 202.76 104.804 202.519 105.239C202.278 105.673 198.026 103.458 198.026 103.458C198.026 103.458 197.195 102.839 196.897 103.33C196.359 104.214 201.045 106.231 201.498 106.41C201.81 106.533 201.564 107.015 201.234 106.883C200.903 106.75 197.048 104.582 196.486 105.465C196.061 106.15 200.331 107.157 200.884 108.045C201.437 108.933 197.719 106.953 197.341 107.629C197.2 107.879 197.124 108.101 199.42 108.914C201.105 109.437 202.818 109.867 204.55 110.203V110.227C204.55 110.227 227.484 120.483 232.421 110.6C237.655 100.113 237.404 98.4646 237.404 98.4646Z" fill="#FFBE9D"/>
<path d="M232.066 122.84C232.066 122.84 226.506 159.79 227.305 161.576C228.103 163.361 256.697 193.698 256.697 193.698L263.386 182.238C263.386 182.238 240.829 157.06 240.999 156.384C241.169 155.709 248.992 119.774 248.992 119.774L232.066 122.84Z" fill="#455A64"/>
<path d="M233.281 168.477L237.981 158.156L242.681 147.834L234.764 161.557L233.281 168.477Z" fill="#263238"/>
<path d="M236.082 159.27C236.103 159.405 236.113 159.541 236.11 159.677C236.11 159.969 236.11 160.362 236.138 160.848V160.81C237.929 162.832 241.897 167.424 246.479 172.79L254.439 182.172L256.829 185.039C257.094 185.36 257.301 185.625 257.467 185.823C257.547 185.911 257.617 186.007 257.675 186.111C257.583 186.036 257.5 185.952 257.424 185.861L256.749 185.105C256.144 184.42 255.332 183.466 254.292 182.299L246.262 172.97C241.684 167.608 237.759 162.969 236.044 160.886C236.044 160.414 236.044 160.007 236.068 159.714C236.052 159.566 236.057 159.417 236.082 159.27Z" fill="#263238"/>
<path d="M261.241 179.866C261.307 179.909 259.744 182.389 257.755 185.403C255.766 188.417 254.103 190.831 254.042 190.788C253.981 190.746 255.54 188.266 257.528 185.252C259.517 182.238 261.18 179.824 261.241 179.866Z" fill="#263238"/>
<path d="M230.054 136.719C230.106 136.331 234.547 126.326 234.547 126.326L232.393 123.289L232.01 123.204L230.054 136.719Z" fill="#263238"/>
<path d="M236.422 122.486L232.01 123.222L234.546 126.345C230.451 135.613 221.99 155.236 220.975 161.561C219.624 169.942 214.536 196.117 215.046 196.518C215.556 196.92 227.286 196.518 227.286 196.518L234.764 161.561L251.297 132.925C253.354 129.359 253.955 125.137 252.974 121.139L252.644 119.779" fill="#455A64"/>
<path d="M223.205 192.635C223.207 192.57 223.215 192.505 223.228 192.441C223.228 192.3 223.275 192.111 223.313 191.87L223.677 189.683C224.012 187.77 224.489 185.025 225.094 181.652C225.699 178.279 226.422 174.221 227.22 169.743C227.636 167.504 228.07 165.152 228.519 162.714C228.632 162.109 228.755 161.495 228.873 160.876C228.935 160.565 228.991 160.258 229.062 159.932C229.1 159.776 229.128 159.615 229.176 159.459L229.35 158.987C229.823 157.787 230.361 156.625 230.89 155.402C235.165 145.798 239.143 137.153 242.02 130.899L245.454 123.496C245.856 122.637 246.177 121.966 246.399 121.493C246.503 121.276 246.588 121.101 246.654 120.974C246.679 120.912 246.711 120.854 246.748 120.799L246.678 120.988L246.451 121.517L245.549 123.544C244.741 125.32 243.588 127.871 242.18 130.988C239.346 137.267 235.397 145.921 231.127 155.524C230.597 156.724 230.064 157.915 229.591 159.091L229.421 159.525C229.374 159.677 229.35 159.833 229.313 159.998C229.242 160.3 229.185 160.617 229.119 160.943C229.001 161.561 228.883 162.176 228.765 162.78C228.292 165.213 227.872 167.565 227.451 169.8C226.629 174.278 225.888 178.303 225.264 181.699C224.641 185.096 224.135 187.812 223.786 189.73C223.606 190.675 223.464 191.393 223.37 191.908C223.318 192.144 223.28 192.333 223.252 192.475C223.242 192.53 223.226 192.583 223.205 192.635Z" fill="#263238"/>
<path d="M227.985 193.155C227.985 193.23 225.151 193.24 221.698 193.155C218.244 193.07 215.41 192.98 215.41 192.904C215.41 192.829 218.244 192.819 221.702 192.881C225.16 192.942 227.99 193.079 227.985 193.155Z" fill="#263238"/>
<path d="M232.01 123.218L232.18 123.619L253.376 121.904L252.63 119.774L232.01 123.218Z" fill="#263238"/>
<path d="M240.763 88.6861L239.346 94.4115L239.294 90.2923L239.403 89.3805L239.53 88.6861L237.641 88.0484L236.668 89.5648H236.384C236.384 89.5648 228.755 88.8042 226.086 98.885L223.644 104.861L231.037 108.545V109.018L231.509 123.279L252.861 119.821C252.946 116.618 249.677 110.818 250.4 107.917L252.861 97.9969L249.635 88.7523L247.4 88.8231L246.158 87.354L240.787 88.6861" fill="#263238"/>
<path d="M231.169 108.46C230.997 108.412 230.837 108.33 230.697 108.219C230.303 107.949 229.967 107.602 229.709 107.199C229.319 106.596 229.141 105.879 229.204 105.163C229.24 104.287 229.529 103.441 230.035 102.726C230.428 102.165 230.946 101.702 231.547 101.374L231.481 101.46C231.66 100.151 231.821 99.0267 231.953 98.2284C231.998 97.8024 232.077 97.3806 232.189 96.9671C232.19 97.3971 232.158 97.8266 232.095 98.252C232.015 99.0503 231.887 100.184 231.727 101.493V101.549L231.67 101.582C231.028 101.948 230.489 102.468 230.101 103.096C229.713 103.724 229.489 104.44 229.45 105.177C229.378 105.85 229.527 106.528 229.875 107.109C230.111 107.502 230.415 107.851 230.772 108.139C231.042 108.347 231.174 108.441 231.169 108.46Z" fill="#455A64"/>
<path d="M231.986 98.8661C231.925 98.8944 231.717 98.5921 231.514 98.1859C231.311 97.7796 231.202 97.4253 231.263 97.397C231.325 97.3686 231.533 97.671 231.736 98.0772C231.939 98.4835 232.033 98.8094 231.986 98.8661Z" fill="#455A64"/>
<path d="M210.143 94.813L277.307 107.714C282.097 108.635 285.111 113.009 284.568 117.993C284.56 118.063 284.547 118.133 284.53 118.201C284.306 119.379 283.851 120.501 283.19 121.501C282.529 122.502 281.675 123.361 280.679 124.029C279.683 124.696 278.564 125.159 277.388 125.391C276.211 125.622 275 125.617 273.826 125.377L208.003 112.093L193.487 100.491L210.143 94.813Z" fill="#5351C0"/>
<path d="M210.143 94.813C210.143 94.813 213.809 96.1877 213.053 99.7022C212.297 103.217 208.749 103.07 208.749 103.07C208.749 103.07 212.198 103.836 211.244 108.763C210.625 111.937 208.003 112.102 208.003 112.102L193.487 100.491L210.143 94.813Z" fill="#E0E0E0"/>
<path d="M196.642 103.014C198.059 102.31 198.555 100.434 198.059 98.937L193.501 100.491L196.642 103.014Z" fill="#455A64"/>
<path d="M276.391 116.779L276.216 116.755L275.696 116.67L273.717 116.316C271.998 116.004 269.518 115.537 266.447 114.946C260.306 113.765 251.855 112.069 242.521 110.142L218.627 105.172L211.385 103.656L209.42 103.236L208.91 103.118C208.85 103.109 208.791 103.093 208.735 103.07C208.796 103.073 208.856 103.081 208.915 103.094L209.43 103.184L211.404 103.562L218.674 105.007L242.587 109.906C251.916 111.833 260.372 113.557 266.499 114.781L273.75 116.226L275.72 116.628L276.235 116.737C276.288 116.744 276.341 116.759 276.391 116.779Z" fill="#455A64"/>
<path d="M273.826 125.377C275 125.617 276.211 125.622 277.388 125.391C278.564 125.159 279.683 124.696 280.679 124.029C281.675 123.361 282.529 122.502 283.19 121.501C283.851 120.501 284.306 119.379 284.53 118.201C284.548 118.133 284.56 118.063 284.568 117.993C285.111 113.009 282.097 108.635 277.307 107.714L273.826 125.377Z" fill="#455A64"/>
<path d="M247.131 97.5009C247.131 97.5009 243.045 110.392 241.906 110.676C235.539 112.301 228.287 111.266 225.732 110.808C225.444 110.572 225.104 110.279 224.73 109.929C224.408 109.622 224.14 109.263 223.937 108.867C223.666 108.384 223.464 107.865 223.337 107.327C223.332 107.218 223.293 107.113 223.225 107.028C223.157 106.943 223.064 106.882 222.959 106.853C222.854 106.824 222.743 106.829 222.641 106.868C222.539 106.906 222.452 106.976 222.392 107.067C222.17 107.473 222.321 108.867 223.195 110.255C223.195 110.255 218.074 113.505 216.955 113.477C215.835 113.449 212.628 113.368 212.963 113.812C213.299 114.257 216.955 114.866 216.955 114.866L223.568 117.11C223.568 117.11 247.83 123.638 251.151 113.094C253.182 106.632 254.59 102.829 254.907 101.285L247.131 97.5009Z" fill="#FFBE9D"/>
<path d="M249.668 88.7712C249.668 88.7712 255.006 89.716 255.214 98.4551C255.312 103.77 254.167 109.034 251.869 113.827L242.478 108.895C244.587 104.674 246.174 100.212 247.202 95.6066L249.639 88.7664L249.668 88.7712Z" fill="#263238"/>
<path d="M246.928 96.0932C246.928 96.2744 246.908 96.4551 246.866 96.6317C246.814 96.9718 246.725 97.4631 246.592 98.0488C246.246 99.6206 245.809 101.171 245.284 102.692C244.756 104.214 244.139 105.703 243.437 107.152C243.168 107.709 242.936 108.153 242.766 108.451C242.689 108.618 242.594 108.776 242.483 108.923C242.526 108.748 242.593 108.58 242.681 108.423C242.842 108.059 243.045 107.615 243.281 107.095C243.782 105.971 244.434 104.398 245.052 102.626C245.671 100.855 246.12 99.2156 246.422 98.0205C246.561 97.4631 246.679 96.9907 246.777 96.6034C246.806 96.4278 246.857 96.2565 246.928 96.0932Z" fill="#455A64"/>
</svg>
