<svg width="43" height="42" viewBox="0 0 43 42" fill="none" xmlns="http://www.w3.org/2000/svg">
<path d="M40.7 11.5501C40.7 14.0564 39.7044 16.46 37.9322 18.2323C36.1599 20.0045 33.7563 21.0001 31.25 21.0001C28.7437 21.0001 26.3401 20.0045 24.5678 18.2323C22.7956 16.46 21.8 14.0564 21.8 11.5501C21.8 9.0438 22.7956 6.64016 24.5678 4.86794C26.3401 3.09572 28.7437 2.1001 31.25 2.1001C33.7563 2.1001 36.1599 3.09572 37.9322 4.86794C39.7044 6.64016 40.7 9.0438 40.7 11.5501V11.5501ZM32.3 7.3501C32.3 7.07162 32.1894 6.80455 31.9925 6.60764C31.7956 6.41072 31.5285 6.3001 31.25 6.3001C30.9715 6.3001 30.7045 6.41072 30.5075 6.60764C30.3106 6.80455 30.2 7.07162 30.2 7.3501V10.5001H27.05C26.7715 10.5001 26.5045 10.6107 26.3075 10.8076C26.1106 11.0045 26 11.2716 26 11.5501C26 11.8286 26.1106 12.0956 26.3075 12.2926C26.5045 12.4895 26.7715 12.6001 27.05 12.6001H30.2V15.7501C30.2 16.0286 30.3106 16.2956 30.5075 16.4926C30.7045 16.6895 30.9715 16.8001 31.25 16.8001C31.5285 16.8001 31.7956 16.6895 31.9925 16.4926C32.1894 16.2956 32.3 16.0286 32.3 15.7501V12.6001H35.45C35.7285 12.6001 35.9956 12.4895 36.1925 12.2926C36.3894 12.0956 36.5 11.8286 36.5 11.5501C36.5 11.2716 36.3894 11.0045 36.1925 10.8076C35.9956 10.6107 35.7285 10.5001 35.45 10.5001H32.3V7.3501ZM31.25 23.1001C34.043 23.1001 36.605 22.1089 38.6 20.4604V30.4501C38.6 31.8425 38.0469 33.1778 37.0623 34.1624C36.0777 35.147 34.7424 35.7001 33.35 35.7001H10.25C8.85761 35.7001 7.52226 35.147 6.53769 34.1624C5.55312 33.1778 5 31.8425 5 30.4501V15.4834L21.2687 25.0552C21.4301 25.1501 21.6139 25.2002 21.8011 25.2002C21.9882 25.2002 22.172 25.1501 22.3334 25.0552L27.0164 22.3C28.3647 22.8306 29.801 23.102 31.25 23.1001V23.1001ZM10.25 8.4001H20.1347C19.4678 10.7487 19.5628 13.2484 20.4062 15.5396C21.2495 17.8308 22.7978 19.7955 24.8282 21.1513L21.8 22.9321L5.0315 13.0684C5.17463 11.7845 5.78608 10.5985 6.74887 9.73725C7.71166 8.87597 8.95819 8.39989 10.25 8.4001V8.4001Z" fill="white"/>
</svg>
