<svg width="40" height="40" viewBox="0 0 40 40" fill="none" xmlns="http://www.w3.org/2000/svg">
<path d="M20 38.75C30.3553 38.75 38.75 30.3553 38.75 20C38.75 9.64466 30.3553 1.25 20 1.25C9.64466 1.25 1.25 9.64466 1.25 20C1.25 30.3553 9.64466 38.75 20 38.75Z" fill="#FFE8A6"/>
<path d="M31.25 26.375C33.6662 26.375 35.625 24.4162 35.625 22C35.625 19.5838 33.6662 17.625 31.25 17.625C28.8338 17.625 26.875 19.5838 26.875 22C26.875 24.4162 28.8338 26.375 31.25 26.375Z" fill="#F4DC9F"/>
<path d="M11.3125 28.125C13.3836 28.125 15.0625 26.4461 15.0625 24.375C15.0625 22.3039 13.3836 20.625 11.3125 20.625C9.24143 20.625 7.5625 22.3039 7.5625 24.375C7.5625 26.4461 9.24143 28.125 11.3125 28.125Z" fill="#F4DC9F"/>
<path d="M15.125 36.875C18.2316 36.875 20.75 34.3566 20.75 31.25C20.75 28.1434 18.2316 25.625 15.125 25.625C12.0184 25.625 9.5 28.1434 9.5 31.25C9.5 34.3566 12.0184 36.875 15.125 36.875Z" fill="#F4DC9F"/>
<path d="M15 13.25C16.3807 13.25 17.5 12.1307 17.5 10.75C17.5 9.36929 16.3807 8.25 15 8.25C13.6193 8.25 12.5 9.36929 12.5 10.75C12.5 12.1307 13.6193 13.25 15 13.25Z" fill="#F4DC9F"/>
<path d="M23.125 13.875C24.5057 13.875 25.625 12.7557 25.625 11.375C25.625 9.99429 24.5057 8.875 23.125 8.875C21.7443 8.875 20.625 9.99429 20.625 11.375C20.625 12.7557 21.7443 13.875 23.125 13.875Z" fill="#F4DC9F"/>
<path d="M7.5625 18.6875C8.94321 18.6875 10.0625 17.5682 10.0625 16.1875C10.0625 14.8068 8.94321 13.6875 7.5625 13.6875C6.18179 13.6875 5.0625 14.8068 5.0625 16.1875C5.0625 17.5682 6.18179 18.6875 7.5625 18.6875Z" fill="#F4DC9F"/>
<path d="M24.375 7C25.0654 7 25.625 6.44036 25.625 5.75C25.625 5.05964 25.0654 4.5 24.375 4.5C23.6846 4.5 23.125 5.05964 23.125 5.75C23.125 6.44036 23.6846 7 24.375 7Z" fill="#F4DC9F"/>
<path d="M5.0625 25.625C5.75286 25.625 6.3125 25.0654 6.3125 24.375C6.3125 23.6846 5.75286 23.125 5.0625 23.125C4.37214 23.125 3.8125 23.6846 3.8125 24.375C3.8125 25.0654 4.37214 25.625 5.0625 25.625Z" fill="#F4DC9F"/>
<path d="M32.5 32.5C33.1904 32.5 33.75 31.9404 33.75 31.25C33.75 30.5596 33.1904 30 32.5 30C31.8096 30 31.25 30.5596 31.25 31.25C31.25 31.9404 31.8096 32.5 32.5 32.5Z" fill="#F4DC9F"/>
<path d="M15.625 20.5625C16.6605 20.5625 17.5 19.723 17.5 18.6875C17.5 17.652 16.6605 16.8125 15.625 16.8125C14.5895 16.8125 13.75 17.652 13.75 18.6875C13.75 19.723 14.5895 20.5625 15.625 20.5625Z" fill="#F4DC9F"/>
<path d="M9.375 11.0625C10.0654 11.0625 10.625 10.5029 10.625 9.8125C10.625 9.12214 10.0654 8.5625 9.375 8.5625C8.68464 8.5625 8.125 9.12214 8.125 9.8125C8.125 10.5029 8.68464 11.0625 9.375 11.0625Z" fill="#F4DC9F"/>
<path d="M28.75 35.375C30.1307 35.375 31.25 34.2557 31.25 32.875C31.25 31.4943 30.1307 30.375 28.75 30.375C27.3693 30.375 26.25 31.4943 26.25 32.875C26.25 34.2557 27.3693 35.375 28.75 35.375Z" fill="#F4DC9F"/>
<path d="M15.125 6.75001C15.125 8.50001 16.5 9.87501 18.25 9.87501C20 9.87501 21.375 8.50001 21.375 6.75001C21.375 5.00001 20 3.62501 18.25 3.62501C16.5 3.56251 15.125 5.00001 15.125 6.75001Z" fill="#F4DC9F"/>
</svg>
