<svg width="41" height="40" viewBox="0 0 41 40" fill="none" xmlns="http://www.w3.org/2000/svg">
<path d="M3.73984 36.6666L5.99318 28.3866C4.50841 25.8413 3.72834 22.9466 3.73318 19.9999C3.73318 10.7949 11.1948 3.33325 20.3998 3.33325C29.6048 3.33325 37.0665 10.7949 37.0665 19.9999C37.0665 29.2049 29.6048 36.6666 20.3998 36.6666C17.4545 36.6713 14.5609 35.8919 12.0165 34.4083L3.73984 36.6666ZM14.3848 12.1799C14.1696 12.1933 13.9593 12.25 13.7665 12.3466C13.5857 12.449 13.4207 12.577 13.2765 12.7266C13.0765 12.9149 12.9632 13.0783 12.8415 13.2366C12.2255 14.0382 11.8942 15.0223 11.8998 16.0333C11.9032 16.8499 12.1165 17.6449 12.4498 18.3883C13.1315 19.8916 14.2532 21.4833 15.7348 22.9583C16.0915 23.3133 16.4398 23.6699 16.8148 24.0016C18.6538 25.6207 20.8453 26.7883 23.2148 27.4116L24.1632 27.5566C24.4715 27.5733 24.7798 27.5499 25.0898 27.5349C25.5752 27.5099 26.0492 27.3784 26.4782 27.1499C26.6964 27.0375 26.9094 26.9151 27.1165 26.7833C27.1165 26.7833 27.1882 26.7366 27.3248 26.6333C27.5498 26.4666 27.6882 26.3483 27.8748 26.1533C28.0132 26.0099 28.1332 25.8416 28.2248 25.6499C28.3548 25.3783 28.4848 24.8599 28.5382 24.4283C28.5782 24.0983 28.5665 23.9183 28.5615 23.8066C28.5548 23.6283 28.4065 23.4433 28.2448 23.3649L27.2748 22.9299C27.2748 22.9299 25.8248 22.2983 24.9398 21.8949C24.8465 21.8542 24.7465 21.8311 24.6448 21.8266C24.5308 21.8149 24.4156 21.8277 24.3069 21.8642C24.1983 21.9007 24.0987 21.9601 24.0148 22.0383V22.0349C24.0065 22.0349 23.8948 22.1299 22.6898 23.5899C22.6207 23.6829 22.5254 23.7531 22.4162 23.7917C22.3069 23.8303 22.1887 23.8355 22.0765 23.8066C21.9679 23.7775 21.8615 23.7408 21.7582 23.6966C21.5515 23.6099 21.4798 23.5766 21.3382 23.5149L21.3298 23.5116C20.3764 23.0953 19.4935 22.533 18.7132 21.8449C18.5032 21.6616 18.3082 21.4616 18.1082 21.2683C17.4525 20.6403 16.881 19.9299 16.4082 19.1549L16.3098 18.9966C16.2392 18.8902 16.1821 18.7754 16.1398 18.6549C16.0765 18.4099 16.2415 18.2133 16.2415 18.2133C16.2415 18.2133 16.6465 17.7699 16.8348 17.5299C16.9917 17.3305 17.138 17.123 17.2732 16.9083C17.4698 16.5916 17.5315 16.2666 17.4282 16.0149C16.9615 14.8749 16.4782 13.7399 15.9815 12.6133C15.8832 12.3899 15.5915 12.2299 15.3265 12.1983C15.2365 12.1883 15.1465 12.1783 15.0565 12.1716C14.8327 12.1605 14.6084 12.1627 14.3848 12.1783V12.1799Z" fill="white"/>
</svg>
