<svg width="400" height="379" viewBox="0 0 400 379" fill="none" xmlns="http://www.w3.org/2000/svg">
<path d="M155.912 9.53096L61.7593 129.137L314.969 67.5882L173.933 5.11114C170.861 3.74757 167.406 3.44222 164.133 4.2449C160.861 5.04757 157.962 6.9109 155.912 9.53096V9.53096Z" fill="#EBEBEB"/>
<path d="M60.4241 129.988L155.496 9.23106C157.617 6.51568 160.619 4.58705 164.01 3.76261C167.4 2.93818 170.977 3.26708 174.151 4.69518L316.581 67.7815L60.4241 129.988ZM167.741 4.25997C165.53 4.26143 163.349 4.76334 161.368 5.72642C159.388 6.6895 157.663 8.08762 156.327 9.81134V9.81134L63.0848 128.295L313.387 67.4527L173.726 5.55593C171.845 4.7269 169.804 4.30149 167.741 4.30832V4.25997Z" fill="#E0E0E0"/>
<path d="M61.7527 129.141L315.854 67.3776L350.088 202.035C350.766 204.7 350.333 207.521 348.884 209.874C347.435 212.228 345.09 213.923 342.363 214.585L108.823 271.351C106.096 272.014 103.212 271.591 100.805 270.174C98.3977 268.758 96.6646 266.464 95.9868 263.798L61.7527 129.141Z" fill="#F0F0F0"/>
<path d="M300.212 74.7545L212.182 162.696L79.1278 133.411L63.9056 64.4062C63.0632 60.8467 63.685 57.1061 65.637 53.9907C67.5889 50.8754 70.7148 48.6348 74.3406 47.7521L266.82 0.971638C268.634 0.52901 270.52 0.440661 272.37 0.711647C274.219 0.982634 275.996 1.60764 277.598 2.55088C279.201 3.49412 280.597 4.73708 281.707 6.20861C282.818 7.68014 283.62 9.35135 284.069 11.1266L300.212 74.7545Z" fill="white"/>
<path d="M200.095 155.781L95.5569 262.592C95.926 264.045 96.5842 265.412 97.4939 266.616C98.4036 267.819 99.547 268.836 100.859 269.607C102.17 270.379 103.625 270.89 105.138 271.112C106.652 271.334 108.196 271.262 109.681 270.9L341.427 214.564C344.426 213.835 347.005 211.972 348.598 209.384C350.191 206.796 350.668 203.695 349.924 200.763L349.706 199.912L213.013 152.764C210.791 151.996 208.39 151.873 206.098 152.408C203.806 152.943 201.722 154.115 200.095 155.781V155.781Z" fill="#E0E0E0"/>
<path d="M166.697 57.9396L91.3967 76.2561L93.3094 83.7737L168.609 65.4572L166.697 57.9396Z" fill="#E0E0E0"/>
<path d="M263.315 54.6763L96.2439 95.3159L98.4049 103.81L265.476 63.17L263.315 54.6763Z" fill="#E0E0E0"/>
<path d="M268.599 75.4273L101.529 116.067L103.69 124.561L270.76 83.921L268.599 75.4273Z" fill="#E0E0E0"/>
<path d="M272.111 102.927L266.879 108.044L126.625 143.895L108.297 139.708L107.604 137.764L274.139 97.26L274.861 100.074L272.111 102.927Z" fill="#E0E0E0"/>
<path d="M236.237 138.663L173.053 154.021L153.736 149.708L248.165 126.738L236.237 138.663Z" fill="#E0E0E0"/>
<path d="M196.277 159.669C196.277 159.669 196.208 159.776 196.04 159.959L195.288 160.762L192.38 163.809L181.609 174.96C172.489 184.351 159.848 197.33 145.853 211.556C131.857 225.783 118.998 238.549 109.622 247.698C104.933 252.273 101.116 255.967 98.4648 258.491L95.4084 261.393L94.5974 262.137C94.5128 262.23 94.4164 262.311 94.3105 262.379C94.3836 262.278 94.4664 262.184 94.5578 262.099L95.3293 261.315L98.2966 258.346L109.345 247.447C118.652 238.23 131.441 225.434 145.467 211.198C159.492 196.962 172.173 184.118 181.322 174.708L192.202 163.673L195.169 160.694L195.96 159.93C196.178 159.747 196.277 159.669 196.277 159.669Z" fill="#FAFAFA"/>
<path d="M349.706 199.892C349.657 200.028 320.508 190.134 284.604 177.793C248.699 165.453 219.63 155.336 219.679 155.201C219.729 155.066 248.878 164.95 284.782 177.29C320.686 189.631 349.756 199.747 349.706 199.892Z" fill="#FAFAFA"/>
<path d="M304.396 70.5186C304.341 70.6047 304.278 70.6857 304.208 70.7603L303.654 71.4277L301.31 73.9712L292.576 83.2461C285.177 91.0509 274.871 101.747 263.318 113.421C251.766 125.094 241.103 135.51 233.368 142.996L224.16 151.816L221.628 154.186L220.965 154.795C220.807 154.93 220.728 154.998 220.718 154.988C220.781 154.906 220.85 154.828 220.925 154.756L221.549 154.108L224.011 151.671L233.091 142.735C240.767 135.181 251.321 124.717 262.873 113.053C274.426 101.39 284.772 90.7704 292.25 83.0333L301.102 73.8745L303.525 71.3987L304.168 70.7603C304.234 70.6709 304.31 70.5897 304.396 70.5186Z" fill="#FAFAFA"/>
<path d="M196.277 159.669C196.16 159.663 196.044 159.643 195.931 159.611L194.942 159.379L190.985 158.412C187.603 157.58 182.687 156.41 176.604 155.017C164.448 152.203 147.584 148.576 128.949 144.63C110.314 140.684 93.4599 137 81.3237 134.089C75.2506 132.638 70.3447 131.419 66.9718 130.53L63.0847 129.495L62.0956 129.214C61.9788 129.19 61.8657 129.151 61.7593 129.098L62.1055 129.166L63.0946 129.388L67.051 130.355C70.4436 131.187 75.3594 132.348 81.4424 133.75C93.5984 136.564 110.453 140.191 129.097 144.137C147.742 148.083 164.586 151.768 176.722 154.679C182.796 156.13 187.701 157.339 191.074 158.238L194.952 159.273L195.941 159.553L196.277 159.669Z" fill="#FAFAFA"/>
<path d="M300.212 74.7546C300.212 74.7546 300.113 74.4355 299.945 73.7875L299.222 71.0505C298.589 68.623 297.67 65.0736 296.483 60.499L286.522 21.6975C285.995 19.6472 285.458 17.5485 284.91 15.4014C284.643 14.3376 284.366 13.2447 284.079 12.1518C283.941 11.6006 283.802 11.0493 283.624 10.5174C283.469 9.97431 283.271 9.44398 283.031 8.93128C282.051 6.76157 280.509 4.87921 278.557 3.46986C276.606 2.0605 274.313 1.17283 271.904 0.894371C270.653 0.725239 269.385 0.725239 268.135 0.894371C266.889 1.10714 265.623 1.44564 264.347 1.74545L256.582 3.67973L240.351 7.59663L168.236 25.1985L96.0316 42.723L79.8202 46.6496L75.8638 47.6168C74.5797 47.8776 73.3218 48.2498 72.1052 48.729C69.7587 49.7235 67.7342 51.3252 66.2498 53.3615C65.5314 54.3512 64.9463 55.4271 64.5089 56.5628C64.1011 57.6847 63.8321 58.8503 63.7078 60.0348C63.4209 62.4043 64.0935 64.6867 64.5683 66.9402C65.5574 71.4535 66.5036 75.7766 67.407 79.9095C71.0172 96.4378 73.9351 109.804 75.9528 119.059C76.9419 123.682 77.7233 127.26 78.2574 129.698C78.5047 130.907 78.7025 131.835 78.841 132.473C78.9795 133.112 79.019 133.44 79.019 133.44C79.019 133.44 78.93 133.121 78.7817 132.473C78.6333 131.825 78.4256 130.916 78.1486 129.717C77.5947 127.27 76.7936 123.692 75.755 119.079C73.6878 109.833 70.7106 96.4668 67.0311 79.9675C66.1212 75.8378 65.1519 71.5147 64.1529 66.9982C63.6781 64.7738 62.9857 62.414 63.2825 59.9671C63.3962 58.7423 63.6687 57.5366 64.0935 56.379C64.5454 55.2071 65.1469 54.0958 65.8838 53.0714C66.6332 52.0288 67.5289 51.0944 68.5445 50.2957C69.5615 49.4666 70.698 48.7888 71.9173 48.2841C73.1549 47.7902 74.4362 47.4082 75.7451 47.1429L79.7015 46.1757L95.9426 42.2491L168.147 24.6859L240.351 7.16142L256.563 3.23484L264.327 1.3586C265.603 1.04911 266.849 0.720287 268.155 0.497845C270.061 0.219392 272.006 0.315461 273.874 0.780433C275.742 1.24541 277.497 2.06994 279.035 3.20583C280.992 4.65465 282.538 6.56902 283.525 8.76686C283.774 9.29504 283.979 9.84157 284.139 10.4013C284.317 10.9526 284.455 11.5039 284.594 12.0551C284.871 13.148 285.138 14.2409 285.415 15.3144C285.959 17.4614 286.483 19.5601 287.007 21.6104L296.799 60.4797C297.937 65.0639 298.827 68.623 299.43 71.0505C299.727 72.2594 299.954 73.1782 300.103 73.8068C300.251 74.4355 300.212 74.7546 300.212 74.7546Z" fill="#E0E0E0"/>
<path d="M399.597 378.01C399.597 378.155 310.142 378.271 199.798 378.271C89.4542 378.271 0 378.165 0 378.01C0 377.855 89.4444 377.739 199.798 377.739C310.152 377.739 399.597 377.875 399.597 378.01Z" fill="#263238"/>
<path d="M189.621 23.7092L179.838 30.9917L180.313 44.8992L171.362 37.9454L166.416 42.0848L147.623 19.3958L189.621 23.7092Z" fill="#5351C0"/>
<path d="M176.159 33.9512C176.159 34.3767 180.313 44.8992 180.313 44.8992L171.362 37.9454L176.159 33.9512Z" fill="#5351C0"/>
<g opacity="0.3">
<path d="M176.159 33.9512C176.159 34.3767 180.313 44.8992 180.313 44.8992L171.362 37.9454L176.159 33.9512Z" fill="black"/>
</g>
<path d="M147.623 19.3958L176.159 33.9512L180.313 44.8992L179.838 30.9917L147.623 19.3958Z" fill="#5351C0"/>
<path opacity="0.1" d="M147.623 19.3958L176.159 33.9512L180.313 44.8992L179.838 30.9917L147.623 19.3958Z" fill="black"/>
<path d="M226.751 207.04C224.993 206.983 223.265 206.571 221.677 205.831C223.436 205.888 225.163 206.299 226.751 207.04Z" fill="#263238"/>
<path d="M234.842 208.973C234.842 209.118 234.1 209.07 233.269 208.876C232.439 208.683 231.786 208.393 231.815 208.248C231.845 208.104 232.557 208.152 233.398 208.355C234.239 208.558 234.882 208.828 234.842 208.973Z" fill="#263238"/>
<path d="M201.45 43.0808C200.573 43.0933 199.7 42.9592 198.869 42.6843C197.997 42.5797 197.152 42.3208 196.376 41.9203C197.258 41.807 198.155 41.893 198.997 42.1717C199.878 42.2772 200.719 42.5891 201.45 43.0808V43.0808Z" fill="#263238"/>
<path d="M211.025 47.0944C209.365 46.5621 207.795 45.793 206.366 44.812C207.249 44.8941 208.1 45.1791 208.849 45.6437C210.144 46.2821 211.104 46.9687 211.025 47.0944Z" fill="#263238"/>
<path d="M219.323 53.2456C219.214 53.3519 218.334 52.6266 217.226 51.7175C216.118 50.8084 215.248 50.0347 215.377 49.9089C216.22 50.2003 216.982 50.6806 217.602 51.3113C218.68 52.2397 219.432 53.1488 219.323 53.2456Z" fill="#263238"/>
<path d="M225.654 61.3212C225.515 61.3889 224.862 60.4508 224.071 59.2902C223.517 58.6251 223.082 57.873 222.785 57.0658C222.894 56.9788 223.725 57.8105 224.526 59.0001C225.084 59.6758 225.471 60.4712 225.654 61.3212V61.3212Z" fill="#263238"/>
<path d="M229.244 70.8667C228.819 70.1166 228.525 69.3028 228.374 68.4585C228.043 67.6613 227.859 66.8134 227.83 65.9536C228.364 66.6498 228.726 67.4575 228.888 68.3134C229.22 69.1227 229.343 69.9999 229.244 70.8667Z" fill="#263238"/>
<path d="M229.778 81.0216C229.602 80.1818 229.565 79.3196 229.669 78.4684C229.595 77.6135 229.675 76.7524 229.907 75.9248C230.209 76.7414 230.314 77.6152 230.213 78.478C230.276 79.3476 230.126 80.2192 229.778 81.0216Z" fill="#263238"/>
<path d="M227.078 90.8285C227.184 89.9794 227.431 89.1529 227.81 88.3816C228.011 87.5524 228.345 86.7593 228.799 86.0315C228.847 86.9028 228.667 87.7718 228.274 88.5557C228.073 89.3981 227.662 90.1789 227.078 90.8285Z" fill="#263238"/>
<path d="M221.034 99.0879C220.936 98.9719 221.707 98.1208 222.647 97.0763C223.586 96.0318 224.338 95.142 224.467 95.2484C224.186 96.0767 223.7 96.8243 223.052 97.4245C222.093 98.5077 221.133 99.1943 221.034 99.0879Z" fill="#263238"/>
<path d="M212.311 104.581C212.979 104.029 213.734 103.584 214.546 103.266C215.277 102.792 216.082 102.439 216.93 102.221C216.355 102.891 215.622 103.412 214.793 103.74C214.049 104.216 213.196 104.505 212.311 104.581Z" fill="#263238"/>
<path d="M202.162 106.718C202.99 106.421 203.862 106.261 204.744 106.244C205.6 106.053 206.481 105.997 207.355 106.08C206.579 106.51 205.705 106.746 204.813 106.766C203.94 106.97 203.027 106.954 202.162 106.718Z" fill="#263238"/>
<path d="M191.975 104.833C193.666 105.177 195.321 105.672 196.92 106.312C196.034 106.42 195.133 106.3 194.309 105.964C193.443 105.794 192.638 105.403 191.975 104.833Z" fill="#263238"/>
<path d="M184.754 97.8305C184.903 97.7822 185.358 98.7976 186.169 99.9389C186.98 101.08 187.761 101.873 187.652 102.018C187.543 102.163 186.574 101.438 185.723 100.248C185.125 99.5757 184.783 98.7216 184.754 97.8305Z" fill="#263238"/>
<path d="M189.146 89.9096C189.146 90.0644 188.068 90.4028 186.94 91.1862C185.812 91.9696 185.209 92.9464 185.071 92.869C184.932 92.7917 185.367 91.6311 186.623 90.7607C187.323 90.1734 188.225 89.869 189.146 89.9096V89.9096Z" fill="#263238"/>
<path d="M198.087 93.5363C197.949 93.6137 197.316 92.6659 196.287 91.7375C195.259 90.809 194.21 90.3448 194.309 90.1997C195.228 90.2705 196.084 90.6823 196.703 91.3506C197.413 91.897 197.903 92.671 198.087 93.5363V93.5363Z" fill="#263238"/>
<path d="M198.424 103.411C198.497 102.568 198.659 101.735 198.908 100.925C198.982 100.08 199.145 99.2435 199.393 98.4302C199.658 99.2746 199.658 100.178 199.393 101.022C199.325 101.896 198.987 102.729 198.424 103.411V103.411Z" fill="#263238"/>
<path d="M191.648 111.003C191.559 110.877 192.459 110.152 193.537 109.252C194.615 108.353 195.516 107.579 195.585 107.676C195.654 107.773 195.011 108.72 193.893 109.61C192.776 110.5 191.727 111.129 191.648 111.003Z" fill="#263238"/>
<path d="M182.4 115.703C183.055 115.124 183.822 114.68 184.655 114.397C185.416 113.959 186.261 113.679 187.138 113.575C185.727 114.599 184.114 115.324 182.4 115.703V115.703Z" fill="#263238"/>
<path d="M173.093 120.326C173.013 120.2 173.953 119.514 175.199 118.779C175.926 118.283 176.758 117.952 177.633 117.812C177.712 117.957 176.703 118.547 175.466 119.243C174.76 119.76 173.952 120.129 173.093 120.326V120.326Z" fill="#263238"/>
<path d="M165.18 126.98C165.071 126.883 165.754 125.936 166.792 124.939C167.365 124.276 168.086 123.75 168.899 123.402C168.998 123.518 168.197 124.369 167.178 125.336C166.159 126.303 165.338 127.077 165.18 126.98Z" fill="#263238"/>
<path d="M159.245 135.317C159.411 134.463 159.777 133.659 160.313 132.967C161.075 131.758 161.856 130.887 161.975 130.974C161.718 131.796 161.313 132.566 160.778 133.247C160.027 134.437 159.384 135.384 159.245 135.317Z" fill="#263238"/>
<path d="M155.447 144.795C155.397 143.928 155.56 143.063 155.922 142.27C156.108 141.42 156.498 140.624 157.059 139.949C156.77 141.63 156.227 143.26 155.447 144.785V144.795Z" fill="#263238"/>
<path d="M154.082 154.892C153.723 153.196 153.846 151.437 154.438 149.804C154.589 150.649 154.589 151.513 154.438 152.358C154.472 153.216 154.352 154.074 154.082 154.892V154.892Z" fill="#263238"/>
<path d="M155.447 164.979C155.003 164.231 154.724 163.401 154.626 162.542C154.336 161.719 154.261 160.837 154.409 159.979C154.792 160.753 155.046 161.582 155.16 162.435C155.434 163.255 155.532 164.121 155.447 164.979Z" fill="#263238"/>
<path d="M159.473 174.36C159.344 174.437 158.642 173.509 157.999 172.232C157.522 171.498 157.233 170.662 157.158 169.795C157.728 170.449 158.177 171.195 158.484 172C158.953 172.724 159.287 173.523 159.473 174.36V174.36Z" fill="#263238"/>
<path d="M165.724 182.513C165.625 182.61 164.735 181.875 163.746 180.792C163.109 180.185 162.622 179.444 162.321 178.625C162.45 178.528 163.231 179.38 164.161 180.443C165.091 181.507 165.833 182.407 165.724 182.513Z" fill="#263238"/>
<path d="M173.755 188.993C172.896 188.767 172.103 188.346 171.441 187.765C170.274 186.933 169.463 186.101 169.542 185.985C170.358 186.307 171.111 186.765 171.767 187.339C172.915 188.161 173.834 188.867 173.755 188.993Z" fill="#263238"/>
<path d="M183.152 193.384C182.262 193.378 181.386 193.162 180.6 192.755C179.742 192.521 178.957 192.082 178.315 191.479C179.181 191.604 180.02 191.868 180.798 192.262C181.638 192.511 182.433 192.89 183.152 193.384Z" fill="#263238"/>
<path d="M188.384 194.689C188.384 194.825 188.295 194.941 188.246 194.931C188.196 194.922 188.177 194.796 188.246 194.651C188.315 194.506 188.335 194.399 188.384 194.409C188.434 194.418 188.414 194.544 188.384 194.689Z" fill="#263238"/>
<path d="M180.822 169.362L170.005 165.889L167.796 172.468L178.612 175.941L180.822 169.362Z" fill="#5351C0"/>
<g opacity="0.3">
<path d="M180.822 169.362L170.006 165.889L167.796 172.468L178.612 175.941L180.822 169.362Z" fill="black"/>
</g>
<path d="M180.798 169.379C178.775 170.371 176.679 171.212 174.527 171.894L174.339 171.962L174.22 171.807L174.032 171.575C172.532 169.791 171.179 167.892 169.987 165.898C171.617 167.57 173.115 169.361 174.467 171.256L174.645 171.488L174.339 171.401C176.433 170.558 178.593 169.882 180.798 169.379Z" fill="#5351C0"/>
<g opacity="0.1">
<path d="M180.798 169.379C178.775 170.371 176.679 171.212 174.527 171.894L174.339 171.962L174.22 171.807L174.032 171.575C172.532 169.791 171.179 167.892 169.987 165.898C171.617 167.57 173.115 169.361 174.467 171.256L174.645 171.488L174.339 171.401C176.433 170.558 178.593 169.882 180.798 169.379Z" fill="black"/>
</g>
<path d="M173.093 169.931C172.348 170.586 171.486 171.1 170.551 171.449C169.689 171.949 168.745 172.299 167.761 172.484C168.513 171.833 169.377 171.319 170.313 170.965C171.173 170.468 172.113 170.118 173.093 169.931V169.931Z" fill="#5351C0"/>
<g opacity="0.1">
<path d="M173.093 169.931C172.348 170.586 171.486 171.1 170.551 171.449C169.689 171.949 168.745 172.299 167.761 172.484C168.513 171.833 169.377 171.319 170.313 170.965C171.173 170.468 172.113 170.118 173.093 169.931V169.931Z" fill="black"/>
</g>
<path d="M178.78 176.014C178.175 175.284 177.706 174.456 177.395 173.567C176.743 172.126 176.307 170.888 176.505 170.907C177.112 171.638 177.584 172.466 177.9 173.354C178.361 174.179 178.659 175.081 178.78 176.014V176.014Z" fill="#5351C0"/>
<g opacity="0.1">
<path d="M178.78 176.014C178.175 175.284 177.706 174.456 177.395 173.567C176.743 172.126 176.307 170.888 176.505 170.907C177.112 171.638 177.584 172.466 177.9 173.354C178.361 174.179 178.659 175.081 178.78 176.014V176.014Z" fill="black"/>
</g>
<path d="M224.927 195.134L197.112 186.202L191.427 203.128L219.243 212.06L224.927 195.134Z" fill="#5351C0"/>
<path d="M224.902 195.154C224.505 195.376 224.088 195.561 223.656 195.705L220.194 197.03C217.226 198.123 213.181 199.612 208.621 201.247L208.433 201.314L208.315 201.16L207.85 200.56C204.823 196.691 202.093 193.084 200.145 190.482L197.82 187.397C197.524 187.028 197.262 186.633 197.039 186.217C197.402 186.538 197.733 186.891 198.028 187.271L200.451 190.26C202.479 192.794 205.248 196.324 208.285 200.241L208.75 200.831L208.443 200.744C212.993 199.119 217.098 197.688 220.065 196.682L223.586 195.511C224.012 195.352 224.453 195.232 224.902 195.154V195.154Z" fill="#5351C0"/>
<g opacity="0.2">
<path d="M224.902 195.154C224.505 195.376 224.088 195.561 223.656 195.705L220.194 197.03C217.226 198.123 213.181 199.612 208.621 201.247L208.433 201.314L208.315 201.16L207.85 200.56C204.823 196.691 202.093 193.084 200.145 190.482L197.82 187.397C197.524 187.028 197.262 186.633 197.039 186.217C197.402 186.538 197.733 186.891 198.028 187.271L200.451 190.26C202.479 192.794 205.248 196.324 208.285 200.241L208.75 200.831L208.443 200.744C212.993 199.119 217.098 197.688 220.065 196.682L223.586 195.511C224.012 195.352 224.453 195.232 224.902 195.154V195.154Z" fill="black"/>
</g>
<path d="M205.12 196.594C202.957 197.916 200.703 199.089 198.374 200.105C196.124 201.272 193.794 202.287 191.401 203.142C193.555 201.809 195.807 200.633 198.137 199.622C200.385 198.447 202.719 197.435 205.12 196.594V196.594Z" fill="#5351C0"/>
<g opacity="0.2">
<path d="M205.12 196.594C202.957 197.916 200.703 199.089 198.374 200.105C196.124 201.272 193.794 202.287 191.401 203.142C193.555 201.809 195.807 200.633 198.137 199.622C200.385 198.447 202.719 197.435 205.12 196.594V196.594Z" fill="black"/>
</g>
<path d="M219.719 212.233C218.502 210.158 217.441 207.999 216.544 205.773C215.487 203.612 214.595 201.379 213.873 199.09C215.092 201.168 216.153 203.33 217.048 205.56C218.106 207.717 218.998 209.947 219.719 212.233V212.233Z" fill="#5351C0"/>
<g opacity="0.2">
<path d="M219.719 212.233C218.502 210.158 217.441 207.999 216.544 205.773C215.487 203.612 214.595 201.379 213.873 199.09C215.092 201.168 216.153 203.33 217.048 205.56C218.106 207.717 218.998 209.947 219.719 212.233V212.233Z" fill="black"/>
</g>
<path d="M198.611 190.385C197.919 190.882 197.092 191.167 196.234 191.204C195.376 191.241 194.527 191.028 193.792 190.593C193.058 190.158 192.472 189.52 192.109 188.759C191.745 187.999 191.621 187.15 191.751 186.32C191.881 185.49 192.259 184.716 192.839 184.097C193.418 183.477 194.173 183.04 195.006 182.839C195.84 182.639 196.716 182.685 197.523 182.971C198.33 183.257 199.033 183.771 199.541 184.447C199.879 184.897 200.123 185.407 200.259 185.949C200.396 186.491 200.421 187.053 200.335 187.605C200.249 188.156 200.052 188.686 199.756 189.163C199.46 189.64 199.071 190.055 198.611 190.385V190.385Z" fill="#263238"/>
<path d="M198.809 186.178C197.891 186.846 196.914 187.435 195.892 187.939L195.199 188.316L195.071 188.384L195.001 188.267C194.533 187.541 194.136 186.774 193.814 185.975C194.366 186.645 194.846 187.368 195.249 188.132L195.061 188.074L195.753 187.687C196.725 187.098 197.748 186.593 198.809 186.178Z" fill="white"/>
<path d="M207.06 172.329L192.485 167.649L189.507 176.516L204.082 181.196L207.06 172.329Z" fill="#5351C0"/>
<g opacity="0.2">
<path d="M207.06 172.329L192.485 167.649L189.507 176.516L204.082 181.196L207.06 172.329Z" fill="black"/>
</g>
<path d="M207.029 172.339C206.826 172.458 206.61 172.555 206.386 172.629L204.566 173.325C203.033 173.896 200.896 174.679 198.503 175.53H198.404L198.344 175.443L198.107 175.134C196.515 173.083 195.14 171.217 194.062 169.853L192.875 168.277C192.722 168.082 192.586 167.875 192.469 167.658C192.653 167.825 192.818 168.009 192.964 168.209L194.24 169.776C195.298 171.101 196.752 172.948 198.335 174.998L198.582 175.317H198.424C200.807 174.466 202.954 173.712 204.516 173.19L206.356 172.58C206.57 172.475 206.796 172.394 207.029 172.339V172.339Z" fill="#5351C0"/>
<g opacity="0.2">
<path d="M207.029 172.339C206.826 172.458 206.61 172.555 206.386 172.629L204.566 173.325C203.033 173.896 200.896 174.679 198.503 175.53H198.404L198.344 175.443L198.107 175.134C196.515 173.083 195.14 171.217 194.062 169.853L192.875 168.277C192.722 168.082 192.586 167.875 192.469 167.658C192.653 167.825 192.818 168.009 192.964 168.209L194.24 169.776C195.298 171.101 196.752 172.948 198.335 174.998L198.582 175.317H198.424C200.807 174.466 202.954 173.712 204.516 173.19L206.356 172.58C206.57 172.475 206.796 172.394 207.029 172.339V172.339Z" fill="#5351C0"/>
</g>
<path d="M196.673 173.093C195.539 173.782 194.359 174.396 193.142 174.931C191.96 175.543 190.737 176.076 189.482 176.526C190.611 175.827 191.791 175.209 193.013 174.679C194.192 174.065 195.415 173.535 196.673 173.093V173.093Z" fill="#5351C0"/>
<g opacity="0.2">
<path d="M196.673 173.093C195.539 173.782 194.359 174.396 193.142 174.931C191.96 175.543 190.737 176.076 189.482 176.526C190.611 175.827 191.791 175.209 193.013 174.679C194.192 174.065 195.415 173.535 196.673 173.093V173.093Z" fill="#5351C0"/>
</g>
<path d="M204.319 181.285C203.681 180.198 203.125 179.066 202.657 177.9C202.107 176.766 201.638 175.596 201.252 174.399C202.452 176.614 203.477 178.916 204.319 181.285V181.285Z" fill="#5351C0"/>
<g opacity="0.2">
<path d="M204.319 181.285C203.681 180.198 203.125 179.066 202.657 177.9C202.107 176.766 201.638 175.596 201.252 174.399C202.452 176.614 203.477 178.916 204.319 181.285V181.285Z" fill="#5351C0"/>
</g>
<path d="M90.0082 61.3405C89.0024 65.2112 86.8454 68.7035 83.8098 71.3756C80.7743 74.0477 76.9966 75.7797 72.9543 76.3526C68.9121 76.9255 64.7869 76.3136 61.1004 74.5942C57.4139 72.8748 54.3315 70.1251 52.2431 66.6929C50.1547 63.2606 49.154 59.3 49.3676 55.3117C49.5812 51.3234 50.9995 47.4866 53.443 44.2864C55.8866 41.0862 59.2458 38.6663 63.0959 37.3328C66.9459 35.9993 71.1139 35.812 75.0728 36.7945C80.3812 38.1147 84.9363 41.4417 87.7369 46.0445C90.5376 50.6472 91.3545 56.149 90.0082 61.3405V61.3405Z" fill="#263238"/>
<path d="M77.6148 45.4215C77.9808 45.5665 75.6366 52.3268 72.3726 60.5281C71.8879 61.7177 71.3835 62.8589 70.9779 63.9808L70.7307 64.5901L70.1075 64.358C63.4113 61.8338 58.5153 59.7544 58.6339 59.4546C58.7526 59.1548 63.8366 60.7216 70.5823 63.1104L69.7119 63.4972C70.1471 62.3754 70.6021 61.2245 71.0669 60.0349C74.3211 51.8239 77.2587 45.3151 77.6148 45.4215Z" fill="white"/>
<path d="M343.861 347.149C347.561 345.45 351.721 344.955 355.73 345.737C357.886 346.085 360.131 346.704 361.605 348.29C363.079 349.876 363.346 352.662 361.665 354.025C360.576 354.738 359.27 355.062 357.965 354.944C354.82 354.944 351.338 354.364 348.826 356.211C347.392 357.265 346.442 359.016 344.731 359.538C343.875 359.729 342.979 359.643 342.177 359.295C341.374 358.946 340.709 358.353 340.28 357.604C339.465 356.065 339.284 354.279 339.776 352.613C339.979 351.456 340.453 350.36 341.162 349.412C341.871 348.464 342.794 347.689 343.861 347.149V347.149Z" fill="#5351C0"/>
<g opacity="0.2">
<path d="M343.861 347.149C347.561 345.45 351.721 344.955 355.73 345.737C357.886 346.085 360.131 346.704 361.605 348.29C363.079 349.876 363.346 352.662 361.665 354.025C360.576 354.738 359.27 355.062 357.965 354.944C354.82 354.944 351.338 354.364 348.826 356.211C347.392 357.265 346.442 359.016 344.731 359.538C343.875 359.729 342.979 359.643 342.177 359.295C341.374 358.946 340.709 358.353 340.28 357.604C339.465 356.065 339.284 354.279 339.776 352.613C339.979 351.456 340.453 350.36 341.162 349.412C341.871 348.464 342.794 347.689 343.861 347.149V347.149Z" fill="white"/>
</g>
<path d="M335.582 331.52C337.798 334.605 342.09 333.58 344.078 331.694C346.067 329.808 346.917 327.081 347.679 324.479C349.43 318.531 351.19 312.293 349.894 306.239C349.575 304.404 348.751 302.689 347.511 301.278C346.88 300.583 346.074 300.063 345.173 299.77C344.272 299.476 343.308 299.419 342.377 299.604C340.211 300.165 338.866 302.245 337.897 304.218C335.032 310.043 333.528 316.419 333.495 322.883C333.495 325.891 333.851 329.044 335.582 331.53" fill="#5351C0"/>
<path d="M329.519 335.949C331.912 333.164 332.367 329.102 331.299 325.611C330.087 322.147 327.925 319.076 325.048 316.732C321.772 313.904 317.966 311.723 313.842 310.311C312.242 309.678 310.521 309.391 308.797 309.469C307.937 309.52 307.101 309.774 306.364 310.21C305.626 310.647 305.009 311.252 304.564 311.974C303.387 314.17 304.514 316.81 305.741 319.015C307.898 322.853 310.358 326.52 313.1 329.982C315.305 332.758 317.838 335.505 321.2 336.752C324.563 338 328.055 337.864 329.835 335.582" fill="#5351C0"/>
<g opacity="0.1">
<path d="M329.519 335.949C331.912 333.164 332.367 329.102 331.299 325.611C330.087 322.147 327.925 319.076 325.048 316.732C321.772 313.904 317.966 311.723 313.842 310.311C312.242 309.678 310.521 309.391 308.797 309.469C307.937 309.52 307.101 309.774 306.364 310.21C305.626 310.647 305.009 311.252 304.564 311.974C303.387 314.17 304.514 316.81 305.741 319.015C307.898 322.853 310.358 326.52 313.1 329.982C315.305 332.758 317.838 335.505 321.2 336.752C324.563 338 328.055 337.864 329.835 335.582" fill="black"/>
</g>
<path d="M335.434 378.068C335.549 377.608 335.615 377.139 335.631 376.666C335.74 375.641 335.859 374.364 336.017 372.797C336.211 370.914 336.505 369.041 336.898 367.188C337.409 364.928 338.107 362.712 338.985 360.563C339.843 358.414 341.009 356.396 342.446 354.567C343.614 353.076 345.107 351.86 346.818 351.008C347.978 350.449 349.219 350.071 350.498 349.886C350.978 349.87 351.455 349.805 351.922 349.692C351.442 349.635 350.957 349.635 350.478 349.692C349.147 349.79 347.844 350.117 346.63 350.659C344.833 351.494 343.256 352.722 342.021 354.247C340.523 356.101 339.313 358.16 338.431 360.36C337.543 362.554 336.851 364.819 336.363 367.13C335.991 369.005 335.737 370.901 335.602 372.807C335.473 374.432 335.424 375.708 335.404 376.675C335.366 377.139 335.376 377.606 335.434 378.068V378.068Z" fill="#263238"/>
<path d="M335.701 375.109C335.731 374.894 335.731 374.676 335.701 374.461V372.604C335.701 370.989 335.701 368.648 335.78 365.766C335.928 359.963 336.433 352.023 337.422 343.271C338.411 334.518 339.717 326.636 340.913 321.026C341.19 319.614 341.477 318.338 341.744 317.226C342.011 316.113 342.219 315.137 342.427 314.324C342.634 313.512 342.753 312.99 342.872 312.516C342.939 312.305 342.979 312.088 342.99 311.868C342.89 312.061 342.814 312.266 342.763 312.477L342.209 314.266C341.962 315.04 341.715 315.997 341.428 317.11C341.141 318.222 340.814 319.489 340.498 320.91C338.884 328.27 337.673 335.708 336.868 343.193C335.879 351.965 335.444 359.954 335.404 365.737C335.404 368.639 335.404 370.969 335.503 372.585C335.549 373.339 335.589 373.958 335.622 374.441C335.626 374.666 335.652 374.889 335.701 375.109Z" fill="#263238"/>
<path d="M335.74 359.712C335.794 359.068 335.794 358.421 335.74 357.778C335.629 356.015 335.425 354.259 335.127 352.516C334.144 346.756 332.457 341.133 330.102 335.766C327.829 330.341 324.565 325.366 320.469 321.084C319.76 320.35 319.004 319.662 318.204 319.024C317.857 318.734 317.551 318.454 317.214 318.222L316.344 317.632C315.811 317.24 315.249 316.887 314.663 316.578C316.59 318.063 318.424 319.661 320.152 321.365C324.112 325.682 327.289 330.627 329.549 335.988C330.847 338.912 331.947 341.917 332.842 344.982C333.703 347.797 334.276 350.389 334.712 352.574C335.147 354.76 335.355 356.549 335.503 357.787C335.535 358.434 335.614 359.077 335.74 359.712V359.712Z" fill="#263238"/>
<path d="M185.308 232.214H226.722L243.121 187.417H240.826L224.566 230.029L185.308 230.251V232.214Z" fill="#455A64"/>
<path d="M167.01 237.872L168.543 378.194H172.756L171.045 236.837L167.01 237.872Z" fill="#263238"/>
<path d="M255.653 236.508C255.089 239.187 259.451 378.513 259.451 378.513H263.407L260.193 236.508H255.653Z" fill="#263238"/>
<path d="M304.069 232.214H127.98V239.313H142.51L133.054 377.739L137.188 377.962L146.654 239.313H289.253L296.166 378.02H300.311L293.397 239.313H304.069V232.214Z" fill="#263238"/>
<path d="M204.744 372.913V362.275L184.358 362.072L184.131 377.643L185.397 377.73C191.015 378.097 214.002 379.18 217.77 378.107C221.964 376.908 204.744 372.913 204.744 372.913Z" fill="#5351C0"/>
<path d="M191.51 377.556C191.229 375.871 190.32 374.348 188.958 373.281C187.621 372.222 185.928 371.687 184.21 371.782L184.151 377.352L191.51 377.556Z" fill="#F5F5F5"/>
<path d="M213.131 375.157C213.131 375.157 219.185 376.937 218.413 377.904C217.642 378.871 194.378 378.629 184.121 377.643V377.198L211.262 377.71C211.262 377.71 211.945 375.196 213.131 375.157Z" fill="#F5F5F5"/>
<path d="M183.844 377.178H184.19L185.18 377.256L188.879 377.449C192.004 377.594 196.327 377.73 201.104 377.788C205.881 377.846 210.214 377.788 213.339 377.72L217.048 377.614L218.037 377.565H218.384C218.269 377.551 218.152 377.551 218.037 377.565H217.048H213.339C210.214 377.565 205.881 377.565 201.114 377.565C196.346 377.565 192.014 377.391 188.889 377.294L185.18 377.178H184.19H183.844Z" fill="#263238"/>
<path d="M211.292 378.01C211.46 377.411 211.699 376.833 212.004 376.289C212.372 375.783 212.8 375.322 213.28 374.915C212.668 375.174 212.151 375.608 211.797 376.161C211.444 376.714 211.271 377.359 211.302 378.01H211.292Z" fill="#263238"/>
<path d="M205.308 374.973C205.367 374.973 205.664 374.664 205.96 374.209C206.257 373.755 206.465 373.358 206.406 373.319C206.346 373.281 206.059 373.629 205.753 374.083C205.54 374.345 205.388 374.648 205.308 374.973V374.973Z" fill="#263238"/>
<path d="M203.666 374.142C203.715 374.19 204.042 373.987 204.398 373.677C204.754 373.368 205.001 373.087 204.952 373.039C204.902 372.991 204.586 373.194 204.23 373.494C203.873 373.793 203.626 374.055 203.666 374.142Z" fill="#263238"/>
<path d="M202.647 372.207C202.983 372.335 203.346 372.385 203.705 372.352C204.064 372.398 204.429 372.365 204.774 372.255C204.437 372.127 204.075 372.078 203.715 372.111C203.356 372.066 202.991 372.099 202.647 372.207V372.207Z" fill="#263238"/>
<path d="M202.301 370.882C202.667 371.077 203.071 371.195 203.486 371.23C203.901 371.265 204.319 371.216 204.714 371.085C203.909 371.024 203.105 370.956 202.301 370.882V370.882Z" fill="#263238"/>
<path d="M206.02 373.242C206.455 373.316 206.9 373.316 207.335 373.242C207.808 373.193 208.275 373.099 208.73 372.962C209.009 372.885 209.277 372.778 209.531 372.642C209.609 372.602 209.678 372.548 209.734 372.481C209.79 372.415 209.832 372.338 209.857 372.256C209.879 372.16 209.873 372.06 209.84 371.968C209.807 371.876 209.748 371.794 209.67 371.733C209.173 371.493 208.607 371.428 208.067 371.547C207.526 371.667 207.045 371.965 206.702 372.391C206.494 372.641 206.342 372.931 206.257 373.242C206.257 373.465 206.257 373.59 206.257 373.59C206.388 373.196 206.593 372.829 206.861 372.507C207.157 372.169 207.55 371.923 207.988 371.801C208.244 371.721 208.514 371.69 208.782 371.712C209.05 371.733 209.312 371.806 209.551 371.927C209.759 372.082 209.67 372.314 209.442 372.449C209.206 372.573 208.957 372.673 208.7 372.749C208.258 372.893 207.805 373.003 207.345 373.078C206.524 373.174 206.02 373.174 206.02 373.242Z" fill="#263238"/>
<path d="M206.356 373.31C206.521 373.043 206.581 372.727 206.524 372.42C206.488 372.076 206.369 371.744 206.178 371.453C206.07 371.261 205.913 371.099 205.722 370.982C205.532 370.865 205.314 370.798 205.09 370.786C204.956 370.811 204.839 370.888 204.763 370.999C204.686 371.109 204.658 371.245 204.685 371.376C204.711 371.578 204.782 371.773 204.892 371.946C205.067 372.228 205.273 372.491 205.506 372.73C205.703 372.963 205.958 373.143 206.247 373.252C206.247 373.252 205.99 373.02 205.634 372.614C205.428 372.375 205.249 372.116 205.1 371.84C204.922 371.569 204.803 371.076 205.1 371.027C205.397 370.979 205.763 371.318 205.961 371.579C206.136 371.829 206.257 372.112 206.317 372.41C206.366 372.708 206.379 373.01 206.356 373.31V373.31Z" fill="#263238"/>
<path d="M184.319 371.733C184.319 371.733 184.902 371.685 185.822 371.801C187.02 371.95 188.153 372.418 189.096 373.155C190.014 373.928 190.698 374.931 191.074 376.056C191.371 376.908 191.401 377.488 191.44 377.478C191.48 377.468 191.44 377.333 191.44 377.082C191.406 376.715 191.337 376.352 191.233 375.998C190.877 374.825 190.167 373.784 189.197 373.011C188.226 372.238 187.04 371.769 185.793 371.666C185.418 371.624 185.04 371.624 184.665 371.666C184.546 371.666 184.429 371.689 184.319 371.733V371.733Z" fill="#263238"/>
<path d="M186.525 363.503C186.287 366.224 186.221 368.956 186.327 371.685C186.483 370.327 186.556 368.961 186.544 367.594C186.616 366.231 186.609 364.865 186.525 363.503V363.503Z" fill="#263238"/>
<path d="M194.101 375.641C195.071 375.876 196.069 375.983 197.068 375.96C198.062 376.023 199.06 375.954 200.036 375.757C200.036 375.689 198.7 375.757 197.068 375.757C195.436 375.757 194.111 375.573 194.101 375.641Z" fill="#263238"/>
<path d="M190.105 375.592C190.105 375.641 190.214 375.873 190.343 376.173C190.471 376.472 190.55 376.734 190.62 376.734C190.689 376.734 190.728 376.414 190.57 376.076C190.412 375.737 190.155 375.544 190.105 375.592Z" fill="#263238"/>
<path d="M188.622 373.745C188.622 373.793 188.701 373.996 188.908 374.209C189.116 374.421 189.324 374.557 189.373 374.508C189.423 374.46 189.294 374.257 189.086 374.045C188.879 373.832 188.671 373.697 188.622 373.745Z" fill="#263238"/>
<path d="M186.475 372.884C186.475 372.952 186.762 372.952 187.059 373.059C187.355 373.165 187.573 373.33 187.622 373.281C187.672 373.233 187.514 372.962 187.138 372.836C186.762 372.71 186.455 372.826 186.475 372.884Z" fill="#263238"/>
<path d="M184.962 372.478C184.962 372.536 185.051 372.642 185.219 372.71C185.387 372.777 185.545 372.777 185.565 372.71C185.585 372.642 185.476 372.546 185.308 372.478C185.14 372.41 184.962 372.41 184.962 372.478Z" fill="#263238"/>
<path d="M244.822 362.178L240.351 352.458L221.687 360.476L228.027 374.751L229.214 374.325C234.496 372.391 255.92 364.141 258.887 361.646C262.24 358.861 244.822 362.178 244.822 362.178Z" fill="#5351C0"/>
<path d="M234.763 371.704C233.801 370.269 232.327 369.235 230.629 368.803C228.967 368.381 227.205 368.577 225.683 369.354L227.968 374.451L234.763 371.704Z" fill="#F5F5F5"/>
<path d="M253.457 360.824C253.457 360.824 259.718 360.002 259.392 361.201C259.065 362.401 237.79 371.53 228.027 374.741L227.879 374.325L252.824 363.871C252.824 363.871 252.389 361.337 253.457 360.824Z" fill="#F5F5F5"/>
<path d="M227.602 374.451L227.938 374.345L228.927 374.006L232.389 372.691C235.297 371.559 239.313 369.954 243.675 368.078C248.037 366.201 251.974 364.432 254.792 363.097L258.126 361.511L259.026 361.056C259.134 361.014 259.237 360.959 259.332 360.892L259.006 361.018L258.086 361.424L254.723 362.952C251.884 364.228 247.948 365.989 243.576 367.855C239.204 369.722 235.208 371.366 232.32 372.536L228.898 373.919L227.968 374.296L227.602 374.451Z" fill="#263238"/>
<path d="M252.982 364.17C252.878 363.557 252.852 362.933 252.903 362.313C253.034 361.705 253.229 361.112 253.487 360.543C253.001 361.001 252.706 361.617 252.656 362.275C252.524 362.924 252.64 363.599 252.982 364.17V364.17Z" fill="#263238"/>
<path d="M246.286 363.793C246.355 363.793 246.474 363.377 246.563 362.826C246.652 362.275 246.662 361.859 246.563 361.859C246.464 361.859 246.375 362.275 246.286 362.826C246.205 363.144 246.205 363.476 246.286 363.793V363.793Z" fill="#263238"/>
<path d="M244.387 363.667C244.446 363.667 244.654 363.368 244.852 362.952C245.05 362.536 245.149 362.168 245.089 362.139C245.03 362.11 244.822 362.429 244.624 362.855C244.427 363.28 244.308 363.638 244.387 363.667Z" fill="#263238"/>
<path d="M242.656 362.351C243.003 362.319 243.34 362.217 243.645 362.052C244.189 361.83 244.634 361.598 244.575 361.54C244.516 361.482 244.09 361.607 243.586 361.83C243.081 362.052 242.626 362.284 242.656 362.351Z" fill="#263238"/>
<path d="M241.786 361.278C242.202 361.344 242.629 361.287 243.012 361.114C243.418 361.016 243.783 360.801 244.061 360.495C243.67 360.593 243.289 360.726 242.923 360.891C242.532 360.985 242.151 361.114 241.786 361.278V361.278Z" fill="#263238"/>
<path d="M246.167 361.936C246.593 361.829 246.998 361.652 247.364 361.414C247.771 361.174 248.155 360.899 248.512 360.592C248.734 360.411 248.937 360.206 249.115 359.983C249.219 359.84 249.265 359.664 249.243 359.489C249.226 359.395 249.18 359.307 249.111 359.238C249.042 359.17 248.954 359.122 248.858 359.103C248.5 359.088 248.143 359.152 247.813 359.288C247.484 359.425 247.189 359.632 246.952 359.895C246.714 360.157 246.539 360.467 246.439 360.804C246.339 361.14 246.318 361.494 246.375 361.84C246.387 361.959 246.424 362.074 246.484 362.178C246.448 361.763 246.482 361.345 246.583 360.94C246.713 360.514 246.967 360.134 247.315 359.847C247.718 359.494 248.248 359.31 248.788 359.335C249.046 359.383 249.065 359.635 248.907 359.857C248.744 360.063 248.562 360.254 248.363 360.428C248.017 360.732 247.65 361.013 247.265 361.269C246.603 361.704 246.148 361.898 246.167 361.936Z" fill="#263238"/>
<path d="M246.504 361.859C246.535 361.552 246.454 361.244 246.276 360.989C246.098 360.697 245.855 360.449 245.564 360.263C245.384 360.134 245.174 360.051 244.953 360.022C244.731 359.993 244.506 360.02 244.298 360.099C244.187 360.175 244.111 360.291 244.087 360.421C244.063 360.551 244.093 360.686 244.169 360.795C244.277 360.972 244.427 361.121 244.605 361.23C244.881 361.422 245.18 361.582 245.495 361.704C245.775 361.835 246.085 361.895 246.395 361.878C246.395 361.878 246.059 361.772 245.564 361.54C245.272 361.41 244.997 361.247 244.743 361.056C244.466 360.882 244.16 360.486 244.436 360.302C244.603 360.254 244.778 360.243 244.949 360.27C245.12 360.297 245.283 360.361 245.426 360.457C245.697 360.611 245.93 360.822 246.108 361.076C246.262 361.325 246.395 361.587 246.504 361.859V361.859Z" fill="#263238"/>
<path d="M225.752 369.306C225.752 369.306 226.257 369.025 227.147 368.764C228.3 368.411 229.531 368.384 230.699 368.687C231.867 368.99 232.923 369.61 233.744 370.476C234.377 371.143 234.644 371.656 234.684 371.627C234.646 371.497 234.589 371.374 234.516 371.26C234.335 370.941 234.12 370.643 233.873 370.37C233.059 369.436 231.977 368.762 230.767 368.436C229.556 368.131 228.28 368.181 227.098 368.581C226.752 368.704 226.42 368.863 226.108 369.054C225.851 369.19 225.742 369.306 225.752 369.306Z" fill="#263238"/>
<path d="M224.279 360.863C224.698 362.183 225.204 363.475 225.792 364.731C226.305 366.003 226.889 367.246 227.543 368.455C227.113 367.153 226.604 365.877 226.019 364.635C225.511 363.347 224.93 362.087 224.279 360.863V360.863Z" fill="#263238"/>
<path d="M236.306 368.919C237.291 368.735 238.248 368.429 239.155 368.01C240.092 367.669 240.977 367.203 241.786 366.627C241.786 366.569 240.569 367.159 239.056 367.788C237.543 368.416 236.286 368.851 236.306 368.919Z" fill="#263238"/>
<path d="M232.646 370.476C232.646 370.544 232.864 370.689 233.111 370.911C233.358 371.133 233.536 371.346 233.596 371.307C233.655 371.268 233.596 370.978 233.279 370.727C232.963 370.476 232.666 370.418 232.646 370.476Z" fill="#263238"/>
<path d="M230.52 369.393C230.52 369.461 230.698 369.596 230.975 369.703C231.252 369.809 231.499 369.848 231.529 369.79C231.558 369.732 231.351 369.586 231.074 369.48C230.797 369.374 230.54 369.306 230.52 369.393Z" fill="#263238"/>
<path d="M228.205 369.47C228.205 369.528 228.492 369.422 228.809 369.402C229.125 369.383 229.382 369.402 229.412 369.402C229.442 369.402 229.175 369.151 228.789 369.19C228.403 369.228 228.156 369.422 228.205 369.47Z" fill="#263238"/>
<path d="M226.633 369.713C226.633 369.78 226.791 369.829 226.969 369.819C227.147 369.81 227.295 369.751 227.295 369.683C227.295 369.615 227.137 369.567 226.959 369.577C226.781 369.586 226.633 369.645 226.633 369.713Z" fill="#263238"/>
<path d="M59.8505 291.084L45.1327 183.548C45.0409 182.878 45.1031 182.198 45.3148 181.555C45.5265 180.912 45.8822 180.324 46.3561 179.832C46.8301 179.341 47.4101 178.96 48.0541 178.716C48.698 178.472 49.3895 178.371 50.0782 178.422L85.5572 181.323C87.1398 181.453 88.6238 182.128 89.745 183.228C90.8662 184.328 91.5518 185.781 91.6798 187.329L100.324 289.14L59.8505 291.084Z" fill="#5351C0"/>
<g opacity="0.2">
<path d="M59.8505 291.084L45.1327 183.548C45.0409 182.878 45.1031 182.198 45.3148 181.555C45.5265 180.912 45.8822 180.324 46.3561 179.832C46.8301 179.341 47.4101 178.96 48.0541 178.716C48.698 178.472 49.3895 178.371 50.0782 178.422L85.5572 181.323C87.1398 181.453 88.6238 182.128 89.745 183.228C90.8662 184.328 91.5518 185.781 91.6798 187.329L100.324 289.14L59.8505 291.084Z" fill="black"/>
</g>
<path d="M94.0734 133.044C93.7766 128.943 92.6787 124.949 92.0952 120.887C91.5116 116.825 91.3929 112.55 93.0348 108.769C94.0398 106.661 95.4606 104.767 97.2156 103.197C98.9706 101.627 101.025 100.411 103.262 99.6197C107.755 98.0611 112.551 97.5253 117.288 98.0529C118.144 98.0783 118.987 98.2655 119.77 98.6042C120.157 98.7794 120.491 99.0497 120.739 99.3887C120.987 99.7278 121.14 100.124 121.185 100.538C121.194 100.744 121.16 100.95 121.085 101.142C121.01 101.335 120.895 101.51 120.747 101.657C120.6 101.804 120.423 101.919 120.227 101.997C120.032 102.074 119.823 102.111 119.612 102.105C121.419 102.286 123.2 102.659 124.923 103.217C125.624 103.411 126.233 103.839 126.644 104.426C126.811 104.794 126.877 105.198 126.836 105.598C126.794 105.999 126.646 106.381 126.407 106.709C125.915 107.357 125.309 107.914 124.617 108.353C124.829 108.312 125.046 108.313 125.258 108.354C125.47 108.396 125.671 108.478 125.85 108.595C126.029 108.713 126.183 108.864 126.302 109.04C126.421 109.216 126.504 109.413 126.546 109.62C126.609 110.043 126.581 110.474 126.463 110.885C126.346 111.297 126.141 111.679 125.863 112.009C125.359 112.705 124.706 113.276 124.182 113.943C122.045 116.719 122.461 120.578 122.975 124.021" fill="#263238"/>
<path d="M94.4591 157.068L114.449 156.719C114.716 154.456 115.102 145.655 115.102 145.655C115.102 145.655 123.46 144.901 124.073 136.816C124.686 128.731 124.429 110.065 124.429 110.065C119.85 107.805 114.737 106.78 109.618 107.098C104.499 107.416 99.5594 109.065 95.3098 111.873L94.0239 112.724L94.4591 157.068Z" fill="#B78876"/>
<path d="M121.659 124.088C121.491 123.923 121.377 123.713 121.331 123.484C121.285 123.255 121.309 123.019 121.401 122.803C121.492 122.588 121.647 122.404 121.845 122.275C122.044 122.145 122.277 122.076 122.515 122.076C122.753 122.076 122.986 122.145 123.185 122.275C123.383 122.404 123.538 122.588 123.629 122.803C123.721 123.019 123.745 123.255 123.699 123.484C123.653 123.713 123.539 123.923 123.371 124.088C123.259 124.2 123.126 124.288 122.979 124.349C122.832 124.409 122.674 124.44 122.515 124.44C122.356 124.44 122.198 124.409 122.051 124.349C121.904 124.288 121.771 124.2 121.659 124.088Z" fill="#263238"/>
<path d="M123.766 122.125C123.628 122.26 122.856 121.603 121.719 121.525C120.581 121.448 119.74 121.98 119.592 121.825C119.444 121.67 119.681 121.516 120.057 121.264C120.568 120.956 121.165 120.813 121.764 120.857C122.362 120.9 122.932 121.127 123.39 121.506C123.727 121.806 123.835 122.067 123.766 122.125Z" fill="#263238"/>
<path d="M110.572 122.309C110.768 122.443 110.919 122.63 111.006 122.849C111.092 123.067 111.111 123.305 111.059 123.533C111.007 123.762 110.886 123.97 110.713 124.131C110.539 124.292 110.321 124.4 110.085 124.439C109.849 124.479 109.607 124.449 109.388 124.353C109.17 124.258 108.985 124.101 108.858 123.903C108.731 123.704 108.667 123.473 108.675 123.24C108.682 123.006 108.761 122.779 108.9 122.589C108.991 122.463 109.106 122.356 109.239 122.274C109.372 122.191 109.521 122.135 109.676 122.109C109.832 122.083 109.991 122.088 110.144 122.122C110.298 122.156 110.443 122.219 110.572 122.309V122.309Z" fill="#263238"/>
<path d="M111.323 122.367C111.185 122.492 110.413 121.835 109.276 121.757C108.138 121.68 107.298 122.212 107.159 122.067C107.021 121.922 107.238 121.748 107.624 121.506C108.131 121.193 108.728 121.047 109.326 121.091C109.925 121.134 110.493 121.364 110.947 121.748C111.284 122.038 111.392 122.309 111.323 122.367Z" fill="#263238"/>
<path d="M115.319 131.835C115.919 131.641 116.548 131.55 117.179 131.564C117.485 131.564 117.723 131.497 117.753 131.342C117.778 131.049 117.723 130.756 117.594 130.491C117.347 129.736 117.09 128.972 116.833 128.17C115.794 124.872 115.082 122.154 115.26 122.106C115.438 122.057 116.407 124.688 117.456 127.986C117.703 128.789 117.931 129.562 118.168 130.317C118.33 130.707 118.358 131.138 118.247 131.545C118.197 131.654 118.122 131.75 118.028 131.826C117.933 131.901 117.822 131.954 117.703 131.98C117.535 131.998 117.366 131.998 117.199 131.98C116.568 132.036 115.933 131.987 115.319 131.835V131.835Z" fill="#263238"/>
<path d="M111.531 132.841C110.393 132.077 114.696 134.775 117.02 134.775C116.595 135.333 115.988 135.732 115.3 135.908C114.611 136.084 113.882 136.025 113.232 135.742C110.779 134.727 111.531 132.841 111.531 132.841Z" fill="white"/>
<path d="M115.131 145.539C111.304 145.383 107.612 144.114 104.528 141.893C104.528 141.893 106.714 147.87 115.013 147.638L115.131 145.539Z" fill="#A36957"/>
<path d="M93.7568 118.817L94.1821 129.311C94.1821 129.311 97.9505 128.189 98.1978 128.083C98.4451 127.976 98.1286 115.229 98.1286 115.229C98.1286 115.229 97.6044 110.394 100.809 109.281C104.182 108.092 105.646 110.481 110.423 111.216C126.179 113.817 125.101 109.088 125.101 109.088C125.101 109.088 127.08 107.009 123.034 104.726C118.989 102.444 108.87 101.67 103.331 103.537C92.4511 107.202 91.7983 110.848 91.7983 114.069C91.7983 118.663 93.7568 118.817 93.7568 118.817Z" fill="#263238"/>
<path d="M95.6065 119.901C95.4285 119.833 89.4741 119.078 90.0379 125.955C90.6017 132.831 97.5155 130.007 97.5155 129.823C97.5155 129.64 95.6065 119.901 95.6065 119.901Z" fill="#B78876"/>
<path d="M95.1614 127.522C95.1614 127.522 95.0427 127.618 94.8449 127.725C94.5613 127.869 94.2317 127.9 93.9251 127.812C93.4453 127.571 93.0417 127.207 92.7577 126.759C92.4736 126.311 92.3198 125.795 92.3128 125.268C92.2444 124.677 92.312 124.079 92.5106 123.518C92.5634 123.302 92.6681 123.101 92.8161 122.933C92.964 122.765 93.1509 122.634 93.3613 122.55C93.4993 122.504 93.6495 122.505 93.7865 122.555C93.9235 122.604 94.0388 122.698 94.113 122.821C94.2218 123.005 94.1822 123.15 94.2218 123.16C94.2613 123.169 94.3603 123.024 94.2811 122.754C94.2325 122.584 94.1238 122.436 93.9745 122.338C93.766 122.217 93.5197 122.176 93.2821 122.222C92.9976 122.298 92.7381 122.446 92.5285 122.649C92.3189 122.852 92.1663 123.105 92.0853 123.382C91.8361 123.996 91.7444 124.66 91.8183 125.316C91.9765 126.699 92.8074 127.937 93.7965 128.15C93.9901 128.189 94.1901 128.184 94.3817 128.137C94.5734 128.091 94.7519 128.002 94.9043 127.879C95.1614 127.734 95.1812 127.57 95.1614 127.522Z" fill="#A36957"/>
<path d="M174.161 212.63C174.161 212.63 184.052 212.165 186.03 213.046C189.452 214.506 199.64 230.125 199.126 230.125C197.583 230.125 194.408 230.125 194.408 230.125L178.582 224.255L174.853 225.173L174.161 212.63Z" fill="#B78876"/>
<path d="M216.692 257.476C216.692 257.476 246.286 357.7 246.355 357.207C246.424 356.714 219.828 369.712 219.828 369.712L201.885 297.235L216.692 257.476Z" fill="#263238"/>
<path d="M219.244 370.321L247.275 356.946L246.059 353.28L217.81 366.675L219.244 370.321Z" fill="#455A64"/>
<path d="M215.565 333.454C215.416 333.454 215.11 332.864 214.862 332.061C214.615 331.259 214.536 330.553 214.684 330.514C214.833 330.475 215.139 331.094 215.387 331.907C215.634 332.719 215.703 333.406 215.565 333.454Z" fill="#455A64"/>
<path d="M217.394 339.325C217.246 339.325 216.92 338.744 216.672 337.942C216.425 337.139 216.326 336.443 216.465 336.394C216.603 336.346 216.929 336.974 217.187 337.777C217.444 338.58 217.533 339.257 217.394 339.325Z" fill="#455A64"/>
<path d="M219.303 345.127C219.155 345.176 218.829 344.557 218.562 343.754C218.295 342.951 218.196 342.265 218.334 342.216C218.473 342.168 218.809 342.787 219.076 343.59C219.343 344.392 219.442 345.127 219.303 345.127Z" fill="#455A64"/>
<path d="M221.301 350.93C221.153 350.979 220.817 350.369 220.54 349.567C220.263 348.764 220.144 348.077 220.292 348.029C220.441 347.98 220.777 348.59 221.054 349.392C221.331 350.195 221.44 350.93 221.301 350.93Z" fill="#455A64"/>
<path d="M223.378 356.733C223.24 356.733 222.884 356.172 222.597 355.379C222.31 354.586 222.182 353.899 222.33 353.851C222.478 353.803 222.815 354.402 223.111 355.205C223.408 356.008 223.537 356.656 223.378 356.733Z" fill="#455A64"/>
<path d="M225.515 362.449C225.367 362.449 225.01 361.898 224.714 361.105C224.417 360.311 224.279 359.625 224.417 359.576C224.555 359.528 224.921 360.128 225.218 360.921C225.515 361.714 225.683 362.401 225.515 362.449Z" fill="#455A64"/>
<path d="M223.962 364.857C223.718 364.536 223.519 364.185 223.368 363.813C223.022 363.116 222.548 362.101 222.004 360.834C220.906 358.3 219.551 354.731 218.186 350.756C216.821 346.781 215.673 343.145 214.862 340.514C214.486 339.276 214.17 338.232 213.873 337.39C213.73 337.014 213.637 336.62 213.596 336.22C213.79 336.572 213.949 336.941 214.071 337.323C214.348 338.048 214.724 339.093 215.179 340.398L218.65 350.582C220.006 354.557 221.301 358.136 222.31 360.698L223.517 363.726C223.706 364.086 223.855 364.466 223.962 364.857Z" fill="#455A64"/>
<path d="M78.6237 250.512C78.871 245.203 75.785 279.652 102.867 280.561C129.948 281.47 185.278 281.074 185.278 281.074L178.8 368.435H211.292L218.077 275.494C218.077 275.494 221.539 248.568 202.696 245.135C190.906 242.978 117.584 242.292 117.584 242.292L78.6237 250.512Z" fill="#263238"/>
<path d="M178.058 368.619H212.271V363.416L178.058 363.464V368.619Z" fill="#455A64"/>
<path d="M124.538 276.461C124.653 276.447 124.769 276.447 124.884 276.461L125.873 276.403L129.829 276.229L144.517 275.677L194.061 274.014H194.378V274.323C193.933 277.882 193.557 281.645 193.241 285.465C192.805 290.929 192.39 296.258 191.984 301.403C191.579 306.548 190.995 311.5 190.491 316.22C189.502 325.64 188.572 334.131 187.8 341.278C187.029 348.425 186.386 354.151 185.941 358.165C185.713 360.099 185.535 361.685 185.407 362.758C185.347 363.261 185.298 363.658 185.258 363.948C185.246 364.085 185.223 364.221 185.189 364.354C185.174 364.219 185.174 364.083 185.189 363.948C185.189 363.648 185.249 363.252 185.288 362.749C185.387 361.666 185.535 360.118 185.723 358.145C186.119 354.132 186.712 348.358 187.415 341.24C188.117 334.121 189.017 325.601 189.986 316.162C190.461 311.442 190.975 306.49 191.44 301.355C191.905 296.219 192.261 290.881 192.687 285.426C193.003 281.558 193.379 277.834 193.834 274.256L194.111 274.556L144.557 276.035L129.869 276.432L125.912 276.509H124.923C124.793 276.512 124.663 276.496 124.538 276.461Z" fill="#455A64"/>
<path d="M127.663 272.679C127.663 272.824 126.971 272.96 126.1 272.979C125.23 272.999 124.538 272.902 124.538 272.757C124.538 272.612 125.23 272.466 126.09 272.447C126.951 272.428 127.663 272.534 127.663 272.679Z" fill="#455A64"/>
<path d="M133.924 272.534C133.924 272.679 133.232 272.815 132.361 272.834C131.491 272.854 130.799 272.757 130.789 272.612C130.779 272.467 131.491 272.331 132.351 272.302C133.212 272.273 133.924 272.389 133.924 272.534Z" fill="#455A64"/>
<path d="M140.185 272.389C140.185 272.544 139.493 272.67 138.623 272.699C137.752 272.728 137.06 272.612 137.05 272.466C137.04 272.321 137.752 272.186 138.613 272.167C139.473 272.147 140.185 272.244 140.185 272.389Z" fill="#455A64"/>
<path d="M146.446 272.244C146.446 272.399 145.754 272.534 144.884 272.554C144.013 272.573 143.321 272.467 143.311 272.321C143.301 272.176 144.013 272.041 144.874 272.022C145.734 272.002 146.446 272.099 146.446 272.244Z" fill="#455A64"/>
<path d="M152.707 272.109C152.707 272.254 152.015 272.389 151.145 272.409C150.274 272.428 149.582 272.322 149.572 272.176C149.562 272.031 150.274 271.896 151.135 271.876C151.995 271.857 152.707 271.954 152.707 272.109Z" fill="#455A64"/>
<path d="M158.968 271.964C158.968 272.109 158.276 272.244 157.406 272.264C156.535 272.283 155.843 272.176 155.833 272.031C155.823 271.886 156.535 271.751 157.396 271.731C158.256 271.712 158.958 271.818 158.968 271.964Z" fill="#455A64"/>
<path d="M165.229 271.819C165.229 271.964 164.537 272.099 163.667 272.118C162.796 272.138 162.104 272.031 162.094 271.886C162.084 271.741 162.786 271.606 163.657 271.586C164.527 271.567 165.18 271.673 165.229 271.819Z" fill="#455A64"/>
<path d="M171.49 271.673C171.49 271.819 170.798 271.954 169.928 271.973C169.057 271.993 168.365 271.896 168.355 271.741C168.345 271.586 169.047 271.461 169.918 271.441C170.788 271.422 171.48 271.528 171.49 271.673Z" fill="#455A64"/>
<path d="M177.751 271.528C177.751 271.674 177.059 271.809 176.189 271.828C175.318 271.848 174.626 271.751 174.616 271.606C174.606 271.461 175.308 271.316 176.179 271.296C177.049 271.277 177.741 271.383 177.751 271.528Z" fill="#455A64"/>
<path d="M183.973 271.383C183.973 271.529 183.27 271.664 182.41 271.683C181.549 271.703 180.847 271.606 180.837 271.461C180.827 271.316 181.53 271.171 182.4 271.151C183.27 271.132 183.973 271.238 183.973 271.383Z" fill="#455A64"/>
<path d="M190.273 271.238C190.273 271.383 189.571 271.519 188.71 271.538C187.85 271.558 187.148 271.461 187.138 271.316C187.128 271.17 187.83 271.035 188.701 271.016C189.571 270.996 190.263 271.093 190.273 271.238Z" fill="#455A64"/>
<path d="M196.534 271.093C196.534 271.248 195.832 271.383 194.972 271.403C194.111 271.422 193.399 271.316 193.399 271.171C193.399 271.025 194.091 270.89 194.962 270.871C195.832 270.851 196.524 270.948 196.534 271.093Z" fill="#455A64"/>
<path d="M196.524 276.644C196.366 276.644 196.317 275.938 196.406 275.097C196.495 274.256 196.673 273.588 196.821 273.598C196.97 273.608 197.029 274.304 196.94 275.145C196.851 275.987 196.673 276.664 196.524 276.644Z" fill="#455A64"/>
<path d="M195.911 282.737C195.763 282.737 195.704 282.032 195.793 281.19C195.882 280.349 196.07 279.681 196.218 279.691C196.366 279.701 196.416 280.397 196.337 281.238C196.257 282.08 196.06 282.757 195.911 282.737Z" fill="#455A64"/>
<path d="M195.298 288.831C195.15 288.831 195.09 288.124 195.179 287.283C195.268 286.442 195.456 285.774 195.605 285.784C195.753 285.794 195.802 286.5 195.723 287.341C195.644 288.183 195.446 288.85 195.298 288.831Z" fill="#455A64"/>
<path d="M194.685 294.923C194.536 294.923 194.487 294.217 194.566 293.376C194.645 292.534 194.843 291.867 194.991 291.877C195.14 291.886 195.189 292.592 195.11 293.434C195.031 294.275 194.853 294.943 194.685 294.923Z" fill="#455A64"/>
<path d="M194.071 301.026C193.923 301.026 193.874 300.31 193.953 299.469C194.032 298.627 194.23 297.96 194.378 297.979C194.526 297.999 194.586 298.685 194.497 299.527C194.408 300.368 194.22 301.036 194.071 301.026Z" fill="#455A64"/>
<path d="M193.458 307.119C193.31 307.119 193.26 306.403 193.35 305.562C193.439 304.72 193.617 304.053 193.765 304.072C193.913 304.092 193.973 304.778 193.884 305.62C193.795 306.461 193.617 307.129 193.458 307.119Z" fill="#455A64"/>
<path d="M192.875 313.212C192.716 313.212 192.667 312.506 192.756 311.664C192.845 310.823 193.023 310.146 193.181 310.165C193.339 310.185 193.379 310.871 193.29 311.713C193.201 312.554 193.003 313.212 192.875 313.212Z" fill="#455A64"/>
<path d="M192.242 319.305C192.093 319.305 192.034 318.599 192.123 317.758C192.212 316.916 192.4 316.239 192.548 316.258C192.697 316.278 192.746 316.964 192.667 317.806C192.588 318.647 192.39 319.315 192.242 319.305Z" fill="#455A64"/>
<path d="M191.628 325.398C191.48 325.398 191.43 324.692 191.51 323.85C191.589 323.009 191.787 322.342 191.935 322.351C192.083 322.361 192.133 323.057 192.054 323.899C191.974 324.74 191.777 325.417 191.628 325.398Z" fill="#455A64"/>
<path d="M191.015 331.491C190.867 331.491 190.817 330.785 190.896 329.943C190.975 329.102 191.173 328.435 191.322 328.444C191.47 328.454 191.519 329.15 191.44 329.992C191.361 330.833 191.163 331.51 191.015 331.491Z" fill="#455A64"/>
<path d="M190.402 337.584C190.254 337.584 190.204 336.878 190.283 336.036C190.362 335.195 190.56 334.528 190.709 334.537C190.857 334.547 190.916 335.243 190.827 336.085C190.738 336.926 190.55 337.603 190.402 337.584Z" fill="#455A64"/>
<path d="M189.799 343.677C189.64 343.677 189.591 342.971 189.68 342.129C189.769 341.288 189.947 340.621 190.095 340.63C190.244 340.64 190.303 341.346 190.214 342.187C190.125 343.029 189.907 343.696 189.799 343.677Z" fill="#455A64"/>
<path d="M189.185 349.77C189.037 349.77 188.977 349.064 189.066 348.222C189.156 347.381 189.334 346.714 189.492 346.723C189.65 346.733 189.69 347.439 189.601 348.28C189.512 349.122 189.334 349.789 189.185 349.77Z" fill="#455A64"/>
<path d="M188.572 355.872C188.424 355.872 188.364 355.157 188.453 354.315C188.542 353.474 188.73 352.807 188.879 352.826C189.027 352.845 189.077 353.532 188.997 354.373C188.918 355.215 188.72 355.882 188.572 355.872Z" fill="#455A64"/>
<path d="M187.929 361.965C187.781 361.965 187.731 361.259 187.81 360.418C187.89 359.577 188.087 358.9 188.236 358.919C188.384 358.938 188.434 359.625 188.354 360.466C188.275 361.308 188.107 361.975 187.929 361.965Z" fill="#455A64"/>
<path d="M187.632 365.196C187.484 365.196 187.365 365.128 187.375 365.08C187.385 365.031 187.504 364.992 187.652 365.012C187.801 365.031 187.919 365.08 187.919 365.128C187.919 365.177 187.781 365.206 187.632 365.196Z" fill="#455A64"/>
<path d="M189.71 277.002C189.141 277.875 188.422 278.644 187.583 279.275C186.862 280.032 186.016 280.667 185.081 281.151C186.369 279.519 187.935 278.116 189.71 277.002V277.002Z" fill="#263238"/>
<path d="M191.955 278.182C190.88 278.941 189.705 279.556 188.463 280.01C187.292 280.619 186.04 281.068 184.744 281.345C185.819 280.586 186.994 279.971 188.236 279.517C189.408 278.91 190.659 278.461 191.955 278.182Z" fill="#263238"/>
<path d="M125.883 208.858C125.883 208.858 122.569 174.147 116.684 158.953L117.851 158.093L116.101 152.106L94.0833 149.495L94.4196 154.166C91.1704 155.597 88.516 158.066 86.8925 161.168C78.9797 177.552 82.9361 196.681 78.6929 232.127C78.6929 232.127 73.7474 248.752 78.8511 253.955L126.892 243.007L124.627 232.291C145.596 231.905 180.076 228.133 180.076 228.133L179.087 208.732C179.087 208.732 127.564 209.032 125.883 208.858" fill="#455A64"/>
<path d="M116.061 152.077C116.759 153.294 117.295 154.595 117.653 155.946C117.868 156.474 118.015 157.026 118.089 157.59C118.103 157.882 118.004 158.169 117.812 158.393C117.653 158.576 117.449 158.716 117.218 158.799C116.387 159.05 115.913 158.876 115.913 158.799C115.913 158.721 116.427 158.712 117.05 158.422C117.217 158.349 117.358 158.229 117.455 158.077C117.552 157.926 117.6 157.749 117.594 157.57C117.482 157.06 117.33 156.559 117.139 156.071C116.611 154.789 116.249 153.447 116.061 152.077V152.077Z" fill="#E0E0E0"/>
<path d="M121.313 177.919C121.313 178.074 112.411 178.19 101.531 178.19C90.6512 178.19 81.7493 178.074 81.7493 177.919C81.7493 177.764 90.6512 177.658 101.531 177.658C112.411 177.658 121.313 177.813 121.313 177.919Z" fill="#263238"/>
<path d="M119.246 168.142C119.246 168.287 111.393 168.413 101.719 168.413C92.0458 168.413 84.1924 168.287 84.1924 168.142C84.1924 167.996 92.036 167.88 101.719 167.88C111.403 167.88 119.246 167.996 119.246 168.142Z" fill="#263238"/>
<path d="M116.358 159.544C116.358 159.689 109.869 159.805 101.858 159.805C93.8458 159.805 87.3672 159.689 87.3672 159.544C87.3672 159.399 93.8557 159.273 101.858 159.273C109.859 159.273 116.358 159.437 116.358 159.544Z" fill="#263238"/>
<path d="M116.071 153.47C112.375 153.744 108.668 153.834 104.963 153.741C101.258 153.834 97.5512 153.744 93.8557 153.47C93.8557 153.325 98.8012 153.209 104.963 153.209C111.125 153.209 116.071 153.325 116.071 153.47Z" fill="#263238"/>
<path d="M122.708 187.33C122.708 187.475 113.341 187.591 101.788 187.591C90.2357 187.591 80.8689 187.475 80.8689 187.33C80.8689 187.184 90.2357 187.059 101.788 187.059C113.341 187.059 122.708 187.175 122.708 187.33Z" fill="#263238"/>
<path d="M124.409 196.779C124.409 196.924 114.666 197.04 102.649 197.04C90.6313 197.04 80.8887 196.924 80.8887 196.779C80.8887 196.633 90.6313 196.508 102.649 196.508C114.666 196.508 124.409 196.633 124.409 196.779Z" fill="#263238"/>
<path d="M125.477 205.483C125.477 205.638 115.487 205.754 103.173 205.754C90.8588 205.754 80.8689 205.638 80.8689 205.483C80.8689 205.328 90.8588 205.221 103.173 205.221C115.487 205.221 125.477 205.338 125.477 205.483Z" fill="#263238"/>
<path d="M174.161 215.009C174.161 215.154 153.093 215.27 127.109 215.27C101.126 215.27 80.0479 215.154 80.0479 215.009C80.0479 214.864 101.116 214.738 127.109 214.738C153.103 214.738 174.161 214.864 174.161 215.009Z" fill="#263238"/>
<path d="M174.527 222.63C174.527 222.785 153.301 222.901 127.119 222.901C100.938 222.901 79.7017 222.785 79.7017 222.63C79.7017 222.475 100.928 222.369 127.119 222.369C153.311 222.369 174.527 222.485 174.527 222.63Z" fill="#263238"/>
<path d="M123.875 232.031C123.875 232.185 113.737 232.301 101.224 232.301C88.7124 232.301 78.5642 232.185 78.5642 232.031C78.5642 231.876 88.7025 231.769 101.224 231.769C113.747 231.769 123.875 231.885 123.875 232.031Z" fill="#263238"/>
<path d="M126.18 240.754C126.18 240.899 115.151 241.025 101.551 241.025C87.9508 241.025 76.9224 240.899 76.9224 240.754C76.9224 240.609 87.9508 240.493 101.551 240.493C115.151 240.493 126.18 240.609 126.18 240.754Z" fill="#263238"/>
<path d="M84.2418 243.065C84.0835 243.065 83.9648 226.15 83.9648 205.289C83.9648 184.428 84.0835 167.513 84.2418 167.513C84.4 167.513 84.5089 184.428 84.5089 205.289C84.5089 226.15 84.3902 243.065 84.2418 243.065Z" fill="#263238"/>
<path d="M96.1208 242.137C95.9724 242.137 95.8538 221.46 95.8538 195.956C95.8538 170.453 95.9428 149.766 96.1208 149.766C96.2988 149.766 96.3978 170.434 96.3978 195.947C96.3978 221.46 96.2791 242.137 96.1208 242.137Z" fill="#263238"/>
<path d="M109.246 240.754C109.098 240.754 108.979 220.821 108.979 196.266C108.979 171.71 109.098 151.777 109.246 151.777C109.394 151.777 109.523 171.71 109.523 196.266C109.523 220.821 109.404 240.754 109.246 240.754Z" fill="#263238"/>
<path d="M120.275 243.036C120.126 243.036 120.008 227.388 120.008 208.094C120.008 188.799 120.126 173.141 120.275 173.141C120.423 173.141 120.552 188.79 120.552 208.094C120.552 227.398 120.423 243.036 120.275 243.036Z" fill="#263238"/>
<path d="M131.956 208.81C132.084 209.94 132.121 211.078 132.065 212.214C132.065 214.313 132.065 217.204 131.946 220.396C131.827 223.587 131.768 226.489 131.669 228.578C131.66 229.714 131.567 230.849 131.392 231.973C131.263 230.846 131.226 229.71 131.283 228.578C131.283 226.479 131.283 223.587 131.402 220.386C131.521 217.185 131.58 214.293 131.679 212.195C131.676 211.061 131.769 209.929 131.956 208.81V208.81Z" fill="#263238"/>
<path d="M144.409 209.216C144.531 210.275 144.567 211.342 144.517 212.407C144.517 214.341 144.517 217.078 144.419 220.067C144.32 223.055 144.24 225.773 144.151 227.736C144.155 228.8 144.062 229.861 143.875 230.908C143.752 229.856 143.715 228.795 143.766 227.736C143.766 225.802 143.766 223.055 143.875 220.057C143.983 217.059 144.043 214.351 144.142 212.388C144.132 211.325 144.222 210.263 144.409 209.216V209.216Z" fill="#263238"/>
<path d="M156.792 209.003C156.927 210.026 156.967 211.058 156.911 212.088C156.911 214.022 156.911 216.624 156.812 219.525C156.713 222.427 156.644 225.057 156.545 226.953C156.555 227.987 156.465 229.02 156.278 230.038C156.154 229.018 156.114 227.989 156.159 226.963C156.159 225.028 156.159 222.427 156.268 219.525C156.377 216.624 156.436 213.984 156.525 212.088C156.528 211.054 156.617 210.022 156.792 209.003V209.003Z" fill="#263238"/>
<path d="M169.225 208.664C169.361 209.655 169.401 210.655 169.344 211.653C169.344 213.5 169.344 216.053 169.245 218.868C169.146 221.682 169.087 224.235 168.988 226.073C168.99 227.074 168.904 228.074 168.731 229.061C168.594 228.071 168.551 227.071 168.602 226.073C168.602 224.226 168.602 221.672 168.701 218.858C168.8 216.044 168.869 213.481 168.958 211.643C168.955 210.644 169.044 209.647 169.225 208.664V208.664Z" fill="#263238"/>
<path d="M121.57 213.181C122.465 211.031 124.094 209.251 126.18 208.142C125.454 209.019 124.671 209.849 123.835 210.628C123.135 211.524 122.379 212.377 121.57 213.181Z" fill="#263238"/>
<path d="M124.409 213.413C124.202 212.441 124.278 211.433 124.627 210.501C124.977 209.569 125.587 208.752 126.387 208.142C126.506 208.248 125.675 209.235 125.141 210.686C124.607 212.136 124.627 213.413 124.409 213.413Z" fill="#263238"/>
<path d="M175.071 228.026C174.517 224.958 174.14 221.861 173.943 218.752C173.567 215.654 173.369 212.538 173.35 209.419C173.917 212.489 174.297 215.589 174.487 218.703C174.863 221.798 175.058 224.91 175.071 228.026V228.026Z" fill="#263238"/>
<path d="M175.694 213.075C175.694 213.142 175.417 213.336 175.377 213.819C175.369 213.947 175.386 214.075 175.429 214.197C175.471 214.318 175.538 214.429 175.625 214.525C175.736 214.623 175.875 214.685 176.023 214.704C176.172 214.723 176.322 214.698 176.456 214.632C176.595 214.579 176.716 214.488 176.804 214.37C176.892 214.251 176.943 214.11 176.95 213.964C176.937 213.836 176.898 213.712 176.835 213.599C176.772 213.487 176.687 213.387 176.584 213.307C176.198 213.007 175.832 213.104 175.813 213.026C175.793 212.949 176.179 212.678 176.802 213.026C176.984 213.122 177.139 213.26 177.253 213.429C177.367 213.598 177.436 213.792 177.455 213.993C177.469 214.244 177.402 214.493 177.263 214.705C177.125 214.917 176.922 215.08 176.683 215.173C176.448 215.282 176.185 215.315 175.93 215.27C175.674 215.225 175.44 215.103 175.259 214.922C175.13 214.769 175.04 214.589 174.997 214.395C174.954 214.202 174.959 214.001 175.012 213.81C175.19 213.104 175.704 213.007 175.694 213.075Z" fill="#263238"/>
<path d="M125.823 208.761H126.071L126.793 208.819C127.436 208.887 128.385 208.945 129.631 208.984C132.124 209.08 135.784 209.129 140.442 209.09C149.75 209.032 163.053 208.693 179.017 208.123H179.245V208.345C179.561 214.371 179.898 220.918 180.234 227.862V228.085H180.026C177.494 228.549 174.932 228.742 172.311 229.003L164.319 229.68C158.889 230.116 153.301 230.522 147.613 230.918L126.704 232.292C120.641 231.914 114.755 229.787 110.641 225.879C108.618 223.995 107.03 221.71 105.982 219.177C104.999 216.787 104.215 214.322 103.638 211.808C101.195 202.136 99.6815 193.326 98.4452 186.014C97.8517 182.358 97.3473 179.06 96.9219 176.178C96.4713 173.726 96.1773 171.248 96.0416 168.76C95.9609 167.181 96.3018 165.607 97.0308 164.195C97.2807 163.713 97.6155 163.278 98.0199 162.909C97.6733 163.326 97.3655 163.773 97.1 164.244C96.4253 165.654 96.1259 167.207 96.2296 168.76C96.4083 171.237 96.7386 173.701 97.2187 176.14C97.6835 179.041 98.2078 182.31 98.821 185.966C100.067 193.258 101.65 202.011 104.113 211.692C104.696 214.182 105.48 216.624 106.457 218.993C107.487 221.463 109.045 223.689 111.027 225.522C114.983 229.322 120.809 231.402 126.763 231.779L147.663 230.386L164.359 229.158L172.351 228.491C174.952 228.23 177.563 228.036 179.987 227.591L179.789 227.852C179.452 220.937 179.136 214.361 178.8 208.326L179.047 208.548C163.093 209.119 149.789 209.39 140.472 209.37C135.813 209.37 132.154 209.283 129.661 209.138C128.415 209.071 127.455 208.993 126.813 208.897L126.091 208.809C126 208.805 125.91 208.789 125.823 208.761Z" fill="#263238"/>
<path d="M125.824 208.761C125.605 208.271 125.433 207.763 125.309 207.243C125.022 206.276 124.627 204.825 124.152 203.045C123.163 199.496 122.025 194.554 120.759 189.099C119.493 183.645 118.336 178.702 117.466 175.134L116.477 170.907C116.322 170.396 116.219 169.871 116.17 169.341C116.382 169.833 116.554 170.34 116.684 170.859C116.991 171.826 117.387 173.267 117.871 175.047C118.86 178.586 120.067 183.519 121.333 188.983C122.599 194.447 123.638 199.293 124.528 202.958C124.923 204.68 125.26 206.101 125.517 207.194C125.659 207.708 125.762 208.232 125.824 208.761Z" fill="#263238"/>
<path d="M116.13 152.483C116.139 152.841 116.103 153.198 116.022 153.547C115.923 154.234 115.764 155.211 115.547 156.449C115.452 157.124 115.313 157.793 115.131 158.451C115.071 158.669 114.959 158.87 114.804 159.038C114.65 159.206 114.457 159.336 114.241 159.418C113.807 159.53 113.35 159.53 112.916 159.418C111.284 159.089 109.503 158.663 107.644 158.17C103.935 157.203 100.631 156.13 98.2277 155.404L95.389 154.534C95.0445 154.449 94.7123 154.322 94.3999 154.157C94.7656 154.167 95.1283 154.226 95.478 154.331C96.1704 154.485 97.1595 154.717 98.3761 155.046C100.809 155.675 104.133 156.661 107.832 157.658C109.682 158.151 111.442 158.625 113.064 158.944C113.412 159.055 113.783 159.078 114.142 159.012C114.29 158.959 114.422 158.873 114.529 158.76C114.636 158.647 114.713 158.511 114.756 158.364C114.973 157.745 115.062 157.029 115.211 156.429C115.468 155.23 115.695 154.263 115.853 153.586C115.891 153.207 115.984 152.836 116.13 152.483V152.483Z" fill="#263238"/>
<path d="M98.821 286.374L105.735 378.126L108.623 377.468L107.545 288.308L98.821 286.374Z" fill="#263238"/>
<path d="M69.524 289.565L48.5254 378.02H52.3235L82.3823 289.565H69.524Z" fill="#263238"/>
<path d="M125.062 289.565L153.706 378.02H156.773L134.013 289.565H125.062Z" fill="#263238"/>
<path d="M128.9 295.504L64.707 336.52V338.764L130.69 295.504H128.9Z" fill="#263238"/>
<path d="M74.4299 295.504L143.983 341.269V337.768L76.4675 293.502L74.4299 295.504Z" fill="#263238"/>
<path d="M59.9295 291.084L142.638 289.623C143.379 289.61 144.109 289.444 144.78 289.138C145.451 288.831 146.049 288.39 146.535 287.843C147.02 287.296 147.383 286.655 147.6 285.962C147.816 285.269 147.881 284.54 147.791 283.821C147.642 282.548 147.013 281.376 146.027 280.532C145.042 279.688 143.77 279.233 142.46 279.256L58.5745 280.571L59.9295 291.084Z" fill="#5351C0"/>
<g opacity="0.2">
<path d="M59.9295 291.084L142.638 289.623C143.379 289.61 144.109 289.444 144.78 289.138C145.451 288.831 146.049 288.39 146.535 287.843C147.02 287.296 147.383 286.655 147.6 285.962C147.816 285.269 147.881 284.54 147.791 283.821C147.642 282.548 147.013 281.376 146.027 280.532C145.042 279.688 143.77 279.233 142.46 279.256L58.5745 280.571L59.9295 291.084Z" fill="black"/>
</g>
<path d="M51.5025 228.568L59.8505 291.084L125.062 289.565L124.894 251.596C124.917 250.104 124.618 248.623 124.018 247.252C123.418 245.88 122.53 244.646 121.41 243.632C120.291 242.618 118.966 241.845 117.521 241.364C116.076 240.884 114.544 240.705 113.025 240.841L63.3025 245.232L56.7547 178.973L50.1475 178.422C49.4574 178.373 48.7647 178.475 48.12 178.72C47.4753 178.966 46.8948 179.349 46.421 179.842C45.9471 180.335 45.5917 180.926 45.3808 181.57C45.17 182.214 45.1088 182.897 45.202 183.567L51.5025 228.568Z" fill="#5351C0"/>
</svg>
