<svg width="375" height="366" viewBox="0 0 375 366" fill="none" xmlns="http://www.w3.org/2000/svg">
<path d="M54.8594 340.19C128.118 374.298 246.832 374.298 320.09 340.19C393.349 306.083 393.257 250.833 320.09 216.726C246.923 182.618 128.155 182.627 54.9325 216.726C-18.2895 250.824 -18.3078 306.101 54.8594 340.19Z" fill="#EBEBEB"/>
<path d="M290.897 86.6843L294.262 84.1555V76.9176C294.262 71.1898 298.936 64.5327 304.021 61.6643C309.106 58.7959 313.231 61.1192 313.231 66.8559V67.9014C314.3 66.2055 315.76 64.7767 317.493 63.7284V63.7284C321.151 61.6643 324.124 63.3353 324.124 67.4636V67.9461L330.855 64.1484C333.261 62.7902 335.218 63.8893 335.218 66.6057C335.135 68.0843 334.697 69.5231 333.939 70.8054C333.181 72.0877 332.125 73.1776 330.855 73.9866L290.897 96.5225C288.491 97.8807 286.534 96.7816 286.534 94.0652C286.617 92.5866 287.055 91.1479 287.813 89.8655C288.571 88.5832 289.627 87.4934 290.897 86.6843V86.6843Z" fill="#EBEBEB"/>
<path d="M49.4543 283.395C48.9787 283.315 48.4756 283.172 47.9086 283.029C45.9975 282.528 44.114 281.931 42.2656 281.241C38.5788 279.934 35.1019 278.12 31.9399 275.853C30.2058 274.648 28.7221 273.132 27.5681 271.385C26.4148 269.617 26.0052 267.482 26.4249 265.425C26.6573 264.41 27.182 263.481 27.9372 262.748C28.6924 262.015 29.6465 261.509 30.6869 261.288C31.6655 261.136 32.6807 261.288 33.6593 261.118C34.1604 261.079 34.6355 260.885 35.0156 260.563C35.3956 260.242 35.6606 259.81 35.772 259.331C35.7759 258.783 35.6239 258.245 35.333 257.776C33.5561 254.596 32.0274 251.29 30.7601 247.885C29.6992 244.846 29.6352 241.56 30.5771 238.484C31.377 235.424 33.0896 232.665 35.4976 230.558C36.5951 229.665 38.1133 228.896 39.4395 229.459C39.8612 229.669 40.2315 229.965 40.5251 230.327C40.8187 230.69 41.0287 231.11 41.1406 231.559C41.3453 232.457 41.4496 233.374 41.4516 234.293C41.5822 236.272 41.9694 238.227 42.604 240.11C42.888 241.287 43.5794 242.332 44.5612 243.068C46.2623 244.105 48.6037 243.292 50.4146 244.131C52.2255 244.971 52.8474 246.902 52.9297 248.724C53.012 250.547 52.637 252.388 52.8474 254.202C52.8842 254.774 53.0699 255.328 53.387 255.81C53.8905 256.338 54.4734 256.787 55.1156 257.142C55.9593 257.824 56.6355 258.682 57.0946 259.653C57.5536 260.624 57.7837 261.684 57.7679 262.754C57.7124 264.891 57.2952 267.004 56.5332 269.009C55.6935 271.81 55.0819 274.673 54.704 277.569C54.4059 279.343 53.6364 281.01 52.4724 282.403C52.1272 282.843 51.6557 283.172 51.1181 283.349C50.5805 283.525 50.0013 283.541 49.4543 283.395V283.395Z" fill="#5351C0"/>
<path d="M52.4905 281.912C52.4366 281.911 52.3838 281.897 52.3373 281.87C52.2908 281.843 52.2522 281.805 52.2253 281.76C41.552 264.174 38.1772 251.79 37.2169 244.489C36.1651 236.536 37.6467 232.81 37.7108 232.658C37.7258 232.621 37.7482 232.586 37.7768 232.557C37.8054 232.528 37.8395 232.505 37.8773 232.489C37.9151 232.473 37.9558 232.464 37.997 232.463C38.0383 232.462 38.0793 232.469 38.1177 232.484C38.1562 232.499 38.1913 232.521 38.221 232.548C38.2508 232.576 38.2746 232.61 38.2912 232.647C38.3078 232.684 38.3167 232.723 38.3176 232.764C38.3184 232.804 38.3111 232.844 38.2961 232.882C38.2961 232.944 36.8145 236.688 37.8479 244.498C38.7625 251.727 42.1831 264.005 52.7649 281.456C52.7863 281.491 52.8004 281.529 52.8065 281.569C52.8125 281.609 52.8104 281.649 52.8002 281.689C52.79 281.728 52.7719 281.764 52.747 281.797C52.7221 281.829 52.6908 281.856 52.6551 281.876C52.6038 281.9 52.5475 281.912 52.4905 281.912V281.912Z" fill="white"/>
<path d="M46.7838 271.716C33.7783 270.322 30.1016 266.149 29.9462 265.97C29.8881 265.913 29.8555 265.836 29.8555 265.756C29.8555 265.676 29.8881 265.598 29.9462 265.541C29.9744 265.512 30.0084 265.489 30.0461 265.473C30.0839 265.457 30.1246 265.449 30.1657 265.449C30.2068 265.449 30.2474 265.457 30.2852 265.473C30.3229 265.489 30.357 265.512 30.3852 265.541V265.541C30.3852 265.586 34.0984 269.705 46.8021 271.073C46.8765 271.085 46.9441 271.123 46.9928 271.179C47.0415 271.236 47.0682 271.307 47.0682 271.381C47.0682 271.455 47.0415 271.526 46.9928 271.583C46.9441 271.639 46.8765 271.677 46.8021 271.689L46.7838 271.716Z" fill="white"/>
<path d="M43.1163 263.799C43.0471 263.799 42.9797 263.777 42.9243 263.737C42.8916 263.712 42.8643 263.681 42.8439 263.647C42.8234 263.612 42.8102 263.573 42.8051 263.533C42.8 263.493 42.8031 263.453 42.8141 263.414C42.8251 263.375 42.8439 263.339 42.8694 263.308C46.9942 258.009 47.2594 249.323 47.2686 249.234C47.2685 249.194 47.2769 249.154 47.2932 249.117C47.3095 249.08 47.3333 249.046 47.3633 249.019C47.3933 248.991 47.4288 248.97 47.4676 248.956C47.5063 248.942 47.5475 248.937 47.5887 248.939C47.6299 248.939 47.6707 248.947 47.7086 248.963C47.7464 248.979 47.7806 249.002 47.8088 249.032C47.8371 249.061 47.8589 249.096 47.873 249.133C47.887 249.171 47.893 249.212 47.8905 249.252C47.8905 249.618 47.6161 258.187 43.3724 263.674C43.3426 263.713 43.3039 263.744 43.2595 263.766C43.2151 263.788 43.166 263.799 43.1163 263.799Z" fill="white"/>
<path d="M309.664 229.084C310.926 220.774 310.945 210.632 304.698 195.816C298.451 181.001 300.39 173.236 307.085 171.118C313.78 169 328.614 180.25 328.066 199.167C327.526 217.432 314.896 232.515 314.896 232.515L309.664 229.084Z" fill="#5351C0"/>
<path opacity="0.1" d="M309.664 229.084C310.926 220.774 310.945 210.632 304.698 195.816C298.451 181.001 300.39 173.236 307.085 171.118C313.78 169 328.614 180.25 328.066 199.167C327.526 217.432 314.896 232.515 314.896 232.515L309.664 229.084Z" fill="black"/>
<path d="M312.929 231.532C312.89 231.54 312.85 231.54 312.811 231.532C312.772 231.518 312.736 231.495 312.707 231.467C312.677 231.438 312.654 231.404 312.638 231.366C312.623 231.328 312.615 231.288 312.617 231.247C312.618 231.207 312.628 231.167 312.646 231.13C312.71 230.978 319.551 215.367 319.048 201.195C318.481 184.888 309.234 175.916 309.143 175.827C309.114 175.799 309.09 175.765 309.074 175.728C309.058 175.691 309.049 175.651 309.049 175.611C309.048 175.571 309.056 175.531 309.071 175.494C309.087 175.456 309.11 175.422 309.138 175.394C309.167 175.365 309.202 175.342 309.239 175.326C309.277 175.31 309.318 175.302 309.359 175.302C309.4 175.301 309.441 175.309 309.48 175.324C309.518 175.339 309.553 175.361 309.582 175.389C309.673 175.478 319.094 184.602 319.642 201.178C320.146 215.475 313.24 231.219 313.185 231.371C313.16 231.417 313.123 231.455 313.078 231.483C313.034 231.511 312.982 231.528 312.929 231.532V231.532Z" fill="white"/>
<path d="M310.03 236.456C310.03 236.456 313.56 216.368 326.09 204.823C338.62 193.278 359.509 191.08 366.058 197.246C372.606 203.411 368.408 209.407 359.18 211.489C348.753 213.839 342.361 217.95 348.753 221.095C354.689 224.008 354.022 230.326 347.839 233.355C337.961 238.198 320.127 233.587 315.828 243.113L310.03 236.456Z" fill="#5351C0"/>
<path d="M312.682 240.709H312.582C312.504 240.681 312.44 240.624 312.404 240.551C312.368 240.477 312.363 240.393 312.39 240.316C315.278 232.461 319.729 225.242 325.487 219.076C329.999 214.307 335.283 210.295 341.126 207.2C346.932 204.07 353.252 201.953 359.802 200.945C359.886 200.938 359.969 200.962 360.034 201.014C360.099 201.066 360.14 201.141 360.15 201.222C360.155 201.262 360.152 201.303 360.141 201.341C360.13 201.38 360.111 201.416 360.085 201.448C360.06 201.48 360.028 201.506 359.992 201.525C359.956 201.545 359.916 201.557 359.875 201.562C353.391 202.579 347.139 204.696 341.401 207.817C332.255 212.669 319.844 222.293 312.957 240.566C312.927 240.61 312.886 240.646 312.838 240.671C312.79 240.696 312.737 240.709 312.682 240.709V240.709Z" fill="white"/>
<path d="M319.039 228.074C318.973 228.074 318.909 228.055 318.855 228.018C318.801 227.981 318.76 227.929 318.737 227.869C318.71 227.791 318.716 227.707 318.751 227.634C318.787 227.56 318.851 227.504 318.929 227.475C329.621 223.83 344.949 225.742 345.105 225.76C345.145 225.765 345.185 225.778 345.22 225.798C345.256 225.818 345.287 225.845 345.312 225.877C345.337 225.909 345.356 225.946 345.367 225.984C345.377 226.023 345.38 226.064 345.374 226.104C345.369 226.144 345.356 226.182 345.335 226.217C345.314 226.252 345.287 226.282 345.254 226.307C345.222 226.331 345.184 226.349 345.144 226.36C345.105 226.37 345.063 226.373 345.022 226.367C344.876 226.367 329.685 224.455 319.139 228.056C319.108 228.07 319.073 228.077 319.039 228.074V228.074Z" fill="white"/>
<path d="M62.5876 22.0791C62.5112 20.699 62.1028 19.356 61.3957 18.159C60.6885 16.962 59.7026 15.9447 58.5177 15.1897L55.1978 13.3132C53.9366 12.6876 52.5422 12.3616 51.1278 12.3616C49.7135 12.3616 48.319 12.6876 47.0579 13.3132L20.8 28.1196C19.5495 28.8874 18.5276 29.9628 17.8368 31.2382C17.2419 32.2515 16.8682 33.3742 16.7393 34.5355C16.7393 34.6963 16.7393 34.8572 16.7393 35.018V64.6309C16.8167 66.0118 17.2265 67.3553 17.9353 68.5524C18.644 69.7495 19.6318 70.7663 20.8183 71.5204L24.1291 73.3969L24.5499 73.6113L24.7053 73.6739L24.9889 73.79L25.2084 73.8705L25.4461 73.9509L25.7114 74.0224L25.9126 74.076L26.2236 74.1475H26.379L26.754 74.21H26.8272C28.7022 74.5103 30.6264 74.2127 32.3147 73.3611L58.5177 58.5904C59.7044 57.8344 60.6922 56.8159 61.4009 55.6174C62.1096 54.4189 62.5193 53.0741 62.5968 51.692L62.5876 22.0791Z" fill="#5351C0"/>
<path opacity="0.4" d="M29.3789 37.5647C28.9087 38.3256 28.5573 39.1508 28.3363 40.0131C28.8823 37.7797 30.2873 35.8374 32.2599 34.5891L58.5177 19.7826C60.7676 18.5137 62.5968 19.5414 62.5968 22.0791C62.5193 20.6982 62.1096 19.3547 61.4008 18.1576C60.6921 16.9606 59.7043 15.9437 58.5177 15.1897L55.1978 13.3132C53.9366 12.6876 52.5422 12.3616 51.1279 12.3616C49.7135 12.3616 48.3191 12.6876 47.0579 13.3132L20.8001 28.1196C19.5496 28.8874 18.5276 29.9628 17.8368 31.2382L17.9191 31.0952L29.3789 37.5647Z" fill="white"/>
<path opacity="0.1" d="M31.4184 73.7722L31.2264 73.8258L30.8971 73.8883H30.5861H30.266C29.8878 73.8612 29.5258 73.7277 29.2234 73.5041V73.5041L29.0771 73.3701L28.9948 73.2986L28.885 73.1645L28.7935 73.0484L28.7021 72.9054L28.6198 72.7624C28.6198 72.7624 28.6198 72.6641 28.5558 72.6105C28.5275 72.5556 28.5031 72.4989 28.4826 72.4407L28.3363 72.2978V72.1191C28.3363 72.0654 28.3363 72.0118 28.3363 71.9582C28.3312 71.8719 28.3312 71.7854 28.3363 71.6991C28.3312 71.6516 28.3312 71.6036 28.3363 71.5561C28.3363 71.4221 28.3363 71.2791 28.3363 71.1272V41.4874C28.3368 41.1671 28.3643 40.8473 28.4186 40.5313V40.5313C28.4186 40.4152 28.4186 40.2901 28.4917 40.1739V40.0309C28.7012 39.1707 29.0403 38.3455 29.4978 37.5825L17.9191 31.0952L17.8368 31.2382C17.2419 32.2515 16.8682 33.3741 16.7393 34.5355C16.7393 34.6963 16.7393 34.8572 16.7393 35.018V64.6309C16.8167 66.0118 17.2265 67.3553 17.9353 68.5524C18.644 69.7495 19.6318 70.7663 20.8183 71.5204L24.1291 73.3969L24.5499 73.6113L24.7053 73.6739L24.9889 73.79L25.2084 73.8705L25.4461 73.9509L25.7114 74.0224L25.9126 74.076L26.2236 74.1475H26.379L26.754 74.21H26.8272C28.3711 74.4392 29.9491 74.2887 31.4184 73.7722V73.7722Z" fill="black"/>
<path d="M51.1187 49.2346C52.8725 45.4069 53.7705 41.2578 53.7527 37.0641C54.6096 35.7654 55.3297 34.3852 55.902 32.9448C55.1636 33.7906 54.3325 34.5547 53.4235 35.2234C54.3459 33.9636 54.9906 32.5305 55.3167 31.0146C54.5251 32.0898 53.6039 33.0679 52.5729 33.9277C52.1169 33.5962 51.5636 33.4172 50.9952 33.4172C50.4268 33.4172 49.8736 33.5962 49.4176 33.9277C46.6738 35.5004 44.5885 40.0397 45.2196 43.203C41.6344 44.9901 38.4516 44.5433 36.3298 42.3094C35.1957 45.4726 35.7444 48.475 37.6651 49.0558C37.0773 49.4007 36.388 49.5423 35.7079 49.458C35.7079 52.1387 37.0889 53.7203 39.165 53.0858C38.6147 53.6213 37.9492 54.0303 37.2169 54.2832C37.7657 56.2044 39.3571 56.9639 41.2503 55.9185C39.7765 58.4788 37.5448 60.544 34.8481 61.8428C36.7505 62.3611 39.0187 62.0126 41.4606 60.6365C45.7226 58.2328 48.9968 53.8811 51.0912 49.172" fill="white"/>
<path d="M62.5878 129.906C62.5057 128.532 62.0947 127.196 61.3878 126.006C60.6809 124.816 59.6979 123.804 58.5178 123.052L55.1979 121.176C53.9367 120.55 52.5423 120.224 51.128 120.224C49.7136 120.224 48.3192 120.55 47.058 121.176L20.8093 135.982C19.5588 136.75 18.5369 137.826 17.846 139.101C17.2512 140.114 16.8775 141.237 16.7485 142.398C16.7485 142.559 16.7485 142.72 16.7485 142.881V172.494C16.8286 173.866 17.2368 175.201 17.9404 176.391C18.6441 177.581 19.6235 178.594 20.8002 179.347L24.111 181.224L24.5317 181.429L24.6872 181.501L24.9707 181.617L25.1902 181.698L25.428 181.778L25.6932 181.849L25.8944 181.903L26.2054 181.975H26.3609L26.7359 182.037H26.809C28.689 182.324 30.6134 182.01 32.2966 181.143L58.5178 166.417C59.7046 165.661 60.6923 164.643 61.401 163.444C62.1097 162.246 62.5194 160.901 62.5969 159.519L62.5878 129.906Z" fill="#5351C0"/>
<path opacity="0.4" d="M29.3787 145.392C28.9212 146.155 28.5821 146.98 28.3726 147.84C28.9096 145.613 30.3009 143.671 32.2596 142.416L58.5175 127.61C60.7674 126.341 62.5966 127.368 62.5966 129.906C62.5135 128.531 62.101 127.195 61.3925 126.005C60.684 124.814 59.6992 123.803 58.5175 123.052L55.1975 121.176C53.9364 120.55 52.542 120.224 51.1276 120.224C49.7132 120.224 48.3188 120.55 47.0577 121.176L20.809 135.982C19.5585 136.75 18.5366 137.826 17.8457 139.101L17.928 138.958L29.3787 145.392Z" fill="white"/>
<path opacity="0.1" d="M31.4187 181.599L31.2266 181.653C31.119 181.685 31.0089 181.709 30.8974 181.724V181.724H30.5864H30.2663C29.8881 181.697 29.526 181.564 29.2237 181.34V181.34L29.0774 181.206L28.995 181.135L28.8853 180.992L28.7938 180.884L28.7024 180.741L28.6201 180.598C28.6201 180.545 28.6201 180.5 28.556 180.447C28.5262 180.389 28.5017 180.329 28.4829 180.268L28.428 180.116L28.3731 179.901C28.3731 179.901 28.3731 179.803 28.3731 179.75C28.3681 179.663 28.3681 179.577 28.3731 179.49C28.3681 179.443 28.3681 179.395 28.3731 179.347C28.3731 179.213 28.3731 179.062 28.3731 178.91V149.315C28.3736 148.994 28.4012 148.674 28.4554 148.358V148.358C28.4554 148.233 28.4554 148.117 28.5286 148.001V147.858C28.7381 146.998 29.0771 146.173 29.5346 145.41L18.0748 138.94L17.9925 139.083C17.3977 140.096 17.024 141.219 16.895 142.38C16.895 142.541 16.895 142.702 16.895 142.863V172.476C16.9558 173.839 17.3403 175.169 18.0181 176.362C18.6959 177.554 19.6484 178.577 20.8003 179.347L24.1111 181.224L24.5318 181.429L24.6873 181.501L24.9708 181.617L25.1903 181.698L25.4281 181.778L25.6934 181.849L25.8946 181.903L26.2055 181.975H26.361L26.736 182.037H26.8092C28.359 182.269 29.9437 182.119 31.4187 181.599V181.599Z" fill="black"/>
<path d="M45.384 143.605C48.0729 142.086 48.393 141.925 49.454 141.389C50.0124 141.061 50.6361 140.854 51.2831 140.781C51.6967 140.74 52.1103 140.858 52.4355 141.112C52.8011 141.383 53.0674 141.762 53.1946 142.193C53.4303 142.918 53.5476 143.675 53.5422 144.436C53.5879 145.785 53.5971 146.223 53.5971 149.699C53.5971 153.175 53.5971 153.613 53.5422 155.06C53.5261 155.946 53.4096 156.827 53.1946 157.687C53.0292 158.36 52.7739 159.009 52.4355 159.617C52.1322 160.213 51.7442 160.763 51.2831 161.253C50.7454 161.831 50.1301 162.336 49.454 162.754C48.393 163.415 48.0729 163.647 45.384 165.122C42.6952 166.596 42.3842 166.811 41.3233 167.347C40.7641 167.671 40.1405 167.875 39.4941 167.945C39.0776 167.987 38.661 167.868 38.3326 167.615C37.9722 167.341 37.7098 166.962 37.5826 166.534C37.3475 165.811 37.2302 165.058 37.2351 164.3C37.2351 162.941 37.171 162.513 37.171 159.037C37.171 155.561 37.171 155.114 37.2351 153.675C37.2486 152.772 37.3652 151.873 37.5826 150.994C37.7506 150.323 38.0025 149.675 38.3326 149.064C38.6436 148.471 39.0342 147.921 39.4941 147.429C40.0298 146.848 40.6454 146.343 41.3233 145.928C42.3842 145.267 42.7043 145.034 45.384 143.56V143.605ZM45.384 141.201C42.6403 142.738 42.311 142.988 41.241 143.614C40.3375 144.165 39.5158 144.836 38.799 145.606C38.0724 146.356 37.4568 147.201 36.9698 148.117C36.4598 149.059 36.0697 150.058 35.8083 151.093C35.5237 152.222 35.3673 153.379 35.3419 154.542C35.3419 155.963 35.2778 156.418 35.2778 159.975C35.2778 163.531 35.2778 163.978 35.3419 165.336C35.342 166.328 35.4994 167.314 35.8083 168.258C36.0109 168.916 36.4166 169.496 36.9698 169.92C37.4887 170.316 38.1447 170.498 38.799 170.43C39.6597 170.346 40.4923 170.084 41.241 169.661C42.311 169.116 42.6494 168.937 45.384 167.4C48.1187 165.863 48.4571 165.613 49.5363 164.979C51.3341 163.892 52.7949 162.348 53.7617 160.511C54.2704 159.57 54.6575 158.57 54.9141 157.535C55.2023 156.409 55.3618 155.256 55.3897 154.095C55.3897 152.665 55.4445 152.21 55.4445 148.653C55.4445 145.097 55.4445 144.659 55.3897 143.292C55.3884 142.302 55.2279 141.319 54.9141 140.379C54.7129 139.72 54.3109 139.137 53.7617 138.708C53.2424 138.314 52.5857 138.134 51.9325 138.207C51.0709 138.286 50.2373 138.549 49.4906 138.976C48.4113 139.512 48.0729 139.691 45.3383 141.237L45.384 141.201ZM45.3383 147.608C42.4848 149.216 40.1709 153.532 40.1709 157.249C40.1709 160.967 42.4848 162.673 45.3383 161.065C48.1918 159.457 50.5057 155.141 50.5057 151.423C50.5057 147.706 48.1918 145.999 45.3383 147.608ZM45.3383 158.706C43.5091 159.751 41.9909 158.643 41.9909 156.231C41.9909 153.818 43.4908 151.012 45.3383 149.976C47.1858 148.939 48.6949 150.038 48.6949 152.46C48.6949 154.881 47.1949 157.669 45.3383 158.715V158.706ZM51.9142 143.64C51.9142 142.747 51.3746 142.371 50.707 142.747C50.3383 143.005 50.037 143.344 49.8273 143.736C49.6175 144.129 49.5053 144.565 49.4997 145.008C49.4997 145.901 50.0393 146.267 50.707 145.901C51.0744 145.644 51.3749 145.306 51.5846 144.915C51.7943 144.524 51.9072 144.091 51.9142 143.649" fill="white"/>
<path d="M108.281 60.9583C108.209 59.5813 107.807 58.2401 107.106 57.0432C106.405 55.8463 105.426 54.8274 104.247 54.0689L100.927 52.1924C99.6646 51.5668 98.2687 51.2407 96.8529 51.2407C95.437 51.2407 94.0411 51.5668 92.7784 52.1924L66.5297 66.9989C65.4196 67.7184 64.4825 68.6646 63.783 69.7723C63.0835 70.8799 62.6383 72.1226 62.478 73.4147C62.478 73.5756 62.478 73.7364 62.478 73.8972V103.51C62.5538 104.89 62.9618 106.234 63.669 107.431C64.3762 108.628 65.3626 109.645 66.5479 110.4L69.8679 112.276L70.2886 112.491L70.4441 112.553L70.7276 112.669L70.938 112.75L71.1849 112.83L71.441 112.902L71.6514 112.955L71.9623 113.027H72.1178L72.4928 113.089H72.5659C74.441 113.389 76.3649 113.091 78.0535 112.24L104.247 97.4696C105.433 96.7132 106.419 95.6944 107.126 94.4958C107.833 93.2973 108.241 91.9527 108.317 90.5713L108.281 60.9583Z" fill="#5351C0"/>
<path opacity="0.4" d="M75.0807 76.4439C74.6245 77.2086 74.2826 78.033 74.0655 78.8923C74.6048 76.6633 75.9995 74.7216 77.9617 73.4683L104.247 58.6619C106.497 57.393 108.317 58.4206 108.317 60.9583C108.241 59.5781 107.833 58.2348 107.126 57.0377C106.419 55.8406 105.432 54.8234 104.247 54.0689L100.927 52.1924C99.6643 51.5668 98.2684 51.2407 96.8525 51.2407C95.4367 51.2407 94.0408 51.5668 92.778 52.1924L66.5293 66.9989C65.2836 67.7694 64.2653 68.8444 63.5752 70.1174L63.6484 69.9745L75.0807 76.4439Z" fill="white"/>
<path opacity="0.1" d="M77.1204 112.652L76.9192 112.705C76.8147 112.737 76.7076 112.761 76.5991 112.777V112.777H76.2973H75.8949C75.5197 112.748 75.1609 112.615 74.8614 112.392V112.392L74.7151 112.258L74.6327 112.187L74.5138 112.044L74.4315 111.937C74.3958 111.892 74.3651 111.844 74.3401 111.794L74.2578 111.651C74.2578 111.606 74.2578 111.552 74.1846 111.499L74.1206 111.329L74.0657 111.168C74.0657 111.103 74.0474 111.031 74.0108 110.954C74.0056 110.903 74.0056 110.852 74.0108 110.802C74.0058 110.715 74.0058 110.629 74.0108 110.543C74.0058 110.495 74.0058 110.447 74.0108 110.4C74.0015 110.257 74.0015 110.114 74.0108 109.971V80.3668C74.0159 80.0466 74.0434 79.7272 74.0931 79.4107V79.4107C74.0931 79.2856 74.0931 79.1694 74.1572 79.0532C74.1607 79.0056 74.1607 78.9579 74.1572 78.9103C74.3743 78.051 74.7161 77.2265 75.1723 76.4619L63.7034 69.9924L63.6302 70.1354C63.0314 71.147 62.6575 72.2705 62.5327 73.4327C62.5327 73.5935 62.5327 73.7544 62.5327 73.9152V103.528C62.6085 104.908 63.0165 106.252 63.7237 107.449C64.4309 108.646 65.4173 109.663 66.6026 110.418L69.9226 112.294L70.3433 112.509L70.4988 112.571L70.7823 112.687L70.9927 112.768L71.2396 112.848L71.4957 112.92L71.706 112.973L72.017 113.045H72.1725L72.5475 113.107H72.6206C74.1362 113.316 75.6809 113.159 77.1204 112.652Z" fill="black"/>
<path d="M88.2512 101.893L92.6321 99.4177V85.1206L95.6868 83.396L96.0069 78.4277L92.6321 80.331V77.6056C92.6321 76.4797 92.8058 75.9346 93.6381 75.47L96.0069 74.1296V69.1614L92.9796 70.877C91.4818 71.6484 90.2409 72.8219 89.4032 74.2595C88.5654 75.697 88.1657 77.3386 88.2512 78.9907V82.8419L85.9556 84.1019V88.945L88.2329 87.6672L88.2512 101.893Z" fill="white"/>
<path d="M48.9695 288.363L153.9 347.535C155.133 348.148 156.496 348.467 157.879 348.467C159.262 348.467 160.625 348.148 161.857 347.535L325.496 255.239C327.691 253.996 327.691 251.995 325.496 250.771L220.565 191.563C219.334 190.951 217.972 190.632 216.591 190.632C215.21 190.632 213.848 190.951 212.617 191.563L48.9695 283.895C46.7745 285.111 46.7745 287.112 48.9695 288.363Z" fill="#E0E0E0"/>
<path d="M52.2713 274.066L154.23 331.585C155.476 332.202 156.853 332.524 158.249 332.524C159.646 332.524 161.023 332.202 162.269 331.585L323.923 240.414C326.145 239.163 326.145 237.135 323.923 235.884L221.955 178.365C220.709 177.748 219.332 177.426 217.935 177.426C216.539 177.426 215.162 177.748 213.916 178.365L52.2713 269.598C50.0489 270.805 50.0489 272.833 52.2713 274.066Z" fill="#37474F"/>
<path d="M154.23 331.603L52.2713 274.066C50.2866 272.949 50.0763 271.207 51.6402 269.956C50.6464 270.725 49.8304 271.692 49.2457 272.791C48.6609 273.891 48.3206 275.099 48.2471 276.336V280.026C48.3232 281.39 48.7272 282.717 49.4264 283.9C50.1255 285.083 51.1002 286.089 52.2713 286.835L154.23 344.345C155.467 344.988 156.853 345.311 158.254 345.284V332.541C156.853 332.568 155.467 332.245 154.23 331.603V331.603Z" fill="#455A64"/>
<path d="M323.923 253.174C325.092 252.43 326.066 251.425 326.763 250.244C327.461 249.062 327.863 247.736 327.938 246.374V242.684C327.865 241.447 327.525 240.239 326.94 239.139C326.355 238.039 325.539 237.073 324.545 236.304C326.109 237.555 325.907 239.297 323.923 240.414L162.269 331.603C161.034 332.244 159.652 332.567 158.254 332.541V345.301C159.652 345.327 161.034 345.004 162.269 344.363L323.923 253.174Z" fill="#263238"/>
<path d="M106.991 300.632C108.721 301.491 110.634 301.939 112.575 301.939C114.515 301.939 116.429 301.491 118.158 300.632C121.241 298.845 121.241 296.075 118.158 294.332C116.427 293.478 114.514 293.032 112.575 293.032C110.635 293.032 108.723 293.478 106.991 294.332C103.946 296.075 103.946 298.898 106.991 300.632Z" fill="#263238"/>
<path d="M170.098 319.397L72.5019 264.308C71.1758 263.558 71.1758 262.333 72.5019 261.583L199.63 189.847C200.377 189.477 201.202 189.284 202.04 189.284C202.877 189.284 203.703 189.477 204.45 189.847L302.046 244.936C303.381 245.686 303.381 246.901 302.046 247.616L174.918 319.361C174.174 319.736 173.349 319.935 172.512 319.941C171.675 319.948 170.848 319.761 170.098 319.397V319.397Z" fill="white"/>
<path d="M265.563 211.168C266.001 211.384 266.485 211.496 266.976 211.496C267.466 211.496 267.95 211.384 268.389 211.168C268.541 211.093 268.669 210.979 268.758 210.838C268.848 210.697 268.895 210.534 268.895 210.368C268.895 210.202 268.848 210.039 268.758 209.898C268.669 209.756 268.541 209.642 268.389 209.568C267.95 209.352 267.466 209.24 266.976 209.24C266.485 209.24 266.001 209.352 265.563 209.568C264.776 210.006 264.776 210.721 265.563 211.168Z" fill="#263238"/>
<path d="M270.081 223.695C270.957 224.127 271.925 224.352 272.907 224.352C273.888 224.352 274.856 224.127 275.733 223.695C277.297 222.802 277.297 221.381 275.733 220.505C274.858 220.069 273.889 219.842 272.907 219.842C271.924 219.842 270.956 220.069 270.081 220.505C268.517 221.345 268.517 222.811 270.081 223.695Z" fill="#263238"/>
<path d="M266.13 218.138C267.172 217.557 267.117 216.574 266.002 215.948L247.399 205.449C246.801 205.139 246.136 204.97 245.46 204.958C244.783 204.946 244.112 205.089 243.503 205.377C242.46 205.967 242.515 206.95 243.631 207.575L262.233 218.075C262.832 218.384 263.497 218.55 264.174 218.561C264.851 218.572 265.521 218.427 266.13 218.138Z" fill="#263238"/>
<path d="M197.983 204.662C196.648 205.413 196.648 206.628 197.983 207.343L272.34 249.296C273.088 249.666 273.915 249.859 274.754 249.859C275.593 249.859 276.42 249.666 277.169 249.296L293.631 240.03L214.446 195.351L197.983 204.662Z" fill="#EBEBEB"/>
<path d="M198.533 211.945L192.597 208.603C192.349 208.48 192.075 208.416 191.797 208.416C191.518 208.416 191.244 208.48 190.996 208.603L187.256 210.712C186.807 210.962 186.807 211.364 187.256 211.605L187.768 211.9L185.875 212.883C185.655 212.999 185.673 213.071 185.929 213.053L189.259 212.74L193.191 214.956C193.442 215.076 193.717 215.139 193.996 215.139C194.275 215.139 194.55 215.076 194.801 214.956L198.533 212.847C198.626 212.813 198.707 212.751 198.764 212.67C198.821 212.59 198.852 212.494 198.852 212.396C198.852 212.298 198.821 212.203 198.764 212.122C198.707 212.041 198.626 211.98 198.533 211.945Z" fill="#EBEBEB"/>
<path d="M200.279 220.666L199.84 219.773C199.273 218.602 198.926 217.012 200.572 216.091C201.196 215.783 201.885 215.622 202.584 215.622C203.283 215.622 203.972 215.783 204.596 216.091C205.456 216.574 205.648 217.297 205.172 217.878C206.24 217.593 207.379 217.707 208.364 218.2C208.609 218.278 208.821 218.429 208.973 218.632C209.124 218.835 209.205 219.079 209.205 219.33C209.205 219.581 209.124 219.826 208.973 220.029C208.821 220.232 208.609 220.383 208.364 220.461C206.754 221.354 203.938 221.193 201.861 220.881L200.279 220.666Z" fill="#EBEBEB"/>
<path d="M118.789 252.048L193.154 294.002C193.903 294.371 194.73 294.564 195.569 294.564C196.408 294.564 197.235 294.371 197.983 294.002L255.895 261.324C257.221 260.573 257.221 259.358 255.895 258.643L181.53 216.654C180.781 216.284 179.954 216.092 179.115 216.092C178.277 216.092 177.449 216.284 176.701 216.654L118.789 249.332C117.454 250.083 117.454 251.298 118.789 252.048Z" fill="#EBEBEB"/>
<path d="M119.356 256.615L113.393 253.264C113.143 253.144 112.868 253.082 112.589 253.082C112.31 253.082 112.034 253.144 111.784 253.264L108.043 255.373C107.952 255.409 107.874 255.471 107.82 255.55C107.765 255.63 107.736 255.724 107.736 255.819C107.736 255.915 107.765 256.009 107.82 256.089C107.874 256.168 107.952 256.23 108.043 256.266L108.564 256.561L106.671 257.535C106.442 257.651 106.47 257.732 106.671 257.705L110 257.401L113.933 259.617C114.184 259.737 114.459 259.799 114.738 259.799C115.017 259.799 115.292 259.737 115.543 259.617L119.283 257.499C119.378 257.473 119.463 257.419 119.526 257.344C119.588 257.27 119.626 257.178 119.634 257.082C119.642 256.986 119.62 256.889 119.57 256.806C119.521 256.722 119.446 256.656 119.356 256.615V256.615Z" fill="#EBEBEB"/>
<path d="M121.057 265.327L120.628 264.433C120.051 263.263 119.713 261.672 121.359 260.743C121.981 260.434 122.669 260.274 123.367 260.274C124.064 260.274 124.752 260.434 125.374 260.743C126.289 261.234 126.435 261.958 125.95 262.53C127.022 262.255 128.16 262.369 129.152 262.852C129.395 262.932 129.606 263.084 129.756 263.288C129.906 263.491 129.986 263.736 129.986 263.987C129.986 264.237 129.906 264.482 129.756 264.685C129.606 264.889 129.395 265.041 129.152 265.121C127.542 266.015 124.725 265.854 122.64 265.541L121.057 265.327Z" fill="#EBEBEB"/>
<path d="M97.5249 261.324C98.2734 260.954 99.1005 260.761 99.9394 260.761C100.778 260.761 101.605 260.954 102.354 261.324L176.71 303.268C178.045 304.019 178.045 305.243 176.71 305.993L161.537 314.554L82.3701 269.875L97.5249 261.324Z" fill="#EBEBEB"/>
<path d="M180.158 251.664L137.831 262.771L193.173 293.993C193.921 294.363 194.749 294.555 195.587 294.555C196.426 294.555 197.253 294.363 198.002 293.993L199.2 293.314L223.08 259.081L172.366 268.803L180.158 251.664Z" fill="#E0E0E0"/>
<path d="M201.002 227.645L181.53 216.654C180.782 216.284 179.955 216.092 179.116 216.092C178.277 216.092 177.45 216.284 176.701 216.654L154.934 228.941C155.931 230.79 157.989 232.515 161.108 234.007C170.253 238.279 185.143 238.279 194.316 234.007C198.158 232.22 200.38 229.968 201.002 227.645Z" fill="#E0E0E0"/>
<path opacity="0.2" d="M294.902 223.776L197.297 168.696C196.55 168.326 195.725 168.134 194.887 168.134C194.05 168.134 193.224 168.326 192.478 168.696L65.3496 240.432C64.0234 241.183 64.0234 242.398 65.3496 243.113L85.9827 254.729L162.982 298.184C163.729 298.553 164.555 298.746 165.392 298.746C166.229 298.746 167.055 298.553 167.802 298.184L282.235 233.587L294.893 226.439C296.238 225.751 296.238 224.527 294.902 223.776Z" fill="white"/>
<path d="M295.141 223.383L214.437 177.811L197.536 168.303C196.717 167.894 195.811 167.68 194.892 167.68C193.973 167.68 193.067 167.894 192.249 168.303L65.1212 240.039C64.7589 240.175 64.4473 240.415 64.2276 240.728C64.0078 241.041 63.8901 241.411 63.8901 241.79C63.8901 242.17 64.0078 242.54 64.2276 242.853C64.4473 243.165 64.7589 243.405 65.1212 243.542L85.7544 255.158L162.781 298.639C163.599 299.05 164.505 299.264 165.424 299.264C166.344 299.264 167.25 299.05 168.067 298.639L282.492 234.043L295.159 226.894C295.52 226.756 295.831 226.515 296.05 226.202C296.268 225.888 296.386 225.518 296.386 225.139C296.386 224.759 296.268 224.389 296.05 224.076C295.831 223.762 295.52 223.521 295.159 223.383H295.141ZM294.674 226.108L282.007 233.257L167.583 297.853C166.905 298.183 166.159 298.355 165.401 298.355C164.644 298.355 163.898 298.183 163.22 297.853L86.2208 254.407L65.5968 242.791C65.3765 242.736 65.1812 242.611 65.0417 242.435C64.9023 242.26 64.8266 242.044 64.8266 241.822C64.8266 241.599 64.9023 241.383 65.0417 241.208C65.1812 241.032 65.3765 240.907 65.5968 240.852L192.725 169.116C193.403 168.788 194.149 168.617 194.906 168.617C195.663 168.617 196.409 168.788 197.087 169.116L213.998 178.633L294.701 224.205C294.922 224.26 295.117 224.385 295.257 224.561C295.396 224.736 295.472 224.952 295.472 225.174C295.472 225.397 295.396 225.612 295.257 225.788C295.117 225.963 294.922 226.089 294.701 226.144L294.674 226.108Z" fill="white"/>
<path d="M251.103 0.401085C252.447 -0.35845 253.545 0.258111 253.545 1.77718V177.444C253.498 178.272 253.252 179.078 252.828 179.797C252.404 180.516 251.813 181.127 251.103 181.582L180.936 221.167L172.704 247.974C171.963 250.404 170.482 250.512 169.403 248.197L161.866 231.943L141.38 243.497C140.035 244.257 138.938 243.64 138.938 242.121V66.4538C138.983 65.6253 139.228 64.8189 139.653 64.1001C140.077 63.3813 140.669 62.7703 141.38 62.3166L251.103 0.401085Z" fill="#5351C0"/>
<path d="M242.14 136.009C242.056 137.147 241.699 138.249 241.096 139.225C240.494 140.202 239.664 141.026 238.674 141.63L200.124 163.379C198.212 164.452 196.657 163.692 196.657 161.664C196.744 160.527 197.103 159.426 197.705 158.45C198.307 157.474 199.136 156.649 200.124 156.043L238.692 134.303C240.594 133.221 242.14 133.99 242.14 136.009Z" fill="white"/>
<path d="M235.034 157.732C234.948 158.869 234.589 159.97 233.987 160.946C233.385 161.923 232.556 162.747 231.567 163.353L199.548 181.438C197.636 182.52 196.09 181.751 196.09 179.723C196.175 178.588 196.531 177.488 197.132 176.513C197.733 175.538 198.56 174.715 199.548 174.111L231.604 156.025C233.515 154.944 235.034 155.713 235.034 157.732Z" fill="white"/>
<path d="M177.277 188.632L177.195 187.577C175.448 191.884 172.814 194.976 169.878 196.629C164.693 199.56 160.056 196.96 160.056 189.204C160.056 181.894 163.714 173.879 169.412 170.689C173.152 168.58 175.704 170.135 176.125 171.055V169.268C176.125 168.276 177.158 166.891 178.421 166.176C179.683 165.461 180.725 166.114 180.725 167.642V184.218C180.725 186.326 181.53 186.755 182.673 186.103C184.759 184.932 186.679 179.919 186.679 174.21C186.679 163.183 180.762 158.045 171.323 163.371C162.479 168.357 155.464 180.956 155.464 191.965C155.464 202.768 162.095 206.887 170.775 202C173.267 200.487 175.476 198.568 177.305 196.325C178.292 195.146 179.372 194.788 179.847 195.628C180.323 196.468 180.03 198.202 179.052 199.381C176.738 202.218 173.956 204.659 170.82 206.601C160.019 212.687 151.852 207.379 151.852 194.029C151.852 180.393 160.403 165.104 171.369 158.912C182.335 152.719 190.374 158.224 190.374 172.02C190.374 180.384 187.018 187.711 182.253 190.392C179.619 191.804 177.744 191.473 177.277 188.632ZM165.031 186.121C165.031 190.392 167.153 192.733 170.39 190.91C173.628 189.087 175.878 184.405 175.878 180.089C175.878 175.934 173.71 173.834 170.345 175.729C167.153 177.498 165.031 182.028 165.031 186.121V186.121Z" fill="white"/>
<path d="M196.218 56.9283C215.159 46.2055 230.506 54.9089 230.506 76.2741C230.506 97.6394 215.159 123.633 196.218 134.303C177.277 144.972 161.93 136.322 161.93 114.957C161.93 93.5916 177.277 67.6512 196.218 56.9283Z" fill="white"/>
<path d="M196.218 56.9283C215.159 46.2055 230.506 54.9089 230.506 76.2741C230.506 97.6394 215.159 123.633 196.218 134.303C177.277 144.972 161.93 136.322 161.93 114.957C161.93 93.5916 177.277 67.6512 196.218 56.9283Z" fill="#F5F5F5"/>
<path d="M183.716 85.2991C182.144 85.5644 180.74 86.4169 179.801 87.676C178.118 89.7937 178.466 92.814 179.801 99.6141L185.005 98.8367L183.716 85.2991Z" fill="#263238"/>
<path d="M214.043 75.2912C215.212 74.9861 216.315 74.4776 217.299 73.79C218.9 72.4764 219.311 74.1474 218.433 75.9167C217.851 77.1779 217.019 78.3139 215.984 79.2587C214.949 80.2035 213.733 80.9385 212.406 81.4211C212.351 81.2066 210.906 77.8468 210.906 77.8468L214.043 75.2912Z" fill="#263238"/>
<path d="M186.706 120.372C186.706 120.372 177.012 126.484 174.908 128.637C172.804 130.791 171.936 137.501 171.158 145.713C171.158 145.713 182.197 150.262 199.51 141.889C216.824 133.516 218.388 126.895 218.388 126.895C218.388 126.895 216.147 116.949 215.315 114.188C214.263 110.694 212.232 108.174 200.425 113.411L186.706 120.372Z" fill="#263238"/>
<path d="M186.157 98.5419C185.38 99.1942 184.282 98.0325 183.331 97.3087C182.38 96.5849 179.271 96.0667 177.716 99.6678C176.161 103.269 179.728 106.718 181.831 107.603C182.551 107.898 183.343 107.983 184.111 107.847C184.879 107.71 185.59 107.358 186.157 106.834L186.706 120.372C186.706 120.372 189.45 125.009 196.95 124.044C204.449 123.079 202.885 115.716 200.434 113.411V110.623C200.434 110.623 204.303 110.373 206.123 109.426C207.101 108.916 209.425 105.556 210.924 102.089C214.017 95.7028 214.723 88.4595 212.918 81.6176C210.239 71.1807 197.992 74.0491 190.694 80.4471C183.395 86.845 186.157 98.5419 186.157 98.5419Z" fill="#FFA8A7"/>
<path d="M216.156 64.8185C215.498 62.7097 215.095 63.085 209.8 66.7218C205.755 69.504 201.242 71.5698 196.465 72.8249C192.733 73.9329 187.63 74.8086 185.005 78.1863C183.876 79.6389 183.301 81.4305 183.377 83.2529C183.155 83.0513 182.884 82.907 182.591 82.8329C181.301 82.4933 179.719 83.4137 179.051 84.897L183.624 86.0855C183.267 88.659 182.243 96.6028 183.359 97.2998C184.319 97.8985 185.792 99.909 186.185 99.8018C187.493 99.4354 188.014 93.7702 188.728 90.3389C189.505 86.434 189.807 84.9775 191.243 84.8166C195.906 84.0983 200.497 82.983 204.961 81.4836C209.9 79.5981 211.318 77.9987 211.318 77.9987L213.952 76.3634C215.128 74.6978 215.931 72.8091 216.311 70.8201C216.691 68.8311 216.638 66.7862 216.156 64.8185V64.8185Z" fill="#263238"/>
<path d="M200.416 110.623C200.416 110.623 193.492 111.079 191.078 110.453C189.687 110.13 188.484 109.282 187.73 108.094C188.073 109.337 188.726 110.476 189.633 111.409C191.398 113.197 200.416 112.428 200.416 112.428V110.623Z" fill="#F28F8F"/>
<path d="M198.651 102.769L201.815 103.099C201.685 103.558 201.404 103.962 201.016 104.249C200.627 104.537 200.153 104.691 199.666 104.69C198.788 104.6 198.34 103.743 198.651 102.769Z" fill="#F28F8F"/>
<path d="M203.224 90.7053L203.681 98.7385L208.044 96.1561L203.224 90.7053Z" fill="#F28F8F"/>
<path d="M198.751 93.5647C198.743 93.9666 198.605 94.3556 198.357 94.6764C198.109 94.9972 197.764 95.2336 197.37 95.3518C197.206 95.4069 197.03 95.4213 196.859 95.3938C196.687 95.3662 196.525 95.2976 196.388 95.1941C196.25 95.0905 196.141 94.9552 196.07 94.8003C195.999 94.6454 195.968 94.4757 195.98 94.3064C195.991 93.9037 196.131 93.5145 196.38 93.1938C196.63 92.8731 196.976 92.6371 197.37 92.5192C197.534 92.4636 197.71 92.4489 197.881 92.4763C198.052 92.5038 198.214 92.5725 198.351 92.6763C198.488 92.7802 198.596 92.9158 198.666 93.0709C198.736 93.226 198.766 93.3957 198.751 93.5647Z" fill="#263238"/>
<path d="M197.279 88.8198L194.316 91.1967C194.124 90.7659 194.088 90.2841 194.214 89.8308C194.341 89.3775 194.622 88.9799 195.011 88.7036C195.156 88.5459 195.336 88.422 195.538 88.3408C195.739 88.2596 195.956 88.2233 196.173 88.2344C196.39 88.2455 196.602 88.3038 196.794 88.4051C196.985 88.5064 197.151 88.648 197.279 88.8198V88.8198Z" fill="#263238"/>
<path d="M211.126 86.3178L208.382 84.9953C208.588 84.5817 208.941 84.2551 209.375 84.0761C209.809 83.897 210.294 83.8775 210.741 84.0213C210.928 84.1415 211.088 84.2983 211.21 84.4818C211.331 84.6653 211.413 84.8714 211.449 85.0872C211.485 85.303 211.475 85.5238 211.419 85.7356C211.364 85.9474 211.264 86.1456 211.126 86.3178Z" fill="#263238"/>
<path d="M210.339 90.1423C210.328 90.5435 210.189 90.9313 209.941 91.2516C209.694 91.5719 209.35 91.8088 208.958 91.9295C208.794 91.9845 208.618 91.9989 208.447 91.9714C208.275 91.9439 208.113 91.8752 207.976 91.7717C207.838 91.6681 207.729 91.5329 207.658 91.3779C207.586 91.223 207.556 91.0533 207.568 90.884C207.579 90.4813 207.719 90.0921 207.968 89.7714C208.218 89.4507 208.564 89.2147 208.958 89.0968C209.122 89.0413 209.298 89.0265 209.469 89.054C209.64 89.0814 209.802 89.1501 209.939 89.254C210.076 89.3578 210.184 89.4934 210.254 89.6485C210.324 89.8036 210.353 89.9734 210.339 90.1423V90.1423Z" fill="#263238"/>
</svg>
