<svg width="300" height="300" viewBox="0 0 300 300" fill="none" xmlns="http://www.w3.org/2000/svg">
<path d="M97.098 199.44C94.752 195.414 92.238 191.37 88.542 188.04C79.17 179.592 63.078 177.084 49.404 180.114C38.85 182.454 28.884 188.4 26.118 196.8C24.864 200.586 25.146 204.6 25.518 208.476C28.11 234 40.884 280.296 41.4 281.4L127.524 281.052C122.442 252.852 112.164 225.276 97.098 199.44Z" fill="#455A64"/>
<path d="M127.506 281.022C127.506 281.022 127.452 280.8 127.368 280.362C127.284 279.924 127.146 279.282 126.978 278.436C126.81 277.59 126.618 276.54 126.378 275.304C126.138 274.068 125.778 272.646 125.448 271.044C123.383 262.01 120.815 253.098 117.756 244.35C113.192 231.386 107.602 218.806 101.04 206.73L99.6 204.156L98.148 201.6C97.17 199.872 96.174 198.132 95.094 196.416C92.946 192.99 90.426 189.636 87.09 187.056C86.6862 186.718 86.2636 186.404 85.824 186.114C85.386 185.82 84.966 185.514 84.516 185.22C83.592 184.698 82.716 184.104 81.732 183.66L80.292 182.952L78.798 182.352L78.048 182.046L77.286 181.782L75.744 181.254C71.5211 179.979 67.1506 179.257 62.742 179.106C58.3293 178.968 53.9159 179.359 49.596 180.27C45.4028 181.166 41.3611 182.664 37.596 184.716C35.7626 185.706 34.0372 186.884 32.448 188.232C30.8811 189.539 29.4967 191.051 28.332 192.726C28.062 193.158 27.774 193.566 27.528 194.004C27.282 194.442 27.072 194.892 26.85 195.336C26.628 195.78 26.484 196.266 26.304 196.728C26.1424 197.193 26.0042 197.665 25.89 198.144C25.4564 200.05 25.2769 202.005 25.356 203.958C25.41 205.89 25.584 207.798 25.812 209.67C26.04 211.542 26.226 213.402 26.52 215.214C27.03 218.856 27.642 222.372 28.254 225.762C29.49 232.554 30.852 238.836 32.124 244.566C34.698 256.014 37.044 265.224 38.724 271.566C39.552 274.74 40.218 277.2 40.674 278.868C40.908 279.696 41.088 280.326 41.208 280.758C41.328 281.19 41.4 281.4 41.4 281.4C41.4 281.4 41.322 281.19 41.178 280.77C41.034 280.35 40.86 279.708 40.614 278.886C40.14 277.224 39.45 274.77 38.604 271.596C36.912 265.254 34.53 256.056 31.932 244.596C30.648 238.866 29.274 232.596 28.026 225.792C27.426 222.396 26.79 218.88 26.274 215.238C25.98 213.438 25.794 211.56 25.56 209.682C25.326 207.804 25.146 205.896 25.092 203.946C25.0139 201.969 25.1934 199.991 25.626 198.06C25.7414 197.571 25.8836 197.088 26.052 196.614C26.232 196.14 26.418 195.672 26.604 195.198L27.276 193.8C27.528 193.356 27.816 192.936 28.086 192.498C29.2687 190.802 30.6709 189.271 32.256 187.944C33.8595 186.58 35.6009 185.388 37.452 184.386C41.2415 182.32 45.3095 180.813 49.53 179.91C53.866 178.983 58.2978 178.58 62.73 178.71C67.1695 178.861 71.5704 179.589 75.822 180.876L77.37 181.404L78.144 181.674L78.894 181.986L80.4 182.586L81.852 183.3C82.836 183.75 83.73 184.35 84.66 184.878C85.116 185.16 85.542 185.478 85.986 185.778C86.4296 186.072 86.8563 186.39 87.264 186.732C90.63 189.342 93.174 192.732 95.328 196.17C96.408 197.898 97.41 199.644 98.388 201.372L99.852 203.952L101.25 206.526C107.809 218.621 113.385 231.223 117.924 244.212C120.968 252.971 123.504 261.897 125.52 270.948L126.426 275.22C126.678 276.456 126.864 277.512 127.026 278.358C127.188 279.204 127.296 279.852 127.38 280.29C127.464 280.728 127.506 281.022 127.506 281.022Z" fill="#263238"/>
<path d="M29.598 190.8C29.598 190.8 29.598 190.884 29.598 191.046C29.598 191.208 29.538 191.448 29.496 191.748C29.412 192.348 29.316 193.278 29.238 194.454C29.1262 197.792 29.3696 201.133 29.964 204.42C31.416 212.76 33.192 224.328 35.79 236.976C37.098 243.306 38.526 249.294 40.038 254.676C41.55 260.058 43.134 264.876 44.58 268.824C46.026 272.772 47.394 275.946 48.36 278.106L49.488 280.584L49.776 281.238C49.8106 281.309 49.8388 281.384 49.86 281.46C47.7964 277.381 45.9655 273.188 44.376 268.902C42.9 264.93 41.28 260.148 39.762 254.754C38.244 249.36 36.762 243.354 35.484 237.042C32.886 224.376 31.14 212.808 29.748 204.456C29.1803 201.152 28.9791 197.796 29.148 194.448C29.2036 193.222 29.3541 192.003 29.598 190.8Z" fill="#263238"/>
<path d="M40.746 211.152C40.746 211.206 40.146 211.338 39.216 211.674C38.0012 212.12 36.8511 212.725 35.796 213.474C34.3373 214.583 33.0583 215.911 32.004 217.41C32.2031 216.901 32.4783 216.426 32.82 216C33.5957 214.931 34.54 213.995 35.616 213.228C36.6906 212.459 37.8818 211.867 39.144 211.476C39.6589 211.289 40.1989 211.18 40.746 211.152Z" fill="#263238"/>
<path d="M37.356 216.9C37.356 216.996 36.216 216.96 34.878 217.272C33.54 217.584 32.526 218.1 32.478 218.016C33.1494 217.473 33.9489 217.112 34.8 216.966C35.6324 216.726 36.5123 216.703 37.356 216.9Z" fill="#263238"/>
<path d="M34.908 245.964C34.872 245.964 34.908 245.796 35.016 245.592C35.1952 245.334 35.4514 245.138 35.748 245.034C36.0429 244.926 36.3647 244.916 36.666 245.004C36.894 245.076 37.002 245.184 36.984 245.22C36.966 245.256 36.438 245.106 35.85 245.328C35.262 245.55 34.986 246 34.908 245.964Z" fill="#263238"/>
<path d="M36.066 248.4C35.982 248.4 36.03 247.8 36.588 247.344C37.146 246.888 37.752 246.984 37.734 247.068C37.716 247.152 37.236 247.218 36.786 247.59C36.336 247.962 36.156 248.436 36.066 248.4Z" fill="#263238"/>
<path d="M147.246 257.754C147.246 257.754 145.326 210.666 143.55 202.506C141.3 192.126 132.558 185.856 132.558 185.856L129.21 266.856L132.69 268.938L134.742 270.018C135.66 273.462 133.758 274.302 143.178 276.726C143.934 276.918 158.976 279.294 158.976 279.294L160.452 264L147.246 257.754Z" fill="#B78876"/>
<path d="M172.92 278.742C172.92 278.742 167.484 279.114 165.264 280.014C162.864 280.986 159.864 280.416 157.86 279.114C156.714 278.385 155.641 277.547 154.656 276.612L147.24 276.648C146.151 275.422 145.421 273.918 145.132 272.304C144.843 270.689 145.006 269.026 145.602 267.498C145.981 266.447 146.535 265.467 147.24 264.6C148.104 263.628 148.494 263.052 150.888 262.584L160.716 264.078C160.716 264.078 174.336 262.818 176.784 263.91C176.784 263.91 179.868 265.656 180.828 266.394C181.188 266.67 182.34 270.12 180.162 271.974C180.162 271.974 182.124 273.468 181.11 274.866L180.618 275.466C180.618 275.466 181.956 277.116 181.302 277.866C180.648 278.616 174.888 282.15 172.8 281.4C170.712 280.65 172.164 278.892 173.07 278.52" fill="#B78876"/>
<path d="M178.638 268.974C178.394 269.048 178.156 269.138 177.924 269.244C177.468 269.43 176.802 269.694 175.968 269.976C175.568 270.12 175.112 270.264 174.6 270.408C174.108 270.552 173.562 270.672 173.004 270.864C172.395 271.045 171.849 271.392 171.426 271.866C171.193 272.128 171.034 272.447 170.966 272.791C170.897 273.135 170.921 273.491 171.036 273.822C171.186 274.154 171.447 274.423 171.774 274.584C172.082 274.725 172.414 274.809 172.752 274.83C173.371 274.855 173.991 274.809 174.6 274.692C175.625 274.507 176.63 274.224 177.6 273.846C178.428 273.534 179.076 273.246 179.526 273.042C179.765 272.946 179.996 272.829 180.216 272.694C179.968 272.763 179.726 272.849 179.49 272.952C179.034 273.126 178.368 273.396 177.54 273.684C176.576 274.037 175.582 274.302 174.57 274.476C173.976 274.581 173.373 274.621 172.77 274.596C172.463 274.572 172.163 274.495 171.882 274.368C171.615 274.228 171.403 274.002 171.282 273.726C171.186 273.435 171.168 273.124 171.23 272.824C171.292 272.523 171.432 272.245 171.636 272.016C172.028 271.575 172.535 271.251 173.1 271.08C173.64 270.882 174.186 270.756 174.678 270.6C175.17 270.444 175.638 270.294 176.052 270.138C176.88 269.832 177.54 269.538 177.984 269.334C178.211 269.231 178.429 269.11 178.638 268.974Z" fill="#AA6550"/>
<path d="M178.026 264.786C177.782 264.857 177.545 264.949 177.318 265.062C176.862 265.248 176.202 265.512 175.38 265.806C174.558 266.1 173.58 266.406 172.44 266.718C171.823 266.828 171.24 267.078 170.736 267.45C170.468 267.68 170.295 268 170.25 268.35C170.198 268.707 170.25 269.072 170.4 269.4C170.557 269.705 170.776 269.975 171.043 270.191C171.309 270.408 171.617 270.568 171.948 270.66C172.55 270.838 173.184 270.875 173.802 270.768C174.815 270.545 175.806 270.236 176.766 269.844L178.71 269.112C178.953 269.031 179.189 268.932 179.418 268.818C179.166 268.866 178.919 268.936 178.68 269.028L176.706 269.682C175.753 270.048 174.772 270.337 173.772 270.546C173.187 270.645 172.587 270.606 172.02 270.432C171.721 270.348 171.443 270.204 171.202 270.007C170.962 269.811 170.764 269.568 170.622 269.292C170.475 269.027 170.419 268.721 170.465 268.421C170.511 268.121 170.654 267.845 170.874 267.636C171.351 267.288 171.901 267.052 172.482 266.946C173.478 266.674 174.459 266.352 175.422 265.98C176.244 265.662 176.892 265.38 177.336 265.158C177.576 265.054 177.807 264.93 178.026 264.786Z" fill="#AA6550"/>
<path d="M175.254 266.04C175.367 265.658 175.448 265.266 175.494 264.87C175.613 264.489 175.703 264.1 175.764 263.706C175.516 264.035 175.342 264.414 175.254 264.817C175.166 265.22 175.166 265.637 175.254 266.04Z" fill="#AA6550"/>
<path d="M154.758 266.646L159.894 264.546C159.894 264.546 174.132 257.532 174.384 257.886C174.636 258.24 175.416 258.192 175.278 259.95C175.14 261.708 166.842 265.416 166.59 266.028C166.338 266.64 166.842 269.7 163.794 271.968C160.746 274.236 158.514 274.326 158.514 274.326" fill="#B78876"/>
<path d="M158.514 274.326C158.514 274.326 158.556 274.326 158.634 274.326L158.994 274.284C159.449 274.208 159.897 274.092 160.332 273.936C161.934 273.352 163.408 272.461 164.67 271.314C165.518 270.475 166.11 269.411 166.374 268.248C166.506 267.609 166.594 266.961 166.638 266.31C166.645 266.235 166.659 266.16 166.68 266.088C166.714 266.03 166.761 265.981 166.818 265.944C166.944 265.848 167.088 265.752 167.232 265.662C167.52 265.488 167.832 265.314 168.132 265.14C169.332 264.45 170.676 263.748 172.002 262.95C172.68 262.55 173.336 262.115 173.97 261.648C174.299 261.407 174.608 261.14 174.894 260.85C175.041 260.695 175.17 260.524 175.278 260.34C175.333 260.239 175.369 260.129 175.386 260.016C175.394 259.91 175.394 259.804 175.386 259.698C175.426 259.267 175.341 258.833 175.14 258.45C175.018 258.268 174.859 258.115 174.672 258C174.597 257.955 174.531 257.898 174.474 257.832L174.42 257.784C174.389 257.765 174.354 257.755 174.318 257.754H174.216L174.06 257.796C173.286 258.048 172.584 258.396 171.87 258.69C170.466 259.29 169.116 259.95 167.838 260.556C165.282 261.756 162.99 262.896 161.07 263.844C160.59 264.078 160.14 264.324 159.702 264.516L158.448 265.044L156.438 265.884L155.172 266.43L154.842 266.58L154.734 266.634C154.734 266.634 154.776 266.634 154.854 266.598L155.19 266.478L156.474 265.974L158.502 265.164L159.768 264.66C160.212 264.462 160.662 264.228 161.148 264L167.934 260.76C169.218 260.16 170.562 259.53 171.966 258.906C172.674 258.6 173.394 258.27 174.132 258.024L174.264 257.994H174.312C174.312 257.994 174.312 257.958 174.312 257.934C174.15 258.042 174.27 257.97 174.24 257.994C174.312 258.081 174.4 258.154 174.498 258.21C174.655 258.307 174.79 258.436 174.894 258.588C175.066 258.933 175.139 259.32 175.104 259.704C175.116 259.888 175.079 260.073 174.996 260.238C174.9 260.404 174.783 260.557 174.648 260.694C174.375 260.977 174.078 261.236 173.76 261.468C173.133 261.932 172.482 262.362 171.81 262.758C170.496 263.556 169.188 264.258 167.958 264.954C167.646 265.134 167.358 265.308 167.046 265.494C166.902 265.584 166.758 265.68 166.614 265.788C166.527 265.846 166.459 265.927 166.416 266.022C166.388 266.11 166.37 266.2 166.362 266.292C166.35 266.931 166.296 267.568 166.2 268.2C165.954 269.334 165.39 270.375 164.574 271.2C163.879 271.858 163.107 272.43 162.276 272.904C161.653 273.277 160.999 273.594 160.32 273.852C159.892 274.014 159.453 274.145 159.006 274.242C158.856 274.278 158.736 274.296 158.658 274.308L158.514 274.326Z" fill="#AA6550"/>
<path d="M174.384 274.668C174.194 274.696 174.01 274.755 173.838 274.842C173.355 275.045 172.904 275.317 172.5 275.652C172.215 275.881 171.957 276.143 171.732 276.432C171.59 276.596 171.482 276.786 171.414 276.992C171.346 277.198 171.319 277.416 171.336 277.632C171.39 277.875 171.511 278.099 171.685 278.278C171.858 278.457 172.078 278.584 172.32 278.646C172.819 278.77 173.343 278.743 173.826 278.568C175.461 278.044 177.044 277.369 178.554 276.552C179.009 276.302 179.449 276.028 179.874 275.73C180.039 275.634 180.19 275.517 180.324 275.382C180.148 275.452 179.981 275.543 179.826 275.652C179.508 275.838 179.052 276.102 178.47 276.402C176.95 277.167 175.374 277.813 173.754 278.334C173.317 278.498 172.84 278.527 172.386 278.418C172.186 278.37 172.003 278.268 171.857 278.123C171.711 277.978 171.607 277.796 171.558 277.596C171.541 277.406 171.562 277.214 171.62 277.031C171.677 276.849 171.771 276.68 171.894 276.534C172.102 276.252 172.342 275.994 172.608 275.766C173.153 275.329 173.749 274.96 174.384 274.668Z" fill="#AA6550"/>
<path d="M68.166 136.524C67.8536 136.424 67.572 136.246 67.3483 136.006C67.1246 135.766 66.9663 135.473 66.8886 135.154C66.8109 134.835 66.8164 134.502 66.9046 134.186C66.9927 133.87 67.1606 133.582 67.392 133.35C66.42 132.816 66.696 131.28 67.458 130.47C68.22 129.66 69.306 129.168 69.9 128.232C69.5909 128.296 69.2718 128.294 68.9632 128.228C68.6546 128.162 68.3632 128.032 68.1076 127.847C67.8519 127.662 67.6376 127.425 67.4782 127.153C67.3189 126.88 67.218 126.578 67.182 126.264C66.7672 126.308 66.3497 126.211 65.9969 125.988C65.6442 125.766 65.3768 125.43 65.238 125.037C65.0993 124.644 65.0972 124.215 65.2322 123.82C65.3672 123.426 65.6314 123.088 65.982 122.862C64.944 122.772 65.028 121.062 65.898 120.462C66.768 119.862 67.908 119.922 68.856 119.478C70.5715 117.553 72.8489 116.216 75.366 115.656L71.118 112.494C70.7594 112.27 70.4641 111.958 70.26 111.588C69.888 110.742 70.554 109.788 71.25 109.188C72.7467 107.915 74.5853 107.112 76.536 106.878C77.136 106.806 77.952 106.878 78.15 107.478C79.47 106.878 81 106.92 82.458 106.998C83.274 107.04 84.174 107.118 84.756 107.694C84.3688 106.974 83.8545 106.329 83.238 105.792C82.9316 105.522 82.6855 105.191 82.516 104.82C82.3464 104.449 82.2571 104.046 82.254 103.638C82.338 102.828 83.316 102.12 83.988 102.582C83.232 102.228 83.334 101.01 83.988 100.482C84.6992 100.021 85.5436 99.8099 86.388 99.882C86.988 99.882 87.708 99.966 87.87 100.53C88.134 99.228 90.36 99.042 90.828 100.284C91.0314 100.103 91.2691 99.9658 91.5269 99.8793C91.7848 99.7928 92.0574 99.7592 92.3285 99.7805C92.5996 99.8017 92.8636 99.8775 93.1048 100.003C93.346 100.129 93.5593 100.302 93.732 100.512C94.0575 100.335 94.4172 100.229 94.7869 100.203C95.1566 100.176 95.5277 100.229 95.8752 100.358C96.2226 100.487 96.5384 100.689 96.8011 100.951C97.0638 101.212 97.2673 101.527 97.398 101.874L95.136 98.088C94.71 97.368 94.638 96.03 95.466 96.114C94.266 96.114 93.594 94.494 94.176 93.456C94.758 92.418 96.102 92.022 97.284 92.172L98.316 93.666C98.7177 93.3831 99.1978 93.2331 99.689 93.237C100.18 93.2409 100.658 93.3986 101.055 93.6878C101.452 93.977 101.749 94.3833 101.903 94.8496C102.057 95.316 102.062 95.8189 101.916 96.288C102.396 95.772 103.326 96.054 103.716 96.642C104.032 97.2722 104.152 97.9831 104.058 98.682C105.216 97.71 107.34 98.838 107.178 100.344C108.233 99.8035 109.415 99.5588 110.598 99.636C110.335 99.2078 110.219 98.7058 110.266 98.2057C110.313 97.7055 110.522 97.2343 110.861 96.8631C111.199 96.492 111.65 96.241 112.143 96.1481C112.637 96.0552 113.148 96.1253 113.598 96.348C113.644 96.0199 113.762 95.706 113.942 95.4279C114.122 95.1498 114.361 94.9143 114.641 94.7379C114.922 94.5614 115.237 94.4482 115.566 94.406C115.894 94.3639 116.228 94.3939 116.544 94.494C116.91 93.114 118.722 92.094 119.82 93C120.918 93.906 120.348 95.766 119.652 97.068C118.89 98.478 118.134 99.894 117.378 101.304L124.77 97.344C124.987 97.1962 125.245 97.1187 125.508 97.122C125.868 97.164 126.108 97.494 126.438 97.65C126.918 97.7762 127.408 97.8625 127.902 97.908C129.204 98.31 129.186 100.308 128.292 101.334C127.398 102.36 126.03 102.858 125.022 103.77L128.304 104.37C128.436 103.94 128.653 103.541 128.942 103.196C129.231 102.851 129.587 102.568 129.988 102.364C130.388 102.16 130.826 102.038 131.275 102.007C131.724 101.975 132.174 102.034 132.6 102.18C133.05 100.98 134.67 100.812 135.96 100.866C137.118 100.914 138.39 101.01 139.212 101.832C140.256 102.876 140.058 104.712 139.182 105.9C138.306 107.088 136.92 107.784 135.582 108.438C135.798 109.422 137.076 109.722 138.072 109.578C139.068 109.434 140.106 109.038 141.072 109.398C142.35 109.878 142.872 111.534 144.18 112.002C144.594 112.083 144.997 112.214 145.38 112.392C145.828 112.78 146.11 113.326 146.166 113.916C146.328 114.63 146.49 115.338 146.646 116.052C146.753 116.397 146.784 116.762 146.736 117.12C146.502 118.284 144.882 118.53 143.79 118.086C142.698 117.642 141.756 116.772 140.586 116.604C142.128 117.372 143.76 118.218 144.618 119.712C145.476 121.206 145.128 123.522 143.508 124.104C141.888 124.686 140.244 123.27 139.05 122.004C137.856 120.738 136.14 119.376 134.55 120.102" fill="#263238"/>
<path d="M70.542 135.504C69.294 134.58 67.176 135.804 67.362 137.346C66.5924 137.562 65.896 137.983 65.3479 138.565C64.7997 139.146 64.4204 139.866 64.2507 140.647C64.081 141.428 64.1274 142.241 64.3849 142.998C64.6424 143.754 65.1012 144.426 65.712 144.942C66.684 145.758 68.61 145.788 68.814 144.54C69.0134 145.059 69.3361 145.522 69.7542 145.889C70.1723 146.256 70.6732 146.516 71.214 146.646C70.9741 147.037 70.818 147.474 70.7557 147.929C70.6933 148.384 70.7261 148.847 70.8518 149.289C70.9776 149.73 71.1936 150.141 71.4863 150.495C71.7789 150.848 72.1418 151.138 72.552 151.344C70.578 152.706 70.95 156.282 73.152 157.206C72.8592 157.862 72.8388 158.607 73.0954 159.277C73.3519 159.948 73.8644 160.489 74.52 160.782C75.1756 161.075 75.9207 161.095 76.5913 160.839C77.262 160.582 77.8032 160.07 78.096 159.414C78.522 160.428 78.99 161.496 79.896 162.114C80.802 162.732 82.296 162.624 82.752 161.628C82.9089 162.154 83.1802 162.639 83.5466 163.048C83.9131 163.457 84.3654 163.779 84.8713 163.993C85.3772 164.206 85.924 164.305 86.4725 164.282C87.0211 164.259 87.5577 164.115 88.044 163.86C87.9372 164.486 88.0826 165.128 88.4484 165.647C88.8142 166.166 89.3706 166.518 89.9958 166.628C90.621 166.737 91.2641 166.595 91.7844 166.231C92.3047 165.868 92.6598 165.313 92.772 164.688L98.964 165.162C100.331 165.308 101.709 165.328 103.08 165.222C104.834 165.019 106.514 164.402 107.982 163.422C108.419 162.982 108.997 162.712 109.614 162.658C110.231 162.604 110.848 162.771 111.354 163.128C112.958 163.739 114.693 163.929 116.391 163.679C118.09 163.429 119.696 162.747 121.056 161.7C121.452 161.331 121.906 161.029 122.4 160.806C123.003 160.648 123.632 160.615 124.248 160.71C125.771 160.816 127.301 160.73 128.802 160.452C130.086 160.212 131.46 159.75 132.15 158.652C132.84 157.554 132.3 155.694 130.998 155.598C130.963 155.174 131.026 154.748 131.181 154.352C131.336 153.955 131.579 153.6 131.892 153.312C132.216 153.036 132.632 152.892 133.057 152.91C133.482 152.928 133.885 153.106 134.184 153.408C134.724 154.068 134.304 155.298 133.458 155.34C134.772 156.426 137.058 155.256 137.244 153.54C137.43 151.824 135.858 150.288 134.16 150.132C134.603 148.941 134.748 147.66 134.58 146.4C134.987 146.973 135.598 147.369 136.287 147.507C136.976 147.645 137.691 147.515 138.288 147.144C138.575 147.73 138.978 148.252 139.473 148.677C139.968 149.102 140.545 149.421 141.168 149.616C141.798 149.788 142.468 149.739 143.066 149.477C143.665 149.215 144.155 148.756 144.456 148.176C144.96 146.976 144.042 145.332 142.74 145.368C143.772 143.994 142.59 141.642 140.868 141.648C141.056 140.823 140.964 139.959 140.607 139.192C140.249 138.425 139.647 137.799 138.894 137.412C139.137 137.573 139.413 137.68 139.702 137.723C139.991 137.767 140.286 137.748 140.566 137.666C140.846 137.584 141.106 137.443 141.326 137.251C141.546 137.058 141.721 136.821 141.84 136.554C142.518 137.868 144.462 137.754 145.794 137.094C146.844 136.596 147.87 135.84 147.702 134.328C147.62 133.615 147.286 132.955 146.76 132.468C145.56 131.316 143.826 131.1 142.206 130.92C141.406 128.899 140.943 126.761 140.838 124.59C142.638 124.8 144.6 123.618 144.978 121.836L136.008 116.262C136.008 116.262 115.254 113.058 114.51 113.058C113.766 113.058 70.38 135.402 70.38 135.402C69.372 136.452 67.416 136.002 66.678 134.724C65.94 133.446 66.234 131.826 67.026 130.608C67.8948 129.438 68.9706 128.438 70.2 127.656C68.808 127.56 67.326 127.434 66.3 126.426C65.9718 126.132 65.7393 125.746 65.6323 125.318C65.5254 124.89 65.549 124.44 65.7 124.026C66.198 122.826 67.584 122.91 68.472 122.226C68.9515 121.777 69.3387 121.239 69.612 120.642" fill="#263238"/>
<path d="M128.52 130.8C128.004 123.39 123.03 114.324 115.644 115.158L92.616 121.158C91.5344 121.279 90.5377 121.802 89.8233 122.623C89.1088 123.445 88.7286 124.504 88.758 125.592L91.302 175.356L85.752 178.008C85.698 178.008 91.5 181.236 91.446 181.248C91.392 181.26 96.774 196.914 111.996 192.048C114.996 191.082 116.382 187.77 116.964 184.368H117.12C117.12 183.966 122.154 180.108 122.16 179.724C122.16 180.108 117.198 176.91 117.198 176.91V175.56C117.198 171.072 117.198 169.23 117.198 169.272C117.198 169.314 126.66 167.634 128.538 155.262C129.474 149.094 129.096 139.02 128.52 130.8Z" fill="#B78876"/>
<path d="M125.4 139.71C125.408 140.124 125.254 140.525 124.97 140.827C124.686 141.128 124.296 141.307 123.882 141.324C123.68 141.34 123.477 141.316 123.285 141.253C123.093 141.191 122.915 141.09 122.762 140.958C122.609 140.825 122.484 140.664 122.394 140.483C122.304 140.301 122.251 140.104 122.238 139.902C122.233 139.489 122.388 139.091 122.672 138.791C122.955 138.491 123.344 138.313 123.756 138.294C123.958 138.276 124.161 138.299 124.353 138.36C124.546 138.422 124.724 138.522 124.877 138.654C125.031 138.786 125.156 138.948 125.246 139.129C125.336 139.311 125.388 139.508 125.4 139.71Z" fill="#263238"/>
<path d="M126.372 136.044C126.174 136.248 124.968 135.372 123.264 135.384C121.56 135.396 120.312 136.266 120.126 136.056C120.036 135.966 120.234 135.588 120.774 135.192C121.508 134.673 122.384 134.395 123.282 134.394C124.171 134.384 125.039 134.66 125.76 135.18C126.288 135.6 126.468 135.948 126.372 136.044Z" fill="#263238"/>
<path d="M109.122 139.8C109.13 140.214 108.976 140.615 108.692 140.917C108.408 141.218 108.018 141.397 107.604 141.414C107.402 141.431 107.199 141.408 107.006 141.345C106.814 141.283 106.635 141.182 106.482 141.05C106.329 140.917 106.204 140.755 106.114 140.574C106.025 140.392 105.972 140.194 105.96 139.992C105.955 139.579 106.11 139.181 106.394 138.881C106.677 138.581 107.066 138.403 107.478 138.384C107.68 138.366 107.883 138.389 108.075 138.45C108.268 138.512 108.446 138.612 108.599 138.744C108.753 138.876 108.878 139.038 108.968 139.219C109.058 139.401 109.11 139.598 109.122 139.8Z" fill="#263238"/>
<path d="M109.608 136.476C109.41 136.68 108.204 135.804 106.5 135.816C104.796 135.828 103.548 136.698 103.362 136.488C103.272 136.398 103.464 136.02 104.01 135.624C104.743 135.105 105.62 134.828 106.518 134.832C107.406 134.821 108.275 135.094 108.996 135.612C109.518 136.008 109.704 136.38 109.608 136.476Z" fill="#263238"/>
<path d="M115.884 149.082C115.884 148.986 116.934 148.794 118.65 148.566C119.088 148.518 119.496 148.428 119.568 148.128C119.602 147.677 119.498 147.227 119.268 146.838L117.96 143.532C116.16 138.822 114.816 134.946 115.008 134.874C115.2 134.802 116.808 138.564 118.65 143.274C119.088 144.438 119.508 145.542 119.904 146.604C120.181 147.126 120.266 147.729 120.144 148.308C120.083 148.463 119.986 148.601 119.862 148.713C119.738 148.824 119.59 148.905 119.43 148.95C119.19 149.02 118.942 149.056 118.692 149.058C116.964 149.166 115.89 149.178 115.884 149.082Z" fill="#263238"/>
<path d="M117.198 169.26C111.378 169.389 105.637 167.9 100.614 164.958C100.614 164.958 104.688 173.418 117.054 172.158L117.198 169.26Z" fill="#AA6550"/>
<path d="M116.082 152.928C115.689 152.351 115.161 151.879 114.544 151.552C113.927 151.224 113.24 151.052 112.542 151.05C112.063 151.042 111.591 151.166 111.178 151.408C110.765 151.651 110.426 152.002 110.199 152.424C109.973 152.846 109.866 153.322 109.892 153.801C109.918 154.279 110.075 154.741 110.346 155.136C110.661 155.57 111.1 155.9 111.605 156.082C112.11 156.264 112.658 156.29 113.178 156.156C114.142 155.839 115.013 155.291 115.716 154.56C115.945 154.383 116.131 154.158 116.262 153.9C116.326 153.757 116.352 153.601 116.337 153.445C116.322 153.289 116.267 153.14 116.178 153.012" fill="#AA6550"/>
<path d="M110.874 150.294C111.15 150.294 111.162 152.13 112.758 153.432C114.354 154.734 116.322 154.518 116.358 154.776C116.358 154.896 115.92 155.142 115.086 155.172C113.997 155.195 112.935 154.834 112.086 154.152C111.276 153.496 110.751 152.552 110.622 151.518C110.544 150.75 110.742 150.288 110.874 150.294Z" fill="#263238"/>
<path d="M110.352 132.54C110.19 133.002 108.486 132.792 106.482 133.05C104.478 133.308 102.882 133.86 102.6 133.446C102.48 133.248 102.762 132.81 103.41 132.36C104.276 131.802 105.258 131.449 106.281 131.328C107.305 131.208 108.342 131.323 109.314 131.664C110.052 131.958 110.4 132.318 110.352 132.54Z" fill="#263238"/>
<path d="M125.712 131.112C125.412 131.502 124.236 131.112 122.82 131.112C121.404 131.112 120.216 131.394 119.934 130.986C119.814 130.794 120 130.386 120.534 130.032C121.234 129.591 122.049 129.366 122.876 129.387C123.704 129.407 124.506 129.671 125.184 130.146C125.676 130.524 125.844 130.92 125.712 131.112Z" fill="#263238"/>
<path d="M88.704 138.24C88.5389 138.647 88.5081 139.095 88.6161 139.52C88.724 139.946 88.965 140.325 89.304 140.604C89.4711 140.709 89.6582 140.778 89.8534 140.806C90.0486 140.835 90.2477 140.823 90.4378 140.77C90.628 140.718 90.8052 140.626 90.9581 140.501C91.111 140.377 91.2363 140.222 91.326 140.046C91.866 140.772 93.126 140.046 92.94 139.086C93.606 139.464 94.482 138.564 94.272 137.724C95.046 138.024 95.508 136.77 95.916 135.924C96.144 135.462 96.45 135.072 96.714 134.646C97.577 133.246 98.0225 131.629 97.998 129.984C99.012 128.838 99.27 127.062 99.48 125.418C99.606 124.392 99.738 123.366 99.864 122.34L100.464 121.632C100.459 121.98 100.562 122.321 100.76 122.607C100.958 122.893 101.24 123.11 101.568 123.228C102.179 123.396 102.823 123.396 103.434 123.228L105.276 122.88L106.416 123.216C106.08 124.17 106.416 125.256 106.746 126.216C106.893 126.88 107.266 127.472 107.802 127.89C107.944 127.95 108.099 127.971 108.252 127.951C108.405 127.932 108.549 127.872 108.671 127.778C108.793 127.684 108.888 127.559 108.946 127.417C109.005 127.274 109.024 127.118 109.002 126.966C109.109 127.065 109.236 127.138 109.375 127.181C109.514 127.223 109.66 127.234 109.804 127.212C109.948 127.19 110.084 127.136 110.204 127.054C110.324 126.972 110.424 126.864 110.496 126.738C110.829 126.165 110.976 125.502 110.916 124.842C110.883 123.24 110.376 121.685 109.458 120.372L112.644 123.372C112.847 123.61 113.12 123.778 113.424 123.852C113.408 123.974 113.419 124.098 113.456 124.216C113.494 124.333 113.556 124.441 113.64 124.531C113.724 124.622 113.826 124.693 113.94 124.739C114.054 124.786 114.177 124.806 114.3 124.8C114.779 124.678 115.202 124.397 115.5 124.002C116.28 123.192 117.108 121.806 116.418 120.882C116.511 120.843 116.595 120.784 116.663 120.709C116.731 120.634 116.782 120.545 116.812 120.448C116.841 120.351 116.85 120.249 116.835 120.149C116.821 120.049 116.785 119.953 116.73 119.868L120.33 122.64C119.97 122.43 119.568 122.994 119.646 123.462C119.762 123.897 120.027 124.277 120.396 124.536C120.073 125.05 119.924 125.653 119.97 126.258C119.322 125.658 118.338 126.75 118.542 127.686C118.656 128.108 118.904 128.483 119.247 128.754C119.591 129.025 120.012 129.179 120.45 129.192C120.803 129.253 121.167 129.179 121.468 128.985C121.769 128.79 121.986 128.489 122.076 128.142C122.868 128.316 123.642 127.224 123.36 126.342C123.96 126.726 124.446 125.694 124.482 124.914C124.547 123.489 124.343 122.064 123.882 120.714C123.882 120.918 124.086 121.086 124.23 120.978C124.263 120.945 124.288 120.905 124.303 120.861C124.319 120.817 124.323 120.77 124.318 120.723C124.312 120.677 124.296 120.633 124.27 120.594C124.244 120.554 124.21 120.522 124.17 120.498C124.848 122.16 125.526 123.828 126.198 125.49C126.824 126.794 127.199 128.205 127.302 129.648C127.302 130.248 127.374 131.058 127.902 131.112C128.039 131.116 128.174 131.08 128.292 131.01C129.794 130.167 130.956 128.829 131.58 127.224C131.842 126.671 132.012 126.079 132.084 125.472C132.204 124.194 131.676 122.964 131.592 121.68C131.592 121.116 131.556 120.553 131.484 119.994C131.249 119.156 130.801 118.393 130.182 117.78C128.238 115.512 126.18 113.166 123.582 112.242C121.986 111.684 120.276 111.69 118.674 111.144C117.692 110.754 116.732 110.309 115.8 109.812C111.852 107.946 107.484 107.694 103.248 108.048C100.848 108.162 98.4879 108.709 96.282 109.662C93.882 110.796 91.734 112.662 89.736 114.66C86.736 117.63 83.934 120.948 82.026 124.974C80.562 128.07 79.626 131.682 80.166 135.174C80.706 138.666 82.836 141.954 85.764 142.686L86.916 141.366" fill="#263238"/>
<path d="M92.082 140.61C91.914 140.532 85.2 138.396 85.26 145.296C85.32 152.196 92.238 150.696 92.244 150.516C92.25 150.336 92.082 140.61 92.082 140.61Z" fill="#B78876"/>
<path d="M90.114 147.918C90.084 147.918 89.994 148.002 89.796 148.098C89.5073 148.215 89.1846 148.215 88.896 148.098C88.164 147.834 87.54 146.682 87.498 145.44C87.4742 144.849 87.5828 144.261 87.816 143.718C87.879 143.501 87.9939 143.304 88.1508 143.142C88.3076 142.979 88.5016 142.858 88.716 142.788C88.8525 142.749 88.9987 142.759 89.1283 142.817C89.258 142.875 89.3628 142.978 89.424 143.106C89.52 143.298 89.478 143.436 89.514 143.448C89.55 143.46 89.664 143.334 89.604 143.046C89.5616 142.877 89.4646 142.728 89.328 142.62C89.1361 142.48 88.8974 142.42 88.662 142.452C88.3784 142.509 88.1144 142.638 87.8956 142.828C87.6769 143.017 87.511 143.26 87.414 143.532C87.1239 144.131 86.9878 144.793 87.018 145.458C87.072 146.844 87.798 148.14 88.818 148.422C89.0038 148.473 89.1987 148.483 89.3886 148.449C89.5784 148.416 89.7586 148.341 89.916 148.23C90.108 148.086 90.138 147.93 90.114 147.918Z" fill="#AA6550"/>
<path d="M114.648 138.498C114.585 137.832 114.479 137.17 114.33 136.518C113.86 134.745 112.803 133.184 111.33 132.09C110.332 131.33 109.168 130.818 107.934 130.596C106.527 130.342 105.078 130.467 103.734 130.956C102.24 131.496 100.942 132.472 100.008 133.758C98.995 135.132 98.4484 136.794 98.4484 138.501C98.4484 140.208 98.995 141.87 100.008 143.244C100.477 143.899 101.048 144.475 101.7 144.948C102.318 145.415 103.004 145.786 103.734 146.046C105.078 146.535 106.527 146.659 107.934 146.406C109.168 146.181 110.331 145.669 111.33 144.912C112.8 143.816 113.857 142.256 114.33 140.484C114.48 139.83 114.586 139.166 114.648 138.498C114.66 138.672 114.66 138.846 114.648 139.02C114.653 139.233 114.637 139.446 114.6 139.656C114.574 139.944 114.524 140.229 114.45 140.508C114.019 142.33 112.972 143.947 111.486 145.086C110.386 145.935 109.09 146.493 107.717 146.708C106.344 146.923 104.939 146.788 103.632 146.316C102.085 145.755 100.739 144.748 99.762 143.424C98.7064 142 98.1366 140.274 98.1366 138.501C98.1366 136.728 98.7064 135.002 99.762 133.578C100.734 132.249 102.082 131.242 103.632 130.686C105.031 130.183 106.539 130.063 108 130.338C109.267 130.583 110.459 131.121 111.48 131.91C112.966 133.05 114.015 134.666 114.45 136.488C114.524 136.769 114.574 137.056 114.6 137.346C114.637 137.554 114.653 137.765 114.648 137.976C114.66 138.15 114.66 138.324 114.648 138.498Z" fill="#455A64"/>
<path d="M134.112 138.498C134.049 137.832 133.943 137.17 133.794 136.518C133.324 134.745 132.267 133.184 130.794 132.09C129.796 131.33 128.632 130.818 127.398 130.596C125.991 130.343 124.542 130.467 123.198 130.956C121.704 131.496 120.406 132.472 119.472 133.758C118.459 135.132 117.912 136.794 117.912 138.501C117.912 140.208 118.459 141.87 119.472 143.244C119.94 143.899 120.512 144.475 121.164 144.948C121.782 145.415 122.468 145.786 123.198 146.046C124.542 146.535 125.991 146.659 127.398 146.406C128.632 146.181 129.795 145.67 130.794 144.912C132.264 143.816 133.321 142.256 133.794 140.484C133.944 139.83 134.05 139.166 134.112 138.498C134.122 138.672 134.122 138.846 134.112 139.02C134.112 139.233 134.094 139.446 134.058 139.656C134.032 139.944 133.982 140.229 133.908 140.508C133.477 142.33 132.43 143.947 130.944 145.086C129.844 145.935 128.547 146.493 127.175 146.708C125.802 146.923 124.397 146.788 123.09 146.316C121.543 145.755 120.197 144.748 119.22 143.424C118.164 142 117.595 140.274 117.595 138.501C117.595 136.728 118.164 135.002 119.22 133.578C120.192 132.249 121.54 131.242 123.09 130.686C124.394 130.208 125.798 130.068 127.171 130.277C128.544 130.487 129.842 131.041 130.944 131.886C132.429 133.026 133.476 134.643 133.908 136.464C133.982 136.745 134.032 137.032 134.058 137.322C134.094 137.53 134.112 137.741 134.112 137.952C134.123 138.134 134.123 138.316 134.112 138.498Z" fill="#455A64"/>
<path d="M118.11 136.578C118.074 136.668 117.288 136.344 116.262 136.314C115.236 136.284 114.432 136.542 114.402 136.452C114.973 136.134 115.62 135.978 116.273 136.001C116.927 136.023 117.562 136.222 118.11 136.578Z" fill="#455A64"/>
<path d="M98.232 139.308C97.1278 139.751 95.9697 140.046 94.788 140.184C93.6226 140.426 92.43 140.511 91.242 140.436C91.242 140.346 92.808 140.19 94.734 139.878C96.66 139.566 98.208 139.2 98.232 139.308Z" fill="#455A64"/>
<path d="M113.784 137.214C113.845 137.729 113.817 138.251 113.7 138.756C113.477 139.991 113.017 141.171 112.344 142.23C111.689 143.307 110.799 144.222 109.74 144.906C109.525 145.061 109.28 145.171 109.021 145.228C108.763 145.286 108.495 145.291 108.234 145.242C108.728 145.162 109.201 144.984 109.626 144.72C110.611 144.005 111.446 143.101 112.08 142.062C112.731 141.032 113.206 139.9 113.484 138.714C113.7 137.796 113.73 137.208 113.784 137.214Z" fill="white"/>
<path d="M131.586 142.464C131.777 142.02 131.998 141.589 132.246 141.174C132.485 140.72 132.666 140.239 132.786 139.74C132.916 139.128 132.928 138.497 132.822 137.88C132.69 136.735 132.359 135.623 131.844 134.592C131.424 133.818 131.004 133.44 131.046 133.392C131.088 133.344 131.178 133.452 131.364 133.626C131.623 133.877 131.848 134.159 132.036 134.466C132.627 135.499 132.998 136.643 133.128 137.826C133.242 138.479 133.221 139.149 133.068 139.794C132.929 140.313 132.717 140.81 132.438 141.27C132.217 141.709 131.929 142.112 131.586 142.464Z" fill="white"/>
<path d="M87.216 150.282C87.216 150.282 87.036 150.366 86.76 150.57C86.3817 150.86 86.1062 151.264 85.974 151.722C85.8664 152.051 85.8481 152.403 85.9208 152.741C85.9935 153.079 86.1548 153.392 86.388 153.648C86.6746 153.957 87.0396 154.183 87.4443 154.301C87.8489 154.419 88.278 154.426 88.686 154.32C89.0521 154.197 89.3844 153.99 89.6565 153.716C89.9287 153.442 90.1332 153.108 90.2537 152.741C90.3743 152.374 90.4076 151.984 90.3511 151.602C90.2945 151.22 90.1497 150.856 89.928 150.54C89.6581 150.142 89.2984 149.813 88.878 149.58C88.7118 149.511 88.5513 149.428 88.398 149.334C88.5841 149.339 88.7667 149.386 88.932 149.472C89.4103 149.671 89.8252 149.997 90.132 150.414C90.3676 150.72 90.5332 151.075 90.6172 151.452C90.7011 151.829 90.7014 152.221 90.618 152.598C90.5175 153.061 90.2989 153.491 89.9836 153.845C89.6682 154.2 89.2667 154.466 88.818 154.62C88.3542 154.742 87.8656 154.734 87.4061 154.597C86.9466 154.459 86.5341 154.197 86.214 153.84C85.9337 153.525 85.7522 153.135 85.692 152.718C85.6447 152.36 85.6838 151.996 85.806 151.656C85.9635 151.158 86.2932 150.733 86.736 150.456C87 150.282 87.21 150.264 87.216 150.282Z" fill="#455A64"/>
<path d="M115.83 118.71C116.071 118.468 116.232 118.158 116.292 117.822C116.324 117.637 116.312 117.447 116.259 117.268C116.206 117.088 116.113 116.922 115.986 116.784C115.818 116.612 115.607 116.489 115.374 116.428C115.141 116.368 114.896 116.373 114.666 116.442L114.378 116.538L114.504 116.262C114.607 116 114.627 115.713 114.562 115.439C114.496 115.166 114.348 114.919 114.138 114.732C113.89 114.54 113.583 114.441 113.269 114.452C112.956 114.463 112.656 114.583 112.422 114.792L112.2 114.6C112.243 114.548 112.275 114.489 112.296 114.426C112.327 114.317 112.334 114.202 112.315 114.09C112.297 113.978 112.253 113.871 112.188 113.778C112.053 113.59 111.851 113.462 111.624 113.418C111.395 113.373 111.158 113.385 110.934 113.454C110.69 113.563 110.427 113.62 110.16 113.622C109.83 113.562 109.686 113.316 109.518 113.208C109.353 113.078 109.174 112.968 108.984 112.878C108.634 112.722 108.257 112.637 107.874 112.626C107.313 112.601 106.755 112.734 106.266 113.01C105.924 113.208 105.762 113.376 105.744 113.352C105.86 113.171 106.016 113.019 106.2 112.908C106.696 112.573 107.282 112.397 107.88 112.404C108.292 112.402 108.699 112.481 109.08 112.638C109.293 112.732 109.495 112.85 109.68 112.992C109.878 113.136 110.028 113.322 110.196 113.34C110.422 113.319 110.643 113.261 110.85 113.166C111.12 113.083 111.407 113.068 111.684 113.124C111.989 113.18 112.259 113.352 112.44 113.604C112.532 113.736 112.594 113.887 112.62 114.046C112.646 114.205 112.635 114.368 112.59 114.522C112.555 114.623 112.502 114.716 112.434 114.798L112.2 114.6C112.466 114.345 112.812 114.19 113.18 114.163C113.547 114.136 113.913 114.238 114.213 114.451C114.514 114.664 114.73 114.975 114.826 115.331C114.922 115.687 114.891 116.065 114.738 116.4L114.576 116.22C114.852 116.14 115.144 116.14 115.42 116.218C115.696 116.297 115.944 116.451 116.136 116.664C116.367 116.935 116.487 117.283 116.473 117.639C116.458 117.995 116.31 118.332 116.058 118.584C115.926 118.68 115.836 118.722 115.83 118.71Z" fill="#455A64"/>
<path d="M123.534 120.708C123.804 120.476 124.011 120.178 124.134 119.844C124.264 119.462 124.238 119.043 124.062 118.68C123.948 118.447 123.78 118.245 123.571 118.091C123.362 117.937 123.118 117.837 122.862 117.798L122.64 117.768L122.79 117.6C123.006 117.381 123.167 117.114 123.259 116.821C123.351 116.528 123.371 116.217 123.318 115.914C123.279 115.759 123.205 115.615 123.101 115.495C122.997 115.374 122.865 115.279 122.718 115.218C122.572 115.142 122.406 115.113 122.243 115.135C122.08 115.156 121.927 115.227 121.806 115.338L120.924 116.268L121.566 115.158C121.678 114.953 121.743 114.725 121.757 114.492C121.772 114.259 121.735 114.026 121.65 113.808C121.562 113.58 121.419 113.377 121.234 113.218C121.049 113.059 120.827 112.948 120.588 112.896C120.242 112.811 119.878 112.847 119.556 112.998L119.196 113.178L119.34 112.8C119.55 112.272 119.01 111.654 118.476 111.6C117.902 111.552 117.328 111.696 116.844 112.008L116.544 112.17L116.64 111.846C116.682 111.646 116.669 111.439 116.604 111.246C116.539 111.053 116.423 110.881 116.268 110.748C115.966 110.492 115.598 110.328 115.206 110.274C114.549 110.167 113.877 110.183 113.226 110.322C112.652 110.462 112.095 110.663 111.564 110.922C111.677 110.812 111.807 110.721 111.948 110.652C112.953 110.097 114.112 109.886 115.248 110.052C115.689 110.103 116.106 110.28 116.448 110.562C116.643 110.726 116.79 110.94 116.873 111.181C116.955 111.422 116.97 111.681 116.916 111.93L116.712 111.768C117.245 111.421 117.878 111.26 118.512 111.312C118.872 111.37 119.196 111.563 119.418 111.852C119.545 112 119.63 112.179 119.665 112.371C119.7 112.563 119.683 112.761 119.616 112.944L119.406 112.746C119.793 112.562 120.231 112.515 120.648 112.614C120.937 112.679 121.205 112.815 121.429 113.008C121.653 113.202 121.826 113.448 121.932 113.724C122.031 113.984 122.072 114.263 122.051 114.541C122.03 114.819 121.949 115.089 121.812 115.332L121.578 115.152C121.742 114.999 121.949 114.9 122.171 114.868C122.393 114.836 122.619 114.872 122.82 114.972C123.01 115.051 123.178 115.172 123.313 115.327C123.447 115.483 123.543 115.667 123.594 115.866C123.657 116.21 123.636 116.564 123.531 116.897C123.427 117.231 123.242 117.534 122.994 117.78L122.928 117.582C123.221 117.63 123.498 117.75 123.734 117.931C123.969 118.112 124.156 118.349 124.278 118.62C124.364 118.825 124.409 119.045 124.409 119.268C124.409 119.491 124.364 119.711 124.278 119.916C124.18 120.174 124.019 120.403 123.81 120.582C123.63 120.678 123.54 120.72 123.534 120.708Z" fill="#455A64"/>
<path d="M140.148 122.148C140.144 121.987 140.107 121.828 140.037 121.682C139.968 121.536 139.869 121.407 139.746 121.302C139.463 121.054 139.097 120.921 138.72 120.93C138.212 120.962 137.713 121.079 137.244 121.278L137.076 121.344V121.158C137.072 120.849 136.96 120.551 136.761 120.315C136.562 120.079 136.288 119.919 135.984 119.862C135.236 119.76 134.474 119.881 133.794 120.21L132.828 120.57L133.656 119.97C133.756 119.862 133.833 119.735 133.883 119.596C133.933 119.457 133.954 119.31 133.947 119.163C133.939 119.016 133.902 118.872 133.837 118.74C133.773 118.607 133.683 118.489 133.572 118.392C133.299 118.187 132.986 118.039 132.654 117.96C132.322 117.88 131.977 117.87 131.64 117.93H131.55L130.95 117.984L131.46 117.642C131.591 117.52 131.692 117.37 131.757 117.204C131.823 117.038 131.85 116.859 131.837 116.681C131.825 116.502 131.772 116.329 131.684 116.174C131.596 116.018 131.474 115.884 131.328 115.782C131.015 115.615 130.659 115.543 130.306 115.578C129.953 115.612 129.617 115.75 129.342 115.974L128.712 116.472L129.132 115.782C129.375 115.372 129.504 114.903 129.504 114.426C129.504 113.949 129.375 113.48 129.132 113.07C128.938 112.753 128.676 112.484 128.364 112.282C128.053 112.079 127.7 111.949 127.332 111.9C126.838 111.835 126.336 111.899 125.874 112.086C125.556 112.224 125.4 112.344 125.388 112.326C125.376 112.308 125.418 112.284 125.49 112.224C125.598 112.138 125.715 112.064 125.838 112.002C126.308 111.769 126.834 111.673 127.356 111.726C127.76 111.76 128.152 111.885 128.5 112.093C128.848 112.301 129.144 112.586 129.366 112.926C129.645 113.375 129.797 113.891 129.805 114.419C129.814 114.948 129.679 115.469 129.414 115.926L129.204 115.734C129.524 115.466 129.918 115.301 130.334 115.261C130.749 115.222 131.167 115.309 131.532 115.512C131.721 115.637 131.879 115.804 131.995 115.999C132.11 116.195 132.18 116.414 132.198 116.64C132.232 116.877 132.2 117.119 132.107 117.34C132.014 117.561 131.863 117.752 131.67 117.894L131.568 117.606H131.664C132.043 117.541 132.432 117.555 132.805 117.65C133.178 117.744 133.527 117.915 133.83 118.152C134.104 118.424 134.271 118.787 134.298 119.172C134.317 119.363 134.289 119.555 134.216 119.732C134.142 119.909 134.026 120.065 133.878 120.186L133.74 119.928C134.477 119.584 135.301 119.47 136.104 119.598C136.464 119.674 136.786 119.874 137.013 120.164C137.24 120.454 137.358 120.814 137.346 121.182L137.196 121.062C137.691 120.864 138.217 120.758 138.75 120.75C139.163 120.753 139.559 120.917 139.854 121.206C140.045 121.385 140.168 121.624 140.202 121.884C140.212 121.975 140.193 122.068 140.148 122.148Z" fill="#455A64"/>
<path d="M131.442 106.332C131.32 106.415 131.18 106.466 131.034 106.482C130.638 106.547 130.235 106.567 129.834 106.542C129.243 106.482 128.646 106.573 128.1 106.806C127.95 106.878 127.818 106.982 127.714 107.112C127.61 107.242 127.537 107.394 127.5 107.556C127.448 107.722 127.451 107.9 127.508 108.065C127.565 108.229 127.674 108.37 127.818 108.468L127.608 108.618C127.542 108.222 127.05 107.97 126.606 107.706C126.154 107.432 125.662 107.23 125.148 107.106C124.899 107.042 124.64 107.029 124.387 107.069C124.133 107.108 123.89 107.198 123.672 107.334C123.469 107.447 123.302 107.614 123.189 107.816C123.076 108.019 123.021 108.248 123.03 108.48L123.078 108.864L122.79 108.606C122.222 108.116 121.511 107.823 120.762 107.772C120.17 107.721 119.575 107.807 119.022 108.024C118.534 108.233 118.084 108.521 117.69 108.876C117.69 108.876 117.762 108.738 117.954 108.534C118.243 108.25 118.58 108.021 118.95 107.856C119.516 107.607 120.132 107.494 120.75 107.526C121.562 107.561 122.339 107.865 122.958 108.39L122.718 108.516C122.697 108.229 122.758 107.941 122.892 107.687C123.027 107.432 123.231 107.22 123.48 107.076C123.731 106.916 124.012 106.809 124.306 106.761C124.601 106.714 124.901 106.727 125.19 106.8C125.736 106.94 126.256 107.165 126.732 107.466C126.967 107.598 127.193 107.744 127.41 107.904C127.649 108.07 127.814 108.321 127.872 108.606L127.914 108.9L127.656 108.756C127.458 108.628 127.307 108.438 127.227 108.216C127.146 107.994 127.141 107.751 127.212 107.526C127.262 107.326 127.357 107.141 127.489 106.983C127.621 106.825 127.787 106.699 127.974 106.614C128.562 106.378 129.201 106.302 129.828 106.392C130.227 106.427 130.629 106.427 131.028 106.392C131.292 106.362 131.436 106.314 131.442 106.332Z" fill="#455A64"/>
<path d="M116.034 100.362C115.758 100.364 115.484 100.403 115.218 100.476C114.922 100.575 114.655 100.744 114.438 100.968C114.155 101.247 113.979 101.616 113.94 102.012V102.18L113.778 102.126C113.544 102.084 113.302 102.125 113.095 102.242C112.888 102.36 112.728 102.546 112.644 102.768C112.463 103.321 112.442 103.914 112.584 104.478L112.68 105.078L112.296 104.58L112.236 104.502C112.104 104.351 111.939 104.233 111.754 104.156C111.569 104.079 111.368 104.045 111.168 104.058C110.785 104.066 110.42 104.226 110.154 104.502C109.929 104.748 109.759 105.039 109.656 105.355C109.552 105.672 109.518 106.007 109.554 106.338C109.595 106.802 109.712 107.256 109.902 107.682C109.985 107.835 110.047 107.999 110.088 108.168C109.963 108.041 109.861 107.892 109.788 107.73C109.551 107.305 109.396 106.839 109.332 106.356C109.281 105.987 109.311 105.611 109.422 105.255C109.533 104.899 109.722 104.572 109.974 104.298C110.136 104.125 110.332 103.987 110.55 103.892C110.768 103.798 111.003 103.749 111.24 103.749C111.477 103.749 111.712 103.798 111.93 103.892C112.148 103.987 112.344 104.125 112.506 104.298L112.584 104.4L112.296 104.508C112.146 103.881 112.182 103.225 112.398 102.618C112.514 102.334 112.728 102.101 113.001 101.962C113.274 101.822 113.588 101.784 113.886 101.856L113.712 101.97C113.762 101.511 113.975 101.085 114.312 100.77C114.564 100.538 114.869 100.371 115.2 100.284C115.41 100.233 115.628 100.221 115.842 100.248C115.962 100.32 116.034 100.35 116.034 100.362Z" fill="#455A64"/>
<path d="M102.438 109.8C102.438 109.8 102.282 109.8 102.03 109.71C101.673 109.56 101.353 109.332 101.094 109.044C100.697 108.613 100.447 108.067 100.38 107.484C100.405 107.187 100.333 106.891 100.176 106.638C100.002 106.416 99.624 106.278 99.39 105.918C99.1764 105.583 99.0984 105.18 99.172 104.79C99.2455 104.399 99.4651 104.052 99.786 103.818V104.046C99.2069 103.541 98.753 102.908 98.46 102.198C98.3226 101.937 98.2486 101.647 98.244 101.352C98.3817 101.603 98.5058 101.862 98.616 102.126C98.9476 102.78 99.409 103.36 99.972 103.83L100.122 103.95L99.96 104.058C99.7109 104.254 99.5426 104.535 99.4873 104.847C99.4319 105.159 99.4934 105.48 99.66 105.75C99.816 106.014 100.158 106.134 100.422 106.44C100.622 106.741 100.713 107.101 100.68 107.46C100.73 107.99 100.939 108.492 101.28 108.9C101.607 109.269 101.999 109.575 102.438 109.8Z" fill="#455A64"/>
<path d="M98.436 112.536C98.3537 112.567 98.2656 112.579 98.178 112.572C97.9303 112.577 97.6828 112.555 97.44 112.506C96.5515 112.337 95.7436 111.879 95.142 111.204H95.34C94.9838 111.631 94.5057 111.939 93.9696 112.087C93.4334 112.235 92.8649 112.216 92.34 112.032C91.9205 111.915 91.5645 111.637 91.35 111.258C91.2983 111.111 91.2562 110.961 91.224 110.808C91.1897 110.695 91.1229 110.595 91.032 110.52C90.8146 110.369 90.5701 110.261 90.312 110.202C90.0265 110.141 89.7542 110.029 89.508 109.872C89.3743 109.795 89.2634 109.684 89.1865 109.55C89.1096 109.416 89.0694 109.264 89.07 109.11L89.268 109.242C88.6601 109.485 87.9854 109.502 87.366 109.29C86.8896 109.139 86.46 108.868 86.118 108.504C85.8964 108.274 85.7212 108.003 85.602 107.706C85.5538 107.603 85.5292 107.49 85.53 107.376C85.7081 107.749 85.9474 108.09 86.238 108.384C86.5779 108.703 86.9895 108.935 87.438 109.062C88.0018 109.236 88.6084 109.208 89.154 108.984L89.364 108.894V109.122C89.3681 109.228 89.4002 109.331 89.4571 109.421C89.5141 109.51 89.5937 109.583 89.688 109.632C89.9101 109.765 90.1538 109.859 90.408 109.908C90.7103 109.971 90.995 110.101 91.242 110.286C91.3801 110.398 91.4822 110.548 91.536 110.718C91.584 110.88 91.596 111.024 91.644 111.132C91.8333 111.423 92.1208 111.636 92.454 111.732C92.7852 111.847 93.1366 111.892 93.486 111.864C94.1241 111.813 94.7166 111.514 95.136 111.03L95.238 110.904L95.34 111.024C95.8975 111.675 96.6407 112.14 97.47 112.356C98.07 112.518 98.436 112.5 98.436 112.536Z" fill="#455A64"/>
<path d="M73.854 122.106C73.854 122.106 73.854 122.07 73.818 121.998C73.7881 121.892 73.77 121.784 73.764 121.674C73.7341 121.256 73.785 120.837 73.914 120.438C74.1136 119.822 74.394 119.235 74.748 118.692C74.9502 118.342 75.1831 118.011 75.444 117.702C75.596 117.531 75.7793 117.39 75.984 117.288C76.1014 117.226 76.2322 117.194 76.365 117.194C76.4978 117.194 76.6286 117.226 76.746 117.288L76.554 117.414C76.5136 117.006 76.5953 116.595 76.7888 116.234C76.9822 115.872 77.2786 115.576 77.6405 115.383C78.0023 115.19 78.4133 115.109 78.8213 115.151C79.2293 115.192 79.6158 115.353 79.932 115.614L79.68 115.734C79.6799 115.506 79.7343 115.282 79.8387 115.079C79.9431 114.877 80.0944 114.702 80.28 114.57C80.4697 114.431 80.6917 114.344 80.9249 114.315C81.1581 114.287 81.3946 114.319 81.612 114.408C81.8504 114.504 82.0579 114.664 82.212 114.87L81.93 114.978C81.9243 114.839 81.9506 114.701 82.0068 114.574C82.0629 114.447 82.1475 114.335 82.254 114.246C82.4515 114.073 82.7002 113.97 82.962 113.952C83.4277 113.952 83.886 114.069 84.294 114.294L84.102 114.354C84.4096 113.877 84.8884 113.535 85.44 113.4C85.9398 113.271 86.4642 113.271 86.964 113.4C87.8064 113.655 88.5996 114.05 89.31 114.57L89.148 114.708C89.1112 114.62 89.0973 114.525 89.1078 114.43C89.1183 114.336 89.1528 114.245 89.208 114.168C89.3118 114.039 89.4457 113.938 89.598 113.874C89.8574 113.757 90.1437 113.714 90.426 113.748C90.8557 113.815 91.2739 113.942 91.668 114.126C91.9155 114.24 92.1507 114.378 92.37 114.54C92.4495 114.59 92.5204 114.653 92.58 114.726C92.58 114.756 92.256 114.504 91.614 114.24C91.2305 114.08 90.8266 113.975 90.414 113.928C90.1646 113.908 89.9143 113.953 89.688 114.06C89.448 114.162 89.25 114.39 89.364 114.618L89.532 114.96L89.196 114.762C88.499 114.274 87.7268 113.903 86.91 113.664C86.453 113.55 85.975 113.55 85.518 113.664C85.0394 113.78 84.6231 114.074 84.354 114.486L84.282 114.6L84.162 114.546C83.7941 114.344 83.3817 114.237 82.962 114.234C82.59 114.234 82.182 114.57 82.218 114.93L82.266 115.476L81.936 115.032C81.8107 114.874 81.6477 114.75 81.462 114.672C81.2935 114.603 81.1102 114.579 80.9296 114.601C80.749 114.623 80.577 114.691 80.43 114.798C80.2875 114.902 80.1718 115.038 80.0925 115.196C80.0132 115.353 79.9725 115.528 79.974 115.704V116.04L79.716 115.824C79.4421 115.606 79.1106 115.473 78.762 115.44C78.4135 115.408 78.063 115.477 77.7536 115.641C77.4441 115.805 77.1891 116.055 77.0197 116.361C76.8504 116.668 76.774 117.017 76.8 117.366V117.624L76.584 117.492C76.248 117.294 75.846 117.57 75.582 117.846C75.3253 118.136 75.0963 118.449 74.898 118.782C74.5392 119.305 74.245 119.869 74.022 120.462C73.8534 120.993 73.7962 121.552 73.854 122.106Z" fill="#455A64"/>
<path d="M75.6 131.232C75.5425 131.17 75.4903 131.104 75.444 131.034C75.3104 130.841 75.1882 130.641 75.078 130.434C74.8993 130.081 74.8146 129.689 74.832 129.294C74.8576 129.042 74.9375 128.798 75.066 128.58C75.2216 128.327 75.4653 128.141 75.75 128.058L75.69 128.226C75.5254 127.982 75.4385 127.694 75.4406 127.4C75.4428 127.106 75.5339 126.819 75.702 126.577C75.8702 126.336 76.1074 126.151 76.3826 126.047C76.6579 125.943 76.9581 125.924 77.244 125.994L77.1 126.216C76.9574 126.011 76.8845 125.766 76.8921 125.516C76.8997 125.266 76.9873 125.026 77.142 124.83C77.3065 124.638 77.511 124.485 77.7412 124.382C77.9714 124.278 78.2216 124.226 78.474 124.23C78.732 124.23 78.972 124.26 79.17 124.23C79.2672 124.209 79.3576 124.164 79.433 124.099C79.5084 124.034 79.5665 123.951 79.602 123.858C79.7002 123.614 79.8358 123.388 80.004 123.186C80.1983 122.977 80.4551 122.836 80.736 122.784C81.2869 122.711 81.8441 122.697 82.398 122.742C82.6367 122.77 82.8786 122.75 83.1095 122.683C83.3403 122.616 83.5554 122.503 83.742 122.352C83.8949 122.16 84.0371 121.96 84.168 121.752C84.3336 121.539 84.5503 121.372 84.798 121.266C85.0308 121.167 85.2833 121.122 85.5361 121.136C85.7888 121.149 86.0351 121.22 86.256 121.344L86.076 121.536C85.9511 121.309 85.9001 121.049 85.9302 120.792C85.9603 120.535 86.0701 120.294 86.244 120.102C86.5395 119.759 86.9568 119.543 87.408 119.502C88.0977 119.459 88.7896 119.544 89.448 119.754C89.8638 119.877 90.2659 120.041 90.648 120.246C90.7924 120.306 90.9262 120.389 91.044 120.492C90.504 120.26 89.9511 120.06 89.388 119.892C88.7479 119.716 88.0818 119.653 87.42 119.706C87.0325 119.744 86.6742 119.929 86.418 120.222C86.2818 120.372 86.1959 120.561 86.1723 120.762C86.1486 120.963 86.1884 121.167 86.286 121.344L86.616 121.836L86.1 121.536C85.9164 121.438 85.7132 121.384 85.5055 121.375C85.2977 121.367 85.0908 121.405 84.9 121.488C84.7001 121.576 84.5265 121.715 84.396 121.89C84.2561 122.097 84.1059 122.298 83.946 122.49C83.7412 122.691 83.4864 122.834 83.208 122.904C82.9371 122.956 82.6619 122.983 82.386 122.982C81.8564 122.938 81.3236 122.948 80.796 123.012C80.5659 123.047 80.3544 123.159 80.196 123.33C80.0462 123.511 79.9248 123.713 79.836 123.93C79.7787 124.064 79.6899 124.182 79.577 124.274C79.4642 124.366 79.3307 124.429 79.188 124.458C78.9422 124.473 78.6958 124.473 78.45 124.458C78.2404 124.455 78.0327 124.497 77.8411 124.582C77.6495 124.667 77.4785 124.793 77.34 124.95C77.2233 125.096 77.1549 125.275 77.1442 125.462C77.1334 125.649 77.1809 125.835 77.28 125.994L77.526 126.312L77.136 126.21C76.8856 126.152 76.6234 126.173 76.3857 126.271C76.1481 126.369 75.9468 126.538 75.81 126.756C75.6931 126.951 75.6314 127.174 75.6314 127.401C75.6314 127.628 75.6931 127.851 75.81 128.046L75.894 128.178L75.744 128.214C75.5239 128.292 75.3311 128.432 75.1894 128.617C75.0477 128.802 74.9631 129.025 74.946 129.258C74.9132 129.626 74.9774 129.996 75.132 130.332C75.426 130.92 75.6 131.214 75.6 131.232Z" fill="#455A64"/>
<path d="M76.116 150.198C76.0102 150.185 75.9081 150.15 75.816 150.096C75.54 149.964 75.2963 149.774 75.102 149.538C74.7878 149.167 74.6044 148.703 74.58 148.218C74.5654 147.9 74.6142 147.583 74.7233 147.284C74.8325 146.985 75 146.711 75.216 146.478V146.646C74.8441 146.188 74.5686 145.659 74.406 145.092C74.3311 144.76 74.3562 144.414 74.478 144.096C74.5385 143.922 74.6358 143.764 74.7632 143.631C74.8905 143.499 75.045 143.395 75.216 143.328V143.598C74.9545 143.42 74.7446 143.175 74.6077 142.89C74.4707 142.604 74.4115 142.288 74.436 141.972C74.4518 141.611 74.5636 141.261 74.76 140.958C74.9549 140.666 75.2359 140.441 75.564 140.316C75.864 140.184 76.002 140.046 76.008 139.716C76.0206 139.402 76.0918 139.092 76.218 138.804C76.4834 138.29 76.8864 137.86 77.382 137.562C77.802 137.262 78.186 136.962 78.552 136.722C79.1206 136.301 79.7671 135.997 80.454 135.828C80.6514 135.789 80.853 135.775 81.054 135.786C81.186 135.786 81.252 135.786 81.252 135.816C81.252 135.846 80.976 135.816 80.508 135.948C79.8556 136.155 79.2458 136.478 78.708 136.902L77.568 137.772C77.1166 138.051 76.7511 138.45 76.512 138.924C76.4003 139.184 76.3412 139.463 76.338 139.746C76.3354 139.93 76.2745 140.109 76.164 140.256C76.0427 140.391 75.8931 140.497 75.726 140.568C75.4463 140.68 75.2065 140.872 75.0376 141.122C74.8686 141.371 74.7782 141.665 74.778 141.966C74.7553 142.223 74.7985 142.482 74.9035 142.719C75.0084 142.955 75.1717 143.16 75.378 143.316L75.648 143.484L75.348 143.592C75.0975 143.723 74.8988 143.935 74.7844 144.193C74.67 144.451 74.6466 144.741 74.718 145.014C74.8691 145.544 75.1218 146.039 75.462 146.472L75.522 146.562L75.444 146.634C75.0471 147.053 74.8315 147.611 74.844 148.188C74.8601 148.623 75.0111 149.042 75.276 149.388C75.5025 149.708 75.7875 149.983 76.116 150.198Z" fill="#455A64"/>
<path d="M85.866 142.092C85.7199 142.087 85.5758 142.056 85.44 142.002C84.4286 141.654 83.5919 140.927 83.106 139.974C82.8831 139.616 82.8078 139.186 82.896 138.774C82.9281 138.654 82.9877 138.544 83.0699 138.451C83.1522 138.358 83.2549 138.286 83.37 138.24C83.4945 138.18 83.6345 138.16 83.7709 138.183C83.9073 138.205 84.0334 138.269 84.132 138.366L83.898 138.51C83.7092 138.14 83.6341 137.723 83.682 137.31C83.7321 137.073 83.8637 136.86 84.054 136.71C84.1583 136.642 84.2763 136.597 84.3997 136.58C84.523 136.562 84.6488 136.572 84.768 136.608C84.9405 136.672 85.1245 136.698 85.308 136.686C85.422 136.65 85.446 136.506 85.434 136.272C85.4302 135.78 85.6198 135.306 85.962 134.952C86.222 134.662 86.5591 134.451 86.934 134.345C87.309 134.239 87.7064 134.241 88.08 134.352L87.876 134.538C87.7788 134.247 87.7576 133.936 87.8143 133.635C87.871 133.334 88.0038 133.052 88.2 132.816C88.3147 132.715 88.4493 132.64 88.595 132.594C88.7407 132.549 88.8944 132.534 89.046 132.552C89.1985 132.562 89.3449 132.615 89.4682 132.706C89.5915 132.796 89.6864 132.92 89.742 133.062L89.478 133.116C89.4356 132.323 89.6186 131.535 90.006 130.842C90.2966 130.311 90.6927 129.846 91.17 129.474C91.476 129.237 91.8157 129.047 92.178 128.91C92.3028 128.853 92.437 128.818 92.574 128.808C92.1081 129.016 91.6706 129.282 91.272 129.6C90.8303 129.975 90.4673 130.434 90.204 130.95C89.8568 131.61 89.699 132.354 89.748 133.098L89.82 134.226L89.484 133.152C89.364 132.78 88.716 132.72 88.404 133.032C88.2477 133.231 88.1448 133.467 88.1049 133.716C88.065 133.966 88.0894 134.222 88.176 134.46L88.248 134.736L87.978 134.646C87.6589 134.552 87.3196 134.552 87.0004 134.646C86.6813 134.739 86.3958 134.923 86.178 135.174C85.8919 135.468 85.7307 135.862 85.728 136.272C85.7473 136.395 85.7473 136.521 85.728 136.644C85.7075 136.719 85.6697 136.789 85.6176 136.847C85.5655 136.906 85.5006 136.951 85.428 136.98C85.1883 137.021 84.9421 136.998 84.714 136.914C84.637 136.883 84.5536 136.871 84.471 136.879C84.3884 136.888 84.3091 136.916 84.24 136.962C84.1085 137.063 84.0171 137.208 83.982 137.37C83.9402 137.725 84.0049 138.084 84.168 138.402L84.456 139.164L83.934 138.564C83.724 138.318 83.214 138.564 83.148 138.858C83.0793 139.208 83.1412 139.571 83.322 139.878C83.5879 140.433 83.9755 140.921 84.456 141.306C84.8901 141.628 85.3641 141.892 85.866 142.092Z" fill="#455A64"/>
<path d="M101.484 122.874C101.153 122.821 100.838 122.696 100.56 122.508C100.231 122.326 99.9449 122.077 99.72 121.776C99.5791 121.584 99.4796 121.365 99.428 121.133C99.3763 120.9 99.3736 120.66 99.42 120.426C99.4446 120.312 99.4872 120.203 99.546 120.102L99.612 120.312C99.4159 120.209 99.2452 120.063 99.1124 119.886C98.9796 119.708 98.8879 119.503 98.844 119.286C98.7756 118.935 98.8466 118.571 99.042 118.272C99.384 117.774 99.786 117.726 99.786 117.756C99.786 117.786 99.468 117.924 99.228 118.356C99.0863 118.614 99.0477 118.916 99.12 119.202C99.1586 119.375 99.2351 119.538 99.3441 119.678C99.453 119.818 99.5916 119.932 99.75 120.012L99.888 120.084L99.816 120.228C99.7743 120.306 99.7421 120.388 99.72 120.474C99.6508 120.865 99.7369 121.268 99.96 121.596C100.156 121.871 100.4 122.109 100.68 122.298C100.965 122.465 101.234 122.657 101.484 122.874Z" fill="#455A64"/>
<path d="M108.732 119.52C108.923 119.172 108.999 118.773 108.948 118.38C108.916 118.169 108.832 117.97 108.704 117.799C108.577 117.629 108.409 117.492 108.216 117.402C107.972 117.294 107.701 117.259 107.438 117.3C107.174 117.342 106.927 117.458 106.728 117.636L106.53 117.822L106.482 117.552C106.425 117.226 106.305 116.914 106.128 116.634C106.043 116.493 105.929 116.372 105.795 116.277C105.661 116.182 105.509 116.116 105.348 116.082C104.85 116.01 104.292 116.472 104.43 116.886L104.136 116.946C104.063 116.336 103.755 115.779 103.278 115.392C102.9 115.085 102.433 114.906 101.946 114.882C101.499 114.877 101.055 114.956 100.638 115.116C100.638 115.116 100.728 115.014 100.944 114.906C101.26 114.761 101.604 114.687 101.952 114.69C102.49 114.685 103.014 114.86 103.44 115.188C103.986 115.608 104.344 116.227 104.436 116.91L104.142 116.97C104.099 116.806 104.105 116.632 104.159 116.471C104.214 116.31 104.314 116.169 104.448 116.064C104.576 115.954 104.725 115.871 104.886 115.821C105.047 115.77 105.216 115.753 105.384 115.77C105.591 115.809 105.787 115.891 105.96 116.011C106.132 116.131 106.278 116.286 106.386 116.466C106.582 116.783 106.712 117.136 106.77 117.504L106.524 117.42C106.767 117.208 107.068 117.072 107.388 117.029C107.708 116.986 108.034 117.039 108.324 117.18C108.551 117.293 108.744 117.463 108.885 117.673C109.026 117.884 109.11 118.127 109.128 118.38C109.168 118.695 109.105 119.015 108.948 119.292C108.834 119.46 108.738 119.526 108.732 119.52Z" fill="#455A64"/>
<path d="M139.26 226.314L148.356 222.558C147.249 214.935 145.425 207.434 142.908 200.154C139.638 191.118 134.274 187.056 132.588 185.964V185.856L129.846 184.2L118.164 176.7C120.222 186.036 103.506 195.618 89.292 175.566L65.796 185.07L71.94 251.61L66.114 281.046L124.914 280.872V281.442L137.424 281.322L134.748 268.26C135.912 255.696 139.65 240.444 139.218 230.364C139.272 229.098 139.284 227.736 139.26 226.314Z" fill="#5351C0"/>
<path d="M136.626 252.48C136.698 252.325 136.756 252.165 136.8 252L137.142 250.626C137.292 250.026 137.466 249.3 137.634 248.442C137.802 247.584 138.024 246.642 138.198 245.532C138.372 244.422 138.588 243.264 138.75 241.98C138.912 240.696 139.08 239.328 139.236 237.882C139.494 234.99 139.674 231.798 139.674 228.444C139.674 225.09 139.44 221.898 139.2 219C139.038 217.554 138.9 216.18 138.702 214.902C138.504 213.624 138.33 212.436 138.102 211.356C137.874 210.276 137.706 209.304 137.502 208.446C137.298 207.588 137.16 206.862 137.004 206.268C136.848 205.674 136.746 205.236 136.656 204.894C136.622 204.732 136.574 204.574 136.512 204.42C136.528 204.586 136.556 204.75 136.596 204.912L136.884 206.292C137.022 206.892 137.178 207.624 137.334 208.482C137.49 209.34 137.7 210.282 137.862 211.392C138.024 212.502 138.234 213.66 138.39 214.938C138.546 216.216 138.708 217.59 138.858 219.03C139.11 221.916 139.29 225.096 139.308 228.444C139.326 231.792 139.134 234.972 138.894 237.858C138.744 239.298 138.624 240.672 138.438 241.95C138.252 243.228 138.102 244.416 137.922 245.496C137.742 246.576 137.562 247.554 137.406 248.412C137.25 249.27 137.1 250.002 136.968 250.602C136.836 251.202 136.752 251.64 136.686 251.982C136.654 252.146 136.634 252.313 136.626 252.48Z" fill="#263238"/>
<path d="M136.8 252C136.804 252.101 136.792 252.203 136.764 252.3C136.722 252.534 136.674 252.816 136.614 253.158C136.464 253.896 136.272 254.958 136.044 256.296C135.438 259.748 135.117 263.244 135.084 266.748C135.086 268.675 135.203 270.601 135.432 272.514C135.637 274.075 135.922 275.625 136.284 277.158C136.428 277.818 136.608 278.4 136.74 278.916C136.872 279.432 137.01 279.87 137.124 280.23C137.238 280.59 137.304 280.83 137.37 281.064C137.406 281.158 137.429 281.257 137.436 281.358C137.436 281.358 137.382 281.268 137.31 281.082L137.01 280.272C136.878 279.912 136.722 279.48 136.572 278.964C136.422 278.448 136.224 277.872 136.074 277.212C135.675 275.677 135.366 274.121 135.15 272.55C134.898 270.626 134.772 268.688 134.772 266.748C134.804 263.227 135.155 259.717 135.822 256.26C136.08 254.934 136.308 253.86 136.494 253.134C136.578 252.792 136.644 252.534 136.704 252.288C136.723 252.188 136.755 252.091 136.8 252Z" fill="#263238"/>
<path d="M42.384 231.72L54.438 197.232C54.438 197.232 57.6 187.068 67.2 184.56L74.028 219.054L70.86 237.924L42.384 231.72Z" fill="#5351C0"/>
<path d="M76.356 210C76.369 210.098 76.369 210.196 76.356 210.294C76.356 210.516 76.308 210.792 76.272 211.116C76.194 211.836 76.056 212.868 75.858 214.116C75.462 216.666 74.748 220.158 73.884 223.986C73.02 227.814 72.24 231.294 71.718 233.814C71.466 235.014 71.262 236.046 71.118 236.814L70.938 237.624C70.9252 237.722 70.8969 237.817 70.854 237.906C70.8407 237.808 70.8407 237.71 70.854 237.612C70.884 237.39 70.926 237.12 70.974 236.796C71.082 236.082 71.262 235.056 71.49 233.796C71.958 231.258 72.69 227.796 73.566 223.944C74.442 220.092 75.174 216.636 75.624 214.104C75.858 212.838 76.026 211.812 76.14 211.104C76.194 210.774 76.242 210.504 76.278 210.282C76.2894 210.185 76.3157 210.089 76.356 210Z" fill="#263238"/>
<path d="M120.732 178.8C120.744 178.952 120.744 179.104 120.732 179.256C120.732 179.406 120.732 179.592 120.684 179.808C120.636 180.024 120.606 180.282 120.558 180.558C120.51 180.834 120.402 181.158 120.306 181.476C120.179 181.834 120.033 182.184 119.868 182.526C119.468 183.36 118.944 184.129 118.314 184.806C116.632 186.537 114.581 187.866 112.314 188.694C109.561 189.77 106.576 190.116 103.65 189.696C100.72 189.303 97.908 188.29 95.4 186.726C93.3923 185.42 91.5491 183.877 89.91 182.13C88.799 180.968 87.7495 179.748 86.766 178.476C86.418 178.026 86.166 177.672 85.986 177.426C85.8911 177.306 85.8049 177.18 85.728 177.048C85.8424 177.15 85.945 177.265 86.034 177.39L86.862 178.398C87.588 179.274 88.662 180.534 90.072 181.998C91.7161 183.707 93.5546 185.217 95.55 186.498C98.0243 188.02 100.79 189.007 103.668 189.396C106.55 189.802 109.489 189.459 112.2 188.4C114.431 187.599 116.456 186.312 118.128 184.632C118.753 183.976 119.279 183.232 119.688 182.424C119.859 182.094 120.009 181.753 120.138 181.404C120.246 181.08 120.336 180.804 120.414 180.504C120.492 180.204 120.522 179.988 120.57 179.772C120.618 179.556 120.624 179.37 120.648 179.226C120.661 179.081 120.689 178.939 120.732 178.8Z" fill="#FAFAFA"/>
<g opacity="0.3">
<path opacity="0.3" d="M70.536 256.422C74.1 252.222 74.442 246.222 74.61 240.684C74.826 233.688 74.676 225.612 74.892 218.616C73.596 224.82 71.64 234.336 70.692 237.924C70.692 237.924 71.16 241.578 71.184 243.012C71.184 244.32 71.094 245.748 71.22 247.05C71.532 250.41 72.06 254.124 70.116 256.89" fill="black"/>
</g>
<path d="M137.706 211.542C137.66 211.572 137.609 211.594 137.556 211.608L137.1 211.752L135.354 212.292C134.592 212.532 133.662 212.808 132.564 213.09C131.466 213.372 130.236 213.738 128.844 214.044C127.452 214.35 125.946 214.728 124.302 215.034C122.658 215.34 120.9 215.664 119.04 215.976C115.32 216.54 111.21 217.014 106.872 217.266C102.534 217.518 98.394 217.488 94.632 217.338C92.754 217.236 90.966 217.152 89.304 216.984C87.642 216.816 86.088 216.666 84.678 216.486C83.268 216.306 81.99 216.108 80.874 215.946C79.758 215.784 78.798 215.604 78.018 215.448L76.218 215.094L75.75 214.992L75.594 214.95H75.756L76.23 215.022L78.03 215.316C78.81 215.454 79.77 215.616 80.892 215.76C82.014 215.904 83.292 216.12 84.69 216.258C86.088 216.396 87.648 216.594 89.31 216.714C90.972 216.834 92.76 216.942 94.632 217.038C98.382 217.17 102.516 217.17 106.842 216.942C111.168 216.714 115.242 216.222 118.986 215.676C120.84 215.376 122.586 215.076 124.236 214.77C125.886 214.464 127.398 214.128 128.784 213.816C130.17 213.504 131.412 213.18 132.51 212.91C133.608 212.64 134.544 212.382 135.306 212.166L137.07 211.68L137.532 211.56L137.706 211.542Z" fill="#FAFAFA"/>
<path d="M144.228 204.09C143.219 204.894 142.148 205.616 141.024 206.25C139.954 206.97 138.828 207.604 137.658 208.146C139.734 206.617 141.931 205.26 144.228 204.09Z" fill="#FAFAFA"/>
<path d="M75.726 213.312C75.3891 213.322 75.0519 213.304 74.718 213.258C74.076 213.204 73.146 213.102 72 212.946C66.0391 212.115 60.1982 210.578 54.6 208.368C53.526 207.942 52.668 207.576 52.08 207.306C51.7676 207.185 51.4665 207.036 51.18 206.862C51.5031 206.95 51.8199 207.061 52.128 207.192C52.728 207.432 53.598 207.762 54.678 208.164C56.838 208.962 59.862 209.964 63.258 210.876C66.654 211.788 69.792 212.358 72.066 212.724C73.206 212.91 74.124 213.048 74.766 213.138C75.0903 213.169 75.4115 213.227 75.726 213.312Z" fill="#FAFAFA"/>
<path d="M92.808 260.502L101.952 260.694C101.952 260.694 115.656 255.744 118.476 256.212C121.014 256.644 130.302 262.812 132.126 264.012C132.329 264.148 132.483 264.346 132.564 264.576C132.743 265.059 132.728 265.592 132.522 266.064C132.316 266.536 131.936 266.911 131.46 267.108L131.268 267.186L131.346 267.462C131.458 267.821 131.507 268.196 131.49 268.572C131.473 268.859 131.365 269.133 131.181 269.353C130.997 269.573 130.747 269.729 130.468 269.796C130.188 269.863 129.895 269.839 129.631 269.727C129.366 269.614 129.145 269.42 129 269.172L129.348 269.772C129.491 270.026 129.56 270.315 129.546 270.606L129.51 271.17C129.495 271.477 129.386 271.772 129.199 272.016C129.011 272.259 128.753 272.439 128.46 272.532C128.182 272.623 127.884 272.633 127.601 272.559C127.318 272.486 127.062 272.333 126.864 272.118C125.664 270.822 123.144 268.224 121.422 267.918C119.555 267.692 117.674 267.598 115.794 267.636C115.408 267.631 115.029 267.743 114.708 267.957C114.387 268.171 114.138 268.478 113.994 268.836C115.02 268.908 122.142 272.622 124.662 273.954C125.052 274.148 125.389 274.434 125.644 274.787C125.899 275.141 126.065 275.551 126.126 275.982C126.216 276.768 125.82 277.596 124.26 277.23C120.912 276.45 114.882 273.678 114.882 273.678C114.882 273.678 111.774 272.79 109.764 274.212C106.932 276.21 105.63 276.942 103.2 276.138C101.731 275.641 100.322 274.981 99 274.17L90.21 274.686C90.21 274.686 85.644 266.784 92.808 260.502Z" fill="#B78876"/>
<path d="M114 263.01C114.851 262.845 115.71 262.725 116.574 262.65C118.662 262.511 120.753 262.867 122.678 263.689C124.602 264.51 126.306 265.774 127.65 267.378C128.688 268.608 129.126 269.514 129.174 269.484C129.097 269.261 128.994 269.048 128.868 268.848C128.554 268.291 128.195 267.761 127.794 267.264C126.466 265.596 124.744 264.284 122.784 263.447C120.823 262.609 118.685 262.271 116.562 262.464C115.922 262.518 115.288 262.624 114.666 262.782C114.436 262.831 114.212 262.907 114 263.01Z" fill="#AA6550"/>
<path d="M115.428 259.68C116.297 259.415 117.196 259.257 118.104 259.212C120.309 259.208 122.47 259.828 124.338 261C126.191 262.192 127.882 263.62 129.366 265.248L130.74 266.712C130.897 266.904 131.074 267.079 131.268 267.234C131.136 267.021 130.985 266.821 130.818 266.634C130.512 266.268 130.068 265.746 129.498 265.116C128.042 263.432 126.351 261.967 124.476 260.766C122.567 259.575 120.347 258.976 118.098 259.044C117.423 259.074 116.755 259.195 116.112 259.404C115.937 259.461 115.765 259.527 115.596 259.602C115.482 259.638 115.422 259.674 115.428 259.68Z" fill="#AA6550"/>
<path d="M45.882 232.482C45.882 232.422 41.124 253.86 40.482 257.628C39.756 262.038 38.556 272.754 48.378 274.842C58.2 276.93 98.982 274.242 98.982 274.242L101.928 260.706L64.566 255.402L68.646 237.462L45.882 232.482Z" fill="#B78876"/>
<path d="M209.76 281.4H126.09L136.89 222.684C137.074 221.674 137.607 220.76 138.395 220.102C139.183 219.445 140.177 219.084 141.204 219.084H216.384C217.03 219.084 217.669 219.227 218.253 219.502C218.838 219.777 219.354 220.178 219.766 220.676C220.178 221.174 220.474 221.757 220.634 222.384C220.794 223.01 220.814 223.663 220.692 224.298L209.76 281.4Z" fill="#455A64"/>
<path d="M126.09 281.4H94.356L94.488 281.304C97.3177 279.179 100.737 277.984 104.274 277.884L126.966 277.2L126.09 281.4Z" fill="#455A64"/>
<path d="M146.19 219.138C146.19 219.138 145.956 219.096 145.512 219.09C144.865 219.099 144.228 219.257 143.652 219.552C142.741 220.015 141.972 220.716 141.426 221.58C140.735 222.749 140.271 224.037 140.058 225.378C139.782 226.86 139.542 228.51 139.248 230.268C138.954 232.026 138.648 233.91 138.252 235.878C137.526 239.826 136.662 244.152 135.72 248.688C133.83 257.754 132.084 265.956 130.92 271.914C130.32 274.914 129.9 277.314 129.6 278.976C129.45 279.792 129.336 280.44 129.252 280.902L129.15 281.4C129.141 281.457 129.127 281.513 129.108 281.568C129.101 281.51 129.101 281.452 129.108 281.394C129.108 281.262 129.15 281.094 129.174 280.89L129.468 278.958C129.732 277.278 130.146 274.86 130.668 271.872C131.754 265.902 133.47 257.688 135.36 248.622C136.302 244.092 137.16 239.766 137.916 235.824C138.294 233.856 138.624 231.978 138.936 230.226C139.248 228.474 139.494 226.83 139.788 225.33C140.016 223.968 140.503 222.663 141.222 221.484C141.797 220.606 142.6 219.901 143.544 219.444C144.139 219.153 144.796 219.011 145.458 219.03C145.706 219.03 145.953 219.067 146.19 219.138Z" fill="#263238"/>
<path d="M181.524 248.892C181.525 249.694 181.289 250.477 180.844 251.144C180.399 251.811 179.767 252.331 179.027 252.639C178.286 252.946 177.472 253.027 176.685 252.87C175.899 252.714 175.177 252.329 174.61 251.762C174.043 251.195 173.658 250.473 173.502 249.687C173.345 248.9 173.426 248.086 173.733 247.345C174.041 246.605 174.561 245.973 175.228 245.528C175.895 245.083 176.678 244.847 177.48 244.848C178.011 244.848 178.537 244.953 179.028 245.156C179.518 245.359 179.964 245.657 180.34 246.032C180.715 246.408 181.013 246.854 181.216 247.344C181.419 247.835 181.524 248.361 181.524 248.892Z" fill="#F5F5F5"/>
</svg>
