<svg width="40" height="40" viewBox="0 0 40 40" fill="none" xmlns="http://www.w3.org/2000/svg">
<path d="M12.8125 37.3125L17.1875 32.8125C15.625 32.5 14.1875 31.875 12.875 31L12.8125 37.3125ZM27.1875 2.6875L22.8125 7.1875C24.375 7.5 25.8125 8.125 27.125 9L27.1875 2.6875ZM2.6875 27.1875L9 27.125C8.125 25.8125 7.5 24.375 7.1875 22.8125L2.6875 27.1875ZM37.3125 12.8125L31 12.875C31.8125 14.1875 32.4375 15.625 32.8125 17.1875L37.3125 12.8125ZM2.6875 12.8125L7.1875 17.1875C7.5 15.625 8.125 14.1875 9 12.875L2.6875 12.8125ZM37.3125 27.1875L32.8125 22.8125C32.5 24.375 31.875 25.8125 31 27.125L37.3125 27.1875ZM12.8125 2.6875L12.875 9C14.1875 8.1875 15.625 7.5625 17.1875 7.1875L12.8125 2.6875ZM27.1875 37.3125L27.125 31C25.8125 31.875 24.375 32.5 22.8125 32.8125L27.1875 37.3125Z" fill="#FFE62E"/>
<path d="M9.25 27.5L6.75 33.3125L12.5625 30.8125C11.25 29.875 10.125 28.75 9.25 27.5ZM30.75 12.5L33.25 6.6875L27.5 9.1875C28.75 10.125 29.875 11.25 30.75 12.5ZM7.125 17.6875L1.25 20L7.125 22.3125C6.9375 21.5625 6.875 20.8125 6.875 20C6.875 19.1875 6.9375 18.4375 7.125 17.6875ZM32.875 22.3125L38.75 20L32.875 17.6875C33 18.4375 33.125 19.25 33.125 20C33.125 20.8125 33.0625 21.5625 32.875 22.3125ZM12.5 9.25L6.6875 6.75L9.1875 12.5625C10.125 11.25 11.25 10.125 12.5 9.25ZM27.5 30.75L33.3125 33.25L30.8125 27.4375C29.875 28.75 28.75 29.875 27.5 30.75ZM22.3125 7.125L20 1.25L17.6875 7.125C18.4375 7 19.25 6.875 20 6.875C20.75 6.875 21.5625 6.9375 22.3125 7.125ZM17.6875 32.875L20 38.75L22.3125 32.875C21.5625 33.0625 20.8125 33.125 20 33.125C19.1875 33.125 18.4375 33.0625 17.6875 32.875Z" fill="#FFCE31"/>
<path d="M20 31.875C26.5584 31.875 31.875 26.5584 31.875 20C31.875 13.4416 26.5584 8.125 20 8.125C13.4416 8.125 8.125 13.4416 8.125 20C8.125 26.5584 13.4416 31.875 20 31.875Z" fill="#FFCE31"/>
</svg>
